<svg viewBox="0 0 24 24" xmlns="http://www.w3.org/2000/svg" xmlns:xlink="http://www.w3.org/1999/xlink" width="24.000000" height="24.000000" fill="none">
	<defs>
		<linearGradient id="paint_linear_0" x1="1.49004364" x2="18.9900417" y1="9.49022675" y2="19.9902344" gradientUnits="userSpaceOnUse">
			<stop stop-color="rgb(68,209,255)" offset="0" stop-opacity="1" />
			<stop stop-color="rgb(164,121,255)" offset="0.474218428" stop-opacity="1" />
			<stop stop-color="rgb(255,131,161)" offset="1" stop-opacity="1" />
		</linearGradient>
	</defs>
	<rect id="icon_AI通话记录_dark" width="24.000000" height="24.000000" x="0.000000" y="0.000000" fill="rgb(0,0,0)" fill-opacity="0" />
	<path id="合并" d="M11.99 22.98C13.1172 22.98 14.1962 22.8222 15.2268 22.5067C16.0126 22.2662 16.7704 21.9339 17.5 21.51C19.1867 20.5233 20.5233 19.1867 21.51 17.5C21.9339 16.7704 22.2662 16.0126 22.5067 15.2268L22.5067 15.2268C22.8222 14.1962 22.98 13.1172 22.98 11.99C22.98 10.8628 22.8222 9.78382 22.5067 8.75316C22.2662 7.96736 21.9339 7.20964 21.51 6.48C21.0167 5.63667 20.4358 4.88085 19.7675 4.21252L19.7675 4.2125C19.0992 3.54417 18.3433 2.96333 17.5 2.47C16.7703 2.04605 16.0126 1.7138 15.2268 1.47325C14.1962 1.15775 13.1172 1 11.99 1C10.8903 1 9.83658 1.15218 8.82881 1.45654L8.8288 1.45654C8.01597 1.70203 7.23303 2.04651 6.48 2.49C5.61717 2.99474 4.84593 3.5902 4.16628 4.27638C3.51735 4.93155 2.95193 5.66942 2.47 6.49C2.05623 7.19932 1.72981 7.93597 1.49074 8.69996C1.16358 9.74545 1 10.8421 1 11.99C1 13.1379 1.16358 14.2345 1.49074 15.28C1.72981 16.044 2.05623 16.7807 2.47 17.49C2.95193 18.3106 3.51736 19.0485 4.16629 19.7036C4.84594 20.3898 5.61717 20.9853 6.48 21.49C7.23304 21.9335 8.01597 22.278 8.8288 22.5235C9.83658 22.8278 10.8903 22.98 11.99 22.98ZM2.89955 9.19691L2.89955 9.19689C3.10732 8.52032 3.39413 7.86802 3.76 7.24C4.18798 6.50198 4.69348 5.84147 5.27648 5.25847C5.84681 4.68813 6.49132 4.19198 7.21 3.77C7.82894 3.40825 8.47184 3.12317 9.1387 2.91478C10.0449 2.63159 10.9953 2.49 11.99 2.49C12.9491 2.49 13.8675 2.6237 14.7451 2.8911C15.4353 3.10138 16.1002 3.39435 16.74 3.77C17.47 4.19667 18.1242 4.69917 18.7025 5.2775C19.2808 5.85584 19.7833 6.51 20.21 7.24C20.5856 7.87978 20.8786 8.54475 21.0889 9.23492C21.3563 10.1125 21.49 11.0309 21.49 11.99C21.49 12.9491 21.3563 13.8675 21.0889 14.7451L21.0889 14.7451C20.8786 15.4353 20.5856 16.1002 20.21 16.74C19.7833 17.47 19.2808 18.1242 18.7025 18.7025L18.7025 18.7025C18.1241 19.2808 17.47 19.7833 16.74 20.21C16.1002 20.5856 15.4353 20.8786 14.7451 21.0889C13.8674 21.3563 12.9491 21.49 11.99 21.49C10.9953 21.49 10.0449 21.3484 9.13871 21.0652C8.47184 20.8568 7.82894 20.5718 7.21 20.21C6.49131 19.788 5.84681 19.2919 5.27647 18.7215L5.27645 18.7215C4.69346 18.1385 4.18798 17.478 3.76 16.74C3.39413 16.112 3.10732 15.4597 2.89955 14.7831C2.62652 13.894 2.49 12.963 2.49 11.99C2.49 11.017 2.62652 10.086 2.89955 9.19691ZM12.0203 3.99367C12.0593 4.00341 12.0958 4.04479 12.1299 4.11782C12.2809 4.79452 12.6047 5.38117 13.1015 5.87774C13.5983 6.37432 14.1876 6.69807 14.8695 6.84899C14.9133 6.8636 14.9474 6.89037 14.9718 6.92932C14.9961 6.96827 14.9961 7.00965 14.9718 7.05346C14.9474 7.09241 14.9133 7.11919 14.8695 7.13379C14.1779 7.27011 13.5861 7.58655 13.0942 8.08313C12.8676 8.31187 12.6772 8.56126 12.523 8.83132C12.3423 9.14754 12.2113 9.49209 12.1299 9.86496C12.1201 9.91365 12.0982 9.94773 12.0641 9.9672C12.0252 9.99154 11.9838 9.99641 11.9399 9.98181C11.8912 9.96233 11.8547 9.92339 11.8303 9.86496C11.7037 9.18826 11.3896 8.59918 10.8879 8.09773C10.621 7.82831 10.3271 7.61128 10.0064 7.44662C9.7244 7.30185 9.4216 7.19757 9.09801 7.13379C9.06392 7.13379 9.0347 7.11188 9.01034 7.06807C8.98599 7.02912 8.98356 6.9853 9.00304 6.93662C9.01765 6.89281 9.04931 6.8636 9.09801 6.84899C9.78962 6.69807 10.3862 6.37432 10.8879 5.87774C11.3896 5.38117 11.7037 4.79452 11.8303 4.11782C11.845 4.08374 11.8693 4.05209 11.9034 4.02288C11.9375 3.99367 11.9765 3.98394 12.0203 3.99367ZM12.9901 16.99C12.9901 17.5423 12.5423 17.99 11.9901 17.99C11.4378 17.99 10.9901 17.5423 10.9901 16.99L10.9901 11.99C10.9901 11.4377 11.4378 10.99 11.9901 10.99C12.5423 10.99 12.9901 11.4377 12.9901 11.99L12.9901 16.99Z" fill="url(#paint_linear_0)" fill-rule="evenodd" />
	<path id="合并" d="M11.99 22.98C13.1172 22.98 14.1962 22.8222 15.2268 22.5067C16.0126 22.2662 16.7704 21.9339 17.5 21.51C19.1867 20.5233 20.5233 19.1867 21.51 17.5C21.9339 16.7704 22.2662 16.0126 22.5067 15.2268L22.5067 15.2268C22.8222 14.1962 22.98 13.1172 22.98 11.99C22.98 10.8628 22.8222 9.78382 22.5067 8.75316C22.2662 7.96736 21.9339 7.20964 21.51 6.48C21.0167 5.63667 20.4358 4.88085 19.7675 4.21252L19.7675 4.2125C19.0992 3.54417 18.3433 2.96333 17.5 2.47C16.7703 2.04605 16.0126 1.7138 15.2268 1.47325C14.1962 1.15775 13.1172 1 11.99 1C10.8903 1 9.83658 1.15218 8.82881 1.45654L8.8288 1.45654C8.01597 1.70203 7.23303 2.04651 6.48 2.49C5.61717 2.99474 4.84593 3.5902 4.16628 4.27638C3.51735 4.93155 2.95193 5.66942 2.47 6.49C2.05623 7.19932 1.72981 7.93597 1.49074 8.69996C1.16358 9.74545 1 10.8421 1 11.99C1 13.1379 1.16358 14.2345 1.49074 15.28C1.72981 16.044 2.05623 16.7807 2.47 17.49C2.95193 18.3106 3.51736 19.0485 4.16629 19.7036C4.84594 20.3898 5.61717 20.9853 6.48 21.49C7.23304 21.9335 8.01597 22.278 8.8288 22.5235C9.83658 22.8278 10.8903 22.98 11.99 22.98ZM2.89955 9.19691L2.89955 9.19689C3.10732 8.52032 3.39413 7.86802 3.76 7.24C4.18798 6.50198 4.69348 5.84147 5.27648 5.25847C5.84681 4.68813 6.49132 4.19198 7.21 3.77C7.82894 3.40825 8.47184 3.12317 9.1387 2.91478C10.0449 2.63159 10.9953 2.49 11.99 2.49C12.9491 2.49 13.8675 2.6237 14.7451 2.8911C15.4353 3.10138 16.1002 3.39435 16.74 3.77C17.47 4.19667 18.1242 4.69917 18.7025 5.2775C19.2808 5.85584 19.7833 6.51 20.21 7.24C20.5856 7.87978 20.8786 8.54475 21.0889 9.23492C21.3563 10.1125 21.49 11.0309 21.49 11.99C21.49 12.9491 21.3563 13.8675 21.0889 14.7451L21.0889 14.7451C20.8786 15.4353 20.5856 16.1002 20.21 16.74C19.7833 17.47 19.2808 18.1242 18.7025 18.7025L18.7025 18.7025C18.1241 19.2808 17.47 19.7833 16.74 20.21C16.1002 20.5856 15.4353 20.8786 14.7451 21.0889C13.8674 21.3563 12.9491 21.49 11.99 21.49C10.9953 21.49 10.0449 21.3484 9.13871 21.0652C8.47184 20.8568 7.82894 20.5718 7.21 20.21C6.49131 19.788 5.84681 19.2919 5.27647 18.7215L5.27645 18.7215C4.69346 18.1385 4.18798 17.478 3.76 16.74C3.39413 16.112 3.10732 15.4597 2.89955 14.7831C2.62652 13.894 2.49 12.963 2.49 11.99C2.49 11.017 2.62652 10.086 2.89955 9.19691ZM12.0203 3.99367C12.0593 4.00341 12.0958 4.04479 12.1299 4.11782C12.2809 4.79452 12.6047 5.38117 13.1015 5.87774C13.5983 6.37432 14.1876 6.69807 14.8695 6.84899C14.9133 6.8636 14.9474 6.89037 14.9718 6.92932C14.9961 6.96827 14.9961 7.00965 14.9718 7.05346C14.9474 7.09241 14.9133 7.11919 14.8695 7.13379C14.1779 7.27011 13.5861 7.58655 13.0942 8.08313C12.8676 8.31187 12.6772 8.56126 12.523 8.83132C12.3423 9.14754 12.2113 9.49209 12.1299 9.86496C12.1201 9.91365 12.0982 9.94773 12.0641 9.9672C12.0252 9.99154 11.9838 9.99641 11.9399 9.98181C11.8912 9.96233 11.8547 9.92339 11.8303 9.86496C11.7037 9.18826 11.3896 8.59918 10.8879 8.09773C10.621 7.82831 10.3271 7.61128 10.0064 7.44662C9.7244 7.30185 9.4216 7.19757 9.09801 7.13379C9.06392 7.13379 9.0347 7.11188 9.01034 7.06807C8.98599 7.02912 8.98356 6.9853 9.00304 6.93662C9.01765 6.89281 9.04931 6.8636 9.09801 6.84899C9.78962 6.69807 10.3862 6.37432 10.8879 5.87774C11.3896 5.38117 11.7037 4.79452 11.8303 4.11782C11.845 4.08374 11.8693 4.05209 11.9034 4.02288C11.9375 3.99367 11.9765 3.98394 12.0203 3.99367ZM12.9901 16.99C12.9901 17.5423 12.5423 17.99 11.9901 17.99C11.4378 17.99 10.9901 17.5423 10.9901 16.99L10.9901 11.99C10.9901 11.4377 11.4378 10.99 11.9901 10.99C12.5423 10.99 12.9901 11.4377 12.9901 11.99L12.9901 16.99Z" fill="rgb(255,255,255)" fill-opacity="0" fill-rule="evenodd" />
</svg>
