<?xml version="1.0" encoding="UTF-8"?>
<svg width="110px" height="60px" viewBox="0 0 110 60" version="1.1" xmlns="http://www.w3.org/2000/svg" xmlns:xlink="http://www.w3.org/1999/xlink">
    <title>6</title>
    <g id="6" stroke="none" stroke-width="1" fill="none" fill-rule="evenodd">
        <g id="拨号盘双行文本备份-4" transform="translate(0.000000, -0.000000)">
            <rect id="Rectangle" x="0" y="0" width="110" height="60"></rect>
            <path d="M55.7,22.275 C56.8166667,22.275 57.8125,22.525 58.6875,23.025 C59.5625,23.525 60.2416667,24.2166667 60.725,25.1 C61.2083333,25.9833333 61.45,26.9833333 61.45,28.1 C61.45,29.25 61.1708333,30.2875 60.6125,31.2125 C60.0541667,32.1375 59.2916667,32.8583333 58.325,33.375 C57.3583333,33.8916667 56.3,34.15 55.15,34.15 C53.9666667,34.15 52.9,33.8916667 51.95,33.375 C51,32.8583333 50.25,32.1333333 49.7,31.2 C49.15,30.2666667 48.875,29.1916667 48.875,27.975 C48.875,27.0416667 49.0458333,26.1625 49.3875,25.3375 C49.7291667,24.5125 50.325,23.4333333 51.175,22.1 L55.25,15.525 L58.7,15.525 L55.075,21.25 C54.9083333,21.5166667 54.625,21.925 54.225,22.475 C54.725,22.3416667 55.2166667,22.275 55.7,22.275 Z M55.15,31.3 C56.0333333,31.3 56.7416667,31.0083333 57.275,30.425 C57.8083333,29.8416667 58.075,29.0833333 58.075,28.15 C58.075,27.2166667 57.8083333,26.4583333 57.275,25.875 C56.7416667,25.2916667 56.0333333,25 55.15,25 C54.25,25 53.5291667,25.2958333 52.9875,25.8875 C52.4458333,26.4791667 52.175,27.2416667 52.175,28.175 C52.175,29.1083333 52.45,29.8625 53,30.4375 C53.55,31.0125 54.2666667,31.3 55.15,31.3 Z" id="形状" fill-opacity="0.901960784" fill="#000000" fill-rule="nonzero"></path>
            <polygon id="路径" fill-opacity="0.4" fill="#000000" fill-rule="nonzero" points="50.205 43.02 50.935 43.02 50.935 50.34 50.065 50.34 50.065 44.76 47.755 48.45 47.225 48.45 44.895 44.74 44.895 50.34 44.035 50.34 44.035 43.02 44.815 43.02 47.515 47.37"></polygon>
            <polygon id="路径" fill-opacity="0.4" fill="#000000" fill-rule="nonzero" points="53.425 43.02 57.495 48.75 57.495 43.02 58.335 43.02 58.335 50.34 57.585 50.34 53.515 44.6 53.515 50.34 52.675 50.34 52.675 43.02"></polygon>
            <path d="M59.705,46.67 C59.705,45.9166667 59.8483333,45.2533333 60.135,44.68 C60.4216667,44.1066667 60.8166667,43.6666667 61.32,43.36 C61.8233333,43.0533333 62.3883333,42.9 63.015,42.9 C63.6416667,42.9 64.2066667,43.055 64.71,43.365 C65.2133333,43.675 65.6083333,44.115 65.895,44.685 C66.1816667,45.255 66.325,45.9166667 66.325,46.67 C66.325,47.43 66.18,48.095 65.89,48.665 C65.6,49.235 65.205,49.675 64.705,49.985 C64.205,50.295 63.6416667,50.45 63.015,50.45 C62.3883333,50.45 61.8233333,50.2966667 61.32,49.99 C60.8166667,49.6833333 60.4216667,49.2433333 60.135,48.67 C59.8483333,48.0966667 59.705,47.43 59.705,46.67 Z M60.645,46.67 C60.645,47.25 60.74,47.7633333 60.93,48.21 C61.12,48.6566667 61.395,49.005 61.755,49.255 C62.115,49.505 62.535,49.63 63.015,49.63 C63.495,49.63 63.9133333,49.505 64.27,49.255 C64.6266667,49.005 64.9016667,48.6566667 65.095,48.21 C65.2883333,47.7633333 65.385,47.25 65.385,46.67 C65.385,46.0833333 65.2883333,45.5666667 65.095,45.12 C64.9016667,44.6733333 64.6266667,44.3266667 64.27,44.08 C63.9133333,43.8333333 63.495,43.71 63.015,43.71 C62.535,43.71 62.1166667,43.8333333 61.76,44.08 C61.4033333,44.3266667 61.1283333,44.6733333 60.935,45.12 C60.7416667,45.5666667 60.645,46.0833333 60.645,46.67 Z" id="形状" fill-opacity="0.4" fill="#000000" fill-rule="nonzero"></path>
        </g>
    </g>
</svg>