<?xml version="1.0" encoding="UTF-8"?>
<!--
  - Copyright (c) Huawei Technologies Co., Ltd. 2024-2024. All rights reserved.
  -->

<svg width="32px" height="32px" viewBox="0 0 32 32" version="1.1" xmlns="http://www.w3.org/2000/svg" xmlns:xlink="http://www.w3.org/1999/xlink">
    <title>3</title>
    <g id="3" stroke="none" stroke-width="1" fill="none" fill-rule="evenodd">
        <rect id="矩形" x="0" y="0" width="32" height="32"></rect>
        <path d="M15.86,23.92 C16.78,23.92 17.62,23.75 18.38,23.41 C19.14,23.07 19.7433333,22.5733333 20.19,21.92 C20.6366667,21.2666667 20.86,20.4866667 20.86,19.58 C20.86,18.6866667 20.64,17.9366667 20.2,17.33 C19.76,16.7233333 19.1266667,16.2733333 18.3,15.98 C18.98,15.6733333 19.4933333,15.2433333 19.84,14.69 C20.1866667,14.1366667 20.36,13.4933333 20.36,12.76 C20.36,11.9733333 20.1733333,11.28 19.8,10.68 C19.4266667,10.08 18.9,9.61333333 18.22,9.28 C17.54,8.94666667 16.76,8.78 15.88,8.78 C14.72,8.78 13.7166667,9.06666667 12.87,9.64 C12.0233333,10.2133333 11.4333333,11.0533333 11.1,12.16 L11.1,12.16 L13.04,13.28 C13.28,12.56 13.6233333,12.0066667 14.07,11.62 C14.5166667,11.2333333 15.0533333,11.04 15.68,11.04 C16.2666667,11.04 16.7433333,11.21 17.11,11.55 C17.4766667,11.89 17.66,12.3466667 17.66,12.92 C17.66,13.5333333 17.44,14.0433333 17,14.45 C16.56,14.8566667 15.92,15.06 15.08,15.06 L15.08,15.06 L14.34,15.06 L14.32,17.18 L14.88,17.18 C17.08,17.18 18.18,17.9266667 18.18,19.42 C18.18,20.1133333 17.9533333,20.66 17.5,21.06 C17.0466667,21.46 16.4866667,21.66 15.82,21.66 C15.18,21.66 14.59,21.47 14.05,21.09 C13.51,20.71 13.1333333,20.16 12.92,19.44 L12.92,19.44 L10.9,20.6 C11.2466667,21.68 11.87,22.5033333 12.77,23.07 C13.67,23.6366667 14.7,23.92 15.86,23.92 Z" fill-opacity="0.901795714" fill="#000000" fill-rule="nonzero"></path>
    </g>
</svg>