<svg viewBox="0 0 109 60" xmlns="http://www.w3.org/2000/svg" xmlns:xlink="http://www.w3.org/1999/xlink" width="109px" height="60px" fill="none" customFrame="#000000">
<g id="星号按压态">
		<rect id="Rectangle" width="109" height="60" x="0" y="0" />
		<circle id="椭圆 1" cx="54.5" cy="30" r="28" fill="rgb(0,0,0)" fill-opacity="0.100000001" />
		<path id="*" d="M58.58 27.93L61.04 26.07L57.08 20.61L63.62 18.33L62.42 15.45L56 17.85L56 11.07L52.82 11.07L52.82 17.85L46.46 15.45L45.38 18.33L51.74 20.61L47.84 26.07L50.54 27.93L54.44 22.17L58.58 27.93Z" fill="rgb(0,0,0)" fill-opacity="0.899999976" fill-rule="nonzero" />
		<g id=",">
			<path id="矢量 5" d="M54.9414 48.6152C55.1627 48.2854 55.2734 47.8812 55.2734 47.4028C55.2734 47.0259 55.2012 46.7476 55.0566 46.5679C54.9878 46.4812 54.9086 46.4154 54.8188 46.3705C54.7226 46.3224 54.6144 46.2983 54.4941 46.2983C54.3838 46.2983 54.2845 46.3204 54.1962 46.3645C54.1314 46.397 54.0725 46.4413 54.0195 46.4976C53.9831 46.5363 53.9521 46.578 53.9265 46.6229C53.8655 46.7297 53.835 46.8539 53.835 46.9956C53.835 47.1215 53.8599 47.2351 53.9097 47.3365C53.9356 47.3892 53.9684 47.4387 54.0078 47.4849C54.0497 47.5337 54.0967 47.5738 54.1491 47.6052C54.2432 47.6617 54.3544 47.6899 54.4824 47.6899C54.5293 47.6899 54.5654 47.686 54.5908 47.6782C54.5725 48.0135 54.4765 48.2818 54.3029 48.4832C54.162 48.6467 53.9699 48.766 53.7266 48.8413L53.7266 49.4067C53.9958 49.3556 54.2347 49.2595 54.4432 49.1185C54.5931 49.0171 54.7273 48.8925 54.8457 48.7446C54.8796 48.7028 54.9115 48.6597 54.9414 48.6152Z" fill="rgb(0,0,0)" fill-opacity="0.400000006" fill-rule="evenodd" />
		</g>
	</g>
</svg>
