<svg viewBox="0 0 110 60" xmlns="http://www.w3.org/2000/svg" xmlns:xlink="http://www.w3.org/1999/xlink" width="110px" height="60px" fill="none" customFrame="#000000" >
    <g id="阿语9按压态">
		<rect id="Rectangle" width="110" height="60" x="0" y="0" />
		<circle id="椭圆 1" cx="55" cy="30" r="28" fill="rgb(0,0,0)" fill-opacity="0.100000001" />
		<path id="٩" d="M59.0687 27.5425C59.1666 27.5802 59.5509 26.2804 60.2215 23.6433C59.9578 23.3042 59.728 23.0066 59.5321 22.7504C59.1252 22.0874 58.7937 21.3151 58.5375 20.4335C58.1457 19.2205 57.931 17.8491 57.8933 16.3196C57.7577 11.8666 56.7781 9.55348 54.9548 9.38018C54.0129 9.28223 52.9788 10.0847 51.8524 11.7875C50.7259 13.4903 50.1627 15.0274 50.1627 16.3987C50.1627 16.5946 50.1872 16.8602 50.2362 17.1955C50.2852 17.5308 50.5734 17.9245 51.1008 18.3766C51.7111 18.8814 52.3779 19.2167 53.1012 19.3824C53.8246 19.5482 54.5404 19.6424 55.2486 19.665L55.9832 19.6989C56.3901 22.2682 56.9967 24.3252 57.8029 25.8698C58.368 26.9472 58.7899 27.5048 59.0687 27.5425ZM55.3955 15.811C55.0414 15.811 54.5159 15.6547 53.8189 15.342C53.122 15.0293 52.7433 14.7938 52.6831 14.6356C52.6303 14.4397 52.7848 14.1082 53.1464 13.641C53.5081 13.1739 53.8057 12.9591 54.0393 12.9968C54.5667 13.0722 54.9868 13.5469 55.2995 14.4209C55.6122 15.2949 55.712 15.7507 55.599 15.7884C55.5387 15.8035 55.4709 15.811 55.3955 15.811Z" fill="rgb(0,0,0)" fill-opacity="0.899999976" fill-rule="nonzero" />
		<path id="WXYZ" d="M46.24 51.272L47.616 46.736L49.056 51.272L49.624 51.272L51.392 45.416L50.704 45.416L49.376 50.096L47.936 45.408L47.336 45.408L46 50.096L44.56 45.416L43.808 45.416L45.68 51.272L46.24 51.272ZM52.384 51.272L54.064 48.88L55.76 51.272L56.632 51.272L54.504 48.304L56.576 45.416L55.752 45.416L54.128 47.744L52.496 45.416L51.616 45.416L53.688 48.312L51.56 51.272L52.384 51.272ZM59.592 51.272L59.592 48.792L61.6 45.408L60.824 45.408L59.28 48.072L57.632 45.408L56.784 45.408L58.88 48.768L58.88 51.272L59.592 51.272ZM66.088 51.272L66.088 50.632L62.84 50.632L65.976 45.76L65.976 45.416L62.096 45.416L62.096 46.048L64.992 46.048L61.856 50.92L61.856 51.272L66.088 51.272Z" fill="rgb(0,0,0)" fill-opacity="0.400000006" fill-rule="nonzero" />
		<path id="طظعغ" d="M67.4009 38.6383C67.5914 38.6383 67.6866 38.5612 67.6866 38.4069L67.6866 37.8571C67.6866 37.4497 67.6191 37.1688 67.4841 37.0145C67.3901 36.9036 67.1285 36.7565 66.6993 36.5732C66.6052 36.5322 66.5076 36.5117 66.4063 36.5117C66.1001 36.5117 65.7373 36.6709 65.3177 36.9891C64.9778 37.2471 64.7933 37.4099 64.7644 37.4774L64.7644 34.9891L65.0682 34.3888L64.7282 34.0307L64.6703 33.2857L64.1749 33.9042L64.3412 34.6673L64.3412 37.7414C64.1315 37.8909 63.7831 37.9656 63.296 37.9656C63.1321 37.9656 63.0175 37.9584 62.9524 37.9439L63.1875 38.6383L67.4009 38.6383ZM66.0638 38.0192L65.7229 38.0194C65.1779 38.0157 64.9054 37.9918 64.9054 37.9476C64.9054 37.8487 65.0682 37.7016 65.3937 37.5063C65.7216 37.311 65.9506 37.2134 66.0808 37.2134C66.3099 37.2134 66.5558 37.2652 66.8186 37.3689C67.1514 37.5015 67.3177 37.6643 67.3177 37.8571C67.3177 37.9656 66.8379 38.0199 65.8783 38.0199L66.0638 38.0192ZM60.4669 38.6383C60.6574 38.6383 60.7527 38.5612 60.7527 38.4069L60.7527 37.8571C60.7527 37.4497 60.6852 37.1688 60.5501 37.0145C60.4561 36.9036 60.1945 36.7565 59.7653 36.5732C59.6713 36.5322 59.5736 36.5117 59.4724 36.5117C59.1662 36.5117 58.8033 36.6709 58.3838 36.9891C58.0438 37.2471 57.8594 37.4099 57.8304 37.4774L57.8304 34.9891L58.1342 34.3888L57.7943 34.0307L57.7364 33.2857L57.2409 33.9042L57.4073 34.6673L57.4073 37.7414C57.1975 37.8909 56.8491 37.9656 56.3621 37.9656C56.1981 37.9656 56.0836 37.9584 56.0185 37.9439L56.2536 38.6383L60.4669 38.6383ZM59.6387 35.7595L59.9715 35.1917L59.1396 34.7179L58.825 35.2857L59.6387 35.7595ZM59.1299 38.0192L58.789 38.0194C58.244 38.0157 57.9715 37.9918 57.9715 37.9476C57.9715 37.8487 58.1342 37.7016 58.4597 37.5063C58.7876 37.311 59.0167 37.2134 59.1469 37.2134C59.3759 37.2134 59.6219 37.2652 59.8847 37.3689C60.2174 37.5015 60.3838 37.6643 60.3838 37.8571C60.3838 37.9656 59.904 38.0199 58.9443 38.0199L59.1299 38.0192ZM51.0194 40.519C51.4534 40.519 51.9055 40.4358 52.3757 40.2694C52.9326 40.0741 53.2919 39.8162 53.4534 39.4955C53.3835 39.5799 53.064 39.6558 52.495 39.7233C52.2563 39.7523 52.0472 39.7728 51.8675 39.7848C51.6879 39.7969 51.5342 39.8029 51.4064 39.8029C50.36 39.8029 49.7813 39.5594 49.6704 39.0723C49.6367 38.9204 49.6198 38.7661 49.6198 38.6094C49.6198 37.6908 50.1864 36.9204 51.3196 36.2984C51.6596 36.1103 51.8766 36.0163 51.9706 36.0163L51.9959 36.0163L52.1297 35.2749C51.9417 35.3713 51.7952 35.446 51.6903 35.4991C51.5854 35.5521 51.5197 35.5859 51.4932 35.6004C51.2111 35.7378 50.9857 35.8065 50.8169 35.8065C50.747 35.8065 50.6704 35.792 50.5872 35.7631C50.5041 35.7342 50.4275 35.6956 50.3576 35.6474C50.2877 35.5992 50.2292 35.5437 50.1822 35.481C50.1352 35.4183 50.1117 35.3544 50.1117 35.2893C50.1117 35.2242 50.1358 35.1621 50.184 35.1031C50.2322 35.044 50.2949 34.9922 50.372 34.9476C50.4492 34.903 50.5342 34.868 50.627 34.8427C50.7198 34.8174 50.8121 34.8047 50.9037 34.8047C51.1352 34.8047 51.3293 34.8433 51.486 34.9204C51.4956 34.9204 51.5016 34.9144 51.5041 34.9023C51.5041 34.8252 51.4757 34.745 51.4191 34.6618C51.3624 34.5787 51.2925 34.5015 51.2093 34.4304C51.1261 34.3592 51.0381 34.3014 50.9453 34.2568C50.8525 34.2122 50.7687 34.1899 50.6939 34.1899C50.4359 34.1899 50.1936 34.3635 49.967 34.7107C49.762 35.0265 49.6596 35.3219 49.6596 35.5967C49.6596 35.997 49.8693 36.2658 50.2889 36.4033C50.2455 36.4298 50.1954 36.4738 50.1388 36.5353C50.0821 36.5967 50.0212 36.6781 49.9561 36.7794C49.7319 37.1435 49.5565 37.4997 49.4299 37.8481C49.3033 38.1965 49.24 38.5178 49.24 38.8119C49.24 39.0651 49.2822 39.296 49.3666 39.5045C49.451 39.7131 49.5716 39.8927 49.7283 40.0434C49.885 40.1941 50.0725 40.311 50.2907 40.3942C50.5089 40.4774 50.7518 40.519 51.0194 40.519ZM43.3079 33.9367L43.6334 33.3906L42.9462 33.0579L42.6388 33.6076L43.3079 33.9367ZM44.1867 40.519C44.6207 40.519 45.0728 40.4358 45.543 40.2694C46.0999 40.0741 46.4592 39.8162 46.6207 39.4955C46.5508 39.5799 46.2313 39.6558 45.6623 39.7233C45.4236 39.7523 45.2145 39.7728 45.0348 39.7848C44.8552 39.7969 44.7015 39.8029 44.5737 39.8029C43.5273 39.8029 42.9486 39.5594 42.8377 39.0723C42.804 38.9204 42.7871 38.7661 42.7871 38.6094C42.7871 37.6908 43.3537 36.9204 44.4869 36.2984C44.8269 36.1103 45.0439 36.0139 45.1379 36.009L45.1632 35.9982L45.297 35.2749C45.109 35.3713 44.9625 35.446 44.8576 35.4991C44.7527 35.5521 44.687 35.5859 44.6605 35.6004C44.3784 35.7378 44.153 35.8065 43.9842 35.8065C43.9143 35.8065 43.8377 35.792 43.7545 35.7631C43.6714 35.7342 43.5948 35.6956 43.5249 35.6474C43.455 35.5992 43.3965 35.5437 43.3495 35.481C43.3025 35.4183 43.279 35.3544 43.279 35.2893C43.279 35.2242 43.3031 35.1621 43.3513 35.1031C43.3995 35.044 43.4622 34.9922 43.5394 34.9476C43.6165 34.903 43.7015 34.868 43.7943 34.8427C43.8872 34.8174 43.9794 34.8047 44.071 34.8047C44.3025 34.8047 44.4966 34.8433 44.6533 34.9204C44.6629 34.9204 44.6689 34.9144 44.6714 34.9023C44.6714 34.8252 44.643 34.745 44.5864 34.6618C44.5297 34.5787 44.4598 34.5075 44.3766 34.4485C44.2934 34.3894 44.2054 34.3375 44.1126 34.2929C44.0198 34.2483 43.936 34.226 43.8612 34.226C43.6032 34.226 43.3609 34.3876 43.1343 34.7107C42.9293 35.0265 42.8269 35.3219 42.8269 35.5967C42.8269 35.997 43.0366 36.2658 43.4562 36.4033C43.4128 36.437 43.3627 36.4834 43.3061 36.5425C43.2494 36.6016 43.1488 36.7468 43.0041 36.9783C42.8594 37.2098 42.7238 37.4997 42.5972 37.8481C42.4706 38.1965 42.4073 38.5178 42.4073 38.8119C42.4073 39.0651 42.4495 39.296 42.5339 39.5045C42.6183 39.7131 42.7389 39.8927 42.8956 40.0434C43.0523 40.1941 43.2398 40.311 43.458 40.3942C43.6762 40.4774 43.9191 40.519 44.1867 40.519Z" fill="rgb(0,0,0)" fill-opacity="0.400000006" fill-rule="nonzero" />
	</g>
</svg>
