<?xml version="1.0" encoding="UTF-8"?>
<svg width="110px" height="60px" viewBox="0 0 110 60" version="1.1" xmlns="http://www.w3.org/2000/svg" xmlns:xlink="http://www.w3.org/1999/xlink">
    <title>井号</title>
    <g id="井号" stroke="none" stroke-width="1" fill="none" fill-rule="evenodd">
        <g id="编组">
            <rect id="Rectangle" x="0" y="0" width="110" height="60"></rect>
            <g id="(W)" transform="translate(47.420000, 42.190000)" fill="#000000" fill-opacity="0.399649667" fill-rule="nonzero">
                <path d="M0,4.63 C0,3.69 0.156666667,2.82166667 0.47,2.025 C0.783333333,1.22833333 1.21333333,0.553333333 1.76,0 L2.57,0 C2.03,0.653333333 1.615,1.35833333 1.325,2.115 C1.035,2.87166667 0.89,3.71 0.89,4.63 C0.89,5.55666667 1.035,6.4 1.325,7.16 C1.615,7.92 2.03,8.62 2.57,9.26 L1.76,9.26 C1.21333333,8.70666667 0.783333333,8.03333333 0.47,7.24 C0.156666667,6.44666667 0,5.57666667 0,4.63 Z" id="路径"></path>
                <polygon id="路径" points="8 0.82 9.8 6.68 11.46 0.83 12.32 0.83 10.11 8.15 9.4 8.15 7.6 2.48 5.88 8.15 5.18 8.15 2.84 0.83 3.78 0.83 5.58 6.68 7.25 0.82"></polygon>
                <path d="M15.16,4.63 C15.16,5.57666667 15.0033333,6.44666667 14.69,7.24 C14.3766667,8.03333333 13.9466667,8.70666667 13.4,9.26 L12.59,9.26 C13.13,8.62 13.545,7.92 13.835,7.16 C14.125,6.4 14.27,5.55666667 14.27,4.63 C14.27,3.71 14.125,2.87166667 13.835,2.115 C13.545,1.35833333 13.13,0.653333333 12.59,0 L13.4,0 C13.9466667,0.553333333 14.3766667,1.22833333 14.69,2.025 C15.0033333,2.82166667 15.16,3.69 15.16,4.63 Z" id="路径"></path>
            </g>
            <path d="M50.65008,14.65 L53.10008,14.65 L53.098,19.025 L56.9,19.025 L56.9,14.65 L59.35,14.65 L59.35,19.025 L63.725,19.025 L63.725,21.475 L59.35,21.475 L59.35,25.275 L63.725,25.275 L63.725,27.725 L59.35,27.725 L59.35,32.1 L56.9,32.1 L56.9,27.725 L53.1,27.725 L53.1,32.1 L50.65,32.1 L50.65,27.725 L46.275,27.725 L46.275,25.275 L50.649,25.275 L50.649,21.475 L46.275,21.475 L46.275,19.025 L50.649,19.025 L50.65008,14.65 Z M56.9,21.475 L53.099,21.475 L53.099,25.275 L56.9,25.275 L56.9,21.475 Z" id="形状结合" fill-opacity="0.901960784" fill="#000000"></path>
        </g>
    </g>
</svg>