<?xml version="1.0" encoding="UTF-8"?>
<svg width="110px" height="60px" viewBox="0 0 110 60" version="1.1" xmlns="http://www.w3.org/2000/svg" xmlns:xlink="http://www.w3.org/1999/xlink">
    <title>9备份</title>
    <g id="9备份" stroke="none" stroke-width="1" fill="none" fill-rule="evenodd">
        <circle id="椭圆形" fill-opacity="0.101960784" fill="#000000" cx="55" cy="30" r="28"></circle>
        <g id="拨号盘双行文本备份-7" transform="translate(0.000000, 0.000000)">
            <rect id="Rectangle" x="0" y="0" width="110" height="60"></rect>
            <path d="M54.9,15.2 C56.0833333,15.2 57.15,15.4583333 58.1,15.975 C59.05,16.4916667 59.8,17.2166667 60.35,18.15 C60.9,19.0833333 61.175,20.1583333 61.175,21.375 C61.175,22.3083333 61.0041667,23.1875 60.6625,24.0125 C60.3208333,24.8375 59.725,25.9166667 58.875,27.25 L54.8,33.825 L51.325,33.825 L54.975,28.1 C55.1416667,27.8333333 55.425,27.425 55.825,26.875 C55.325,27.0083333 54.8333333,27.075 54.35,27.075 C53.2333333,27.075 52.2375,26.825 51.3625,26.325 C50.4875,25.825 49.8083333,25.1333333 49.325,24.25 C48.8416667,23.3666667 48.6,22.3666667 48.6,21.25 C48.6,20.1 48.8791667,19.0625 49.4375,18.1375 C49.9958333,17.2125 50.7583333,16.4916667 51.725,15.975 C52.6916667,15.4583333 53.75,15.2 54.9,15.2 Z M54.9,24.35 C55.7833333,24.35 56.4958333,24.0541667 57.0375,23.4625 C57.5791667,22.8708333 57.85,22.1083333 57.85,21.175 C57.85,20.2416667 57.5791667,19.4875 57.0375,18.9125 C56.4958333,18.3375 55.7833333,18.05 54.9,18.05 C54.0166667,18.05 53.3083333,18.3416667 52.775,18.925 C52.2416667,19.5083333 51.975,20.2666667 51.975,21.2 C51.975,22.1333333 52.2416667,22.8916667 52.775,23.475 C53.3083333,24.0583333 54.0166667,24.35 54.9,24.35 Z" id="形状" fill-opacity="0.901960784" fill="#000000" fill-rule="nonzero"></path>
            <polygon id="路径" fill-opacity="0.4" fill="#000000" fill-rule="nonzero" points="46.17 43.01 47.97 48.87 49.63 43.02 50.49 43.02 48.28 50.34 47.57 50.34 45.77 44.67 44.05 50.34 43.35 50.34 41.01 43.02 41.95 43.02 43.75 48.87 45.42 43.01"></polygon>
            <polygon id="路径" fill-opacity="0.4" fill="#000000" fill-rule="nonzero" points="56.97 43.02 54.38 46.63 57.04 50.34 55.95 50.34 53.83 47.35 51.73 50.34 50.7 50.34 53.36 46.64 50.77 43.02 51.87 43.02 53.91 45.93 55.94 43.02"></polygon>
            <polygon id="路径" fill-opacity="0.4" fill="#000000" fill-rule="nonzero" points="60.35 46.34 62.28 43.01 63.25 43.01 60.74 47.24 60.74 50.34 59.85 50.34 59.85 47.21 57.23 43.01 58.29 43.01"></polygon>
            <polygon id="路径" fill-opacity="0.4" fill="#000000" fill-rule="nonzero" points="68.72 43.02 68.72 43.45 64.8 49.54 68.86 49.54 68.86 50.34 63.57 50.34 63.57 49.9 67.49 43.81 63.87 43.81 63.87 43.02"></polygon>
        </g>
    </g>
</svg>