<svg viewBox="0 0 109 60" xmlns="http://www.w3.org/2000/svg" xmlns:xlink="http://www.w3.org/1999/xlink" width="109px" height="60px" fill="none" customFrame="#000000">
<g id="阿语7按压态">
		<rect id="Rectangle" width="109" height="60" x="0" y="0" />
		<circle id="椭圆 1" cx="54.5" cy="30" r="28" fill="rgb(0,0,0)" fill-opacity="0.100000001" />
		<path id="٧" d="M54.6244 26.5592C55.83 22.7542 56.898 19.7742 57.8285 17.6193C58.7591 15.4644 59.7668 13.8181 60.8518 12.6804L60.3771 9.51581C58.5161 11.294 56.7454 15.0613 55.0652 20.8178C53.1363 15.0764 51.3092 11.456 49.5837 9.95659L48.1597 13.5506C48.9809 14.4698 49.7702 15.504 50.5274 16.653C51.2847 17.8021 51.9967 19.3014 52.6635 21.1512C53.3303 23.001 53.984 24.8036 54.6244 26.5592Z" fill="rgb(0,0,0)" fill-opacity="0.899999976" fill-rule="nonzero" />
		<path id="PQRS" d="M45.592 51.272L45.592 49.04L46.68 49.04C47.08 49.04 47.436 48.964 47.748 48.812C48.06 48.66 48.3027 48.4467 48.476 48.172C48.6493 47.8973 48.736 47.584 48.736 47.232C48.736 46.88 48.648 46.5667 48.472 46.292C48.296 46.0173 48.052 45.8027 47.74 45.648C47.428 45.4933 47.0747 45.416 46.68 45.416L44.88 45.416L44.88 51.272L45.592 51.272ZM46.592 48.416L45.592 48.416L45.592 46.04L46.592 46.04C47.04 46.04 47.384 46.152 47.624 46.376C47.864 46.6 47.984 46.8853 47.984 47.232C47.984 47.5787 47.864 47.8627 47.624 48.084C47.384 48.3053 47.04 48.416 46.592 48.416ZM55.096 52.488L53.248 51.04C53.6747 50.8 54.012 50.4467 54.26 49.98C54.508 49.5133 54.632 48.9653 54.632 48.336C54.632 47.7333 54.5173 47.204 54.288 46.748C54.0587 46.292 53.7427 45.94 53.34 45.692C52.9373 45.444 52.4853 45.32 51.984 45.32C51.4827 45.32 51.0307 45.4427 50.628 45.688C50.2253 45.9333 49.9093 46.2853 49.68 46.744C49.4507 47.2027 49.336 47.7333 49.336 48.336C49.336 48.944 49.4507 49.4773 49.68 49.936C49.9093 50.3947 50.2253 50.7467 50.628 50.992C51.0307 51.2373 51.4827 51.36 51.984 51.36C52.1547 51.36 52.3227 51.344 52.488 51.312L54.024 52.488L55.096 52.488ZM51.984 50.704C51.6 50.704 51.264 50.604 50.976 50.404C50.688 50.204 50.468 49.9253 50.316 49.568C50.164 49.2107 50.088 48.8 50.088 48.336C50.088 47.8667 50.1653 47.4533 50.32 47.096C50.4747 46.7387 50.6947 46.4613 50.98 46.264C51.2653 46.0667 51.6 45.968 51.984 45.968C52.368 45.968 52.7027 46.0667 52.988 46.264C53.2733 46.4613 53.4933 46.7387 53.648 47.096C53.8027 47.4533 53.88 47.8667 53.88 48.336C53.88 48.8 53.8027 49.2107 53.648 49.568C53.4933 49.9253 53.2733 50.204 52.988 50.404C52.7027 50.604 52.368 50.704 51.984 50.704ZM56.448 51.272L56.448 48.872L57.608 48.872L59.304 51.272L60.176 51.272L58.36 48.752C58.744 48.6293 59.0453 48.428 59.264 48.148C59.4827 47.868 59.592 47.536 59.592 47.152C59.592 46.8107 59.5053 46.508 59.332 46.244C59.1587 45.98 58.916 45.776 58.604 45.632C58.292 45.488 57.936 45.416 57.536 45.416L55.736 45.416L55.736 51.272L56.448 51.272ZM57.448 48.248L56.448 48.248L56.448 46.04L57.448 46.04C57.9013 46.04 58.2467 46.1427 58.484 46.348C58.7213 46.5533 58.84 46.8213 58.84 47.152C58.84 47.4827 58.7213 47.748 58.484 47.948C58.2467 48.148 57.9013 48.248 57.448 48.248ZM62.632 51.36C63.0427 51.36 63.3973 51.288 63.696 51.144C63.9947 51 64.2213 50.7987 64.376 50.54C64.5307 50.2813 64.608 49.984 64.608 49.648C64.608 49.28 64.52 48.984 64.344 48.76C64.168 48.536 63.9573 48.368 63.712 48.256C63.4667 48.144 63.144 48.0293 62.744 47.912C62.4293 47.8213 62.1813 47.7387 62 47.664C61.8187 47.5893 61.668 47.488 61.548 47.36C61.428 47.232 61.368 47.0667 61.368 46.864C61.368 46.592 61.4773 46.3747 61.696 46.212C61.9147 46.0493 62.2053 45.968 62.568 45.968C62.9253 45.968 63.212 46.048 63.428 46.208C63.644 46.368 63.8133 46.5893 63.936 46.872L64.512 46.536C64.4 46.184 64.1827 45.8933 63.86 45.664C63.5373 45.4347 63.1147 45.32 62.592 45.32C62.2187 45.32 61.8813 45.3827 61.58 45.508C61.2787 45.6333 61.0427 45.8173 60.872 46.06C60.7013 46.3027 60.616 46.592 60.616 46.928C60.616 47.2587 60.696 47.5253 60.856 47.728C61.016 47.9307 61.212 48.0827 61.444 48.184C61.676 48.2853 61.9813 48.392 62.36 48.504C62.7013 48.6053 62.9693 48.6987 63.164 48.784C63.3587 48.8693 63.5227 48.988 63.656 49.14C63.7893 49.292 63.856 49.4907 63.856 49.736C63.856 50.04 63.7493 50.2773 63.536 50.448C63.3227 50.6187 63.024 50.704 62.64 50.704C62.2187 50.704 61.8667 50.6053 61.584 50.408C61.3013 50.2107 61.088 49.928 60.944 49.56L60.368 49.896C60.496 50.3387 60.7627 50.6933 61.168 50.96C61.5733 51.2267 62.0613 51.36 62.632 51.36Z" fill="rgb(0,0,0)" fill-opacity="0.400000006" fill-rule="nonzero" />
		<path id="نهوي" d="M63.4688 35.9186L63.8015 35.3508L62.9697 34.877L62.6551 35.4448L63.4688 35.9186ZM62.8431 40.4973C63.1566 40.4973 63.4562 40.4545 63.7419 40.3689C64.0276 40.2833 64.2994 40.1537 64.5574 39.9801C64.8202 39.8017 65.0167 39.5991 65.1469 39.3725C65.2771 39.1459 65.3422 38.8963 65.3422 38.6239L65.3422 38.349C65.3422 37.698 65.2096 37.1965 64.9444 36.8445L64.3802 37.5063C64.4501 37.5666 64.5158 37.6486 64.5773 37.7522C64.6388 37.8559 64.6924 37.9686 64.7383 38.0904C64.7841 38.2122 64.8202 38.3369 64.8467 38.4647C64.8733 38.5925 64.8865 38.7119 64.8865 38.8228C64.8865 38.9481 64.8685 39.0506 64.8323 39.1302C64.8178 39.1615 64.7895 39.1929 64.7473 39.2242C64.7051 39.2556 64.6466 39.2929 64.5719 39.3363C64.3115 39.4882 64.0439 39.6052 63.769 39.6871C63.4941 39.7691 63.2289 39.8101 62.9733 39.8101C62.0668 39.8101 61.6135 39.4593 61.6135 38.7577C61.6135 38.6636 61.6255 38.5533 61.6496 38.4267C61.6738 38.3002 61.7057 38.173 61.7455 38.0452C61.7853 37.9174 61.8305 37.7962 61.8811 37.6817C61.9317 37.5672 61.9739 37.4882 62.0077 37.4448L61.9137 37.528C61.7352 37.7884 61.587 38.0536 61.4688 38.3237C61.288 38.7263 61.1976 39.0554 61.1976 39.311C61.1976 39.5135 61.2295 39.6896 61.2934 39.839C61.3573 39.9885 61.4562 40.1121 61.59 40.2097C61.7238 40.3074 61.8944 40.3797 62.1017 40.4267C62.3091 40.4738 62.5562 40.4973 62.8431 40.4973ZM57.6162 38.83C57.7609 38.83 57.8935 38.8017 58.0141 38.745C58.1346 38.6883 58.2389 38.6088 58.3269 38.5063C58.4149 38.4038 58.483 38.2833 58.5312 38.1446C58.5795 38.006 58.6036 37.8547 58.6036 37.6908C58.6036 37.4111 58.489 37.182 58.26 37.0036C58.2503 36.9964 58.2292 36.9801 58.1967 36.9548C58.1641 36.9295 58.125 36.8993 58.0792 36.8644C58.0333 36.8294 57.9857 36.7938 57.9363 36.7577C57.8869 36.7215 57.8399 36.6871 57.7952 36.6546C57.7506 36.622 57.7139 36.5943 57.6849 36.5714C57.656 36.5485 57.6379 36.5358 57.6307 36.5334C57.5174 36.4418 57.4324 36.3369 57.3757 36.2188C57.3191 36.1006 57.2907 35.9716 57.2907 35.8318C56.917 36.1718 56.7302 36.4249 56.7302 36.5913C56.7302 36.6323 56.7675 36.7058 56.8423 36.8119C56.7314 36.8746 56.606 37.0759 56.4661 37.4159C56.3311 37.739 56.2636 37.9753 56.2636 38.1248C56.2636 38.3562 56.3697 38.5141 56.5819 38.5985C56.9773 38.7528 57.3221 38.83 57.6162 38.83ZM57.5294 38.1248C57.1895 38.1248 56.9158 38.0319 56.7085 37.8463C56.6964 37.8246 56.6904 37.7993 56.6904 37.7703C56.6904 37.7366 56.7042 37.6793 56.732 37.5985C56.7597 37.5178 56.7922 37.4352 56.8296 37.3508C56.867 37.2664 56.9074 37.1923 56.9508 37.1284C56.9942 37.0645 57.0315 37.0325 57.0629 37.0325C57.1328 37.0325 57.3257 37.1651 57.6415 37.4304C57.955 37.6932 58.1117 37.8571 58.1117 37.9222C58.1117 38.0572 57.9176 38.1248 57.5294 38.1248ZM52.147 40.443C52.745 40.443 53.2187 40.1706 53.5683 39.6257C53.8673 39.1555 54.0168 38.6034 54.0168 37.9692C54.0168 37.1953 53.8432 36.6877 53.496 36.4466C53.4237 36.396 53.3574 36.3707 53.2971 36.3707C53.0922 36.3707 52.88 36.531 52.6606 36.8517C52.458 37.1555 52.3568 37.4183 52.3568 37.6401C52.3568 37.7776 52.3869 37.909 52.4472 38.0343C52.5075 38.1597 52.5888 38.2688 52.6913 38.3616C52.7938 38.4545 52.9113 38.528 53.0439 38.5823C53.1765 38.6365 53.3164 38.6636 53.4635 38.6636C53.4803 38.6636 53.4972 38.663 53.5141 38.6618L53.5403 38.6596L53.5683 38.6564C53.5201 38.8348 53.44 39.0018 53.3278 39.1573C53.2157 39.3128 53.0831 39.4472 52.93 39.5606C52.7769 39.6739 52.6093 39.7631 52.4273 39.8282C52.2453 39.8933 52.0602 39.9258 51.8721 39.9258C51.6937 39.9258 51.449 39.8475 51.138 39.6908C50.8052 39.522 50.6051 39.3689 50.5376 39.2314C50.6196 39.4436 50.7094 39.6257 50.807 39.7776C50.9047 39.9295 51.009 40.05 51.1199 40.1392C51.373 40.3418 51.7154 40.443 52.147 40.443ZM53.5286 37.9439C53.4514 37.9439 53.3706 37.9343 53.2862 37.915C53.2019 37.8957 53.1241 37.8698 53.053 37.8372C52.9818 37.8047 52.9228 37.7661 52.8758 37.7215C52.8287 37.6769 52.8052 37.6317 52.8052 37.5859C52.8052 37.5449 52.8143 37.5015 52.8324 37.4557C52.8504 37.4099 52.8752 37.3677 52.9065 37.3291C52.9378 37.2905 52.9728 37.2592 53.0114 37.2351C53.05 37.211 53.0885 37.1989 53.1271 37.1989C53.1994 37.1989 53.267 37.2188 53.3296 37.2586C53.3923 37.2984 53.446 37.3496 53.4906 37.4123C53.5352 37.475 53.5714 37.5461 53.5991 37.6257C53.6268 37.7052 53.6407 37.7836 53.6407 37.8607C53.6407 37.9162 53.6033 37.9439 53.5286 37.9439ZM45.242 39.3942C45.6422 39.3942 46.2233 39.2616 46.9852 38.9964C47.8628 38.695 48.3101 38.3936 48.327 38.0922L48.3668 37.4738C48.3668 37.3966 48.327 37.3297 48.2474 37.273C48.1678 37.2164 48.0388 37.1639 47.8604 37.1157C47.8146 37.1037 47.7115 37.082 47.5512 37.0506C47.3909 37.0193 47.1721 36.9795 46.8948 36.9313C46.5452 36.8662 46.3704 36.8023 46.3704 36.7396C46.3704 36.5732 46.6018 36.3695 47.0648 36.1284C47.5012 35.8969 47.8218 35.7812 48.0268 35.7812C48.1232 35.7812 48.239 35.8595 48.374 36.0163C48.5669 35.7245 48.6633 35.4882 48.6633 35.3074C48.6633 35.1266 48.5343 35.0361 48.2763 35.0361C47.8255 35.0361 47.33 35.2785 46.7899 35.7631C46.2378 36.2574 45.9617 36.7239 45.9617 37.1627C45.9617 37.4472 46.1437 37.5895 46.5078 37.5895C46.6959 37.5895 47.125 37.6703 47.7953 37.8318C47.7567 37.9307 47.6501 38.0277 47.4753 38.1229C47.3004 38.2182 47.0575 38.3104 46.7465 38.3996C46.2161 38.5443 45.7893 38.6166 45.4662 38.6166C44.5982 38.6166 44.1642 38.2742 44.1642 37.5895C44.1642 37.4593 44.1859 37.3032 44.2293 37.1211C44.2727 36.9391 44.3354 36.7287 44.4174 36.49C44.5934 35.9909 44.7634 35.6594 44.9273 35.4955C44.6308 35.657 44.3523 36.0163 44.0919 36.5732C43.8508 37.0892 43.7302 37.5377 43.7302 37.9186C43.7302 38.1501 43.7664 38.3574 43.8387 38.5407C43.9111 38.7239 44.0129 38.8788 44.1443 39.0054C44.2757 39.132 44.4349 39.2284 44.6217 39.2947C44.8086 39.361 45.0153 39.3942 45.242 39.3942ZM46.949 40.5985L47.2709 40.056L46.5078 39.6003L46.1895 40.1139L46.949 40.5985ZM45.8785 40.6166L46.1895 40.1139L45.4337 39.6293L45.1262 40.1645L45.8785 40.6166Z" fill="rgb(0,0,0)" fill-opacity="0.400000006" fill-rule="nonzero" />
	</g>
</svg>
