<?xml version="1.0" encoding="UTF-8"?>
<!--
  - Copyright (c) Huawei Technologies Co., Ltd. 2024-2024. All rights reserved.
  -->

<svg width="32px" height="32px" viewBox="0 0 32 32" version="1.1" xmlns="http://www.w3.org/2000/svg" xmlns:xlink="http://www.w3.org/1999/xlink">
    <title>#</title>
    <g id="#" stroke="none" stroke-width="1" fill="none" fill-rule="evenodd">
        <circle id="椭圆形" fill-opacity="0.101960784" fill="#000000" cx="16" cy="16" r="15"></circle>
        <rect id="矩形" x="0" y="0" width="32" height="32"></rect>
        <path d="M12.5100928,9 L14.4757089,9 L14.4740401,12.5100287 L17.5243553,12.5100287 L17.5243553,9 L19.4899713,9 L19.4899713,12.5100287 L23,12.5100287 L23,14.4756447 L19.4899713,14.4756447 L19.4899713,17.5243553 L23,17.5243553 L23,19.4899713 L19.4899713,19.4899713 L19.4899713,23 L17.5243553,23 L17.5243553,19.4899713 L14.4756447,19.4899713 L14.4756447,23 L12.5100287,23 L12.5100287,19.4899713 L9,19.4899713 L9,17.5243553 L12.5092264,17.5243553 L12.5092264,14.4756447 L9,14.4756447 L9,12.5100287 L12.5092264,12.5100287 L12.5100928,9 Z M17.5243553,14.4756447 L14.4748424,14.4756447 L14.4748424,17.5243553 L17.5243553,17.5243553 L17.5243553,14.4756447 Z" id="形状结合" fill-opacity="0.901960784" fill="#000000"></path>
    </g>
</svg>