<?xml version="1.0" encoding="UTF-8"?>
<!--
  - Copyright (c) Huawei Technologies Co., Ltd. 2024-2024. All rights reserved.
  -->

<svg width="32px" height="32px" viewBox="0 0 32 32" version="1.1" xmlns="http://www.w3.org/2000/svg" xmlns:xlink="http://www.w3.org/1999/xlink">
    <title>2</title>
    <g id="2" stroke="none" stroke-width="1" fill="none" fill-rule="evenodd">
        <rect id="矩形" x="0" y="0" width="32" height="32"></rect>
        <path d="M20.92,23.68 L20.92,21.46 L14.82,21.46 L17.6,18.36 C18.6533333,17.2133333 19.3866667,16.2666667 19.8,15.52 C20.2133333,14.7733333 20.42,13.9733333 20.42,13.12 C20.42,12.2533333 20.2333333,11.49 19.86,10.83 C19.4866667,10.17 18.9633333,9.66 18.29,9.3 C17.6166667,8.94 16.84,8.76 15.96,8.76 C14.8266667,8.76 13.8133333,9.07333333 12.92,9.7 C12.0266667,10.3266667 11.4133333,11.22 11.08,12.38 L11.08,12.38 L13.08,13.52 C13.3066667,12.7466667 13.6533333,12.1466667 14.12,11.72 C14.5866667,11.2933333 15.1333333,11.08 15.76,11.08 C16.3466667,11.08 16.8233333,11.27 17.19,11.65 C17.5566667,12.03 17.74,12.56 17.74,13.24 C17.74,13.8133333 17.5866667,14.3566667 17.28,14.87 C16.9733333,15.3833333 16.42,16.0866667 15.62,16.98 L15.62,16.98 L11.08,22.04 L11.08,23.68 L20.92,23.68 Z" fill-opacity="0.901795714" fill="#000000" fill-rule="nonzero"></path>
    </g>
</svg>