<svg viewBox="0 0 109 60" xmlns="http://www.w3.org/2000/svg" xmlns:xlink="http://www.w3.org/1999/xlink" width="109px" height="60px" fill="none" customFrame="#000000">
    <g id="阿语8按压态">
		<rect id="Rectangle" width="109" height="60" x="0" y="0" />
		<circle id="椭圆 1" cx="54.5" cy="30" r="28" fill="rgb(0,0,0)" fill-opacity="0.100000001" />
		<path id="٨" d="M48.7359 27.1243C50.597 25.3462 52.3676 21.5788 54.0479 15.8223C55.9767 21.5638 57.8039 25.1842 59.5293 26.6836L60.9534 23.0895C60.1321 22.1703 59.3428 21.1362 58.5856 19.9871C57.8284 18.8381 57.1163 17.3387 56.4495 15.4889C55.7827 13.6392 55.1291 11.8365 54.4886 10.0809C53.2831 13.8859 52.215 16.8659 51.2845 19.0208C50.354 21.1757 49.3462 22.822 48.2612 23.9598L48.7359 27.1243Z" fill="rgb(0,0,0)" fill-opacity="0.899999976" fill-rule="nonzero" />
		<path id="TUV" d="M49.2961 51.272L49.2961 46.048L51.1201 46.048L51.1201 45.416L46.7681 45.416L46.7681 46.048L48.5841 46.048L48.5841 51.272L49.2961 51.272ZM54.1361 51.36C54.6107 51.36 55.0201 51.2613 55.3641 51.064C55.7081 50.8667 55.9707 50.5827 56.1521 50.212C56.3334 49.8413 56.4241 49.4053 56.4241 48.904L56.4241 45.416L55.7121 45.416L55.7121 48.792C55.7121 49.4107 55.5774 49.884 55.3081 50.212C55.0387 50.54 54.6481 50.704 54.1361 50.704C53.6241 50.704 53.2347 50.54 52.9681 50.212C52.7014 49.884 52.5681 49.4107 52.5681 48.792L52.5681 45.416L51.8561 45.416L51.8561 48.904C51.8561 49.6667 52.0574 50.2667 52.4601 50.704C52.8627 51.1413 53.4214 51.36 54.1361 51.36ZM60.0481 51.272L62.2721 45.416L61.5521 45.416L59.7761 50.32L57.9121 45.416L57.1201 45.416L59.4481 51.272L60.0481 51.272Z" fill="rgb(0,0,0)" fill-opacity="0.400000006" fill-rule="nonzero" />
		<path id="فقكلم" d="M69.0913 34.8264L69.424 34.2586L68.5922 33.7848L68.2776 34.3526L69.0913 34.8264ZM66.2812 38.8119C66.8695 38.8119 67.4361 38.7975 67.981 38.7685C68.5259 38.7396 69.0539 38.6962 69.5651 38.6383C69.7146 38.6215 69.7893 38.3056 69.7893 37.6908C69.7893 37.4762 69.7785 37.2676 69.7568 37.0651C69.7351 36.8626 69.7001 36.6624 69.6519 36.4647C69.5096 35.8788 69.2974 35.5859 69.0154 35.5859C68.7911 35.5859 68.5536 35.774 68.3029 36.1501C68.0642 36.5021 67.9448 36.7963 67.9448 37.0325C67.9448 37.2737 68.069 37.4726 68.3173 37.6293L69.0045 37.9439C68.9707 37.9825 68.5826 38.0163 67.8399 38.0452C67.2516 38.0717 66.8116 38.085 66.5199 38.085C65.2565 38.085 64.5066 37.9934 64.2703 37.8101C64.0606 37.6413 63.9557 37.4255 63.9557 37.1627C63.9557 37.1121 63.9822 36.8855 64.0352 36.4828C63.8713 36.7432 63.7785 36.8975 63.7568 36.9457C63.682 37.1073 63.6446 37.2809 63.6446 37.4665C63.6446 37.751 63.7387 38.0428 63.9267 38.3418C64.1293 38.6552 64.9141 38.8119 66.2812 38.8119ZM69.4602 37.4485L68.3029 36.8228C68.3125 36.7818 68.339 36.7312 68.3824 36.6709C68.4258 36.6106 68.4741 36.5509 68.5271 36.4919C68.5801 36.4328 68.6338 36.3828 68.688 36.3418C68.7423 36.3008 68.7851 36.2803 68.8164 36.2803C68.949 36.2803 69.0949 36.437 69.2541 36.7504C69.3987 37.0325 69.471 37.2495 69.471 37.4014C69.471 37.4231 69.4674 37.4388 69.4602 37.4485ZM60.6456 35.047L60.9675 34.5045L60.2044 34.0488L59.8861 34.5624L60.6456 35.047ZM59.5751 35.0651L59.8861 34.5624L59.1302 34.0778L58.8228 34.613L59.5751 35.0651ZM58.7179 40.1428C58.9301 40.1477 59.1447 40.1242 59.3617 40.0723C59.5787 40.0205 59.7981 39.9451 60.0199 39.8463C60.4732 39.6486 60.8312 39.3882 61.0941 39.0651C61.2773 38.8409 61.3689 38.5069 61.3689 38.0633C61.3689 37.6486 61.2869 37.1977 61.123 36.7107C60.918 36.0862 60.6552 35.774 60.3346 35.774C60.1103 35.774 59.8994 35.9765 59.7016 36.3815C59.5305 36.7408 59.4449 37.0518 59.4449 37.3146C59.4449 37.8306 59.786 38.0886 60.4684 38.0886C60.5262 38.0886 60.5907 38.0868 60.6619 38.0832C60.733 38.0796 60.8095 38.0717 60.8915 38.0597C60.918 38.1658 60.9313 38.2526 60.9313 38.3201C60.9313 38.7275 60.5913 39.0241 59.9114 39.2098C59.4605 39.3327 58.9626 39.3942 58.4177 39.3942C57.7258 39.3942 57.3798 39.0133 57.3798 38.2514C57.3798 37.733 57.4593 37.3219 57.6185 37.0181C57.4859 37.1531 57.3653 37.3966 57.2568 37.7486C57.1628 38.0573 57.1157 38.3321 57.1157 38.5732C57.1157 38.8216 57.1537 39.0428 57.2297 39.2369C57.3056 39.431 57.4123 39.5955 57.5497 39.7306C57.6872 39.8656 57.8541 39.968 58.0507 40.038C58.2472 40.1079 58.4696 40.1428 58.7179 40.1428ZM60.4575 37.387C60.0862 37.387 59.9006 37.2664 59.9006 37.0253C59.9006 36.9747 59.9072 36.9216 59.9205 36.8662C59.9337 36.8107 59.9524 36.7595 59.9765 36.7125C60.0006 36.6655 60.0277 36.6275 60.0579 36.5985C60.088 36.5696 60.1176 36.5551 60.1465 36.5551C60.255 36.5551 60.3948 36.6564 60.566 36.8589C60.7396 37.0615 60.8264 37.2194 60.8264 37.3327L60.8264 37.3436C60.742 37.3725 60.6191 37.387 60.4575 37.387ZM52.0154 37.0145C52.7171 37.0145 53.0679 36.7287 53.0679 36.1573C53.0679 36.1139 53.0606 36.0826 53.0462 36.0633C53.0293 36.056 52.9208 36.0392 52.7207 36.0126C52.5784 35.9934 52.4832 35.9596 52.435 35.9114C52.4663 35.8366 52.5097 35.7468 52.5652 35.6419C52.6206 35.5371 52.6857 35.4135 52.7605 35.2712L52.7496 35.2712C52.6459 35.2712 52.5109 35.399 52.3445 35.6546C52.265 35.7776 52.2053 35.8825 52.1655 35.9692C52.1257 36.056 52.1058 36.132 52.1058 36.1971C52.1058 36.308 52.1324 36.3815 52.1854 36.4177C52.2143 36.437 52.2571 36.4491 52.3138 36.4539C52.3705 36.4587 52.4265 36.4623 52.482 36.4647C52.5374 36.4671 52.5856 36.472 52.6266 36.4792C52.6676 36.4864 52.6881 36.5009 52.6881 36.5226C52.6881 36.6046 52.4048 36.7601 51.8382 36.9891C51.8768 37.006 51.9359 37.0145 52.0154 37.0145ZM54.0082 37.8463L53.9909 37.9054C53.9775 37.9391 53.9604 37.9616 53.9395 37.9729C53.8816 38.0042 53.7984 38.0344 53.6899 38.0633C53.5814 38.0922 53.4464 38.1175 53.2849 38.1392C53.0172 38.173 52.7846 38.1899 52.5869 38.1899C51.5501 38.1899 50.9847 38.0126 50.8907 37.6582C50.8762 37.6076 50.8689 37.5003 50.8689 37.3363C50.8689 37.3026 50.8744 37.2495 50.8852 37.1772C50.8961 37.1049 50.9075 37.0295 50.9196 36.9512C50.9316 36.8728 50.9431 36.7993 50.9539 36.7306C50.9648 36.6618 50.9702 36.6094 50.9702 36.5732L50.9702 36.5443L50.9557 36.5407C50.9172 36.5407 50.8256 36.6709 50.6809 36.9313C50.4952 37.2592 50.4024 37.5545 50.4024 37.8174C50.4024 38.56 51.1354 38.9313 52.6013 38.9313C52.746 38.9313 52.9057 38.9216 53.0805 38.9023C53.2553 38.8831 53.4476 38.8529 53.6574 38.8119C54.2023 38.7107 54.488 38.5853 54.5145 38.4358C54.5193 38.3972 54.523 38.3297 54.5254 38.2333C54.5278 38.1368 54.529 38.0114 54.529 37.8571L54.529 34.9891L54.8075 34.3888L54.4747 34.0307L54.4133 33.2857L53.8057 33.9042C53.8442 34.0488 53.8798 34.1838 53.9123 34.3092C53.9449 34.4346 53.9768 34.5576 54.0082 34.6781L54.0082 37.8463ZM45.9784 40.0778C46.4606 40.0778 46.9139 39.9283 47.3382 39.6293C47.8108 39.2966 48.0471 38.9614 48.0471 38.6239L48.0471 34.9891L48.3292 34.3888L47.9892 34.0307L47.9314 33.2857L47.3238 33.9042L47.4684 34.6673L47.4684 38.5732C47.4154 38.6866 47.3401 38.7975 47.2424 38.906C47.1448 39.0145 47.0357 39.1097 46.9151 39.1917C46.7945 39.2737 46.6668 39.34 46.5317 39.3906C46.3967 39.4412 46.2677 39.4665 46.1448 39.4665C45.841 39.4665 45.5287 39.3484 45.208 39.1121C44.9187 38.8927 44.7741 38.5443 44.7741 38.0669C44.7741 38.0187 44.7795 37.9494 44.7903 37.8589C44.8012 37.7685 44.8144 37.6733 44.8301 37.5732C44.8458 37.4732 44.8596 37.3773 44.8717 37.2857C44.8838 37.1941 44.8898 37.1254 44.8898 37.0796C44.8608 37.0796 44.8241 37.1127 44.7795 37.179C44.7349 37.2453 44.6836 37.3544 44.6258 37.5063C44.498 37.8318 44.4341 38.1633 44.4341 38.5009C44.4341 38.7324 44.4709 38.9445 44.5444 39.1374C44.6179 39.3303 44.7228 39.4961 44.859 39.6347C44.9953 39.7733 45.158 39.8818 45.3473 39.9602C45.5366 40.0386 45.7469 40.0778 45.9784 40.0778ZM39.8112 42.0669C39.9992 41.739 40.0933 41.4448 40.0933 41.1844C40.0981 40.9723 40.0794 40.7312 40.0372 40.4611C39.995 40.1911 39.9365 39.8873 39.8618 39.5497C39.8521 39.5087 39.843 39.4699 39.8344 39.4332L39.7562 39.0957C39.7422 39.0367 39.7316 38.9964 39.7244 38.9747L39.6918 38.8409C39.6942 38.6866 40.1535 38.6094 41.0697 38.6094C41.2916 38.6094 41.4929 38.613 41.6737 38.6202C41.8546 38.6275 42.0221 38.6383 42.1764 38.6528L42.3609 38.0669C42.2452 38.0018 42.1451 37.9427 42.0607 37.8897C41.9763 37.8366 41.9052 37.7872 41.8473 37.7414C41.8039 37.7076 41.611 37.4714 41.2687 37.0325C40.9938 36.6853 40.7949 36.5117 40.6719 36.5117C40.5851 36.5117 40.4115 36.6395 40.1511 36.8951C39.8883 37.1507 39.7557 37.3195 39.7533 37.4014L39.7461 37.6582L40.5381 37.2459L41.1457 37.9295C41.1192 37.9198 41.0794 37.915 41.0263 37.915C40.8793 37.915 40.6357 37.9403 40.2958 37.991C39.91 38.0464 39.6617 38.1043 39.5508 38.1646C39.3555 38.2755 39.2578 38.4913 39.2578 38.8119C39.2578 38.9035 39.2729 39.0289 39.303 39.1881C39.3332 39.3472 39.3772 39.5413 39.435 39.7703C39.5194 40.1055 39.593 40.4635 39.6556 40.8445C39.7183 41.2254 39.7702 41.6329 39.8112 42.0669Z" fill="rgb(0,0,0)" fill-opacity="0.400000006" fill-rule="nonzero" />
	</g>
</svg>
