<?xml version="1.0" encoding="UTF-8"?>
<!--
  - Copyright (c) Huawei Technologies Co., Ltd. 2024-2024. All rights reserved.
  -->

<svg width="32px" height="32px" viewBox="0 0 32 32" version="1.1" xmlns="http://www.w3.org/2000/svg" xmlns:xlink="http://www.w3.org/1999/xlink">
    <title>0</title>
    <g id="0" stroke="none" stroke-width="1" fill="none" fill-rule="evenodd">
        <circle id="椭圆形" fill-opacity="0.101960784" fill="#000000" cx="16" cy="16" r="15"></circle>
        <rect id="矩形" x="0" y="0" width="32" height="32"></rect>
        <path d="M16.02,23.92 C17.6333333,23.92 18.8733333,23.28 19.74,22 C20.6066667,20.72 21.04,18.84 21.04,16.36 C21.04,13.8666667 20.6066667,11.98 19.74,10.7 C18.8733333,9.42 17.6333333,8.78 16.02,8.78 C14.4066667,8.78 13.1633333,9.42333333 12.29,10.71 C11.4166667,11.9966667 10.98,13.88 10.98,16.36 C10.98,18.8266667 11.4166667,20.7033333 12.29,21.99 C13.1633333,23.2766667 14.4066667,23.92 16.02,23.92 Z M16.02,21.6 C15.22,21.6 14.6266667,21.1666667 14.24,20.3 C13.8533333,19.4333333 13.66,18.12 13.66,16.36 C13.66,14.5733333 13.8533333,13.2466667 14.24,12.38 C14.6266667,11.5133333 15.22,11.08 16.02,11.08 C16.82,11.08 17.41,11.5166667 17.79,12.39 C18.17,13.2633333 18.36,14.5866667 18.36,16.36 C18.36,18.12 18.17,19.4333333 17.79,20.3 C17.41,21.1666667 16.82,21.6 16.02,21.6 Z" fill-opacity="0.901795714" fill="#000000" fill-rule="nonzero"></path>
    </g>
</svg>