<?xml version="1.0" encoding="UTF-8"?>
<svg width="110px" height="60px" viewBox="0 0 110 60" version="1.1" xmlns="http://www.w3.org/2000/svg" xmlns:xlink="http://www.w3.org/1999/xlink">
    <title>3</title>
    <g id="3" stroke="none" stroke-width="1" fill="none" fill-rule="evenodd">
        <g id="拨号盘双行文本备份" transform="translate(0.000000, -0.000000)">
            <rect id="Rectangle" x="0" y="0" width="110" height="60"></rect>
            <path d="M57.875,24.225 C58.9083333,24.5916667 59.7,25.1541667 60.25,25.9125 C60.8,26.6708333 61.075,27.6083333 61.075,28.725 C61.075,29.8583333 60.7958333,30.8333333 60.2375,31.65 C59.6791667,32.4666667 58.925,33.0875 57.975,33.5125 C57.025,33.9375 55.975,34.15 54.825,34.15 C53.375,34.15 52.0875,33.7958333 50.9625,33.0875 C49.8375,32.3791667 49.0583333,31.35 48.625,30 L51.15,28.55 C51.4166667,29.45 51.8875,30.1375 52.5625,30.6125 C53.2375,31.0875 53.975,31.325 54.775,31.325 C55.6083333,31.325 56.3083333,31.075 56.875,30.575 C57.4416667,30.075 57.725,29.3916667 57.725,28.525 C57.725,26.6583333 56.35,25.725 53.6,25.725 L52.9,25.725 L52.925,23.075 L53.85,23.075 C54.9,23.075 55.7,22.8208333 56.25,22.3125 C56.8,21.8041667 57.075,21.1666667 57.075,20.4 C57.075,19.6833333 56.8458333,19.1125 56.3875,18.6875 C55.9291667,18.2625 55.3333333,18.05 54.6,18.05 C53.8166667,18.05 53.1458333,18.2916667 52.5875,18.775 C52.0291667,19.2583333 51.6,19.95 51.3,20.85 L48.875,19.45 C49.2916667,18.0666667 50.0291667,17.0166667 51.0875,16.3 C52.1458333,15.5833333 53.4,15.225 54.85,15.225 C55.95,15.225 56.925,15.4333333 57.775,15.85 C58.625,16.2666667 59.2833333,16.85 59.75,17.6 C60.2166667,18.35 60.45,19.2166667 60.45,20.2 C60.45,21.1166667 60.2333333,21.9208333 59.8,22.6125 C59.3666667,23.3041667 58.725,23.8416667 57.875,24.225 Z" id="路径" fill-opacity="0.901960784" fill="#000000" fill-rule="nonzero"></path>
            <path d="M48.495,43.02 C49.2083333,43.02 49.85,43.1633333 50.42,43.45 C50.99,43.7366667 51.4383333,44.155 51.765,44.705 C52.0916667,45.255 52.255,45.91 52.255,46.67 C52.255,47.4366667 52.0933333,48.095 51.77,48.645 C51.4466667,49.195 51,49.615 50.43,49.905 C49.86,50.195 49.215,50.34 48.495,50.34 L46.495,50.34 L46.495,43.02 L48.495,43.02 Z M48.375,49.55 C49.295,49.55 50.015,49.3 50.535,48.8 C51.055,48.3 51.315,47.59 51.315,46.67 C51.315,45.7633333 51.0533333,45.0583333 50.53,44.555 C50.0066667,44.0516667 49.2883333,43.8 48.375,43.8 L47.385,43.8 L47.385,49.55 L48.375,49.55 Z" id="形状" fill-opacity="0.4" fill="#000000" fill-rule="nonzero"></path>
            <polygon id="路径" fill-opacity="0.4" fill="#000000" fill-rule="nonzero" points="57.745 46.95 54.525 46.95 54.525 49.55 58.235 49.55 58.235 50.34 53.635 50.34 53.635 43.01 58.125 43.01 58.125 43.8 54.525 43.8 54.525 46.16 57.745 46.16"></polygon>
            <polygon id="路径" fill-opacity="0.4" fill="#000000" fill-rule="nonzero" points="59.595 43.02 64.085 43.02 64.085 43.81 60.485 43.81 60.485 46.28 63.705 46.28 63.705 47.07 60.485 47.07 60.485 50.34 59.595 50.34"></polygon>
        </g>
    </g>
</svg>