<?xml version="1.0" encoding="UTF-8"?>
<svg width="109px" height="60px" viewBox="0 0 109 60" version="1.1" xmlns="http://www.w3.org/2000/svg" xmlns:xlink="http://www.w3.org/1999/xlink">
    <title>4</title>
    <g id="4" stroke="none" stroke-width="1" fill="none" fill-rule="evenodd">
        <g id="拨号盘双行文本备份-2">
            <rect id="Rectangle" x="0" y="0" width="109" height="60"></rect>
            <polygon id="路径" fill-opacity="0.901960784" fill="#000000" fill-rule="nonzero" points="59.05 22.75 59.05 27.3 61.6 27.3 61.6 30.025 59.05 30.025 59.05 33.85 55.95 33.85 55.95 30.025 48.025 30.025 48.025 27.85 54.5 15.525 57.85 15.525 51.6 27.3 55.95 27.3 55.95 22.75"></polygon>
            <path d="M50.05,47.31 L50.05,46.51 L52.49,46.51 L52.49,49.36 C52.2766667,49.6733333 51.9466667,49.9333333 51.5,50.14 C51.0533333,50.3466667 50.55,50.45 49.99,50.45 C49.3166667,50.45 48.7116667,50.2916667 48.175,49.975 C47.6383333,49.6583333 47.2183333,49.2116667 46.915,48.635 C46.6116667,48.0583333 46.46,47.4 46.46,46.66 C46.46,45.9266667 46.6116667,45.275 46.915,44.705 C47.2183333,44.135 47.635,43.6916667 48.165,43.375 C48.695,43.0583333 49.2833333,42.9 49.93,42.9 C50.5033333,42.9 51.015,43.0233333 51.465,43.27 C51.915,43.5166667 52.2433333,43.86 52.45,44.3 L51.73,44.72 C51.57,44.42 51.33,44.1783333 51.01,43.995 C50.69,43.8116667 50.3166667,43.72 49.89,43.72 C49.4033333,43.72 48.9716667,43.8433333 48.595,44.09 C48.2183333,44.3366667 47.925,44.6816667 47.715,45.125 C47.505,45.5683333 47.4,46.08 47.4,46.66 C47.4,47.2466667 47.51,47.765 47.73,48.215 C47.95,48.665 48.26,49.0133333 48.66,49.26 C49.06,49.5066667 49.5233333,49.63 50.05,49.63 C50.73,49.63 51.2466667,49.4433333 51.6,49.07 L51.6,47.31 L50.05,47.31 Z" id="路径" fill-opacity="0.4" fill="#000000" fill-rule="nonzero"></path>
            <polygon id="路径" fill-opacity="0.4" fill="#000000" fill-rule="nonzero" points="54.72 46.14 58.65 46.14 58.65 43.02 59.54 43.02 59.54 50.34 58.65 50.34 58.65 46.94 54.72 46.94 54.72 50.34 53.83 50.34 53.83 43.02 54.72 43.02"></polygon>
            <polygon id="路径" fill-opacity="0.4" fill="#000000" fill-rule="nonzero" points="62.17 50.34 61.28 50.34 61.28 43.02 62.17 43.02"></polygon>
        </g>
    </g>
</svg>