<svg viewBox="0 0 110 60" xmlns="http://www.w3.org/2000/svg" xmlns:xlink="http://www.w3.org/1999/xlink" width="110px" height="60px" fill="none" customFrame="#000000">
	<g id="阿语3">
		<rect id="Rectangle" width="110" height="60" x="0" y="0" />
		<path id="٣" d="M53.3612 27.7572C53.738 27.3353 54.0205 26.7495 54.2089 25.9998C54.3972 25.2501 54.4914 24.4759 54.4914 23.6772C54.4914 22.6676 54.4104 21.6278 54.2484 20.5579C54.0864 19.4879 53.8359 18.3954 53.4968 17.2803C53.5571 17.2878 53.819 17.2068 54.2823 17.0373C54.7457 16.8678 55.2901 16.4402 55.9155 15.7545C56.9628 16.3347 57.9498 16.6248 58.8766 16.6248C59.9616 16.6248 60.8168 15.3627 61.4421 12.8386C61.623 12.1454 61.638 11.4485 61.4874 10.7477C61.3743 10.4991 61.2915 10.3522 61.2387 10.307C60.5681 11.8968 59.939 12.6917 59.3513 12.6917C58.3115 12.6917 57.6748 12.2095 57.4412 11.245L57.0909 10.0696C55.81 12.428 54.7212 13.6071 53.8246 13.6071C52.6567 13.6071 51.3645 12.654 49.948 10.7477L48.3431 13.5506C51.1837 17.5666 52.8564 22.3021 53.3612 27.7572Z" fill="rgb(0,0,0)" fill-opacity="0.899999976" fill-rule="nonzero" />
		<path id="DEF" d="M49.796 51.272C50.372 51.272 50.888 51.156 51.344 50.924C51.8 50.692 52.1573 50.356 52.416 49.916C52.6747 49.476 52.804 48.9493 52.804 48.336C52.804 47.728 52.6733 47.204 52.412 46.764C52.1507 46.324 51.792 45.9893 51.336 45.76C50.88 45.5307 50.3666 45.416 49.796 45.416L48.196 45.416L48.196 51.272L49.796 51.272ZM49.7 50.64L48.908 50.64L48.908 46.04L49.7 46.04C50.4307 46.04 51.0053 46.2413 51.424 46.644C51.8427 47.0467 52.052 47.6107 52.052 48.336C52.052 49.072 51.844 49.64 51.428 50.04C51.012 50.44 50.436 50.64 49.7 50.64ZM57.588 51.272L57.588 50.64L54.62 50.64L54.62 48.56L57.196 48.56L57.196 47.928L54.62 47.928L54.62 46.04L57.5 46.04L57.5 45.408L53.908 45.408L53.908 51.272L57.588 51.272ZM59.388 51.272L59.388 48.656L61.964 48.656L61.964 48.024L59.388 48.024L59.388 46.048L62.268 46.048L62.268 45.416L58.676 45.416L58.676 51.272L59.388 51.272Z" fill="rgb(0,0,0)" fill-opacity="0.400000006" fill-rule="nonzero" />
		<path id="اء" d="M56.4014 37.6383L56.9476 36.8644L56.9476 32.2857L56.4014 32.9476L56.4014 37.6383ZM53.0922 37.8698C53.2152 37.7758 53.3195 37.6944 53.4051 37.6257C53.4907 37.557 53.5696 37.4973 53.6419 37.4466C53.7143 37.396 53.786 37.3514 53.8571 37.3128C53.9283 37.2743 54.0096 37.2381 54.1013 37.2043C54.2556 37.1465 54.5111 37.0826 54.868 37.0126L55.0669 36.5136L53.8843 36.7993C53.7782 36.7776 53.6962 36.7607 53.6383 36.7486C53.5805 36.7366 53.5443 36.7293 53.5298 36.7269C53.3803 36.6787 53.3056 36.6052 53.3056 36.5063C53.3056 36.4388 53.3297 36.3731 53.3779 36.3092C53.4262 36.2453 53.4882 36.1887 53.5642 36.1392C53.6401 36.0898 53.7263 36.0506 53.8228 36.0217C53.9192 35.9928 54.0145 35.9783 54.1085 35.9783C54.4026 35.9783 54.5557 36.0096 54.5678 36.0723L54.7703 35.6456C54.6642 35.5901 54.5328 35.5624 54.3761 35.5624C53.9686 35.5624 53.66 35.6685 53.4503 35.8806C53.1368 36.2013 52.9801 36.4786 52.9801 36.7125C52.9801 36.8282 53.0223 36.9307 53.1067 37.0199C53.1284 37.0368 53.2212 37.1079 53.3852 37.2333C53.3586 37.2477 53.3273 37.2803 53.2911 37.3309C53.255 37.3815 53.2194 37.4376 53.1844 37.4991C53.1495 37.5606 53.1199 37.6208 53.0958 37.6799C53.0717 37.739 53.0597 37.783 53.0597 37.8119C53.0597 37.8312 53.0705 37.8505 53.0922 37.8698Z" fill="rgb(0,0,0)" fill-opacity="0.400000006" fill-rule="nonzero" />
	</g>
</svg>
