<svg viewBox="0 0 110 60" xmlns="http://www.w3.org/2000/svg" xmlns:xlink="http://www.w3.org/1999/xlink" width="110px" height="60px" fill="none" customFrame="#000000">
	<g id="阿语6按压态">
		<rect id="Rectangle" width="110" height="60" x="0" y="0" />
		<circle id="椭圆 1" cx="55" cy="30" r="28" fill="rgb(0,0,0)" fill-opacity="0.100000001" />
		<path id="٦" d="M58.82 26.774L60.0294 22.807C59.5019 22.385 58.9199 21.511 58.2832 20.1849C57.6465 18.8588 57.3206 17.3556 57.3056 15.6754C57.3206 14.1157 57.5316 12.59 57.9385 11.0981C56.6425 11.4748 55.4596 11.6632 54.3897 11.6632C53.1615 11.6632 51.8392 11.2036 50.4227 10.2844C50.1213 10.8344 49.9103 11.4522 49.7897 12.1379C49.6692 12.8235 49.6466 13.5017 49.7219 14.1722C50.6487 15.1442 51.7751 15.6302 53.1012 15.6302C53.9753 15.6302 54.9698 15.5172 56.085 15.2911C55.8966 15.8487 55.8024 16.572 55.8024 17.4611C55.8024 21.8538 56.8083 24.9581 58.82 26.774Z" fill="rgb(0,0,0)" fill-opacity="0.899999976" fill-rule="nonzero" />
		<path id="MNO" d="M46.916 51.272L46.916 46.792L48.78 49.76L49.204 49.76L51.052 46.808L51.052 51.272L51.748 51.272L51.748 45.416L51.164 45.416L49.012 48.896L46.852 45.416L46.228 45.416L46.228 51.272L46.916 51.272ZM53.812 51.272L53.812 46.68L57.068 51.272L57.668 51.272L57.668 45.416L56.996 45.416L56.996 50L53.74 45.416L53.14 45.416L53.14 51.272L53.812 51.272ZM61.412 51.36C61.9134 51.36 62.364 51.236 62.764 50.988C63.164 50.74 63.48 50.388 63.712 49.932C63.944 49.476 64.06 48.944 64.06 48.336C64.06 47.7333 63.9454 47.204 63.716 46.748C63.4867 46.292 63.1707 45.94 62.768 45.692C62.3654 45.444 61.9134 45.32 61.412 45.32C60.9107 45.32 60.4587 45.4427 60.056 45.688C59.6534 45.9333 59.3374 46.2853 59.108 46.744C58.8787 47.2027 58.764 47.7333 58.764 48.336C58.764 48.944 58.8787 49.4773 59.108 49.936C59.3374 50.3947 59.6534 50.7467 60.056 50.992C60.4587 51.2373 60.9107 51.36 61.412 51.36ZM61.412 50.704C61.028 50.704 60.692 50.604 60.404 50.404C60.116 50.204 59.896 49.9253 59.744 49.568C59.592 49.2107 59.516 48.8 59.516 48.336C59.516 47.8667 59.5934 47.4533 59.748 47.096C59.9027 46.7387 60.1227 46.4613 60.408 46.264C60.6934 46.0667 61.028 45.968 61.412 45.968C61.796 45.968 62.1307 46.0667 62.416 46.264C62.7014 46.4613 62.9214 46.7387 63.076 47.096C63.2307 47.4533 63.308 47.8667 63.308 48.336C63.308 48.8 63.2307 49.2107 63.076 49.568C62.9214 49.9253 62.7014 50.204 62.416 50.404C62.1307 50.604 61.796 50.704 61.412 50.704Z" fill="rgb(0,0,0)" fill-opacity="0.400000006" fill-rule="nonzero" />
		<path id="جحخ" d="M61.5903 40.5081C61.7688 40.5105 61.9641 40.4828 62.1762 40.4249C62.3884 40.3671 62.6223 40.2803 62.8779 40.1646C63.3987 39.9427 63.7651 39.6968 63.9773 39.4268C63.3312 39.6221 62.7007 39.7197 62.0858 39.7197C60.7718 39.7197 60.1148 39.2158 60.1148 38.208C60.1148 37.8366 60.178 37.5021 60.3046 37.2043C60.4312 36.9066 60.6133 36.6534 60.8507 36.4448C61.0882 36.2363 61.3746 36.0759 61.7097 35.9638C62.0448 35.8517 62.4186 35.7957 62.8309 35.7957C62.8839 35.7957 62.9291 35.7963 62.9665 35.7975C63.0038 35.7987 63.0358 35.8017 63.0623 35.8065L63.2359 35.0145C62.8453 35.1567 62.4559 35.2278 62.0677 35.2278C62.0051 35.2278 61.9104 35.217 61.7838 35.1953C61.6573 35.1736 61.5246 35.1507 61.386 35.1266C61.2474 35.1025 61.1148 35.0796 60.9882 35.0579C60.8616 35.0362 60.767 35.0253 60.7043 35.0253C60.5958 35.0253 60.5011 35.0338 60.4204 35.0506C60.3396 35.0675 60.2654 35.0989 60.1979 35.1447C60.1304 35.1905 60.0677 35.2532 60.0099 35.3327C59.952 35.4123 59.8929 35.516 59.8327 35.6438C59.7483 35.8246 59.6747 35.9488 59.612 36.0163C59.6506 35.9849 59.7025 35.956 59.7676 35.9295C59.8423 35.8957 59.9195 35.865 59.999 35.8372C60.0786 35.8095 60.1563 35.7878 60.2323 35.7721C60.3082 35.7565 60.3715 35.7486 60.4222 35.7486C60.5379 35.7486 60.6416 35.7679 60.7332 35.8065C60.685 35.874 60.6434 35.9331 60.6084 35.9837C60.5735 36.0344 60.5451 36.0753 60.5234 36.1067C60.0051 36.7842 59.7459 37.4581 59.7459 38.1284C59.7459 38.736 59.899 39.2664 60.2052 39.7197C60.562 40.2453 61.0237 40.5081 61.5903 40.5081ZM62.0352 38.2839L62.3679 37.7161L61.5361 37.2423L61.2214 37.8101L62.0352 38.2839ZM54.7577 40.5081C54.9361 40.5105 55.1314 40.4828 55.3435 40.4249C55.5557 40.3671 55.7896 40.2803 56.0452 40.1646C56.566 39.9427 56.9325 39.6968 57.1446 39.4268C56.4985 39.6221 55.868 39.7197 55.2531 39.7197C53.9391 39.7197 53.2821 39.2158 53.2821 38.208C53.2821 37.8366 53.3454 37.5021 53.4719 37.2043C53.5985 36.9066 53.7806 36.6534 54.018 36.4448C54.2555 36.2363 54.5419 36.0759 54.877 35.9638C55.2121 35.8517 55.5859 35.7957 55.9982 35.7957C56.0512 35.7957 56.0964 35.7963 56.1338 35.7975C56.1712 35.7987 56.2031 35.8017 56.2296 35.8065L56.4032 35.0145C56.0126 35.1567 55.6232 35.2278 55.235 35.2278C55.1724 35.2278 55.0777 35.217 54.9511 35.1953C54.8246 35.1736 54.6919 35.1507 54.5533 35.1266C54.4147 35.1025 54.2821 35.0796 54.1555 35.0579C54.0289 35.0362 53.9343 35.0253 53.8716 35.0253C53.7631 35.0253 53.6684 35.0338 53.5877 35.0506C53.5069 35.0675 53.4328 35.0989 53.3652 35.1447C53.2977 35.1905 53.235 35.2532 53.1772 35.3327C53.1193 35.4123 53.0602 35.516 53 35.6438C52.9156 35.8246 52.842 35.9488 52.7794 36.0163C52.8179 35.9849 52.8698 35.956 52.9349 35.9295C53.0096 35.8957 53.0868 35.865 53.1663 35.8372C53.2459 35.8095 53.3237 35.7878 53.3996 35.7721C53.4756 35.7565 53.5388 35.7486 53.5895 35.7486C53.7052 35.7486 53.8089 35.7679 53.9005 35.8065C53.8523 35.874 53.8107 35.9331 53.7757 35.9837C53.7408 36.0344 53.7124 36.0753 53.6907 36.1067C53.1724 36.7842 52.9132 37.4581 52.9132 38.1284C52.9132 38.736 53.0663 39.2664 53.3725 39.7197C53.7293 40.2453 54.191 40.5081 54.7577 40.5081ZM48.0515 34.2622L48.3843 33.6944L47.5524 33.2206L47.2378 33.7884L48.0515 34.2622ZM47.925 40.5081C48.1034 40.5105 48.2987 40.4828 48.5109 40.4249C48.723 40.3671 48.9569 40.2803 49.2125 40.1646C49.7333 39.9427 50.0998 39.6968 50.3119 39.4268C49.6658 39.6221 49.0353 39.7197 48.4204 39.7197C47.1064 39.7197 46.4494 39.2158 46.4494 38.208C46.4494 37.8366 46.5127 37.5021 46.6392 37.2043C46.7658 36.9066 46.9479 36.6534 47.1854 36.4448C47.4228 36.2363 47.7092 36.0759 48.0443 35.9638C48.3794 35.8517 48.7532 35.7957 49.1655 35.7957C49.2185 35.7957 49.2637 35.7963 49.3011 35.7975C49.3385 35.7987 49.3704 35.8017 49.3969 35.8065L49.5705 35.0145C49.1799 35.1567 48.7905 35.2278 48.4024 35.2278C48.3397 35.2278 48.245 35.217 48.1184 35.1953C47.9919 35.1736 47.8593 35.1507 47.7206 35.1266C47.582 35.1025 47.4494 35.0796 47.3228 35.0579C47.1962 35.0362 47.1016 35.0253 47.0389 35.0253C46.9304 35.0253 46.8357 35.0338 46.755 35.0506C46.6742 35.0675 46.6001 35.0989 46.5326 35.1447C46.465 35.1905 46.4024 35.2532 46.3445 35.3327C46.2866 35.4123 46.2275 35.516 46.1673 35.6438C46.0829 35.8246 46.0093 35.9488 45.9467 36.0163C45.9852 35.9849 46.0371 35.956 46.1022 35.9295C46.1769 35.8957 46.2541 35.865 46.3336 35.8372C46.4132 35.8095 46.491 35.7878 46.5669 35.7721C46.6429 35.7565 46.7062 35.7486 46.7568 35.7486C46.8725 35.7486 46.9762 35.7679 47.0678 35.8065C47.0196 35.874 46.978 35.9331 46.943 35.9837C46.9081 36.0344 46.8797 36.0753 46.858 36.1067C46.3397 36.7842 46.0805 37.4581 46.0805 38.1284C46.0805 38.736 46.2336 39.2664 46.5398 39.7197C46.8966 40.2453 47.3583 40.5081 47.925 40.5081Z" fill="rgb(0,0,0)" fill-opacity="0.400000006" fill-rule="nonzero" />
	</g>
</svg>
