<?xml version="1.0" encoding="UTF-8"?>
<svg width="109px" height="60px" viewBox="0 0 109 60" version="1.1" xmlns="http://www.w3.org/2000/svg" xmlns:xlink="http://www.w3.org/1999/xlink">
    <title>5备份</title>
    <g id="5备份" stroke="none" stroke-width="1" fill="none" fill-rule="evenodd">
        <circle id="椭圆形" fill-opacity="0.101960784" fill="#000000" cx="54.5" cy="30" r="28"></circle>
        <g id="拨号盘双行文本备份-3" transform="translate(0.000000, -0.000000)">
            <rect id="Rectangle" x="0" y="0" width="109" height="60"></rect>
            <path d="M54.875,22.025 C55.9416667,22.025 56.9083333,22.275 57.775,22.775 C58.6416667,23.275 59.3208333,23.975 59.8125,24.875 C60.3041667,25.775 60.55,26.8083333 60.55,27.975 C60.55,29.225 60.275,30.3166667 59.725,31.25 C59.175,32.1833333 58.4291667,32.9 57.4875,33.4 C56.5458333,33.9 55.5,34.15 54.35,34.15 C53.0333333,34.15 51.8791667,33.8333333 50.8875,33.2 C49.8958333,32.5666667 49.2,31.6333333 48.8,30.4 L51.35,28.925 C51.6,29.725 51.9791667,30.325 52.4875,30.725 C52.9958333,31.125 53.6083333,31.325 54.325,31.325 C55.225,31.325 55.9291667,31.0208333 56.4375,30.4125 C56.9458333,29.8041667 57.2,29.0333333 57.2,28.1 C57.2,27.1666667 56.95,26.3875 56.45,25.7625 C55.95,25.1375 55.2166667,24.825 54.25,24.825 C53.0166667,24.825 52.0583333,25.4 51.375,26.55 L49.175,25.475 L50.4,15.5 L59.7,15.5 L59.7,18.225 L53.075,18.225 L52.5,22.55 C53.2333333,22.2 54.025,22.025 54.875,22.025 Z" id="路径" fill-opacity="0.901960784" fill="#000000" fill-rule="nonzero"></path>
            <path d="M47.86,50.45 C47.42,50.45 47.0366667,50.3433333 46.71,50.13 C46.3833333,49.9166667 46.1666667,49.59 46.06,49.15 L46.76,48.74 C46.9266667,49.3333333 47.2933333,49.63 47.86,49.63 C48.24,49.63 48.515,49.4966667 48.685,49.23 C48.855,48.9633333 48.94,48.5733333 48.94,48.06 L48.94,43.02 L49.83,43.02 L49.83,48.15 C49.83,48.9433333 49.6466667,49.525 49.28,49.895 C48.9133333,50.265 48.44,50.45 47.86,50.45 Z" id="路径" fill-opacity="0.4" fill="#000000" fill-rule="nonzero"></path>
            <polygon id="路径" fill-opacity="0.4" fill="#000000" fill-rule="nonzero" points="54.16 46.14 57.38 50.34 56.24 50.34 53.54 46.8 52.39 48.01 52.39 50.34 51.5 50.34 51.5 43.02 52.39 43.02 52.39 46.91 55.97 43.02 57.13 43.02"></polygon>
            <polygon id="路径" fill-opacity="0.4" fill="#000000" fill-rule="nonzero" points="58.15 43.02 59.04 43.02 59.04 49.54 62.65 49.54 62.65 50.34 58.15 50.34"></polygon>
        </g>
    </g>
</svg>