<svg viewBox="0 0 109 60" xmlns="http://www.w3.org/2000/svg" xmlns:xlink="http://www.w3.org/1999/xlink" width="109px" height="60px" fill="none" customFrame="#000000">
	<g id="阿语4">
		<rect id="Rectangle" width="109" height="60" x="0" y="0" />
		<path id="٤" d="M54.5961 26.3841C56.1369 26.8926 57.0693 27.0528 57.3933 26.8644C57.6947 25.9979 58.094 24.8451 58.5913 23.406C55.8789 22.66 54.2137 22.0497 53.5959 21.5751C53.5959 21.0778 54.3795 20.0305 55.9467 18.4331C56.4214 17.9886 56.7303 17.5063 56.8734 16.9865L57.1221 16.1614L57.0091 15.6641C54.8692 14.6168 53.7993 13.9726 53.7993 13.7315C53.7993 13.5205 54.0442 13.1852 54.5339 12.7256C55.0237 12.266 55.5172 11.9345 56.0145 11.731L56.4892 9.28979C56.3309 9.28979 55.7847 9.51207 54.8504 9.95661C52.0626 11.8252 50.6686 13.8407 50.6686 16.0032C50.6686 16.3347 51.0981 16.7962 51.9571 17.3877C52.816 17.9791 53.4113 18.4293 53.7428 18.7383C52.9592 19.7554 52.2829 20.6766 51.7141 21.5016C51.1452 22.3266 50.8608 23.0594 50.8608 23.6998C50.8608 24.0615 51.0981 24.4721 51.5728 24.9318C52.0475 25.3914 53.0552 25.8755 54.5961 26.3841Z" fill="rgb(0,0,0)" fill-opacity="0.899999976" fill-rule="nonzero" />
		<path id="GHI" d="M50.892 51.36C51.34 51.36 51.7427 51.2773 52.1 51.112C52.4573 50.9467 52.7213 50.7387 52.892 50.488L52.892 48.208L50.94 48.208L50.94 48.848L52.18 48.848L52.18 50.256C51.8973 50.5547 51.484 50.704 50.94 50.704C50.5187 50.704 50.148 50.6053 49.828 50.408C49.508 50.2107 49.26 49.932 49.084 49.572C48.908 49.212 48.82 48.7973 48.82 48.328C48.82 47.864 48.904 47.4547 49.072 47.1C49.24 46.7453 49.4747 46.4693 49.776 46.272C50.0773 46.0747 50.4227 45.976 50.812 45.976C51.1533 45.976 51.452 46.0493 51.708 46.196C51.964 46.3427 52.156 46.536 52.284 46.776L52.86 46.44C52.6947 46.088 52.432 45.8133 52.072 45.616C51.712 45.4187 51.3027 45.32 50.844 45.32C50.3267 45.32 49.856 45.4467 49.432 45.7C49.008 45.9533 48.6747 46.308 48.432 46.764C48.1893 47.22 48.068 47.7413 48.068 48.328C48.068 48.92 48.1893 49.4467 48.432 49.908C48.6747 50.3693 49.0107 50.7267 49.44 50.98C49.8693 51.2333 50.3533 51.36 50.892 51.36ZM54.676 51.272L54.676 48.552L57.82 48.552L57.82 51.272L58.532 51.272L58.532 45.416L57.82 45.416L57.82 47.912L54.676 47.912L54.676 45.416L53.964 45.416L53.964 51.272L54.676 51.272ZM60.636 51.272L60.636 45.416L59.924 45.416L59.924 51.272L60.636 51.272Z" fill="rgb(0,0,0)" fill-opacity="0.400000006" fill-rule="nonzero" />
		<path id="سشصض" d="M68.3982 40.4864C68.9528 40.4864 69.4965 40.3152 70.0293 39.9729C70.5549 39.6088 70.8177 39.1591 70.8177 38.6239C71.0902 38.6239 71.2578 38.6203 71.3204 38.613C71.4892 38.5913 71.6375 38.5274 71.7653 38.4213C71.9485 38.5033 72.1456 38.5624 72.3566 38.5985C72.5676 38.6347 72.8069 38.6528 73.0745 38.6528C73.2095 38.6528 73.3253 38.6498 73.4217 38.6438C73.5182 38.6377 73.5989 38.6311 73.664 38.6239C73.7315 38.6166 73.7653 38.3321 73.7653 37.7703C73.7653 37.1145 73.7195 36.7505 73.6279 36.6781L73.0275 37.2098C73.1625 37.3134 73.23 37.4955 73.23 37.7559C73.23 37.8017 73.221 37.8403 73.2029 37.8716C73.1848 37.903 73.1517 37.9271 73.1034 37.9439C73.0552 37.9608 72.9901 37.9729 72.9081 37.9801C72.8262 37.9873 72.7213 37.991 72.5935 37.991C72.2704 37.991 72.1089 37.9488 72.1089 37.8644C72.1089 37.8523 72.1125 37.8403 72.1197 37.8282C72.192 37.6594 72.2282 37.4533 72.2282 37.2098C72.2282 37.1037 72.2276 37.0114 72.2264 36.9331C72.2252 36.8547 72.2222 36.7914 72.2174 36.7432L71.7183 37.2459C71.74 37.2845 71.7508 37.3496 71.7508 37.4412C71.7508 37.6823 71.7243 37.8318 71.6713 37.8897C71.611 37.9572 71.4675 37.991 71.2409 37.991C70.9684 37.991 70.8201 37.9464 70.796 37.8571C70.7237 37.5268 70.5983 37.1893 70.4199 36.8445L69.8557 37.5063C69.9401 37.5907 70.013 37.6847 70.0745 37.7884C70.136 37.8921 70.1872 38.0012 70.2282 38.1157C70.2692 38.2303 70.3005 38.3472 70.3223 38.4665C70.3439 38.5859 70.3572 38.7046 70.362 38.8228C70.362 38.994 70.3367 39.1121 70.2861 39.1772C70.2764 39.1893 70.2475 39.2128 70.1993 39.2477C70.1511 39.2827 70.086 39.3231 70.004 39.3689C69.922 39.4147 69.8256 39.4635 69.7147 39.5154C69.6037 39.5672 69.4814 39.6142 69.3476 39.6564C69.2137 39.6986 69.0709 39.7342 68.919 39.7631C68.7671 39.792 68.6104 39.8077 68.4488 39.8101C67.5423 39.8101 67.089 39.4593 67.089 38.7577C67.089 38.6661 67.101 38.5582 67.1251 38.434C67.1493 38.3098 67.1812 38.1832 67.221 38.0542C67.2608 37.9253 67.306 37.8023 67.3566 37.6853C67.4072 37.5684 67.4591 37.4738 67.5121 37.4014C67.3626 37.522 67.1734 37.8294 66.9443 38.3237C66.7635 38.7263 66.6731 39.0699 66.6731 39.3544C66.6731 39.5521 66.7074 39.7221 66.7761 39.8644C66.8448 40.0066 66.9497 40.1242 67.0908 40.217C67.2318 40.3098 67.4109 40.3779 67.6279 40.4213C67.8448 40.4647 68.1016 40.4864 68.3982 40.4864ZM62.4154 35.1881L62.7445 34.5805L61.9091 34.1139L61.5944 34.6926L62.4154 35.1881ZM63.3449 36.1609L63.6306 35.6221L62.8169 35.141L62.5348 35.6799L63.3449 36.1609ZM62.2237 36.2586L62.5348 35.6799L61.7427 35.2061L61.4425 35.7776L62.2237 36.2586ZM58.9362 40.4864C59.4908 40.4864 60.0345 40.3152 60.5673 39.9729C61.0929 39.6088 61.3557 39.1591 61.3557 38.6239C61.6282 38.6239 61.7958 38.6203 61.8585 38.613C62.0272 38.5913 62.1755 38.5274 62.3033 38.4213C62.4865 38.5033 62.6836 38.5624 62.8946 38.5985C63.1056 38.6347 63.3449 38.6528 63.6125 38.6528C63.7475 38.6528 63.8633 38.6498 63.9597 38.6438C64.0562 38.6377 64.1369 38.6311 64.202 38.6239C64.2695 38.6166 64.3033 38.3321 64.3033 37.7703C64.3033 37.1145 64.2575 36.7505 64.1659 36.6781L63.5655 37.2098C63.7005 37.3134 63.768 37.4955 63.768 37.7559C63.768 37.8017 63.759 37.8403 63.7409 37.8716C63.7228 37.903 63.6897 37.9271 63.6415 37.9439C63.5932 37.9608 63.5281 37.9729 63.4462 37.9801C63.3642 37.9873 63.2593 37.991 63.1315 37.991C62.8084 37.991 62.6469 37.9488 62.6469 37.8644C62.6469 37.8523 62.6505 37.8403 62.6577 37.8282C62.7301 37.6594 62.7662 37.4533 62.7662 37.2098C62.7662 37.1037 62.7656 37.0114 62.7644 36.9331C62.7632 36.8547 62.7602 36.7914 62.7554 36.7432L62.2563 37.2459C62.278 37.2845 62.2888 37.3496 62.2888 37.4412C62.2888 37.6823 62.2623 37.8318 62.2093 37.8897C62.149 37.9572 62.0055 37.991 61.7789 37.991C61.5064 37.991 61.3582 37.9464 61.334 37.8571C61.2617 37.5268 61.1363 37.1893 60.9579 36.8445L60.3937 37.5063C60.4781 37.5907 60.551 37.6847 60.6125 37.7884C60.674 37.8921 60.7252 38.0012 60.7662 38.1157C60.8072 38.2303 60.8386 38.3472 60.8603 38.4665C60.882 38.5859 60.8952 38.7046 60.9 38.8228C60.9 38.994 60.8747 39.1121 60.8241 39.1772C60.8144 39.1893 60.7855 39.2128 60.7373 39.2477C60.6891 39.2827 60.624 39.3231 60.542 39.3689C60.46 39.4147 60.3636 39.4635 60.2527 39.5154C60.1418 39.5672 60.0194 39.6142 59.8856 39.6564C59.7518 39.6986 59.6089 39.7342 59.457 39.7631C59.3051 39.792 59.1484 39.8077 58.9868 39.8101C58.0803 39.8101 57.627 39.4593 57.627 38.7577C57.627 38.6661 57.639 38.5582 57.6632 38.434C57.6873 38.3098 57.7192 38.1832 57.759 38.0542C57.7988 37.9253 57.844 37.8023 57.8946 37.6853C57.9453 37.5684 57.9971 37.4738 58.0501 37.4014C57.9007 37.522 57.7114 37.8294 57.4823 38.3237C57.3015 38.7263 57.2111 39.0699 57.2111 39.3544C57.2111 39.5521 57.2454 39.7221 57.3141 39.8644C57.3829 40.0066 57.4877 40.1242 57.6288 40.217C57.7698 40.3098 57.9489 40.3779 58.1659 40.4213C58.3829 40.4647 58.6396 40.4864 58.9362 40.4864ZM47.7129 40.4792C48.4362 40.4792 49.0426 40.314 49.5321 39.9837C50.0577 39.6269 50.3205 39.1784 50.3205 38.6383L53.9335 38.6383C54.4423 38.6383 54.7196 38.5985 54.7654 38.519C54.8666 38.3309 54.9173 38.1344 54.9173 37.9295C54.9173 37.4183 54.4483 36.9566 53.5104 36.5443C53.3995 36.4961 53.2946 36.472 53.1957 36.472C52.945 36.472 52.6279 36.5998 52.2446 36.8553C52.0951 36.9542 51.7865 37.1917 51.3187 37.5678C51.0004 37.8186 50.7907 37.9439 50.6894 37.9439L50.3133 37.9439C50.3085 37.7993 50.2651 37.6064 50.1831 37.3653C50.0939 37.1025 50.0071 36.9289 49.9227 36.8445L49.3585 37.5063C49.4284 37.5666 49.4941 37.6486 49.5556 37.7523C49.6171 37.8559 49.6707 37.9687 49.7165 38.0904C49.7623 38.2122 49.7985 38.3369 49.825 38.4647C49.8516 38.5925 49.8648 38.7119 49.8648 38.8228C49.8648 38.9457 49.8467 39.0482 49.8106 39.1302C49.8082 39.1471 49.7816 39.176 49.731 39.217C49.6804 39.258 49.6117 39.3038 49.5249 39.3544C49.4381 39.4051 49.3356 39.4569 49.2174 39.5099C49.0993 39.563 48.9721 39.6118 48.8359 39.6564C48.6997 39.701 48.5562 39.7378 48.4055 39.7667C48.2548 39.7957 48.1035 39.8101 47.9516 39.8101C47.045 39.8101 46.5918 39.4593 46.5918 38.7577C46.5918 38.6661 46.6038 38.5582 46.6279 38.434C46.652 38.3098 46.684 38.1832 46.7238 38.0542C46.7636 37.9253 46.8088 37.8023 46.8594 37.6853C46.91 37.5684 46.9619 37.4738 47.0149 37.4014C46.8389 37.5582 46.6496 37.8656 46.4471 38.3237C46.2663 38.7263 46.1758 39.0699 46.1758 39.3544C46.1758 39.5594 46.2102 39.733 46.2789 39.8752C46.3476 40.0175 46.4471 40.1332 46.5773 40.2224C46.7075 40.3116 46.8678 40.3767 47.0583 40.4177C47.2488 40.4587 47.467 40.4792 47.7129 40.4792ZM53.0945 38.0597C52.5616 38.0597 52.1572 38.053 51.8811 38.0398C51.605 38.0265 51.4513 38.0139 51.42 38.0018C51.42 37.8957 51.6599 37.7269 52.1397 37.4955C52.6074 37.2664 52.9197 37.1519 53.0764 37.1519C53.2283 37.1519 53.4851 37.2459 53.8467 37.434C54.2277 37.6317 54.4182 37.7872 54.4182 37.9005C54.4182 38.0066 53.9769 38.0597 53.0945 38.0597ZM42.1243 35.4014L42.4571 34.8336L41.6253 34.3599L41.3106 34.9277L42.1243 35.4014ZM36.6777 40.4792C37.401 40.4792 38.0074 40.314 38.4969 39.9837C39.0225 39.6269 39.2853 39.1784 39.2853 38.6383L42.8983 38.6383C43.4071 38.6383 43.6843 38.5985 43.7301 38.519C43.8314 38.3309 43.882 38.1344 43.882 37.9295C43.882 37.4183 43.4131 36.9566 42.4752 36.5443C42.3643 36.4961 42.2594 36.472 42.1605 36.472C41.9098 36.472 41.5927 36.5998 41.2093 36.8553C41.0599 36.9542 40.7512 37.1917 40.2835 37.5678C39.9652 37.8186 39.7555 37.9439 39.6542 37.9439L39.2781 37.9439C39.2732 37.7993 39.2298 37.6064 39.1479 37.3653C39.0586 37.1025 38.9718 36.9289 38.8875 36.8445L38.3233 37.5063C38.3932 37.5666 38.4589 37.6486 38.5204 37.7523C38.5819 37.8559 38.6355 37.9687 38.6813 38.0904C38.7271 38.2122 38.7633 38.3369 38.7898 38.4647C38.8163 38.5925 38.8296 38.7119 38.8296 38.8228C38.8296 38.9457 38.8115 39.0482 38.7753 39.1302C38.7729 39.1471 38.7464 39.176 38.6958 39.217C38.6451 39.258 38.5764 39.3038 38.4896 39.3544C38.4028 39.4051 38.3004 39.4569 38.1822 39.5099C38.0641 39.563 37.9369 39.6118 37.8007 39.6564C37.6644 39.701 37.521 39.7378 37.3703 39.7667C37.2196 39.7957 37.0683 39.8101 36.9164 39.8101C36.0098 39.8101 35.5565 39.4593 35.5565 38.7577C35.5565 38.6661 35.5686 38.5582 35.5927 38.434C35.6168 38.3098 35.6488 38.1832 35.6885 38.0542C35.7283 37.9253 35.7735 37.8023 35.8242 37.6853C35.8748 37.5684 35.9266 37.4738 35.9797 37.4014C35.8037 37.5582 35.6144 37.8656 35.4119 38.3237C35.231 38.7263 35.1406 39.0699 35.1406 39.3544C35.1406 39.5594 35.175 39.733 35.2437 39.8752C35.3124 40.0175 35.4119 40.1332 35.5421 40.2224C35.6723 40.3116 35.8326 40.3767 36.0231 40.4177C36.2136 40.4587 36.4318 40.4792 36.6777 40.4792ZM42.0592 38.0597C41.5264 38.0597 41.1219 38.053 40.8459 38.0398C40.5698 38.0265 40.4161 38.0139 40.3847 38.0018C40.3847 37.8957 40.6246 37.7269 41.1045 37.4955C41.5722 37.2664 41.8844 37.1519 42.0412 37.1519C42.1931 37.1519 42.4498 37.2459 42.8115 37.434C43.1925 37.6317 43.3829 37.7872 43.3829 37.9005C43.3829 38.0066 42.9417 38.0597 42.0592 38.0597Z" fill="rgb(0,0,0)" fill-opacity="0.400000006" fill-rule="nonzero" />
	</g>
</svg>
