<svg viewBox="0 0 109 60" xmlns="http://www.w3.org/2000/svg" xmlns:xlink="http://www.w3.org/1999/xlink" width="109px" height="60px" fill="none" customFrame="#000000">
	<g id="阿语5按压态">
		<rect id="Rectangle" width="109" height="60" x="0" y="0" />
		<circle id="椭圆 1" cx="54.5" cy="30" r="28" fill="rgb(0,0,0)" fill-opacity="0.100000001" />
		<path id="٥" d="M53.6863 23.5529C55.2761 23.5529 56.7868 22.984 58.2184 21.8463C58.565 21.5525 58.8965 20.8178 59.213 19.6424C59.5068 18.5198 59.6537 17.5176 59.6537 16.6361C59.6537 16.2443 59.6161 15.9504 59.5407 15.7545C59.0886 14.5188 58.4463 13.5582 57.6137 12.8725C56.7812 12.1869 55.9505 11.8742 55.1217 11.9345C54.0668 12.0098 52.946 12.9686 51.7593 14.8108C50.5726 16.653 49.9792 18.3879 49.9792 20.0154C49.9792 20.9798 50.2241 21.7371 50.7139 22.2871C51.4824 23.131 52.4732 23.5529 53.6863 23.5529ZM54.8956 19.6989C53.2305 19.6989 52.3188 19.2883 52.1605 18.467C52.1379 18.3239 52.1266 18.1958 52.1266 18.0827C52.1266 17.495 52.3527 16.945 52.8047 16.4327C53.1965 16.0032 53.5394 15.7771 53.8332 15.7545C54.6545 15.7169 55.585 16.1765 56.6248 17.1334C57.6043 18.0375 57.9961 18.5876 57.8002 18.7835C57.1748 19.3938 56.2066 19.6989 54.8956 19.6989Z" fill="rgb(0,0,0)" fill-opacity="0.899999976" fill-rule="nonzero" />
		<path id="JKL" d="M49.188 51.36C49.652 51.36 50.0307 51.212 50.324 50.916C50.6174 50.62 50.764 50.1547 50.764 49.52L50.764 45.416L50.052 45.416L50.052 49.448C50.052 49.8587 49.984 50.1707 49.848 50.384C49.712 50.5973 49.492 50.704 49.188 50.704C48.7347 50.704 48.4414 50.4667 48.308 49.992L47.748 50.32C47.8334 50.672 48.0067 50.9333 48.268 51.104C48.5294 51.2747 48.836 51.36 49.188 51.36ZM52.812 51.272L52.812 49.408L53.732 48.44L55.892 51.272L56.804 51.272L54.228 47.912L56.604 45.416L55.676 45.416L52.812 48.528L52.812 45.416L52.1 45.416L52.1 51.272L52.812 51.272ZM61.02 51.272L61.02 50.632L58.132 50.632L58.132 45.416L57.42 45.416L57.42 51.272L61.02 51.272Z" fill="rgb(0,0,0)" fill-opacity="0.400000006" fill-rule="nonzero" />
		<path id="دذرز" d="M62.4164 38.8987C62.6913 38.8987 62.9999 38.8734 63.3423 38.8228C63.5472 38.7914 63.7075 38.7607 63.8233 38.7305C63.939 38.7004 64.0258 38.6624 64.0837 38.6166C64.1415 38.5708 64.1783 38.5148 64.194 38.4485C64.2096 38.3821 64.2175 38.296 64.2175 38.1899C64.2175 37.8089 64.1234 37.2459 63.9354 36.5009C63.7545 35.8065 63.6424 35.4533 63.599 35.4412L63.194 36.2803C63.2615 36.2996 63.3796 36.5491 63.5484 37.0289C63.7124 37.4894 63.7943 37.78 63.7943 37.9005C63.7943 37.9897 63.6099 38.0597 63.241 38.1103C63.1036 38.1296 62.977 38.1434 62.8612 38.1519C62.7455 38.1603 62.6382 38.1645 62.5394 38.1645C62.2548 38.1645 62.0547 38.132 61.939 38.0669C61.9028 38.0428 61.8847 37.9391 61.8847 37.7559L61.8847 37.4882C61.8799 37.4858 61.8751 37.4846 61.8703 37.4846C61.8438 37.4846 61.8166 37.5178 61.7889 37.5841C61.7612 37.6504 61.7365 37.7275 61.7148 37.8155C61.6931 37.9035 61.675 37.9928 61.6605 38.0832C61.646 38.1736 61.6388 38.2393 61.6388 38.2803C61.6388 38.5527 61.7051 38.7287 61.8377 38.8083C61.9366 38.8686 62.1295 38.8987 62.4164 38.8987ZM58.166 34.7034L58.4987 34.1356L57.6669 33.6618L57.3522 34.2296L58.166 34.7034ZM56.9942 38.8987C57.2691 38.8987 57.5777 38.8734 57.92 38.8228C58.125 38.7914 58.2853 38.7607 58.4011 38.7305C58.5168 38.7004 58.6036 38.6624 58.6615 38.6166C58.7193 38.5708 58.7561 38.5148 58.7718 38.4485C58.7874 38.3821 58.7953 38.296 58.7953 38.1899C58.7953 37.8089 58.7012 37.2459 58.5132 36.5009C58.3323 35.8065 58.2202 35.4533 58.1768 35.4412L57.7718 36.2803C57.8393 36.2996 57.9574 36.5491 58.1262 37.0289C58.2901 37.4894 58.3721 37.78 58.3721 37.9005C58.3721 37.9897 58.1877 38.0597 57.8188 38.1103C57.6813 38.1296 57.5548 38.1434 57.439 38.1519C57.3233 38.1603 57.216 38.1645 57.1171 38.1645C56.8326 38.1645 56.6325 38.132 56.5168 38.0669C56.4806 38.0428 56.4625 37.9391 56.4625 37.7559L56.4625 37.4882C56.4577 37.4858 56.4529 37.4846 56.4481 37.4846C56.4216 37.4846 56.3944 37.5178 56.3667 37.5841C56.339 37.6504 56.3143 37.7275 56.2926 37.8155C56.2709 37.9035 56.2528 37.9928 56.2383 38.0832C56.2238 38.1736 56.2166 38.2393 56.2166 38.2803C56.2166 38.5527 56.2829 38.7287 56.4155 38.8083C56.5144 38.8686 56.7073 38.8987 56.9942 38.8987ZM51.4743 40.5913C51.8649 40.5913 52.27 40.4044 52.6895 40.0307C53.1766 39.5967 53.4201 39.0711 53.4201 38.4539C53.4201 38.2875 53.4014 38.1224 53.364 37.9584C53.3266 37.7944 53.2736 37.6383 53.2049 37.49C53.1362 37.3418 53.0536 37.2092 52.9571 37.0922C52.8607 36.9753 52.7546 36.8794 52.6389 36.8047L52.3242 37.4882C52.8113 37.8306 53.0548 38.1658 53.0548 38.4937C53.0548 38.5539 53.0391 38.6154 53.0078 38.6781C52.5641 39.5196 51.9517 39.9403 51.1705 39.9403C50.9993 39.9379 50.8318 39.9168 50.6678 39.877C50.5039 39.8372 50.3435 39.7848 50.1868 39.7197C50.1217 39.6835 50.0687 39.6498 50.0277 39.6184C50.4978 40.267 50.9801 40.5913 51.4743 40.5913ZM46.7284 35.7342L47.0612 35.1664L46.2293 34.6926L45.9147 35.2604L46.7284 35.7342ZM46.0521 40.5913C46.4427 40.5913 46.8478 40.4044 47.2673 40.0307C47.7544 39.5967 47.9979 39.0711 47.9979 38.4539C47.9979 38.2875 47.9792 38.1224 47.9418 37.9584C47.9044 37.7944 47.8514 37.6383 47.7827 37.49C47.714 37.3418 47.6314 37.2092 47.5349 37.0922C47.4385 36.9753 47.3324 36.8794 47.2167 36.8047L46.902 37.4882C47.3891 37.8306 47.6326 38.1658 47.6326 38.4937C47.6326 38.5539 47.6169 38.6154 47.5856 38.6781C47.1419 39.5196 46.5295 39.9403 45.7483 39.9403C45.5771 39.9379 45.4096 39.9168 45.2456 39.877C45.0817 39.8372 44.9213 39.7848 44.7646 39.7197C44.6995 39.6835 44.6465 39.6498 44.6055 39.6184C45.0756 40.267 45.5578 40.5913 46.0521 40.5913Z" fill="rgb(0,0,0)" fill-opacity="0.400000006" fill-rule="nonzero" />
	</g>
</svg>
