<svg viewBox="0 0 109 60" xmlns="http://www.w3.org/2000/svg" xmlns:xlink="http://www.w3.org/1999/xlink" width="109px" height="60px" fill="none" customFrame="#000000">
	<g id="阿语1按压态">
		<rect id="Rectangle" width="109" height="60" x="0" y="0" />
		<circle id="椭圆 1" fill-opacity="0.101960784" fill="#000000" cx="54.5" cy="30" r="28" />
		<g id="Smart-Speakerfiled">
			<path id="path-1" d="M58.75 38.5312C60.3896 38.5312 61.7188 39.8604 61.7188 41.5C61.7188 43.1396 60.3896 44.4688 58.75 44.4688C58.6836 44.4688 58.6177 44.4666 58.5524 44.4623L51.4477 44.4623C51.3824 44.4666 51.3164 44.4688 51.25 44.4688C49.6104 44.4688 48.2812 43.1396 48.2812 41.5C48.2812 39.8604 49.6104 38.5312 51.25 38.5312C52.8896 38.5312 54.2188 39.8604 54.2188 41.5C54.2188 42.2826 53.9159 42.9944 53.4211 43.5248L56.5789 43.5248C56.0841 42.9944 55.7812 42.2826 55.7812 41.5C55.7812 39.8604 57.1104 38.5312 58.75 38.5312ZM51.25 39.4688C50.1282 39.4688 49.2188 40.3782 49.2188 41.5C49.2188 42.5667 50.041 43.4414 51.0863 43.5247L51.0938 43.5239L51.4188 43.5243C52.4617 43.4385 53.2812 42.565 53.2812 41.5C53.2812 40.3782 52.3718 39.4688 51.25 39.4688ZM58.75 39.4688C57.6282 39.4688 56.7188 40.3782 56.7188 41.5C56.7188 42.5647 57.5379 43.438 58.5803 43.5243L58.9062 43.5239C59.959 43.4414 60.7812 42.5667 60.7812 41.5C60.7812 40.3782 59.8718 39.4688 58.75 39.4688Z" fill="rgb(0,0,0)" fill-opacity="0.400000006" fill-rule="nonzero" />
		</g>
		<path id="١" d="M56.3422 27.3165C57.0053 26.4575 57.3368 25.2181 57.3368 23.5981C57.3368 20.0493 56.7886 16.9149 55.6923 14.1948C54.5961 11.4748 53.7051 9.91139 53.0194 9.50452L51.6858 13.6976C54.24 17.8115 55.7922 22.3511 56.3422 27.3165Z" fill="rgb(0,0,0)" fill-opacity="0.899999976" fill-rule="nonzero" />
	</g>
</svg>
