<svg viewBox="0 0 109 60" xmlns="http://www.w3.org/2000/svg" xmlns:xlink="http://www.w3.org/1999/xlink" width="109px" height="60px" fill="none" customFrame="#000000">
	<g id="阿语2按压态">
		<rect id="Rectangle" width="109" height="60" x="0" y="0" />
		<circle id="椭圆 1" cx="54.5" cy="30" r="28" fill="rgb(0,0,0)" fill-opacity="0.100000001" />
		<path id="٢" d="M55.6641 27.4747C56.2669 26.6007 56.5683 25.5571 56.5683 24.344C56.5683 23.1385 56.4609 21.8162 56.2462 20.377C56.0314 18.9379 55.7771 17.8868 55.4833 17.2238C55.7244 17.2238 56.0785 17.1315 56.5457 16.9469C57.0128 16.7623 57.495 16.4439 57.9923 15.9919C58.7232 15.1932 59.1602 13.6486 59.3033 11.3581C59.3335 10.484 59.2506 10.047 59.0547 10.047C57.7813 11.8252 56.4967 12.7143 55.2007 12.7143C53.6863 12.7143 52.4581 11.7838 51.5163 9.9227L49.8323 12.8725C52.8913 17.0467 54.8353 21.9141 55.6641 27.4747Z" fill="rgb(0,0,0)" fill-opacity="0.899999976" fill-rule="nonzero" />
		<path id="ABC" d="M47.412 51.272L48.028 49.592L50.452 49.592L51.1 51.272L51.892 51.272L49.54 45.416L48.94 45.416L46.692 51.272L47.412 51.272ZM50.204 48.952L48.268 48.952L49.212 46.368L50.204 48.952ZM54.74 51.272C55.4387 51.272 55.9667 51.1267 56.324 50.836C56.6813 50.5453 56.86 50.1387 56.86 49.616C56.86 48.88 56.4947 48.408 55.764 48.2C56.2654 47.96 56.516 47.56 56.516 47C56.516 46.68 56.4333 46.4 56.268 46.16C56.1027 45.92 55.868 45.736 55.564 45.608C55.26 45.48 54.9027 45.416 54.492 45.416L52.644 45.416L52.644 51.272L54.74 51.272ZM54.372 47.968L53.356 47.968L53.356 46.048L54.372 46.048C54.8093 46.048 55.1507 46.1333 55.396 46.304C55.6413 46.4747 55.764 46.7067 55.764 47C55.764 47.304 55.6427 47.5413 55.4 47.712C55.1573 47.8827 54.8147 47.968 54.372 47.968ZM54.612 50.648L53.356 50.648L53.356 48.56L54.612 48.56C55.1133 48.56 55.488 48.6533 55.736 48.84C55.984 49.0267 56.108 49.2853 56.108 49.616C56.108 49.9413 55.984 50.1947 55.736 50.376C55.488 50.5573 55.1133 50.648 54.612 50.648ZM60.22 51.36C60.6733 51.36 61.0733 51.2533 61.42 51.04C61.7667 50.8267 62.0227 50.5307 62.188 50.152L61.612 49.816C61.3133 50.408 60.844 50.704 60.204 50.704C59.8307 50.704 59.5 50.6053 59.212 50.408C58.924 50.2107 58.7013 49.932 58.544 49.572C58.3867 49.212 58.308 48.8 58.308 48.336C58.308 47.872 58.3867 47.4613 58.544 47.104C58.7013 46.7467 58.924 46.4693 59.212 46.272C59.5 46.0747 59.8307 45.976 60.204 45.976C60.844 45.976 61.3133 46.272 61.612 46.864L62.188 46.528C62.0227 46.1493 61.7667 45.8533 61.42 45.64C61.0733 45.4267 60.6733 45.32 60.22 45.32C59.724 45.32 59.2733 45.4467 58.868 45.7C58.4627 45.9533 58.1427 46.3093 57.908 46.768C57.6733 47.2267 57.556 47.7493 57.556 48.336C57.556 48.9227 57.6733 49.4453 57.908 49.904C58.1427 50.3627 58.4627 50.72 58.868 50.976C59.2733 51.232 59.724 51.36 60.22 51.36Z" fill="rgb(0,0,0)" fill-opacity="0.400000006" fill-rule="nonzero" />
		<path id="بتةث" d="M64.1415 38.9458C64.3609 38.9458 64.587 38.9355 64.8196 38.915C65.0523 38.8945 65.2952 38.8638 65.5484 38.8228C65.8088 38.777 66.0197 38.7324 66.1813 38.689C66.3428 38.6456 66.4562 38.5986 66.5213 38.5479C66.6924 38.4129 66.778 38.1236 66.778 37.6799C66.778 37.3134 66.649 36.9204 66.3911 36.5009L66.0583 37.2278C66.297 37.5292 66.4164 37.7511 66.4164 37.8933C66.4164 38.0163 66.0957 38.1091 65.4543 38.1718C65.2205 38.1959 65.0053 38.2134 64.8088 38.2242C64.6123 38.2351 64.4296 38.2405 64.2609 38.2405C63.9643 38.2405 63.7093 38.2327 63.4959 38.217C63.2826 38.2013 63.1084 38.1778 62.9733 38.1465C62.426 38.0187 62.1524 37.7559 62.1524 37.358C62.1524 37.223 62.2042 36.9892 62.3079 36.6564C62.1126 36.9216 61.9981 37.0856 61.9643 37.1483C61.863 37.3363 61.8124 37.5292 61.8124 37.7269C61.8124 38.5395 62.5888 38.9458 64.1415 38.9458ZM64.4634 40.5262L64.7961 39.9584L63.9643 39.4846L63.6497 40.0524L64.4634 40.5262ZM57.7681 36.2297L58.09 35.6872L57.3269 35.2315L57.0086 35.745L57.7681 36.2297ZM56.6976 36.2477L57.0086 35.745L56.2528 35.2604L55.9454 35.7957L56.6976 36.2477ZM56.864 39.0542C57.0834 39.0542 57.3094 39.044 57.5421 39.0235C57.7748 39.003 58.0177 38.9723 58.2708 38.9313C58.5312 38.8855 58.7422 38.8409 58.9038 38.7975C59.0653 38.7541 59.1786 38.7071 59.2437 38.6564C59.4149 38.5214 59.5005 38.2321 59.5005 37.7884C59.5005 37.4219 59.3715 37.0289 59.1135 36.6094L58.7808 37.3363C59.0195 37.6377 59.1388 37.8596 59.1388 38.0018C59.1388 38.1248 58.8182 38.2176 58.1768 38.2803C57.9429 38.3044 57.7277 38.3219 57.5312 38.3327C57.3347 38.3436 57.1521 38.349 56.9833 38.349C56.6868 38.349 56.4318 38.3412 56.2184 38.3255C56.005 38.3098 55.8308 38.2863 55.6958 38.255C55.1485 38.1272 54.8748 37.8644 54.8748 37.4665C54.8748 37.3315 54.9267 37.0976 55.0303 36.7649C54.835 37.0301 54.7205 37.1941 54.6868 37.2568C54.5855 37.4448 54.5349 37.6377 54.5349 37.8354C54.5349 38.648 55.3112 39.0542 56.864 39.0542ZM51.3586 35.0904L51.6805 34.5479L50.9174 34.0922L50.5991 34.6058L51.3586 35.0904ZM50.2881 35.1085L50.5991 34.6058L49.8432 34.1212L49.5358 34.6564L50.2881 35.1085ZM50.8993 38.83C51.0439 38.83 51.1766 38.8017 51.2971 38.745C51.4177 38.6884 51.5219 38.6088 51.6099 38.5063C51.698 38.4039 51.7661 38.2833 51.8143 38.1447C51.8625 38.006 51.8866 37.8547 51.8866 37.6908C51.8866 37.4111 51.7721 37.182 51.543 37.0036C51.5334 36.9964 51.5123 36.9801 51.4797 36.9548C51.4472 36.9295 51.408 36.8993 51.3622 36.8644C51.3164 36.8294 51.2688 36.7938 51.2193 36.7577C51.1699 36.7215 51.1229 36.6872 51.0783 36.6546C51.0337 36.6221 50.9969 36.5943 50.968 36.5714C50.9391 36.5485 50.921 36.5359 50.9137 36.5335C50.8004 36.4418 50.7154 36.3369 50.6588 36.2188C50.6021 36.1007 50.5738 35.9717 50.5738 35.8318C50.2001 36.1718 50.0132 36.425 50.0132 36.5913C50.0132 36.6323 50.0506 36.7058 50.1253 36.8119C50.0144 36.8746 49.889 37.076 49.7492 37.4159C49.6142 37.739 49.5467 37.9753 49.5467 38.1248C49.5467 38.3562 49.6527 38.5142 49.8649 38.5986C50.2603 38.7529 50.6051 38.83 50.8993 38.83ZM50.8125 38.1248C50.4725 38.1248 50.1989 38.0319 49.9915 37.8463C49.9794 37.8246 49.9734 37.7993 49.9734 37.7703C49.9734 37.7366 49.9873 37.6793 50.015 37.5986C50.0427 37.5178 50.0753 37.4352 50.1127 37.3508C50.15 37.2664 50.1904 37.1923 50.2338 37.1284C50.2772 37.0645 50.3146 37.0326 50.3459 37.0326C50.4159 37.0326 50.6087 37.1652 50.9246 37.4304C51.238 37.6932 51.3948 37.8571 51.3948 37.9222C51.3948 38.0573 51.2007 38.1248 50.8125 38.1248ZM44.5114 35.5389L44.8405 34.9313L44.0051 34.4647L43.6905 35.0434L44.5114 35.5389ZM45.4409 36.5118L45.7266 35.9729L44.9129 35.4919L44.6308 36.0307L45.4409 36.5118ZM44.3198 36.6094L44.6308 36.0307L43.8387 35.557L43.5386 36.1284L44.3198 36.6094ZM44.6235 39.0542C44.843 39.0542 45.069 39.044 45.3017 39.0235C45.5343 39.003 45.7773 38.9723 46.0304 38.9313C46.2908 38.8855 46.5018 38.8409 46.6633 38.7975C46.8249 38.7541 46.9382 38.7071 47.0033 38.6564C47.1745 38.5214 47.2601 38.2321 47.2601 37.7884C47.2601 37.4219 47.1311 37.0289 46.8731 36.6094L46.5404 37.3363C46.7791 37.6377 46.8984 37.8596 46.8984 38.0018C46.8984 38.1248 46.5777 38.2176 45.9364 38.2803C45.7025 38.3044 45.4873 38.3219 45.2908 38.3327C45.0943 38.3436 44.9117 38.349 44.7429 38.349C44.4463 38.349 44.1914 38.3412 43.978 38.3255C43.7646 38.3098 43.5904 38.2863 43.4554 38.255C42.9081 38.1272 42.6344 37.8644 42.6344 37.4665C42.6344 37.3315 42.6862 37.0976 42.7899 36.7649C42.5946 37.0301 42.4801 37.1941 42.4463 37.2568C42.3451 37.4448 42.2944 37.6377 42.2944 37.8354C42.2944 38.648 43.0708 39.0542 44.6235 39.0542Z" fill="rgb(0,0,0)" fill-opacity="0.400000006" fill-rule="nonzero" />
	</g>
</svg>
