<svg viewBox="0 0 110 60" xmlns="http://www.w3.org/2000/svg" xmlns:xlink="http://www.w3.org/1999/xlink" width="110px" height="60px" fill="none" customFrame="#000000">
	<g id="井号">
		<rect id="Rectangle" width="110" height="5" x="0" y="0" />
		<path id="形状结合" d="M50.6501 10.775L53.1001 10.775L53.098 15.15L56.9 15.15L56.9 10.775L59.35 10.775L59.35 15.15L63.7251 15.15L63.7251 17.6L59.35 17.6L59.35 21.4L63.7251 21.4L63.7251 23.85L59.35 23.85L59.35 28.225L56.9 28.225L56.9 23.85L53.1 23.85L53.1 28.225L50.65 28.225L50.65 23.85L46.275 23.85L46.275 21.4L50.649 21.4L50.649 17.6L46.275 17.6L46.275 15.15L50.649 15.15L50.6501 10.775ZM56.9 17.6L53.099 17.6L53.099 21.4L56.9 21.4L56.9 17.6Z" fill="rgb(0,0,0)" fill-opacity="0.899999976" fill-rule="evenodd" />
		<g id=";">
			<path id="矢量 4" d="M54.426 44.1369C54.3888 44.2229 54.3702 44.3169 54.3702 44.4189C54.3702 44.5231 54.3892 44.619 54.4272 44.7068C54.4597 44.7819 54.5062 44.851 54.5665 44.9141C54.6396 44.9883 54.7204 45.042 54.8089 45.0754C54.8812 45.1026 54.9586 45.1162 55.0411 45.1162C55.1405 45.1162 55.232 45.098 55.3156 45.0617C55.393 45.028 55.4636 44.9788 55.5275 44.9141C55.5905 44.8492 55.6386 44.7779 55.6717 44.7002C55.7084 44.6143 55.7267 44.5205 55.7267 44.4189C55.7267 44.3194 55.7087 44.2275 55.6728 44.1433C55.6397 44.0656 55.5912 43.9944 55.5275 43.9297C55.462 43.8623 55.3894 43.8115 55.3096 43.7773C55.2277 43.7422 55.1382 43.7246 55.0411 43.7246C54.9607 43.7246 54.8851 43.7377 54.8144 43.764C54.7237 43.7977 54.6411 43.8529 54.5665 43.9297C54.5054 43.9926 54.4586 44.0617 54.426 44.1369ZM55.4415 51.1889C55.6629 50.8591 55.7736 50.455 55.7736 49.9766C55.7736 49.5996 55.7013 49.3213 55.5568 49.1416C55.488 49.0549 55.4087 48.9891 55.3189 48.9442C55.2227 48.8961 55.1145 48.8721 54.9943 48.8721C54.8797 48.8721 54.7772 48.8954 54.6866 48.942C54.6243 48.9741 54.5677 49.0172 54.5167 49.0713C54.4803 49.11 54.4493 49.1518 54.4237 49.1966C54.3627 49.3034 54.3322 49.4277 54.3322 49.5693C54.3322 49.6952 54.3571 49.8088 54.4069 49.9102C54.4328 49.963 54.4655 50.0124 54.505 50.0586C54.5453 50.1056 54.5905 50.1445 54.6407 50.1754C54.7366 50.2342 54.8505 50.2637 54.9825 50.2637C55.0294 50.2637 55.0656 50.2598 55.0909 50.252C55.0726 50.5872 54.9767 50.8555 54.803 51.0569C54.6621 51.2204 54.47 51.3398 54.2267 51.415L54.2267 51.9805C54.496 51.9293 54.7349 51.8333 54.9433 51.6922C55.0932 51.5908 55.2274 51.4662 55.3458 51.3184C55.3797 51.2766 55.4116 51.2334 55.4415 51.1889Z" fill="rgb(0,0,0)" fill-opacity="0.400000006" fill-rule="evenodd" />
		</g>
	</g>
</svg>
