<?xml version="1.0" encoding="UTF-8"?>
<!--
  - Copyright (c) Huawei Technologies Co., Ltd. 2024-2024. All rights reserved.
  -->

<svg width="32px" height="32px" viewBox="0 0 32 32" version="1.1" xmlns="http://www.w3.org/2000/svg" xmlns:xlink="http://www.w3.org/1999/xlink">
    <title>6</title>
    <g id="6" stroke="none" stroke-width="1" fill="none" fill-rule="evenodd">
        <rect id="矩形" x="0" y="0" width="32" height="32"></rect>
        <path d="M16.12,23.92 C17.04,23.92 17.8866667,23.7133333 18.66,23.3 C19.4333333,22.8866667 20.0433333,22.31 20.49,21.57 C20.9366667,20.83 21.16,20 21.16,19.08 C21.16,18.1866667 20.9666667,17.3866667 20.58,16.68 C20.1933333,15.9733333 19.65,15.42 18.95,15.02 C18.25,14.62 17.4533333,14.42 16.56,14.42 C16.1733333,14.42 15.78,14.4733333 15.38,14.58 C15.7,14.14 15.9266667,13.8133333 16.06,13.6 L16.06,13.6 L18.96,9.02 L16.2,9.02 L12.94,14.28 C12.26,15.3466667 11.7833333,16.21 11.51,16.87 C11.2366667,17.53 11.1,18.2333333 11.1,18.98 C11.1,19.9533333 11.32,20.8133333 11.76,21.56 C12.2,22.3066667 12.8,22.8866667 13.56,23.3 C14.32,23.7133333 15.1733333,23.92 16.12,23.92 Z M16.12,21.64 C15.4133333,21.64 14.84,21.41 14.4,20.95 C13.96,20.49 13.74,19.8866667 13.74,19.14 C13.74,18.3933333 13.9566667,17.7833333 14.39,17.31 C14.8233333,16.8366667 15.4,16.6 16.12,16.6 C16.8266667,16.6 17.3933333,16.8333333 17.82,17.3 C18.2466667,17.7666667 18.46,18.3733333 18.46,19.12 C18.46,19.8666667 18.2466667,20.4733333 17.82,20.94 C17.3933333,21.4066667 16.8266667,21.64 16.12,21.64 Z" fill-opacity="0.901795714" fill="#000000" fill-rule="nonzero"></path>
    </g>
</svg>