<?xml version="1.0" encoding="UTF-8"?>
<svg width="45px" height="45px" viewBox="0 0 24 24" version="1.1" xmlns="http://www.w3.org/2000/svg" xmlns:xlink="http://www.w3.org/1999/xlink">
    <title>群组1</title>
    <defs>
        <path d="M9,0.5 C11.8994949,0.5 14.25,2.85050506 14.25,5.75 C14.25,7.51473805 13.3792831,9.07610928 12.0440228,10.0279401 C12.6331339,10.2395631 13.1937894,10.5109152 13.7186874,10.8346957 L13.716459,10.8485886 L13.71,11 L13.7090973,12.6623431 C12.4218015,11.6226072 10.7836096,11 9,11 C4.85786438,11 1.5,14.3578644 1.5,18.5 C1.5,18.9142136 1.16421356,19.25 0.75,19.25 L0.75,19.25 C0.335786438,19.25 0,18.9142136 0,18.5 C0,14.5975795 2.48371302,11.2752612 5.95660209,10.0275821 C4.62071692,9.07610928 3.75,7.51473805 3.75,5.75 C3.75,2.85050506 6.10050506,0.5 9,0.5 Z M15.46,10.25 C15.8742136,10.25 16.21,10.5857864 16.21,11 L16.21,18.5 C16.21,18.9142136 15.8742136,19.25 15.46,19.25 C15.0457864,19.25 14.71,18.9142136 14.71,18.5 L14.71,15.538 L11.75,15.5394737 C11.3357864,15.5394737 11,15.2036872 11,14.7894737 C11,14.3752601 11.3357864,14.0394737 11.75,14.0394737 L14.71,14.039 L14.71,11 C14.71,10.5857864 15.0457864,10.25 15.46,10.25 Z M19.25,14.0394737 C19.6642136,14.0394737 20,14.3752601 20,14.7894737 C20,15.2036872 19.6642136,15.5394737 19.25,15.5394737 L17.157,15.5384737 L17.157,14.0394737 L19.25,14.0394737 Z M9,2 C6.92893219,2 5.25,3.67893219 5.25,5.75 C5.25,7.82106781 6.92893219,9.5 9,9.5 C11.0710678,9.5 12.75,7.82106781 12.75,5.75 C12.75,3.67893219 11.0710678,2 9,2 Z M12.3933827,0.266056834 C14.8326968,0.466032933 16.75,2.50911139 16.75,5 C16.75,6.63466202 15.9242699,8.07646445 14.6671636,8.93105334 L14.6534314,8.94031318 L14.6390036,8.94985953 C14.582224,8.98729828 14.505845,8.97161943 14.4684062,8.91483983 C14.4515547,8.88928293 14.445116,8.85889068 14.4493121,8.82958034 L14.4636103,8.78716594 C14.9705014,7.8763586 15.25,6.83638014 15.25,5.75 C15.25,3.54150753 14.1045197,1.60055631 12.3752757,0.488828587 C12.3740147,0.48801791 12.3670156,0.483829547 12.3542783,0.476263497 L12.3308634,0.462390104 C12.2806258,0.432632436 12.2640236,0.367783464 12.2937812,0.317545871 C12.3143973,0.282741386 12.3530659,0.26275164 12.3933827,0.266056834 Z" id="path-1"></path>
    </defs>
    <g id="群组1" stroke="none" stroke-width="1" fill="none" fill-rule="evenodd">
        <g id="Edit-Group" transform="translate(2.000000, 2.000000)">
            <mask id="mask-2" fill="white">
                <use xlink:href="#path-1"></use>
            </mask>
            <use id="形状结合" fill="#4e4e4e" fill-rule="nonzero" xlink:href="#path-1"></use>
        </g>
    </g>
</svg>