<svg width="883.000000" height="883.000000" viewBox="0 0 883 883" fill="none" xmlns="http://www.w3.org/2000/svg" xmlns:xlink="http://www.w3.org/1999/xlink">
    <desc>
        Created with Pixso.
    </desc>
    <defs>
        <clipPath id="clip153_20883">
            <rect id="卫星电话" width="883.000000" height="883.000000" fill="white" fill-opacity="0"/>
        </clipPath>
    </defs>
    <g clip-path="url(#clip153_20883)">
        <rect id="卫星电话" width="883.000000" height="883.000000" fill="#000000" fill-opacity="0"/>
        <path id="路径" d="M77.36 253.74C65.81 203.48 81.1 150.83 117.79 114.43C138.17 91.55 157.46 78.37 175.66 74.88C202.95 69.66 230.9 80.43 248.27 102.01L307.34 175.03C310.29 178.65 312.61 181.46 314.02 183.14C336.4 208.37 337.11 247.78 314.3 272.28L272.79 311.59C256.94 327.39 254.11 351.97 265.96 370.94C288.94 407.91 332 457.75 379.02 503.96C425.24 550.99 475.08 594.05 512.05 617.03C531.02 628.88 555.6 626.05 571.4 610.2L609.03 570.32C632.87 548.12 671.07 545.34 696.26 565.92L702.61 571.26C717.06 583.17 762.28 619.68 780.98 634.73C802.56 652.09 813.33 680.04 808.11 707.33C804.63 725.53 791.44 744.82 768.56 765.2C732.16 801.89 679.52 817.18 629.25 805.63C522.21 780.76 395.64 696.87 290.35 592.65C186.12 487.35 102.23 360.78 77.36 253.74Z" fill="#FFFFFF" fill-opacity="1.000000" fill-rule="evenodd"/>
        <g opacity="0.400000">
            <path id="路径" d="M736.6 322.38L707.8 350.99L532.43 173.64L561.23 145.03L736.6 322.38Z" fill="#FFFFFF" fill-opacity="1.000000" fill-rule="nonzero"/>
        </g>
        <path id="矩形备份" d="M517.35 62.46L448.77 131.12C444.75 135.13 444.75 141.64 448.77 145.66L537.33 234.32C541.34 238.33 547.85 238.33 551.86 234.32L620.45 165.67C624.47 161.65 624.47 155.14 620.46 151.12L531.88 62.46C527.87 58.44 521.36 58.44 517.35 62.46Z" fill="#FFFFFF" fill-opacity="1.000000" fill-rule="evenodd"/>
        <path id="矩形备份-2" d="M717.44 262.76L649.26 331.02C645.25 335.04 645.25 341.55 649.26 345.57L737.82 434.22C741.83 438.24 748.34 438.24 752.35 434.22L820.54 365.97C824.56 361.96 824.56 355.44 820.55 351.43L731.98 262.76C727.96 258.75 721.46 258.75 717.44 262.76Z" fill="#FFFFFF" fill-opacity="1.000000" fill-rule="evenodd"/>
        <path id="形状结合" d="M758.61 124.46C764.63 130.48 764.63 140.25 758.61 146.28L748.67 156.25C755.5 164.26 760.51 171.62 762.84 176.97C765.98 182.8 765.08 190.23 760.16 195.16L634.41 321.04C631.52 323.93 626.84 323.93 623.95 321.04C620.06 307.98 611.14 292.67 600.85 282.38C590.64 272.15 578.46 265.07 565.53 261.14C562.64 258.25 559.34 251.67 562.23 248.78L687.98 122.9C692.9 117.97 700.33 117.08 706.16 120.21C711.49 122.55 718.84 127.57 726.85 134.41L736.81 124.46C742.83 118.43 752.59 118.43 758.61 124.46Z" fill="#FFFFFF" fill-opacity="1.000000" fill-rule="evenodd"/>
        <path id="形状结合" d="M588.28 294.95C617.42 324.12 620.96 369.23 598.9 402.33C598.26 403.46 597.46 404.53 596.49 405.5C590.84 411.15 581.69 411.16 576.06 405.52L478.17 307.53C473 302.36 472.24 293.89 476.55 288.22C477.49 287.28 479.83 285.01 480.93 284.38C514.04 261.93 559 265.63 588.28 294.95Z" fill="#FFFFFF" fill-opacity="1.000000" fill-rule="evenodd"/>
        <circle id="椭圆形" r="25.703226" transform="matrix(0.706739 0.707474 -0.70674 0.707474 494.462 388.89)" fill="#FFFFFF" fill-opacity="1.000000"/>
    </g>
</svg>
