<svg viewBox="0 0 24 24" xmlns="http://www.w3.org/2000/svg" xmlns:xlink="http://www.w3.org/1999/xlink" width="24" height="24" fill="none">
    <rect id="卫星" width="24" height="24" x="0" y="0" />
    <g id="编组">
        <path id="路径" d="M10.3362 0.0527564L10.3297 1.73413L0 1.68138L0.00652718 0L10.3362 0.0527564Z" opacity="0.400000006" fill="rgb(255,255,255)" fill-rule="nonzero" transform="matrix(0.706739,0.707474,-0.706739,0.707474,8.95459,7.71631)" />
        <path id="矩形备份" d="M0.425863 0L4.44525 0C4.68042 0 4.87107 0.190647 4.87107 0.425823L4.87107 5.61583C4.87103 5.85099 4.68041 6.04163 4.44525 6.04169L0.425863 6.04208C0.190688 6.04214 2.24368e-05 5.85151 0 5.61634C0 5.61632 0 5.61631 4.06096e-05 5.61629L4.06096e-05 0.425823C4.06096e-05 0.190647 0.190688 0 0.425863 0Z" fill="rgb(255,255,255)" fill-rule="evenodd" transform="matrix(-0.706739,0.707474,0.706739,0.707474,7.44263,4)" />
        <path id="矩形备份-2" d="M0.425863 0L4.42173 0C4.6569 0 4.84755 0.190648 4.84755 0.425823L4.84755 5.61583C4.84751 5.85099 4.65688 6.04163 4.42173 6.04169L0.425863 6.04208C0.190688 6.04214 2.27414e-05 5.85151 0 5.61633C0 5.61632 0 5.61631 4.06096e-05 5.61629L4.06096e-05 0.425823C4.06096e-05 0.190648 0.190688 0 0.425863 0Z" fill="rgb(255,255,255)" fill-rule="evenodd" transform="matrix(-0.706739,0.707474,0.706739,0.707474,15.7297,12.2959)" />
        <path id="形状结合" d="M2.11504 1.10131e-32C2.46781 -6.48015e-17 2.75378 0.285971 2.75378 0.638734L2.75436 1.22179C3.18918 1.25625 3.55145 1.32486 3.7763 1.41316C4.03877 1.49169 4.23009 1.73554 4.23009 2.02408L4.23009 9.39353C4.23009 9.56275 4.09291 9.69993 3.92369 9.69993C3.87376 9.69993 3.82661 9.68798 3.78496 9.6668C3.78412 9.66598 3.7829 9.66536 3.7817 9.66471C3.28521 9.39657 2.71781 9.24496 2.11504 9.24496C1.51626 9.24496 0.952365 9.39458 0.4586 9.65851L0.425665 9.67585C0.389009 9.69135 0.348706 9.69993 0.306401 9.69993C0.13718 9.69993 0 9.56275 0 9.39353L0 2.02408C0 1.73554 0.19132 1.49169 0.454021 1.41246C0.678637 1.32486 1.04091 1.25625 1.47573 1.22179L1.47631 0.638734C1.47631 0.285971 1.76228 6.48015e-17 2.11504 1.10131e-32Z" fill="rgb(255,255,255)" fill-rule="evenodd" transform="matrix(0.706739,0.707474,-0.706739,0.707474,15.6392,5.37256)" />
        <path id="形状结合" d="M3.47637 0C5.18404 0 6.60792 1.21682 6.9307 2.83192C6.94487 2.88398 6.95275 2.93887 6.95275 2.9956C6.95275 3.32648 6.68491 3.59472 6.35452 3.59472C6.34843 3.59472 6.34237 3.59463 6.33632 3.59445L6.33458 3.59477L0.61817 3.59477L0.61574 3.59309L0.598229 3.59472C0.295369 3.59472 0.0450738 3.36933 0.00546118 3.0769L0 2.9956C0 2.94045 0.00744009 2.88704 0.0213692 2.83633L0.0172538 2.85637C0.33048 1.22912 1.7601 0 3.47637 0Z" fill="rgb(255,255,255)" fill-rule="evenodd" transform="matrix(0.706739,0.707474,-0.706739,0.707474,7.6228,11.4712)" />
        <circle id="椭圆形" cx="1.06455708" cy="1.06455708" r="1.06455708" fill="rgb(255,255,255)" transform="matrix(0.706739,0.707474,-0.706739,0.707474,6.1936,16.3145)" />
    </g>
</svg>
