<?xml version="1.0" standalone="no"?>
<svg version="1.0" xmlns="http://www.w3.org/2000/svg"
 width="12.000000px" height="12.000000px" viewBox="0 0 150.000000 150.000000"
 preserveAspectRatio="xMidYMid meet">

<g transform="translate(0.000000,150.000000) scale(0.100000,-0.100000)"
fill="#000000" stroke="none">
<path d="M271 1361 c-20 -20 -21 -30 -21 -265 0 -205 2 -247 15 -260 41 -40
97 -22 109 35 3 17 6 88 6 157 l0 126 173 -172 c128 -127 180 -172 197 -172
36 0 500 465 500 501 0 33 -29 59 -66 59 -24 0 -61 -32 -231 -202 l-203 -203
-142 143 -143 142 150 0 c169 0 195 8 195 60 0 57 -11 60 -238 60 -114 0 -223
3 -243 6 -29 5 -41 2 -58 -15z"/>
<path d="M525 594 c-151 -23 -368 -104 -422 -156 -48 -46 -67 -105 -60 -180 5
-54 10 -67 36 -90 17 -16 43 -28 57 -28 28 0 293 64 337 82 34 13 51 44 66
119 20 95 63 118 221 119 155 0 199 -26 219 -128 19 -98 31 -107 211 -152 85
-22 168 -40 183 -40 65 0 97 46 97 140 0 118 -42 168 -193 228 -187 74 -341
103 -547 101 -63 -1 -155 -7 -205 -15z"/>
</g>
</svg>
