<svg viewBox="0 0 24 24" xmlns="http://www.w3.org/2000/svg" xmlns:xlink="http://www.w3.org/1999/xlink" width="24" height="24" fill="none">
	<rect id="拨打eSIM_fill" width="24" height="24" x="0" y="0" />
	<g id="拨打eSIM_fill">
		<rect id="矩形 584" width="24" height="24" x="0" y="0" opacity="0" fill="rgb(0,0,0)" />
		<path id="矢量 9" d="M4.74996 2.03999C4.31663 2.10665 3.85663 2.39332 3.36996 2.89999C2.8833 3.41332 2.50663 4.04332 2.23996 4.78999C1.97996 5.52999 1.92996 6.23665 2.08996 6.90999C2.5233 8.81665 3.56996 10.8733 5.22996 13.08C6.89663 15.2867 8.81663 17.22 10.99 18.88C13.17 20.5333 15.1933 21.5533 17.06 21.94C17.7333 22.0667 18.4 22.0333 19.06 21.84C19.7133 21.6467 20.28 21.3033 20.76 20.81C20.9666 20.6033 21.1733 20.4033 21.38 20.21C21.64 19.95 21.82 19.6367 21.92 19.27C22.0266 18.9033 22.0333 18.5433 21.94 18.19C21.84 17.8367 21.6533 17.55 21.38 17.33L18.89 15.43C18.5366 15.13 18.1266 14.99 17.66 15.01C17.2 15.0367 16.8 15.21 16.46 15.53L16.27 15.72C16.0966 15.8933 15.9666 16.02 15.88 16.1C15.7866 16.18 15.6533 16.31 15.48 16.49C15.2733 16.6967 15.0166 16.82 14.71 16.86C14.41 16.9 14.1233 16.84 13.85 16.68C12.81 16.0267 11.6 15.0133 10.22 13.64C8.84663 12.2733 7.84663 11.1033 7.21996 10.13C7.05996 9.85665 6.99996 9.56665 7.03996 9.25999C7.07996 8.95999 7.20663 8.70665 7.41996 8.49999C7.68663 8.23999 7.95663 7.98332 8.22996 7.72999L8.49996 7.45999C8.8333 7.12665 9.00663 6.72665 9.01996 6.25999C9.03996 5.79999 8.88996 5.39332 8.56996 5.03999L6.73996 2.77999C6.48663 2.47999 6.1833 2.26665 5.82996 2.13999C5.47663 2.00665 5.11663 1.97332 4.74996 2.03999Z" fill="rgb(255,255,255)" fill-rule="nonzero" />
		<path id="矢量 6(边框)" d="M18.7254 8.62805C18.9356 8.47482 19.111 8.27388 19.2517 8.02524L20.4816 8.74852C20.4255 8.88156 20.3579 9.00688 20.279 9.12449C20.0564 9.45623 19.7421 9.72785 19.3362 9.93933C19.1992 10.0113 19.059 10.0748 18.9156 10.1298C18.4466 10.3099 17.9426 10.4 17.4036 10.4C16.932 10.4 16.4844 10.3293 16.0605 10.1881C16.0591 10.1876 16.0577 10.1871 16.0563 10.1867C15.8467 10.1165 15.6429 10.0291 15.4449 9.92443C15.268 9.83051 15.1016 9.72308 14.9457 9.60214C14.5773 9.31622 14.2672 8.95437 14.0156 8.51659C13.6592 7.89239 13.4811 7.14093 13.4811 6.26221C13.4811 5.40401 13.659 4.67056 14.0149 4.06186C14.2653 3.63655 14.571 3.2828 14.9321 3.00059C14.9331 2.99986 14.934 2.99913 14.935 2.9984C15.0898 2.87761 15.2549 2.76991 15.4302 2.67529C15.6754 2.54349 15.9287 2.43911 16.1899 2.36215C16.5569 2.25404 16.9401 2.19998 17.3394 2.19998C17.9437 2.19998 18.4862 2.32104 18.9666 2.56317C19.0303 2.59524 19.0928 2.62943 19.1543 2.66576C19.3763 2.79686 19.5765 2.94993 19.7551 3.12495C19.9989 3.36393 20.2027 3.64438 20.3665 3.96631L20.3669 3.96713L20.3699 3.97296C20.6548 4.52854 20.7973 5.15817 20.7973 5.86185C20.7973 6.1014 20.7765 6.37148 20.735 6.6721L15.2342 6.6721L15.2456 6.78244C15.3212 7.50894 15.5603 8.0583 15.9632 8.43053C15.9638 8.43109 15.9644 8.43164 15.965 8.43219C16.0948 8.55107 16.2349 8.65104 16.3851 8.7321C16.3862 8.73266 16.3872 8.73323 16.3882 8.73379C16.3907 8.73513 16.3932 8.73647 16.3957 8.7378C16.4019 8.74107 16.408 8.7443 16.4142 8.74751C16.7271 8.90983 17.082 8.99099 17.4791 8.99099C17.9599 8.99099 18.3632 8.87861 18.689 8.65387C18.6902 8.65304 18.6914 8.65221 18.6926 8.65138C18.6979 8.64769 18.7032 8.64396 18.7085 8.64021C18.7127 8.63719 18.717 8.63415 18.7212 8.63109C18.7226 8.63008 18.724 8.62906 18.7254 8.62805ZM17.2789 3.57876C17.6079 3.57876 17.8992 3.6479 18.1528 3.78617C18.1591 3.78962 18.1654 3.79311 18.1717 3.79664C18.1735 3.79768 18.1754 3.79872 18.1772 3.79976C18.179 3.8008 18.1809 3.80184 18.1827 3.80288C18.3029 3.87181 18.414 3.95649 18.5161 4.05692C18.5247 4.06539 18.5332 4.07395 18.5416 4.0826C18.5474 4.08853 18.5531 4.09451 18.5588 4.10054C18.8549 4.41497 19.023 4.84984 19.0632 5.40517L19.071 5.51239L15.2551 5.51239L15.277 5.39415C15.3771 4.85466 15.5878 4.42976 15.9092 4.11946C15.9097 4.11896 15.9102 4.11846 15.9107 4.11796C15.916 4.1129 15.9213 4.10788 15.9266 4.10289C15.9447 4.08581 15.9632 4.06909 15.982 4.05272C16.1395 3.91698 16.3093 3.81036 16.4914 3.73286C16.4928 3.73226 16.4942 3.73167 16.4956 3.73108C16.4968 3.73059 16.4979 3.73011 16.4991 3.72963C16.504 3.72757 16.5089 3.72553 16.5138 3.72351L16.5157 3.72276C16.7505 3.62676 17.0049 3.57876 17.2789 3.57876Z" fill="rgb(255,255,255)" fill-rule="evenodd" />
	</g>
</svg>
