<?xml version="1.0" standalone="no"?>
<svg version="1.0" xmlns="http://www.w3.org/2000/svg"
 width="12.000000px" height="12.000000px" viewBox="0 0 150.000000 150.000000"
 preserveAspectRatio="xMidYMid meet">

<g transform="translate(0.000000,150.000000) scale(0.100000,-0.100000)"
fill="#000000" stroke="none">
<path d="M250 1353 c-127 -84 -151 -179 -85 -339 89 -215 180 -351 344 -514
163 -161 295 -248 507 -336 142 -58 229 -45 308 47 52 61 62 100 39 147 -15
31 -43 52 -173 131 -91 55 -169 95 -190 98 -28 4 -47 -3 -99 -37 -76 -49 -106
-57 -153 -37 -43 18 -168 134 -210 194 -48 70 -47 97 6 178 65 100 64 109 -45
289 -49 83 -101 161 -115 174 -31 27 -98 30 -134 5z"/>
<path d="M826 1348 c-13 -19 -16 -61 -16 -260 0 -225 1 -239 20 -258 19 -19
33 -20 258 -20 268 0 282 3 282 65 0 58 -22 65 -195 65 l-150 0 173 173 c147
147 172 177 172 203 0 38 -16 54 -54 54 -26 0 -56 -25 -203 -172 l-173 -173 0
150 c0 173 -7 195 -65 195 -24 0 -39 -7 -49 -22z"/>
</g>
</svg>
