<?xml version="1.0" encoding="utf-8"?>
<!-- Generator: Adobe Illustrator 19.0.0, SVG Export Plug-In . SVG Version: 6.00 Build 0)  -->
<svg version="1.1" id="图层_1" xmlns="http://www.w3.org/2000/svg" xmlns:xlink="http://www.w3.org/1999/xlink" x="0px" y="0px"
	 viewBox="24 -24 96 96" style="enable-background:new 24 -24 96 96;" xml:space="preserve">
<g id="ic_x2F_play-norm_x2F_ic_x5F_play-norm-copy-8">
	<g id="Group-21-Copy" transform="translate(19.000000, 8.000000)">
		<path id="Fill-1" d="M38-17c0,3.9-3.1,7-7,7c-3.9,0-7-3.1-7-7c0-3.9,3.1-7,7-7C34.9-24,38-20.9,38-17"/>
		<path id="Fill-3" d="M38,5c0,3.9-3.1,7-7,7c-3.9,0-7-3.1-7-7c0-3.9,3.1-7,7-7C34.9-2,38,1.1,38,5"/>
		<path id="Fill-5" d="M38,27c0,3.9-3.1,7-7,7c-3.9,0-7-3.1-7-7c0-3.9,3.1-7,7-7C34.9,20,38,23.1,38,27"/>
		<path id="Fill-7" d="M60-17c0,3.9-3.1,7-7,7c-3.9,0-7-3.1-7-7c0-3.9,3.1-7,7-7C56.9-24,60-20.9,60-17"/>
		<path id="Fill-9" d="M60,5c0,3.9-3.1,7-7,7c-3.9,0-7-3.1-7-7c0-3.9,3.1-7,7-7C56.9-2,60,1.1,60,5"/>
		<path id="Fill-11" d="M60,27c0,3.9-3.1,7-7,7c-3.9,0-7-3.1-7-7c0-3.9,3.1-7,7-7C56.9,20,60,23.1,60,27"/>
		<path id="Fill-13" d="M60,49c0,3.9-3.1,7-7,7c-3.9,0-7-3.1-7-7c0-3.9,3.1-7,7-7C56.9,42,60,45.1,60,49"/>
		<path id="Fill-15" d="M82-17c0,3.9-3.1,7-7,7c-3.9,0-7-3.1-7-7c0-3.9,3.1-7,7-7C78.9-24,82-20.9,82-17"/>
		<path id="Fill-17" d="M82,5c0,3.9-3.1,7-7,7c-3.9,0-7-3.1-7-7c0-3.9,3.1-7,7-7C78.9-2,82,1.1,82,5"/>
		<path id="Fill-19" d="M82,27c0,3.9-3.1,7-7,7c-3.9,0-7-3.1-7-7c0-3.9,3.1-7,7-7C78.9,20,82,23.1,82,27"/>
	</g>
</g>
</svg>
