<?xml version="1.0" standalone="no"?>
<svg version="1.0" xmlns="http://www.w3.org/2000/svg"
 width="12.000000px" height="12.000000px" viewBox="0 0 150.000000 150.000000"
 preserveAspectRatio="xMidYMid meet">

<g transform="translate(0.000000,150.000000) scale(0.100000,-0.100000)"
fill="#000000" stroke="none">
<path d="M1068 1373 l-228 -3 -16 -25 c-17 -26 -12 -55 12 -80 12 -12 46 -15
172 -15 l156 0 -177 -178 c-97 -98 -177 -186 -177 -196 0 -9 11 -28 25 -41 13
-14 32 -25 41 -25 10 0 98 80 196 177 l178 177 0 -156 c0 -166 3 -178 51 -193
29 -9 65 18 73 56 3 17 6 128 6 246 0 214 0 214 -25 238 -13 14 -32 24 -42 23
-10 -2 -120 -4 -245 -5z"/>
<path d="M250 1353 c-127 -84 -151 -179 -85 -339 89 -215 180 -351 344 -514
163 -161 295 -248 507 -336 142 -58 229 -45 308 47 52 61 62 100 39 147 -15
31 -43 52 -173 131 -91 55 -169 95 -190 98 -28 4 -47 -3 -99 -37 -76 -49 -106
-57 -153 -37 -43 18 -168 134 -210 194 -48 70 -47 97 6 178 65 100 64 109 -45
289 -49 83 -101 161 -115 174 -31 27 -98 30 -134 5z"/>
</g>
</svg>
