<?xml version="1.0" encoding="utf-8"?>
<!-- Generator: Adobe Illustrator 19.0.0, SVG Export Plug-In . SVG Version: 6.00 Build 0)  -->
<svg version="1.0" id="图层_1" xmlns="http://www.w3.org/2000/svg" xmlns:xlink="http://www.w3.org/1999/xlink" x="0px" y="0px"
	 viewBox="0 0 96 96" style="enable-background:new 0 0 96 96;" xml:space="preserve">
<path id="path-1_1_" d="M55.1,26c0-7.2-5.8-13-13-13s-13,5.8-13,13s5.8,13,13,13S55.1,33.2,55.1,26z M61.1,26c0,10.5-8.5,19-19,19
	s-19-8.5-19-19s8.5-19,19-19S61.1,15.5,61.1,26z M59,14c-1.5-0.6-2.3-2.4-1.6-3.9s2.4-2.3,3.9-1.6c0.2,0.1,0.4,0.2,0.6,0.3
	c6.7,3.1,11.2,9.8,11.2,17.3c0,7.7-4.7,14.6-11.7,17.5c-1.5,0.6-3.3-0.1-3.9-1.6s0.1-3.3,1.6-3.9c4.8-2,8-6.7,8-12
	c0-5.2-3-9.8-7.7-11.9C59.3,14.1,59.2,14,59,14z M72.7,54.7c-1.5-0.7-2.1-2.6-1.3-4c0.7-1.5,2.6-2.1,4-1.3
	c7.7,3.9,12.6,11.5,12.6,20V85c0,1.7-1.3,3-3,3s-3-1.3-3-3V69.3C82.1,63.2,78.5,57.6,72.7,54.7z M14.1,85c0,1.7-1.3,3-3,3
	s-3-1.3-3-3V71c0-12.7,10.3-23,23-23h22c12.7,0,23,10.3,23,23v14c0,1.7-1.3,3-3,3s-3-1.3-3-3V71c0-9.4-7.6-17-17-17h-22
	c-9.4,0-17,7.6-17,17V85z" fill="#cacaca"/>
<g id="XMLID_1_">
</g>
<g id="XMLID_2_">
</g>
<g id="XMLID_3_">
</g>
<g id="XMLID_4_">
</g>
<g id="XMLID_5_">
</g>
<g id="XMLID_6_">
</g>
</svg>
