<?xml version="1.0" encoding="UTF-8"?>
<svg width="32px" height="32px" viewBox="0 0 32 32" version="1.1" xmlns="http://www.w3.org/2000/svg" xmlns:xlink="http://www.w3.org/1999/xlink">
    <title>picker安全访问联系人图标</title>
    <g id="页面-1" stroke="none" stroke-width="1" fill="none" fill-rule="evenodd">
        <g id="picker安全访问联系人图标" fill-rule="nonzero">
            <g id="g">
                <rect id="矩形" fill-opacity="0.899869905" fill="#FFFFFF" x="0" y="0" width="32" height="32" rx="8"></rect>
                <path d="M24,0 C28.4183,0 32,3.58172 32,8 L32,24 C32,28.4183 28.4183,32 24,32 L8,32 C3.58172,32 0,28.4183 0,24 L0,8 C0,3.58172 3.58172,0 8,0 L24,0 Z M24,1 L8,1 C4.21455,1 1.1309,4.00478 1.00406,7.75935 L1,8 L1,24 C1,27.7855 4.00478,30.8691 7.75935,30.9959 L8,31 L24,31 C27.7855,31 30.8691,27.9952 30.9959,24.2407 L31,24 L31,8 C31,4.21455 27.9952,1.1309 24.2407,1.00406 L24,1 Z" id="矩形" fill-opacity="0.0500000007" fill="#000000"></path>
            </g>
            <g id="组合-6" transform="translate(5.000000, 5.000000)">
                <rect id="rect" fill="#000000" opacity="0" x="0" y="0" width="22" height="21.9999983"></rect>
                <g id="g" transform="translate(2.419899, 0.678324)" fill="#000000" fill-opacity="0.899999976">
                    <path d="M9.6158425,2.07166667 L14.6758425,4.0975 C14.8653175,4.17083333 15.0028175,4.2594475 15.0883425,4.36333333 C15.1800092,4.46111417 15.2319842,4.61388583 15.2441758,4.82166667 L15.2441758,10.6516758 C15.2319842,11.7088675 15.0150092,12.6958425 14.5933425,13.6125092 C14.1778175,14.5291758 13.5453175,15.4336508 12.6958425,16.3258425 C12.3597008,16.6803175 11.9533425,17.0225092 11.4766758,17.3525092 C11.0000092,17.6825092 10.3797008,18.0461508 9.6158425,18.4433425 L9.6158425,20.6433425 C10.9358425,19.9344842 11.9075092,19.3753175 12.5308425,18.9658425 C13.1541758,18.5563675 13.6766758,18.1255342 14.0983425,17.6733425 C15.1005342,16.6283425 15.8613675,15.5466758 16.3808425,14.4283425 C16.9003175,13.3038675 17.1661508,12.0878175 17.1783425,10.7800092 L17.1783425,4.36333333 C17.1783425,3.85 17.0286508,3.43138583 16.7291758,3.1075 C16.4297008,2.78361417 16.0172008,2.51778083 15.4916758,2.31 L9.6158425,0 L9.6158425,2.07166667 Z M1.69583333,2.31 C1.19472833,2.5055525 0.788333333,2.76833333 0.476666667,3.09833333 C0.158895,3.42833333 0,3.81333333 0,4.25333333 L0,10.7800092 C0.0122283333,12.1183425 0.2719475,13.3528175 0.779166667,14.4833425 C1.286395,15.6078175 2.05333333,16.6711508 3.08,17.6733425 C3.70948417,18.3028175 4.2778175,18.7916758 4.78500917,19.1400092 C5.29220083,19.4944842 5.91250917,19.8550092 6.6458425,20.2216758 L7.54417583,20.6433425 L7.54417583,18.4433425 C6.7803175,18.0583425 6.16615083,17.7008425 5.70167583,17.3708425 C5.23115083,17.0408425 4.81865083,16.6925092 4.46417583,16.3258425 C3.61470083,15.4336508 2.98222833,14.5291758 2.56666667,13.6125092 C2.145,12.6958425 1.93416667,11.7088675 1.93416667,10.6516758 L1.93416667,4.82166667 C1.93416667,4.63221917 1.973895,4.4825 2.05333333,4.3725 C2.138895,4.2625 2.2825,4.17083333 2.48416667,4.0975 L7.54417583,2.07166667 L7.54417583,0 L1.69583333,2.31 Z" id="path"></path>
                </g>
                <g id="g" transform="translate(9.744075, 7.571667)" fill="#0A59F7">
                    <polygon id="path" points="0 5.95833333 2.51166667 5.95833333 2.51166667 -1.6283271e-15 0 -1.6283271e-15"></polygon>
                </g>
            </g>
        </g>
    </g>
</svg>