<?xml version="1.0" encoding="UTF-8" standalone="no"?>
<svg
   xmlns:dc="http://purl.org/dc/elements/1.1/"
   xmlns:cc="http://creativecommons.org/ns#"
   xmlns:rdf="http://www.w3.org/1999/02/22-rdf-syntax-ns#"
   xmlns:svg="http://www.w3.org/2000/svg"
   xmlns="http://www.w3.org/2000/svg"
   xmlns:sodipodi="http://sodipodi.sourceforge.net/DTD/sodipodi-0.dtd"
   xmlns:inkscape="http://www.inkscape.org/namespaces/inkscape"
   version="1.0"
   id="图层_1"
   x="0px"
   y="0px"
   viewBox="0 0 64 64"
   style="enable-background:new 0 0 64 64;"
   xml:space="preserve"
   sodipodi:docname="ic_contacts_arrow_unfold_s.svg"
   inkscape:version="1.0 (4035a4fb49, 2020-05-01)"><metadata
   id="metadata16"><rdf:RDF><cc:Work
       rdf:about=""><dc:format>image/svg+xml</dc:format><dc:type
         rdf:resource="http://purl.org/dc/dcmitype/StillImage" /></cc:Work></rdf:RDF></metadata><defs
   id="defs14" /><sodipodi:namedview
   inkscape:document-rotation="0"
   pagecolor="#ffffff"
   bordercolor="#666666"
   borderopacity="1"
   objecttolerance="10"
   gridtolerance="10"
   guidetolerance="10"
   inkscape:pageopacity="0"
   inkscape:pageshadow="2"
   inkscape:window-width="1920"
   inkscape:window-height="1017"
   id="namedview12"
   showgrid="false"
   inkscape:zoom="7.7882624"
   inkscape:cx="29.773972"
   inkscape:cy="30.573217"
   inkscape:window-x="-8"
   inkscape:window-y="-8"
   inkscape:window-maximized="1"
   inkscape:current-layer="图层_1" />
<style
   type="text/css"
   id="style2">
	.st0{fill:#040000;}
</style>
<path
   id="Fill-1"
   class="st0"
   d="m 32.71278,44.516992 c -0.17106,0.241976 0,0.161318 0,0 0.171061,0 0.171061,0 0,0 L 53.240048,25.158954 c 0.769771,-0.806586 1.026362,-2.339096 0,-3.22634 -0.940834,-1.04856 -2.65144,-0.806585 -3.421211,0 L 31.002174,39.677483 12.356575,22.093931 C 11.415741,21.04537 9.8761962,21.04537 8.7643031,21.932614 7.82347,22.981174 7.9090003,24.352368 8.9353636,25.320271 L 29.291569,44.516992 c -0.342119,-0.08066 -0.25659,0 0,0 0.769773,0.887244 2.138258,0.967902 3.421211,0"
   style="stroke-width:0.830588;fill:#777777;fill-opacity:1" />
<g
   id="XMLID_1_">
</g>
<g
   id="XMLID_2_">
</g>
<g
   id="XMLID_3_">
</g>
<g
   id="XMLID_4_">
</g>
<g
   id="XMLID_5_">
</g>
<g
   id="XMLID_6_">
</g>
</svg>
