<?xml version="1.0" encoding="UTF-8"?>
<svg width="96px" height="104px" viewBox="0 0 96 104" version="1.1" xmlns="http://www.w3.org/2000/svg" xmlns:xlink="http://www.w3.org/1999/xlink">
    <title>2*2卡片有联系人时带底纹</title>
    <defs>
        <linearGradient x1="7.3964497%" y1="100%" x2="92.6035503%" y2="0%" id="linearGradient-1">
<!--            <stop stop-color="#FFFFFF" stop-opacity="0.15" offset="0%"></stop>-->
<!--            <stop stop-color="#FFFFFF" stop-opacity="0" offset="100%"></stop>-->
        </linearGradient>
        <linearGradient x1="7.3964497%" y1="100%" x2="92.6035503%" y2="0%" id="linearGradient-2">
            <stop stop-color="#0A59F7" stop-opacity="0.15" offset="0%"></stop>
            <stop stop-color="#0A59F7" stop-opacity="0" offset="100%"></stop>
        </linearGradient>
    </defs>
    <g id="2*2卡片有联系人时带底纹" stroke="none" stroke-width="1" fill="none" fill-rule="evenodd" opacity="0.15">
        <g id="底纹" fill="url(#linearGradient-2)">
            <path d="M1.56306401,82.0444444 C4.95041498,75.1586079 13.7518514,54.6 48.0484373,54.6 C82.3450232,54.6 91.2963641,75.1586079 94.5338105,82.0444444 C94.5338105,82.0444444 94.5338105,82.0444444 94.5338105,82.0444444 C98.1531286,89.7424969 94.846661,98.9170384 87.1486086,102.536356 C85.0983899,103.500288 82.8607691,104.000067 80.5952536,104 L15.2307615,104 C6.81839102,103.999942 -0.0011826449,97.1803681 -0.0011826449,88.7679977 C-0.0011826449,86.4366366 0.533974749,84.1363861 1.56306401,82.0444444 C1.56306401,82.0444444 1.56306401,82.0444444 1.56306401,82.0444444 Z M48.0484373,0 C34.4120616,0 23.3575949,11.0585667 23.3575949,24.7 C23.3575949,38.3414333 34.4120616,49.4 48.0484373,49.4 C61.684813,49.4 72.7392796,38.3414333 72.7392796,24.7 C72.7392796,11.0585667 61.684813,0 48.0484373,0 Z"></path>
        </g>
    </g>
</svg>