<?xml version="1.0" encoding="UTF-8"?>
<svg width="120px" height="120px" viewBox="0 0 120 120" version="1.1" xmlns="http://www.w3.org/2000/svg" xmlns:xlink="http://www.w3.org/1999/xlink">
    <title>page_没有群组</title>
    <g id="page_没有群组" stroke="none" stroke-width="1" fill="none" fill-rule="evenodd">
        <g id="编组" fill="#A1A7B3">
            <path d="M104,22 C105.104569,22 106,22.8954305 106,24 L106,81 C106,82.1045695 105.104569,83 104,83 L89.6899176,82.998938 C89.5926069,82.7482 89.4911203,82.5109079 89.3854078,82.287036 C89.3148783,82.1376728 89.2410551,81.9860114 89.1632494,81.8312034 C89.0392429,81.5844708 88.7386995,81.4849816 88.4919668,81.6089881 C88.2452342,81.7329946 88.145745,82.0335381 88.2697515,82.2802707 C88.3438128,82.4276287 88.4140575,82.5719385 88.4811517,82.7140267 C88.5248271,82.8065199 88.5678152,82.9018166 88.6101113,82.9999144 L75.5959758,82.999571 C75.4329042,82.5330244 75.2582267,82.1070218 75.0719434,81.7215635 C73.4932891,78.4550031 67.753615,68.7022398 53.0382664,68.7022398 C38.3229178,68.7022398 32.6563407,78.4550031 31.0045893,81.7215635 C30.809766,82.1068528 30.6280637,82.5326508 30.4594824,82.9989574 L16,83 C14.8954305,83 14,82.1045695 14,81 L14,24 C14,22.8954305 14.8954305,22 16,22 L104,22 Z M85.6605097,76.786104 C85.4727149,76.5836498 85.1563555,76.5717659 84.9539013,76.7595607 C84.751447,76.9473556 84.7395632,77.2637149 84.927358,77.4661692 C85.6045568,78.1962307 86.2147973,78.9607701 86.7628006,79.74967 C86.9203414,79.976464 87.2319063,80.0326049 87.4587003,79.8750641 C87.6854943,79.7175234 87.7416352,79.4059585 87.5840944,79.1791645 C87.0100101,78.3527187 86.3705452,77.5515656 85.6605097,76.786104 Z M80.8505937,72.9369729 C80.611566,72.7986966 80.3057006,72.8803718 80.1674243,73.1193996 C80.029148,73.3584274 80.1108232,73.6642928 80.349851,73.8025691 C81.2053512,74.2974713 82.0095318,74.8495452 82.7643007,75.4534994 C82.9799122,75.6260284 83.2945624,75.591103 83.4670914,75.3754914 C83.6396203,75.1598798 83.604695,74.8452297 83.3890834,74.6727007 C82.5956499,74.0378077 81.750089,73.4573261 80.8505937,72.9369729 Z M75.1392733,70.6725902 C74.8707991,70.6079665 74.6007699,70.7732199 74.5361462,71.0416941 C74.4715225,71.3101683 74.6367759,71.5801975 74.9052501,71.6448212 C75.8787533,71.8791507 76.8101845,72.1734326 77.7007067,72.5245095 C77.9576057,72.6257887 78.2479666,72.4996338 78.3492458,72.2427347 C78.4505249,71.9858357 78.32437,71.6954748 78.067471,71.5941956 C77.1337757,71.2260983 76.1579923,70.9178034 75.1392733,70.6725902 Z M74.3263027,67.6568001 C74.2297374,67.3980922 73.9417316,67.2666497 73.6830238,67.363215 C72.7904426,67.6963797 71.8523858,67.9055851 70.88915,67.982633 C70.6138868,68.004651 70.408591,68.2456449 70.4306089,68.5209081 C70.4526268,68.7961713 70.6936208,69.0014671 70.968884,68.9794492 C72.0247516,68.8949918 73.0536417,68.6655288 74.0327176,68.300079 C74.2914254,68.2035138 74.422868,67.915508 74.3263027,67.6568001 Z M65.289317,66.8658471 C65.0439148,66.7392281 64.742332,66.835521 64.615713,67.0809232 C64.4890941,67.3263254 64.5853869,67.6279081 64.8307891,67.7545271 C65.762206,68.2351058 66.7576559,68.5852947 67.7927447,68.793045 C68.0634877,68.8473852 68.3270197,68.6719561 68.3813599,68.4012131 C68.4357001,68.1304702 68.260271,67.8669382 67.9895281,67.812598 C67.0458794,67.6232004 66.138487,67.3039892 65.289317,66.8658471 Z M78.9502678,63.9151512 C78.7321311,63.7458261 78.4180313,63.7853957 78.2487061,64.0035324 C77.6614369,64.7600944 76.9711157,65.4329858 76.1989686,66.0013935 C75.976584,66.1650995 75.9290155,66.4780879 76.0927216,66.7004725 C76.2564276,66.9228572 76.569416,66.9704256 76.7918007,66.8067196 C77.6381864,66.1836619 78.3948415,65.4461115 79.0386489,64.6167129 C79.2079741,64.3985762 79.1684045,64.0844764 78.9502678,63.9151512 Z M54.1327964,43.1370224 C47.4833816,43.1370224 42.0929658,48.3830772 42.0929658,54.8544137 C42.0929658,61.3257502 47.4833816,66.571805 54.1327964,66.571805 C60.7822113,66.571805 66.1726271,61.3257502 66.1726271,54.8544137 C66.1726271,48.3830772 60.7822113,43.1370224 54.1327964,43.1370224 Z M62.072,63.665 L62.0018924,63.7283892 C61.7562394,63.9318493 61.5175687,64.1180737 61.2859763,64.2867734 C61.8207645,65.0311615 62.4453362,65.7098706 63.1493133,66.3079206 C63.3597658,66.4867064 63.6753058,66.4610355 63.8540916,66.2505831 C64.0328774,66.0401306 64.0072065,65.7245906 63.796754,65.5458048 C63.0632421,64.922664 62.4243755,64.203563 61.8940902,63.4086695 L62.072,63.665 Z M80.9027626,58.2844553 C80.6279828,58.2570576 80.3830194,58.4576004 80.3556217,58.7323803 C80.2599154,59.6922466 80.0309242,60.625189 79.6773653,61.5104986 C79.5749496,61.7669467 79.6998177,62.0578633 79.9562658,62.1602789 C80.212714,62.2626945 80.5036305,62.1378265 80.6060462,61.8813783 C80.9942218,60.9093885 81.2456524,59.8850252 81.3506876,58.8315963 C81.3780854,58.5568164 81.1775425,58.3118531 80.9027626,58.2844553 Z M80.2783602,52.7771983 C80.1577142,52.5288051 79.8585489,52.4252456 79.6101558,52.5458916 C79.3617626,52.6665376 79.2582031,52.9657029 79.3788491,53.2140961 C79.7962334,54.0734317 80.0920894,54.988082 80.2560706,55.9363129 C80.3031265,56.2084164 80.5618564,56.3908536 80.8339599,56.3437977 C81.1060635,56.2967418 81.2885007,56.0380119 81.2414448,55.7659084 C81.061415,54.7248755 80.7365537,53.7205541 80.2783602,52.7771983 Z M76.0817668,48.1109454 C75.8476785,47.9644624 75.5391645,48.0354805 75.3926815,48.2695688 C75.2461985,48.5036571 75.3172166,48.8121711 75.5513049,48.9586541 C76.3640765,49.4672538 77.1029655,50.0864625 77.745761,50.79685 C77.9310388,51.0016103 78.2472271,51.017404 78.4519873,50.8321262 C78.6567476,50.6468485 78.6725413,50.3306602 78.4872636,50.1258999 C77.7826682,49.3472142 76.9727763,48.6685031 76.0817668,48.1109454 Z M70.5484611,45.6637885 C70.273385,45.6395451 70.0307386,45.8428851 70.0064951,46.1179612 C69.9822517,46.3930373 70.1855917,46.6356838 70.4606678,46.6599272 C71.415752,46.7441022 72.3552218,46.9603727 73.250466,47.3015095 C73.5085089,47.3998379 73.7974049,47.2703637 73.8957333,47.0123208 C73.9940617,46.7542779 73.8645875,46.4653819 73.6065446,46.3670535 C72.6252297,45.9931191 71.5954823,45.7560663 70.5484611,45.6637885 Z M67.4114712,45.71131 C66.3629025,45.7688407 65.3257634,45.9711182 64.3317293,46.3126801 C64.070574,46.4024162 63.9316113,46.6868697 64.0213474,46.948025 C64.1110834,47.2091802 64.395537,47.3481429 64.6566922,47.2584069 C65.5634421,46.9468368 66.5096556,46.7622929 67.4662547,46.7098083 C67.7419824,46.6946802 67.9532401,46.4588951 67.9381121,46.1831674 C67.922984,45.9074397 67.6871989,45.696182 67.4114712,45.71131 Z M35,38 L21,38 C19.8954305,38 19,38.8954305 19,40 C19,41.0543618 19.8158778,41.9181651 20.8507377,41.9945143 L21,42 L35,42 C36.1045695,42 37,41.1045695 37,40 C37,38.8954305 36.1045695,38 35,38 Z M40,30 L21,30 C19.8954305,30 19,30.8954305 19,32 C19,33.0543618 19.8158778,33.9181651 20.8507377,33.9945143 L21,34 L40,34 C41.1045695,34 42,33.1045695 42,32 C42,30.8954305 41.1045695,30 40,30 Z" id="形状结合" fill-opacity="0.6" opacity="0.400000006"></path>
            <path d="M81.4999768,91 C81.7761192,90.9999872 82,91.2238344 82,91.4999768 C82,91.7761192 81.7761655,91.9999872 81.5000232,92 L78.5000232,92.000139 C78.2238808,92.0001518 78,91.7763046 78,91.5001622 C78,91.2240199 78.2238344,91.0001519 78.4999768,91.0001391 L81.4999768,91 Z M87.4999768,91 C87.7761192,90.9999872 88,91.2238344 88,91.4999768 C88,91.7761192 87.7761655,91.9999872 87.5000232,92 L84.5000232,92.000139 C84.2238808,92.0001518 84,91.7763046 84,91.5001622 C84,91.2240199 84.2238344,91.0001519 84.4999768,91.0001391 L87.4999768,91 Z M90.8350616,87.7225136 C90.9347533,88.395019 91.0223863,89.109565 91.0980015,89.8662223 C91.1342521,90.2290071 91.0914708,90.5895218 90.9750949,90.9275629 C90.8852062,91.1886656 90.6006714,91.327462 90.3395687,91.2375733 C90.078466,91.1476846 89.9396696,90.8631499 90.0295583,90.6020471 C90.0992046,90.3997429 90.1247892,90.1841434 90.1029572,89.9656553 C90.028877,89.2243582 89.9431682,88.5255013 89.8458712,87.8691504 C89.8053786,87.5959931 89.9939906,87.3417295 90.267148,87.3012368 C90.5403054,87.2607442 90.794569,87.4493562 90.8350616,87.7225136 Z M89.1632494,81.8312034 C89.2410551,81.9860114 89.3148783,82.1376728 89.3854078,82.287036 C89.7081165,82.9704499 89.9914444,83.7789264 90.2368105,84.7131969 C90.3069547,84.980282 90.1473025,85.2536602 89.8802175,85.3238044 C89.6131325,85.3939485 89.3397542,85.2342964 89.2696101,84.9672114 C89.0389991,84.0891235 88.7757066,83.3378181 88.4811517,82.7140267 C88.4140575,82.5719385 88.3438128,82.4276287 88.2697515,82.2802707 C88.145745,82.0335381 88.2452342,81.7329946 88.4919668,81.6089881 C88.7386995,81.4849816 89.0392429,81.5844708 89.1632494,81.8312034 Z M85.6605097,76.786104 C86.3705452,77.5515656 87.0100101,78.3527187 87.5840944,79.1791645 C87.7416352,79.4059585 87.6854943,79.7175234 87.4587003,79.8750641 C87.2319063,80.0326049 86.9203414,79.976464 86.7628006,79.74967 C86.2147973,78.9607701 85.6045568,78.1962307 84.927358,77.4661692 C84.7395632,77.2637149 84.751447,76.9473556 84.9539013,76.7595607 C85.1563555,76.5717659 85.4727149,76.5836498 85.6605097,76.786104 Z M80.8505937,72.9369729 C81.750089,73.4573261 82.5956499,74.0378077 83.3890834,74.6727007 C83.604695,74.8452297 83.6396203,75.1598798 83.4670914,75.3754914 C83.2945624,75.591103 82.9799122,75.6260284 82.7643007,75.4534994 C82.0095318,74.8495452 81.2053512,74.2974713 80.349851,73.8025691 C80.1108232,73.6642928 80.029148,73.3584274 80.1674243,73.1193996 C80.3057006,72.8803718 80.611566,72.7986966 80.8505937,72.9369729 Z M75.1392733,70.6725902 C76.1579923,70.9178034 77.1337757,71.2260983 78.067471,71.5941956 C78.32437,71.6954748 78.4505249,71.9858357 78.3492458,72.2427347 C78.2479666,72.4996338 77.9576057,72.6257887 77.7007067,72.5245095 C76.8101845,72.1734326 75.8787533,71.8791507 74.9052501,71.6448212 C74.6367759,71.5801975 74.4715225,71.3101683 74.5361462,71.0416941 C74.6007699,70.7732199 74.8707991,70.6079665 75.1392733,70.6725902 Z M74.3263027,67.6568001 C74.422868,67.915508 74.2914254,68.2035138 74.0327176,68.300079 C73.0536417,68.6655288 72.0247516,68.8949918 70.968884,68.9794492 C70.6936208,69.0014671 70.4526268,68.7961713 70.4306089,68.5209081 C70.408591,68.2456449 70.6138868,68.004651 70.88915,67.982633 C71.8523858,67.9055851 72.7904426,67.6963797 73.6830238,67.363215 C73.9417316,67.2666497 74.2297374,67.3980922 74.3263027,67.6568001 Z M65.289317,66.8658471 C66.138487,67.3039892 67.0458794,67.6232004 67.9895281,67.812598 C68.260271,67.8669382 68.4357001,68.1304702 68.3813599,68.4012131 C68.3270197,68.6719561 68.0634877,68.8473852 67.7927447,68.793045 C66.7576559,68.5852947 65.762206,68.2351058 64.8307891,67.7545271 C64.5853869,67.6279081 64.4890941,67.3263254 64.615713,67.0809232 C64.742332,66.835521 65.0439148,66.7392281 65.289317,66.8658471 Z M78.9502678,63.9151512 C79.1684045,64.0844764 79.2079741,64.3985762 79.0386489,64.6167129 C78.3948415,65.4461115 77.6381864,66.1836619 76.7918007,66.8067196 C76.569416,66.9704256 76.2564276,66.9228572 76.0927216,66.7004725 C75.9290155,66.4780879 75.976584,66.1650995 76.1989686,66.0013935 C76.9711157,65.4329858 77.6614369,64.7600944 78.2487061,64.0035324 C78.4180313,63.7853957 78.7321311,63.7458261 78.9502678,63.9151512 Z M80.9027626,58.2844553 C81.1775425,58.3118531 81.3780854,58.5568164 81.3506876,58.8315963 C81.2456524,59.8850252 80.9942218,60.9093885 80.6060462,61.8813783 C80.5036305,62.1378265 80.212714,62.2626945 79.9562658,62.1602789 C79.6998177,62.0578633 79.5749496,61.7669467 79.6773653,61.5104986 C80.0309242,60.625189 80.2599154,59.6922466 80.3556217,58.7323803 C80.3830194,58.4576004 80.6279828,58.2570576 80.9027626,58.2844553 Z M80.2783602,52.7771983 C80.7365537,53.7205541 81.061415,54.7248755 81.2414448,55.7659084 C81.2885007,56.0380119 81.1060635,56.2967418 80.8339599,56.3437977 C80.5618564,56.3908536 80.3031265,56.2084164 80.2560706,55.9363129 C80.0920894,54.988082 79.7962334,54.0734317 79.3788491,53.2140961 C79.2582031,52.9657029 79.3617626,52.6665376 79.6101558,52.5458916 C79.8585489,52.4252456 80.1577142,52.5288051 80.2783602,52.7771983 Z M76.0817668,48.1109454 C76.9727763,48.6685031 77.7826682,49.3472142 78.4872636,50.1258999 C78.6725413,50.3306602 78.6567476,50.6468485 78.4519873,50.8321262 C78.2472271,51.017404 77.9310388,51.0016103 77.745761,50.79685 C77.1029655,50.0864625 76.3640765,49.4672538 75.5513049,48.9586541 C75.3172166,48.8121711 75.2461985,48.5036571 75.3926815,48.2695688 C75.5391645,48.0354805 75.8476785,47.9644624 76.0817668,48.1109454 Z M70.5484611,45.6637885 C71.5954823,45.7560663 72.6252297,45.9931191 73.6065446,46.3670535 C73.8645875,46.4653819 73.9940617,46.7542779 73.8957333,47.0123208 C73.7974049,47.2703637 73.5085089,47.3998379 73.250466,47.3015095 C72.3552218,46.9603727 71.415752,46.7441022 70.4606678,46.6599272 C70.1855917,46.6356838 69.9822517,46.3930373 70.0064951,46.1179612 C70.0307386,45.8428851 70.273385,45.6395451 70.5484611,45.6637885 Z M62.0018924,63.7283892 L62.0729763,63.6658274 L61.8940902,63.4086695 C62.4243755,64.203563 63.0632421,64.922664 63.796754,65.5458048 C64.0072065,65.7245906 64.0328774,66.0401306 63.8540916,66.2505831 C63.6753058,66.4610355 63.3597658,66.4867064 63.1493133,66.3079206 C62.4453362,65.7098706 61.8207645,65.0311615 61.2859763,64.2867734 C61.5175687,64.1180737 61.7562394,63.9318493 62.0018924,63.7283892 Z M67.4114712,45.71131 C67.6871989,45.696182 67.922984,45.9074397 67.9381121,46.1831674 C67.9532401,46.4588951 67.7419824,46.6946802 67.4662547,46.7098083 C66.5096556,46.7622929 65.5634421,46.9468368 64.6566922,47.2584069 C64.395537,47.3481429 64.1110834,47.2091802 64.0213474,46.948025 C63.9316113,46.6868697 64.070574,46.4024162 64.3317293,46.3126801 C65.3257634,45.9711182 66.3629025,45.7688407 67.4114712,45.71131 Z" id="形状" fill-opacity="0.8" fill-rule="nonzero"></path>
            <path d="M21,30 L40,30 C41.1045695,30 42,30.8954305 42,32 C42,33.1045695 41.1045695,34 40,34 L21,34 C19.8954305,34 19,33.1045695 19,32 C19,30.8954305 19.8954305,30 21,30 Z M21,38 L35,38 C36.1045695,38 37,38.8954305 37,40 C37,41.1045695 36.1045695,42 35,42 L21,42 C19.8954305,42 19,41.1045695 19,40 C19,38.8954305 19.8954305,38 21,38 Z" id="形状结合" fill-opacity="0.6"></path>
            <ellipse id="椭圆形" fill-opacity="0.2" cx="60" cy="97" rx="30" ry="2"></ellipse>
            <path d="M31.0045893,81.7215635 C32.6563407,78.4550031 38.3229178,68.7022398 53.0382664,68.7022398 C67.753615,68.7022398 73.4932891,78.4550031 75.0719434,81.7215635 C75.9551831,83.5491678 76.5775161,86.2882322 76.9389425,89.9387567 C77.0483786,91.0378916 76.2461224,92.0176755 75.1469935,92.1271714 C75.0820558,92.1336405 75.0168403,92.1369275 74.9515813,92.1370224 L31.107315,92.1370224 C30.0027456,92.136554 29.1076948,91.240744 29.108163,90.1361746 C29.1081887,90.0755879 29.1109674,90.0150337 29.1164115,89.954692 C29.4497159,86.2962023 30.0791085,83.5518262 31.0045893,81.7215635 Z M54.1327964,43.1370224 C47.4833816,43.1370224 42.0929658,48.3830772 42.0929658,54.8544137 C42.0929658,61.3257502 47.4833816,66.571805 54.1327964,66.571805 C60.7822113,66.571805 66.1726271,61.3257502 66.1726271,54.8544137 C66.1726271,48.3830772 60.7822113,43.1370224 54.1327964,43.1370224 Z" id="形状结合" fill-opacity="0.6"></path>
        </g>
    </g>
</svg>