<?xml version="1.0" encoding="UTF-8"?>
<svg width="32.000000" height="32.000000" viewBox="0 0 32 32" fill="none" xmlns="http://www.w3.org/2000/svg" xmlns:xlink="http://www.w3.org/1999/xlink">
	<desc>
			Created with Pixso.
	</desc>
	<defs>
		<clipPath id="clip36_31">
			<rect id="骚扰拦截" width="32.000000" height="32.000000" fill="white" fill-opacity="0"/>
		</clipPath>
		<linearGradient x1="13.206116" y1="0.000000" x2="22.564705" y2="32.000000" id="paint_linear_36_26_0" gradientUnits="userSpaceOnUse">
			<stop stop-color="#2C79F4"/>
			<stop offset="1.000000" stop-color="#0A59F7"/>
		</linearGradient>
		<linearGradient x1="5.980130" y1="0.949681" x2="28.418274" y2="29.681732" id="paint_linear_36_26_1" gradientUnits="userSpaceOnUse">
			<stop stop-color="#0A7EE9"/>
			<stop offset="1.000000" stop-color="#0065C3"/>
		</linearGradient>
	</defs>
	<rect id="骚扰拦截" width="32.000000" height="32.000000" fill="#000000" fill-opacity="1.000000"/>
	<g clip-path="url(#clip36_31)">
		<rect id="矩形 616" width="32.000000" height="32.000000" fill="url(#paint_linear_36_26_0)" fill-opacity="1.000000"/>
		<rect id="矩形 616" x="0.500000" y="0.500000" width="31.000000" height="31.000000" stroke="url(#paint_linear_36_26_1)" stroke-opacity="0" stroke-width="1.000000"/>
		<rect id="矩形 1640" x="93.000000" y="93.000000" width="20.000000" height="20.000000" fill="#C4C4C4" fill-opacity="0"/>
		<path id="减去顶层" d="M16.87 6.19C16.59 6.06 16.31 6 16.01 6C15.72 6 15.43 6.06 15.14 6.19L8.63 9.23C8.45 9.31 8.29 9.41 8.15 9.53C8.03 9.64 7.93 9.76 7.84 9.9C7.78 9.99 7.74 10.07 7.7 10.16C7.6 10.4 7.56 10.65 7.56 10.93L7.56 15.26C7.56 15.99 7.62 16.7 7.76 17.4C7.93 18.24 8.2 19.06 8.56 19.86C8.91 20.61 9.32 21.31 9.8 21.96C10.26 22.57 10.78 23.13 11.36 23.64C12.56 24.7 13.93 25.47 15.47 25.93C15.71 25.99 15.94 26.01 16.17 25.99C16.29 25.98 16.42 25.96 16.54 25.93C18.1 25.47 19.47 24.7 20.67 23.65C21.85 22.6 22.78 21.35 23.45 19.9C24.11 18.46 24.44 16.92 24.44 15.29L24.44 10.93C24.44 10.55 24.34 10.21 24.14 9.91C23.94 9.61 23.69 9.39 23.37 9.25L16.87 6.19ZM15.03 10.04C15.33 9.95 15.65 9.9 15.98 9.9C16.56 9.9 17.1 10.05 17.59 10.34C17.87 10.51 18.12 10.7 18.34 10.94C18.5 11.11 18.64 11.3 18.77 11.5C19.06 11.99 19.2 12.53 19.2 13.11C19.2 13.69 19.06 14.23 18.77 14.72C18.48 15.22 18.08 15.61 17.59 15.9C17.1 16.19 16.56 16.34 15.98 16.34C15.4 16.34 14.86 16.19 14.37 15.9C13.89 15.61 13.5 15.22 13.21 14.72C12.92 14.23 12.77 13.69 12.77 13.11C12.77 12.53 12.92 11.99 13.21 11.5C13.35 11.26 13.52 11.04 13.72 10.85C13.91 10.65 14.13 10.48 14.37 10.34C14.58 10.21 14.8 10.12 15.03 10.04ZM12.82 17.44C13.41 17.14 14.06 16.99 14.78 16.99L17.2 16.99C17.95 16.99 18.63 17.15 19.21 17.46C19.8 17.77 20.29 18.17 20.69 18.66C21.09 19.15 21.42 19.68 21.67 20.26C20.81 21.5 19.94 22.45 19.06 23.13C18.56 23.52 18.02 23.85 17.46 24.12C17.05 24.32 16.62 24.49 16.17 24.62C16.05 24.65 15.95 24.65 15.87 24.62C14.79 24.34 13.82 23.86 12.96 23.17C12.11 22.48 11.21 21.48 10.26 20.17C10.51 19.62 10.85 19.1 11.27 18.63C11.7 18.15 12.22 17.75 12.82 17.44Z" fill="#FFFFFF" fill-opacity="1.000000" fill-rule="evenodd"/>
	</g>
</svg>
