<?xml version="1.0" encoding="UTF-8"?>
<svg width="32px" height="32px" viewBox="0 0 32 32" version="1.1" xmlns="http://www.w3.org/2000/svg" xmlns:xlink="http://www.w3.org/1999/xlink">
    <title>未接来电 (5)</title>
    <defs>
        <rect id="path-1" x="0" y="0" width="32" height="32"></rect>
        <radialGradient cx="50%" cy="12.2126563%" fx="50%" fy="12.2126563%" r="89.0902344%" id="radialGradient-3">
            <stop stop-color="#22CBFF" offset="0%"></stop>
            <stop stop-color="#1091EE" offset="100%"></stop>
        </radialGradient>
        <linearGradient x1="100%" y1="42.9309547%" x2="0%" y2="42.9309547%" id="linearGradient-4">
            <stop stop-color="#000000" stop-opacity="0.101961" offset="0%"></stop>
            <stop stop-color="#000000" stop-opacity="0.2" offset="0%"></stop>
            <stop stop-color="#000000" stop-opacity="0" offset="38.4023%"></stop>
            <stop stop-color="#000000" stop-opacity="0" offset="62.9986%"></stop>
            <stop stop-color="#000000" stop-opacity="0" offset="63.0417%"></stop>
            <stop stop-color="#000000" stop-opacity="0.101961" offset="100%"></stop>
        </linearGradient>
        <radialGradient cx="21.9189453%" cy="14.3230469%" fx="21.9189453%" fy="14.3230469%" r="104.888086%" id="radialGradient-5">
            <stop stop-color="#FF4C64" offset="0%"></stop>
            <stop stop-color="#FA2840" offset="100%"></stop>
        </radialGradient>
        <radialGradient cx="50%" cy="-0.0989790763%" fx="50%" fy="-0.0989790763%" r="40.5953033%" id="radialGradient-6">
            <stop stop-color="#C8C8C8" stop-opacity="0.278431" offset="0%"></stop>
            <stop stop-color="#979797" stop-opacity="0" offset="100%"></stop>
        </radialGradient>
    </defs>
    <g id="页面-1" stroke="none" stroke-width="1" fill="none" fill-rule="evenodd">
        <g id="未接来电-(5)">
            <rect id="未接来电" fill-opacity="0" fill="#000000" fill-rule="nonzero" x="0" y="0" width="32" height="32"></rect>
            <g id="Clipped">
                <mask id="mask-2" fill="white">
                    <use xlink:href="#path-1"></use>
                </mask>
                <g id="未接来电"></g>
                <g id="编组" mask="url(#mask-2)">
                    <rect id="矩形-611" fill-opacity="0" fill="url(#radialGradient-3)" fill-rule="nonzero" x="0" y="0" width="32" height="32"></rect>
                    <rect id="矩形-611" fill-opacity="0" fill="url(#linearGradient-4)" fill-rule="nonzero" x="0" y="0" width="32" height="32"></rect>
                    <rect id="矩形-611" fill="url(#radialGradient-5)" fill-rule="nonzero" x="0" y="0" width="32" height="32"></rect>
                    <rect id="矩形-611" stroke="url(#radialGradient-6)" stroke-width="0.5" x="0.03125" y="0.03125" width="31.9375" height="31.9375"></rect>
                    <rect id="矩形-611" x="0.03125" y="0.03125" width="31.9375" height="31.9375"></rect>
                    <path d="M21.03875,8.0625 C21.1875,8.0625 21.31375,8.115625 21.419375,8.220625 C21.520625,8.320625 21.57125,8.4525 21.57125,8.615625 C21.57125,8.764375 21.520625,8.891875 21.419375,8.9975 L16.48125,13.928125 L16.38,14.03625 C16.275,14.13625 16.14875,14.186875 16,14.186875 C15.850625,14.186875 15.724375,14.13625 15.619375,14.03625 L11.5,9.91 L11.5,13.548125 C11.5,13.700625 11.44625,13.8275 11.34125,13.928125 C11.24125,14.03375 11.11375,14.086875 10.960625,14.086875 C10.811875,14.086875 10.686875,14.03375 10.586875,13.928125 C10.481875,13.8275 10.428125,13.700625 10.428125,13.548125 L10.428125,8.9975 C10.428125,8.743125 10.51375,8.53 10.686875,8.356875 C10.859375,8.184375 11.073125,8.09875 11.326875,8.09875 L15.86375,8.09875 C16.0125,8.09875 16.13875,8.150625 16.24375,8.25625 C16.345,8.356875 16.395625,8.481875 16.395625,8.629375 C16.395625,8.78375 16.345,8.91 16.24375,9.01125 C16.13875,9.116875 16.0125,9.16875 15.86375,9.16875 L12.27625,9.16875 L16,12.878125 L20.658125,8.220625 C20.76375,8.115625 20.89,8.0625 21.03875,8.0625 Z M6.210625,20.038125 C6.470625,19.548125 6.83375,19.14625 7.300625,18.833125 C8.280625,18.195625 9.526875,17.705625 11.03875,17.363125 C12.545,17.02625 14.1425,16.858125 15.83125,16.858125 C17.54375,16.858125 19.18,17.02625 20.739375,17.363125 C22.298125,17.705625 23.594375,18.195625 24.628125,18.833125 C25.1125,19.14625 25.493125,19.55375 25.770625,20.055625 C26.048125,20.558125 26.1875,21.10125 26.1875,21.68625 L26.1875,22.279375 C26.1875,22.61625 26.086875,22.92625 25.88625,23.209375 C25.715,23.469375 25.4875,23.66125 25.20375,23.785625 C24.920625,23.915 24.63125,23.965625 24.335625,23.93625 L22.165625,23.705625 L21.970625,23.679375 C21.5925,23.6675 21.270625,23.519375 21.005,23.23625 C20.745,22.9525 20.615,22.619375 20.615,22.235 L20.6325,21.00375 C20.6325,20.761875 20.55625,20.54 20.4025,20.339375 C20.243125,20.144375 20.05125,20.0175 19.826875,19.95875 C18.935,19.745625 17.715625,19.639375 16.168125,19.639375 C14.5675,19.639375 13.241875,19.760625 12.190625,20.0025 C11.96625,20.061875 11.776875,20.18875 11.62375,20.38375 C11.464375,20.584375 11.384375,20.805625 11.384375,21.048125 L11.366875,22.173125 C11.366875,22.556875 11.24,22.885 10.985625,23.15625 C10.725625,23.43375 10.406875,23.59375 10.02875,23.635 L9.639375,23.66125 L7.4775,23.98 C7.023125,23.98 6.633125,23.818125 6.308125,23.493125 C5.9775,23.1625 5.8125,22.7725 5.8125,22.32375 L5.8125,21.5975 C5.8125,21.0425 5.945,20.5225 6.210625,20.038125 Z" id="矢量-14" fill="#FFFFFF"></path>
                </g>
            </g>
        </g>
    </g>
</svg>