<?xml version="1.0" encoding="UTF-8"?>
<svg width="120px" height="120px" viewBox="0 0 120 120" version="1.1" xmlns="http://www.w3.org/2000/svg" xmlns:xlink="http://www.w3.org/1999/xlink">
    <title>NoFavorites</title>
    <g id="NoFavorites" stroke="none" stroke-width="1" fill="none" fill-rule="evenodd">
        <rect id="矩形" x="0" y="0" width="120" height="120"></rect>
        <g id="EmptyPage/15-NoCallRecords" transform="translate(17.000000, 17.151346)" fill="#A1A7B3">
            <path d="M4.24873433,76.5752664 L4.25,78.3686343 C4.25,79.4986499 5.12635957,80.4240111 6.23645429,80.5023411 L6.38921926,80.507712 L80.7221684,80.507712 C81.852184,80.507712 82.7775452,79.6314819 82.8558752,78.5213985 L82.8612461,78.3686343 L82.8614577,77.1946504 C84.5679382,77.9506741 85.5,78.7681567 85.5,79.6212852 C85.5,80.6264434 84.2061477,81.5821194 81.8762739,82.4460951 L81.3203371,82.6438271 L81.3203371,82.6438271 L80.7283227,82.8381882 C80.4234134,82.9345068 80.105239,83.029518 79.7741957,83.1231571 L79.0950676,83.3085864 C78.8630502,83.3697735 78.6254307,83.4303315 78.3823263,83.4902413 L77.6366759,83.6680064 L77.6366759,83.6680064 L76.8588206,83.8417664 L76.8588206,83.8417664 L76.0494644,84.0114061 L76.0494644,84.0114061 L75.2093116,84.1768101 L75.2093116,84.1768101 L74.3390662,84.3378632 C74.1915567,84.3643364 74.0428227,84.3906235 73.8928788,84.4167221 L72.9788149,84.5710326 L72.9788149,84.5710326 L72.0364187,84.7207039 C71.8770308,84.7452561 71.7164917,84.7696102 71.5548161,84.7937638 L70.5712419,84.9362602 L70.5712419,84.9362602 L69.5610958,85.073829 L69.5610958,85.073829 L68.525082,85.2063552 L68.525082,85.2063552 L67.4639046,85.3337233 L67.4639046,85.3337233 L66.3782677,85.4558181 L66.3782677,85.4558181 L64.7054912,85.6288206 L64.7054912,85.6288206 L63.5617863,85.7372277 L63.5617863,85.7372277 L62.3960863,85.8399579 L62.3960863,85.8399579 L61.2090955,85.9368959 L61.2090955,85.9368959 L60.001518,86.0279265 L60.001518,86.0279265 L58.7740579,86.1129343 L58.7740579,86.1129343 L57.5274193,86.1918041 L57.5274193,86.1918041 L56.2623065,86.2644205 L56.2623065,86.2644205 L54.9794234,86.3306683 L54.9794234,86.3306683 L53.02332,86.4178465 L53.02332,86.4178465 L51.6990921,86.4676683 L51.6990921,86.4676683 L50.3595585,86.5107178 L50.3595585,86.5107178 L49.0054233,86.5468799 L49.0054233,86.5468799 L47.6373906,86.5760391 L47.6373906,86.5760391 L46.2561647,86.5980804 L46.2561647,86.5980804 L44.8624496,86.6128882 L44.8624496,86.6128882 L43.4569494,86.6203474 L43.4569494,86.6203474 L42.0430506,86.6203474 L42.0430506,86.6203474 L40.6375504,86.6128882 L40.6375504,86.6128882 L39.2438353,86.5980804 L39.2438353,86.5980804 L37.8626094,86.5760391 L37.8626094,86.5760391 L36.4945767,86.5468799 L36.4945767,86.5468799 L35.1404415,86.5107178 L35.1404415,86.5107178 L33.8009079,86.4676683 L33.8009079,86.4676683 L32.47668,86.4178465 L32.47668,86.4178465 L30.5205766,86.3306683 L30.5205766,86.3306683 L28.6028718,86.2289012 L28.6028718,86.2289012 L27.3469081,86.1531437 L27.3469081,86.1531437 L26.1097707,86.0711905 L26.1097707,86.0711905 L24.8921639,85.9831568 L24.8921639,85.9831568 L23.6947917,85.8891581 L23.6947917,85.8891581 L22.5183583,85.7893096 L22.5183583,85.7893096 L21.3635679,85.6837266 L21.3635679,85.6837266 L19.673503,85.514852 L19.673503,85.514852 L18.0360954,85.3337233 L18.0360954,85.3337233 L16.974918,85.2063552 L16.974918,85.2063552 L15.9389042,85.073829 L15.9389042,85.073829 L14.9287581,84.9362602 L14.9287581,84.9362602 L13.9451839,84.7937638 C13.7835083,84.7696102 13.6229692,84.7452561 13.4635813,84.7207039 L12.5211851,84.5710326 L12.5211851,84.5710326 L11.6071212,84.4167221 L11.6071212,84.4167221 L10.7220936,84.2578878 C10.5770478,84.2310448 10.4332412,84.2040181 10.2906884,84.1768101 L9.45053559,84.0114061 L9.45053559,84.0114061 L8.64117944,83.8417664 L8.64117944,83.8417664 L7.8633241,83.6680064 L7.8633241,83.6680064 L7.11767371,83.4902413 C6.99612151,83.4602864 6.87594053,83.4301695 6.75714542,83.3998929 L6.06112271,83.2163363 C5.6083511,83.0927136 5.17822301,82.966613 4.77167729,82.8381882 L4.17966285,82.6438271 L4.17966285,82.6438271 L3.62372611,82.4460951 C1.2938523,81.5821194 0,80.6264434 0,79.6212852 C0,78.5295393 1.52636699,77.496168 4.24873433,76.5752664 Z" id="路径" opacity="0.15"></path>
            <path d="M69.0156348,37.2503434 L82.6025248,53.0454136 C82.748568,53.2152004 82.8370976,53.4258877 82.8569481,53.6473727 L82.8612461,53.7692411 L82.8612461,78.3686343 C82.8612461,79.5500143 81.9035484,80.507712 80.7221684,80.507712 L6.38921926,80.507712 C5.20783928,80.507712 4.24974806,79.5500143 4.24974806,78.3686343 L4.24974806,53.7692411 C4.24659732,53.5479365 4.30955514,53.3242898 4.44336552,53.1323306 L4.50506342,53.0521016 L17.5065338,37.6843465 C19.3445143,50.243709 30.1617148,59.8868608 43.231194,59.8868608 C56.4508199,59.8868608 67.3661198,50.0208687 69.0156348,37.2503434 Z M68.2133407,41.4058247 C65.0607677,52.215398 55.0776909,60.1131295 43.25,60.1131295 C31.7171994,60.1131295 21.938179,52.6043042 18.5351215,42.2088364 L18.4176686,41.8407464 L10.2883876,52.2837462 L10.2373038,52.3551437 C9.95814637,52.7808189 10.0199255,53.345011 10.379366,53.7004004 L10.4754024,53.7846966 L10.5477884,53.836359 C10.6864387,53.926858 10.8441094,53.9838507 11.0082489,54.0030278 L11.1323702,54.0102529 L20.7592404,54.0102529 L20.7596974,61.4291341 C20.7596974,62.2659449 21.4003794,62.9531164 22.2179809,63.026886 L22.3640057,63.0334423 L66.7498674,63.0334423 C67.5866782,63.0334423 68.2738497,62.3927603 68.3476193,61.5751588 L68.3541756,61.4291341 L68.3537186,54.0102529 L75.9789247,54.0102529 L76.0587456,54.0073193 C76.6121571,53.9664901 77.0484635,53.5045545 77.0484635,52.940714 C77.0484635,52.7479552 76.9963934,52.5597141 76.899003,52.395395 L76.8175682,52.2769441 L68.2133407,41.4058247 Z" id="形状" opacity="0.400000006"></path>
            <path d="M68.2133407,41.4058247 L76.8175682,52.2769441 C76.967104,52.465876 77.0484635,52.6997655 77.0484635,52.940714 C77.0484635,53.5045545 76.6121571,53.9664901 76.0587456,54.0073193 L75.9789247,54.0102529 L68.3537186,54.0102529 L68.3541756,61.4291341 C68.3541756,62.3151691 67.6359024,63.0334423 66.7498674,63.0334423 L22.3640057,63.0334423 C21.4779707,63.0334423 20.7596974,62.3151691 20.7596974,61.4291341 L20.7592404,54.0102529 L11.1323702,54.0102529 C10.9241335,54.0102529 10.7211013,53.9494827 10.5477884,53.836359 L10.4754024,53.7846966 C10.0325896,53.440005 9.93488324,52.8162919 10.2373038,52.3551437 L10.2883876,52.2837462 L18.4176686,41.8407464 C21.7083271,52.4265866 31.5815194,60.1131295 43.25,60.1131295 C55.0776909,60.1131295 65.0607677,52.215398 68.2133407,41.4058247 Z" id="路径" opacity="0.600000024"></path>
            <path d="M53.1929308,39.5353971 L53.2074151,39.6339208 L54.609652,47.9025315 C54.8953508,49.6127938 53.1545474,50.9237183 51.6269537,50.1815433 L51.5532136,50.1440223 L46.1376392,47.2658523 C46.8600709,46.6478759 47.6079997,45.8910638 48.3814258,44.9954161 C49.6146738,43.5672825 51.2787773,41.3622869 53.3732458,38.3785862 C53.3782395,38.3677384 53.3833251,38.3569301 53.388502,38.3461625 C53.2125816,38.7124384 53.1423288,39.1248969 53.1929308,39.5353971 Z M45.0689332,18.2842932 L45.1116876,18.3674305 L48.7816046,25.8861103 C49.0744013,26.4883694 49.6292176,26.9090864 50.2745499,27.035141 L50.3673375,27.0511321 L58.5835696,28.2604302 C60.2802216,28.508055 60.9758489,30.5859262 59.8111063,31.8260048 L59.7502746,31.8883247 L53.8154162,37.7494081 C50.1341971,40.9497905 45.9306388,43.9638428 41.2047412,46.791565 L41.2106873,46.787346 L34.898911,50.1384878 C33.3787776,50.9445987 31.6040052,49.6762968 31.829968,47.9794309 L31.8424726,47.8969969 L33.2447096,39.6283863 C33.351651,38.9668763 33.1555296,38.3003464 32.7060278,37.8152534 L32.6367084,37.7438736 L26.6881563,31.8883247 C25.4601035,30.6801334 26.1069857,28.5862527 27.7694577,28.2773529 L27.8548613,28.2631975 L36.0710934,27.0594339 C36.7231754,26.9619205 37.2932813,26.5606973 37.6134372,25.9824595 L37.659565,25.8944121 L41.3349595,18.3674305 C42.0934938,16.8155341 44.2601102,16.7878217 45.0689332,18.2842932 Z" id="形状结合" fill-opacity="0.8" fill-rule="nonzero"></path>
            <path d="M53.8154162,37.7494081 C53.6286734,37.9329124 53.4799871,38.1467129 53.3732458,38.3785862 C51.2787773,41.3622869 49.6146738,43.5672825 48.3814258,44.9954161 C47.6072908,45.8918847 46.8586998,46.6492631 46.1356528,47.2675513 L44.2051633,46.2394006 C43.6197568,45.9291893 42.9280664,45.9136788 42.3367278,46.1928689 L42.2442226,46.2394006 L41.2047412,46.791565 C45.9306388,43.9638428 50.1341971,40.9497905 53.8154162,37.7494081 L53.8154162,37.7494081 Z" id="形状结合" fill-opacity="0.6" fill-rule="nonzero"></path>
            <path d="M43.25,8.11312951 C57.6094035,8.11312951 69.25,19.753726 69.25,34.1131295 C69.25,48.472533 57.6094035,60.1131295 43.25,60.1131295 C28.8905965,60.1131295 17.25,48.472533 17.25,34.1131295 C17.25,19.753726 28.8905965,8.11312951 43.25,8.11312951 Z M45.0689332,18.2842932 C44.2601102,16.7878217 42.0934938,16.8155341 41.3349595,18.3674305 L41.3349595,18.3674305 L37.659565,25.8944121 L37.6134372,25.9824595 C37.2932813,26.5606973 36.7231754,26.9619205 36.0710934,27.0594339 L36.0710934,27.0594339 L27.8548613,28.2631975 L27.7694577,28.2773529 C26.1069857,28.5862527 25.4601035,30.6801334 26.6881563,31.8883247 L26.6881563,31.8883247 L32.6367084,37.7438736 L32.7060278,37.8152534 C33.1555296,38.3003464 33.351651,38.9668763 33.2447096,39.6283863 L33.2447096,39.6283863 L31.8424726,47.8969969 L31.829968,47.9794309 C31.6040052,49.6762968 33.3787776,50.9445987 34.898911,50.1384878 L34.898911,50.1384878 L42.2442226,46.2394006 L42.3367278,46.1928689 C42.9280664,45.9136788 43.6197568,45.9291893 44.2051633,46.2394006 L44.2051633,46.2394006 L51.5532136,50.1440223 L51.6269537,50.1815433 C53.1545474,50.9237183 54.8953508,49.6127938 54.609652,47.9025315 L54.609652,47.9025315 L53.2074151,39.6339208 L53.1929308,39.5353971 C53.111913,38.8781542 53.3407006,38.2158912 53.8154162,37.7494081 L53.8154162,37.7494081 L59.7502746,31.8883247 L59.8111063,31.8260048 C60.9758489,30.5859262 60.2802216,28.508055 58.5835696,28.2604302 L58.5835696,28.2604302 L50.3673375,27.0511321 L50.2745499,27.035141 C49.6292176,26.9090864 49.0744013,26.4883694 48.7816046,25.8861103 L48.7816046,25.8861103 L45.1116876,18.3674305 Z" id="形状结合" fill-opacity="0.3"></path>
            <path d="M75.8064204,14.4793094 L69.4560706,17.7149743 C68.7844788,18.0571673 68.5174485,18.8790023 68.8596416,19.5505941 C69.2018346,20.2221858 70.0236696,20.4892162 70.6952614,20.1470231 L77.0456112,16.9113583 C77.7172029,16.5691652 77.9842333,15.7473302 77.6420402,15.0757385 C77.2998471,14.4041467 76.4780121,14.1371163 75.8064204,14.4793094 Z M64.2661783,0.220338867 C63.6340345,-0.190180103 62.7887894,-0.0105176972 62.3782704,0.621626082 L58.4965386,6.59896891 C58.0860196,7.23111269 58.265682,8.07635785 58.8978258,8.48687682 C59.5299696,8.89739579 60.3752147,8.71773339 60.7857337,8.08558961 L64.6674655,2.10824678 C65.0779845,1.476103 64.8983221,0.630857837 64.2661783,0.220338867 Z M71.388694,6.74660139 C70.8843401,6.18645966 70.021396,6.14123468 69.4612542,6.64558855 L64.1647391,11.4145922 C63.6045973,11.9189461 63.5593723,12.7818903 64.0637262,13.342032 C64.5680801,13.9021737 65.4310243,13.9473987 65.991166,13.4430449 L71.2876812,8.67404117 C71.8478229,8.1696873 71.8930479,7.30674311 71.388694,6.74660139 Z" id="形状" opacity="0.2"></path>
            <path d="M10.6798671,14.4793094 L17.0302169,17.7149743 C17.7018086,18.0571673 17.968839,18.8790023 17.6266459,19.5505941 C17.2844528,20.2221858 16.4626178,20.4892162 15.7910261,20.1470231 L9.44067631,16.9113583 C8.76908456,16.5691652 8.50205418,15.7473302 8.84424727,15.0757385 C9.18644036,14.4041467 10.0082753,14.1371163 10.6798671,14.4793094 Z M22.2201091,0.220338867 C22.8522529,-0.190180103 23.6974981,-0.0105176972 24.1080171,0.621626082 L27.9897489,6.59896891 C28.4002678,7.23111269 28.2206054,8.07635785 27.5884617,8.48687682 C26.9563179,8.89739579 26.1110727,8.71773339 25.7005537,8.08558961 L21.8188219,2.10824678 C21.408303,1.476103 21.5879654,0.630857837 22.2201091,0.220338867 Z M15.0975934,6.74660139 C15.6019473,6.18645966 16.4648915,6.14123468 17.0250332,6.64558855 L22.3215484,11.4145922 C22.8816901,11.9189461 22.9269151,12.7818903 22.4225612,13.342032 C21.9182074,13.9021737 21.0552632,13.9473987 20.4951215,13.4430449 L15.1986063,8.67404117 C14.6384646,8.1696873 14.5932396,7.30674311 15.0975934,6.74660139 Z" id="形状" opacity="0.2"></path>
        </g>
    </g>
</svg>