<?xml version="1.0" encoding="utf-8"?>
<!-- Generator: Adobe Illustrator 19.0.0, SVG Export Plug-In . SVG Version: 6.00 Build 0)  -->
<svg version="1.1" id="图层_1" xmlns="http://www.w3.org/2000/svg" xmlns:xlink="http://www.w3.org/1999/xlink" x="0px" y="0px"
	 viewBox="0 0 96 96" style="enable-background:new 0 0 96 96;" xml:space="preserve">
<path id="path-1_1_" d="M48,86c21,0,38-17,38-38S69,10,48,10S10,27,10,48S27,86,48,86z M48,92C23.7,92,4,72.3,4,48S23.7,4,48,4
	s44,19.7,44,44S72.3,92,48,92z M48,24c2.8,0,5,2.2,5,5s-2.2,5-5,5s-5-2.2-5-5S45.2,24,48,24z M51,69c0,1.7-1.3,3-3,3s-3-1.3-3-3V42
	c0-1.7,1.3-3,3-3s3,1.3,3,3V69z"/>
</svg>
