<?xml version="1.0" standalone="no"?>
<svg version="1.0" xmlns="http://www.w3.org/2000/svg"
 width="40.000000px" height="40.000000px" viewBox="0 0 50.000000 50.000000"
 preserveAspectRatio="xMidYMid meet">

<g transform="translate(0.000000,50.000000) scale(0.100000,-0.100000)"
fill="#000000" stroke="none">
<path d="M66 445 c-19 -17 -26 -34 -26 -61 0 -109 166 -302 301 -349 36 -13
45 -13 74 1 42 19 61 54 46 82 -13 24 -110 82 -138 82 -10 0 -24 -5 -31 -12
-15 -15 -56 6 -84 44 -17 25 -18 32 -6 63 11 33 10 40 -12 82 -52 98 -77 112
-124 68z m85 -62 c20 -32 28 -55 24 -68 -21 -64 -19 -74 28 -120 45 -46 71
-54 108 -35 15 9 29 5 65 -16 51 -30 62 -47 44 -69 -48 -58 -248 82 -319 223
-33 65 -39 100 -19 120 21 21 38 13 69 -35z"/>
</g>
</svg>
