<svg width="120.000000" height="120.000000" viewBox="0 0 120 120" fill="none" xmlns="http://www.w3.org/2000/svg" xmlns:xlink="http://www.w3.org/1999/xlink">
	<desc>
			Created with Pixso.
	</desc>
	<defs>
		<clipPath id="clip45_8837">
			<rect id="画板 3" width="120.000000" height="120.000000" fill="white" fill-opacity="0"/>
		</clipPath>
	</defs>
	<rect id="画板 3" width="120.000000" height="120.000000" fill="#CBCACA" fill-opacity="0"/>
	<g clip-path="url(#clip45_8837)">
		<path id="形状结合" d="M98.394 100.374C88.4004 109.88 74.8818 115.714 60.0005 115.714C44.9751 115.714 31.3384 109.766 21.3174 100.096C21.3687 99.9824 21.4209 99.8711 21.4746 99.7617C24.2676 94.0869 31.5244 77.1426 59.8013 77.1426C88.0781 77.1426 95.458 94.0869 98.1274 99.7617C98.2197 99.958 98.3086 100.163 98.394 100.374ZM59.8013 27.8569C48.5581 27.8569 39.4438 36.9712 39.4438 48.2139C39.4438 59.457 48.5581 68.5713 59.8013 68.5713C71.0439 68.5713 80.1582 59.457 80.1582 48.2139C80.1582 36.9712 71.0439 27.8569 59.8013 27.8569Z" clip-rule="evenodd" fill="#FFFFFF" fill-opacity="0.901961" fill-rule="evenodd"/>
	</g>
</svg>
