<svg width="24.000000" height="24.000000" viewBox="0 0 24 24" fill="none" xmlns="http://www.w3.org/2000/svg" xmlns:xlink="http://www.w3.org/1999/xlink">
	<desc>
			Created with Pixso.
	</desc>
	<defs>
		<clipPath id="clip247_8066">
			<rect id="消息盒子dark" width="24.000000" height="24.000000" fill="white" fill-opacity="0"/>
		</clipPath>
	</defs>
	<g clip-path="url(#clip247_8066)">
		<path id="形状结合" d="M4.4502 8.23474L5.16992 8.23474L5.82373 9.23682C6.02393 9.57593 6.58301 9.75085 6.97681 9.75403L6.98975 9.75403C7.38037 9.75403 7.97729 9.65942 8.18408 9.3269L8.96143 8.23474L10.9053 8.23474C10.9341 8.23474 10.9626 8.23267 10.9912 8.22852C11.6135 8.13818 12.2002 7.46045 12.2002 6.84009L12.2002 3.08801L13.1943 2.51086C13.7634 2.1814 14.4717 2.17542 15.0469 2.4989L23.1165 6.99072C23.6611 7.29614 24.0002 7.87109 24.0002 8.49402L24.0002 17.6514C24.0002 18.2623 23.6672 18.8313 23.1406 19.1367L15.1982 23.7484C14.9077 23.916 14.5867 23.9999 14.2598 23.9999C13.9451 23.9999 13.6304 23.9221 13.3457 23.7604L5.40332 19.2985C4.82837 18.975 4.47119 18.3701 4.46509 17.7173L4.39844 8.67969C4.39722 8.52808 4.41504 8.37878 4.4502 8.23474ZM14.9639 19.4656L14.9258 13.6343L20.1975 10.764C20.5139 10.5933 20.6282 10.2039 20.4539 9.89966C20.2793 9.59021 19.8813 9.47827 19.5652 9.64893L14.2661 12.5299L9.06494 9.77698C8.74341 9.61157 8.35083 9.729 8.17627 10.0385C8.00732 10.3531 8.1272 10.7373 8.4436 10.9081L13.6172 13.6449L13.6555 19.4762C13.6555 19.8284 13.9497 20.1111 14.3096 20.1111L14.3152 20.1111C14.6748 20.1057 14.9639 19.8176 14.9639 19.4656Z" clip-rule="evenodd" fill="#FFFFFF" fill-opacity="0.900000" fill-rule="evenodd"/>
		<path id="形状结合" d="M10.0903 0L0.985596 0C0.44043 0 -0.000488281 0.439209 -0.000488281 0.982178L-0.000488281 6.31067C-0.000488281 6.85352 0.44043 7.29285 0.985596 7.29285L5.67065 7.29285L6.14453 8.09766C6.31152 8.38147 6.61011 8.55334 6.93896 8.55603L6.94971 8.55603C7.27588 8.55603 7.57153 8.39233 7.74414 8.11401L8.25366 7.29285L10.0903 7.29285C10.6355 7.29285 11.0764 6.85352 11.0764 6.31067L11.0764 0.982178C11.0764 0.442017 10.6328 0 10.0903 0ZM1.98535 3.66687C1.98535 4.05469 2.30444 4.37195 2.69434 4.37195C3.08765 4.37195 3.40308 4.05823 3.40308 3.66687C3.40308 3.27893 3.08398 2.96167 2.69434 2.96167C2.30444 2.96167 1.98535 3.27893 1.98535 3.66687ZM5.58887 4.37195C5.19897 4.37195 4.87988 4.05469 4.87988 3.66687C4.87988 3.27893 5.19897 2.96167 5.58887 2.96167C5.97852 2.96167 6.29761 3.27893 6.29761 3.66687C6.29761 4.05823 5.98218 4.37195 5.58887 4.37195ZM7.71484 3.66687C7.71484 4.05469 8.03394 4.37195 8.42383 4.37195C8.81714 4.37195 9.13257 4.05823 9.13257 3.66687C9.13257 3.27893 8.81348 2.96167 8.42383 2.96167C8.03394 2.96167 7.71484 3.27893 7.71484 3.66687Z" clip-rule="evenodd" fill="#FFFFFF" fill-opacity="0.450000" fill-rule="evenodd"/>
	</g>
</svg>
