<svg width="24.000000" height="24.000000" viewBox="0 0 24 24" fill="none" xmlns="http://www.w3.org/2000/svg" xmlns:xlink="http://www.w3.org/1999/xlink">
	<desc>
			Created with Pixso.
	</desc>
	<defs>
		<clipPath id="clip256_7544">
			<rect id="消息盒子" width="24.000000" height="24.000000" fill="white" fill-opacity="0"/>
		</clipPath>
	</defs>
	<rect id="消息盒子" width="24.000000" height="24.000000" fill="#FFFFFF" fill-opacity="0"/>
	<g clip-path="url(#clip256_7544)">
		<rect id="矩形 425" width="24.000000" height="24.000000" fill="#C4C4C4" fill-opacity="0"/>
		<path id="合并" d="M1.8905 1L10.1101 1C10.5997 1 11.0002 1.39893 11.0002 1.88672L11.0002 6.69702C11.0002 7.18726 10.6022 7.58374 10.1101 7.58374L8.4519 7.58374L7.99194 8.3252C7.83618 8.57642 7.56909 8.72412 7.2749 8.72412L7.26501 8.72412C6.96826 8.72168 6.69873 8.56665 6.54785 8.31055L6.12 7.58374L1.8905 7.58374C1.39832 7.58374 1.00024 7.18726 1.00024 6.69702L1.00024 1.88672C1.00024 1.39648 1.39832 1 1.8905 1ZM3.2644 8.83398C3.25464 8.92651 3.24976 9.02026 3.24976 9.11548L3.24976 16.9541C3.24976 17.1885 3.27942 17.415 3.33887 17.6335L3.33887 17.6335L3.33911 17.6343C3.39868 17.8528 3.48792 18.0635 3.60706 18.2659C3.7262 18.4683 3.86682 18.6484 4.02905 18.8069C4.19128 18.9651 4.375 19.1011 4.58032 19.2151L11.7435 23.1948C12.1342 23.4119 12.5529 23.5203 12.9998 23.5203C13.2233 23.5203 13.4396 23.4932 13.649 23.439C13.8584 23.3848 14.0607 23.3032 14.256 23.1948L21.4193 19.2151C21.8298 18.9871 22.1543 18.6707 22.3925 18.2659C22.5114 18.0637 22.6006 17.8538 22.6602 17.6355L22.6603 17.6348L22.6605 17.6343L22.6606 17.6335L22.6608 17.6331L22.6608 17.6331C22.7201 17.4148 22.7498 17.1885 22.7498 16.9541L22.7498 9.11548C22.7498 8.88086 22.7201 8.6543 22.6606 8.43604L22.6606 8.43579L22.6605 8.4353C22.601 8.21655 22.5116 8.0061 22.3925 7.80371C22.1543 7.39893 21.8298 7.08228 21.4193 6.85425L14.256 2.87476C14.0607 2.76611 13.8584 2.68481 13.649 2.63062C13.4396 2.57617 13.2233 2.54907 12.9998 2.54907C12.7764 2.54907 12.5599 2.57617 12.3506 2.63062C12.3167 2.6394 12.2828 2.64893 12.2493 2.65894L12.2493 4.30957L12.472 4.18579C12.6361 4.09473 12.812 4.04907 12.9998 4.04907C13.1875 4.04907 13.3634 4.09473 13.5276 4.18579L20.6908 8.16553C20.8633 8.26123 20.9996 8.39429 21.0997 8.56445C21.1497 8.64941 21.1873 8.73779 21.2123 8.82959L21.2123 8.82983L21.2124 8.83008C21.2373 8.92188 21.2498 9.01685 21.2498 9.11548L21.2498 16.9541C21.2498 17.0527 21.2373 17.1479 21.2123 17.2397L21.2122 17.24C21.1871 17.3318 21.1497 17.4202 21.0997 17.5051C20.9996 17.6753 20.8633 17.8081 20.6908 17.9041L13.5276 21.8835C13.3634 21.9746 13.1875 22.0203 12.9998 22.0203C12.812 22.0203 12.6361 21.9746 12.472 21.8835L5.30872 17.9041C5.13623 17.8081 5 17.6753 4.8999 17.5051C4.7998 17.335 4.74976 17.1514 4.74976 16.9541L4.74976 9.11548C4.74976 9.01831 4.76184 8.92456 4.78613 8.83398L3.2644 8.83398ZM3.43103 4.94678C3.0791 4.94678 2.79114 4.6604 2.79114 4.3103C2.79114 3.95996 3.0791 3.67358 3.43103 3.67358C3.78296 3.67358 4.07092 3.95996 4.07092 4.3103C4.07092 4.66357 3.78613 4.94678 3.43103 4.94678ZM5.40442 4.3103C5.40442 4.6604 5.69238 4.94678 6.04431 4.94678C6.39941 4.94678 6.6842 4.66357 6.6842 4.3103C6.6842 3.95996 6.39624 3.67358 6.04431 3.67358C5.69238 3.67358 5.40442 3.95996 5.40442 4.3103ZM8.60388 4.94678C8.25195 4.94678 7.96399 4.6604 7.96399 4.3103C7.96399 3.95996 8.25195 3.67358 8.60388 3.67358C8.95581 3.67358 9.24377 3.95996 9.24377 4.3103C9.24377 4.66357 8.95898 4.94678 8.60388 4.94678ZM17.136 9.87915L13.0002 12.1768L8.8645 9.87915C8.49731 9.67505 8.04858 9.80322 7.8446 10.1704C7.64062 10.5376 7.76892 10.9863 8.13599 11.1902L12.2502 13.4761L12.2502 19.0347C12.2502 19.4546 12.5803 19.7847 13.0002 19.7847C13.4203 19.7847 13.7502 19.4546 13.7502 19.0347L13.7502 13.4761L17.8645 11.1902C18.2317 10.9863 18.3599 10.5376 18.1559 10.1704C17.9519 9.80322 17.5032 9.67505 17.136 9.87915Z" clip-rule="evenodd" fill="#000000" fill-opacity="1.000000" fill-rule="evenodd"/>
	</g>
</svg>
