<svg width="192.000000" height="192.000000" viewBox="0 0 192 192" fill="none" xmlns="http://www.w3.org/2000/svg" xmlns:xlink="http://www.w3.org/1999/xlink">
	<desc>
			Created with Pixso.
	</desc>
	<defs>
		<clipPath id="clip13_221488">
			<rect id="录音转文本备份" width="192.000000" height="192.000000" fill="white" fill-opacity="0"/>
		</clipPath>
	</defs>
	<rect id="录音转文本备份" width="192.000000" height="192.000000" fill="#FFFFFF" fill-opacity="0"/>
	<g clip-path="url(#clip13_221488)">
		<rect id="矩形" x="102.511475" y="146.664917" rx="5.000000" width="12.325589" height="23.852844" fill="#FFFFFF" fill-opacity="1.000000"/>
		<rect id="矩形" x="103.011475" y="147.164917" rx="5.000000" width="11.325589" height="22.852844" stroke="#979797" stroke-opacity="0" stroke-width="1.000000"/>
		<rect id="矩形备份 3" x="161.674316" y="147.702026" rx="5.000000" width="12.325589" height="21.778685" fill="#FFFFFF" fill-opacity="1.000000"/>
		<rect id="矩形备份 3" x="162.174316" y="148.202026" rx="5.000000" width="11.325589" height="20.778685" stroke="#979797" stroke-opacity="0" stroke-width="1.000000"/>
		<rect id="矩形备份" x="122.232422" y="133.182861" rx="5.000000" width="12.325589" height="50.816929" fill="#FFFFFF" fill-opacity="1.000000"/>
		<rect id="矩形备份" x="122.732422" y="133.682861" rx="5.000000" width="11.325589" height="49.816929" stroke="#979797" stroke-opacity="0" stroke-width="1.000000"/>
		<rect id="矩形备份 2" x="141.953369" y="140.442505" rx="5.000000" width="12.325589" height="37.334888" fill="#FFFFFF" fill-opacity="1.000000"/>
		<rect id="矩形备份 2" x="142.453369" y="140.942505" rx="5.000000" width="11.325589" height="36.334888" stroke="#979797" stroke-opacity="0" stroke-width="1.000000"/>
		<path id="路径 (边框)" d="M45.81 95.39L45.81 151.77C45.81 155.53 47.13 158.75 49.78 161.41C52.43 164.07 55.62 165.4 59.37 165.4L86.05 165.4C89.5 165.4 92.22 168.13 92.22 171.6C92.22 175.07 89.5 177.8 86.05 177.8L59.37 177.8C55.79 177.8 52.48 177.16 49.43 175.89C46.38 174.62 43.59 172.72 41.06 170.17C38.54 167.63 36.64 164.83 35.38 161.76C34.12 158.69 33.48 155.36 33.48 151.77L33.48 95.39C33.48 91.92 36.2 89.19 39.65 89.19C43.1 89.19 45.81 91.92 45.81 95.39Z" fill="#FFFFFF" fill-opacity="1.000000" fill-rule="evenodd"/>
		<path id="路径 (边框)" d="M95.18 21.83C91.73 21.83 89.02 24.56 89.02 28.02C89.02 31.49 91.73 34.22 95.18 34.22L99.83 34.22L134.51 34.09C138.25 34.08 141.45 35.4 144.11 38.05C145.44 39.38 146.43 40.84 147.1 42.45C147.77 44.05 148.11 45.8 148.11 47.68L148.11 118.86C148.11 122.33 150.82 125.05 154.27 125.05C157.73 125.05 160.44 122.33 160.44 118.86L160.44 47.73C160.41 40.54 157.86 34.32 152.79 29.26C150.26 26.73 147.46 24.83 144.41 23.57C141.35 22.31 138.04 21.69 134.46 21.7L99.82 21.82L95.18 21.83Z" fill="#FFFFFF" fill-opacity="1.000000" fill-rule="evenodd"/>
		<path id="Clip 2" d="M47.76 73.88C46.88 73.88 46.26 73.38 46.14 72.63C43.02 57.5 31.31 45.63 16.24 42.5C15.49 42.38 15 41.75 15 40.88C15 40 15.49 39.38 16.24 39.25C31.19 36.13 43.02 24.37 46.14 9.25C46.39 8.49 47.01 8 47.76 8C48.63 8 49.25 8.5 49.38 9.25C52.49 24.25 64.2 36.13 79.27 39.25C80.02 39.5 80.52 40.13 80.52 40.88C80.52 41.75 80.02 42.38 79.27 42.5C64.32 45.63 52.49 57.5 49.38 72.63C49.13 73.38 48.5 73.88 47.76 73.88Z" fill="#FFFFFF" fill-opacity="1.000000" fill-rule="evenodd"/>
		<path id="A备份 3" d="M105.362 114.52L88.5322 114.52L85.0378 125.746L74.1626 125.746L91.6699 73.6899L102.331 73.6899L119.767 125.746L108.892 125.746L105.362 114.52ZM102.83 106.332L91.0994 106.332L96.8757 87.9911L97.0898 87.9911L102.83 106.332Z" clip-rule="evenodd" fill="#FFFFFF" fill-opacity="1.000000" fill-rule="evenodd"/>
	</g>
</svg>
