<?xml version="1.0" encoding="UTF-8"?>
<svg width="109px" height="60px" viewBox="0 0 109 60" version="1.1" xmlns="http://www.w3.org/2000/svg" xmlns:xlink="http://www.w3.org/1999/xlink">
    <title>8备份 2</title>
    <g id="8备份-2" stroke="none" stroke-width="1" fill="none" fill-rule="evenodd">
        <circle id="椭圆形" fill-opacity="0.149019608" fill="#FFFFFF" cx="54.5" cy="30" r="28"></circle>
        <g id="拨号盘双行文本备份-5" transform="translate(0.000000, 0.000000)">
            <rect id="Rectangle" x="0" y="0" width="109" height="60"></rect>
            <path d="M57.825,23.9 C58.7583333,24.3333333 59.4875,24.9541667 60.0125,25.7625 C60.5375,26.5708333 60.8,27.525 60.8,28.625 C60.8,29.6916667 60.5416667,30.6458333 60.025,31.4875 C59.5083333,32.3291667 58.7791667,32.9833333 57.8375,33.45 C56.8958333,33.9166667 55.8083333,34.15 54.575,34.15 C53.2916667,34.15 52.1708333,33.9125 51.2125,33.4375 C50.2541667,32.9625 49.5166667,32.3083333 49,31.475 C48.4833333,30.6416667 48.225,29.6916667 48.225,28.625 C48.225,27.5416667 48.4916667,26.5916667 49.025,25.775 C49.5583333,24.9583333 50.2916667,24.3333333 51.225,23.9 C50.475,23.5166667 49.8916667,23 49.475,22.35 C49.0583333,21.7 48.85,20.95 48.85,20.1 C48.85,19.2 49.0791667,18.3791667 49.5375,17.6375 C49.9958333,16.8958333 50.6583333,16.3041667 51.525,15.8625 C52.3916667,15.4208333 53.4083333,15.2 54.575,15.2 C55.7083333,15.2 56.6958333,15.4166667 57.5375,15.85 C58.3791667,16.2833333 59.0166667,16.8708333 59.45,17.6125 C59.8833333,18.3541667 60.1,19.1833333 60.1,20.1 C60.1,20.95 59.9,21.7 59.5,22.35 C59.1,23 58.5416667,23.5166667 57.825,23.9 Z M54.575,17.875 C53.825,17.875 53.2291667,18.0958333 52.7875,18.5375 C52.3458333,18.9791667 52.125,19.55 52.125,20.25 C52.125,20.9333333 52.3458333,21.4958333 52.7875,21.9375 C53.2291667,22.3791667 53.825,22.6 54.575,22.6 C55.3083333,22.6 55.8958333,22.375 56.3375,21.925 C56.7791667,21.475 57,20.9166667 57,20.25 C57,19.5666667 56.7791667,19 56.3375,18.55 C55.8958333,18.1 55.3083333,17.875 54.575,17.875 Z M54.575,31.325 C55.4416667,31.325 56.1416667,31.0625 56.675,30.5375 C57.2083333,30.0125 57.475,29.2916667 57.475,28.375 C57.475,27.4583333 57.2125,26.725 56.6875,26.175 C56.1625,25.625 55.4583333,25.35 54.575,25.35 C53.6583333,25.35 52.9291667,25.6208333 52.3875,26.1625 C51.8458333,26.7041667 51.575,27.4416667 51.575,28.375 C51.575,29.2916667 51.8458333,30.0125 52.3875,30.5375 C52.9291667,31.0625 53.6583333,31.325 54.575,31.325 Z" id="形状" fill-opacity="0.858823529" fill="#FFFFFF" fill-rule="nonzero"></path>
            <polygon id="路径" fill-opacity="0.4" fill="#FFFFFF" fill-rule="nonzero" points="44.835 43.02 50.275 43.02 50.275 43.81 47.995 43.81 47.995 50.34 47.105 50.34 47.105 43.81 44.835 43.81"></polygon>
            <path d="M56.015,43.02 L56.905,43.02 L56.905,47.38 C56.905,48.0066667 56.7916667,48.5516667 56.565,49.015 C56.3383333,49.4783333 56.01,49.8333333 55.58,50.08 C55.15,50.3266667 54.6383333,50.45 54.045,50.45 C53.1516667,50.45 52.4533333,50.1766667 51.95,49.63 C51.4466667,49.0833333 51.195,48.3333333 51.195,47.38 L51.195,43.02 L52.085,43.02 L52.085,47.24 C52.085,48.0133333 52.2516667,48.605 52.585,49.015 C52.9183333,49.425 53.405,49.63 54.045,49.63 C54.685,49.63 55.1733333,49.425 55.51,49.015 C55.8466667,48.605 56.015,48.0133333 56.015,47.24 L56.015,43.02 Z" id="路径" fill-opacity="0.4" fill="#FFFFFF" fill-rule="nonzero"></path>
            <polygon id="路径" fill-opacity="0.4" fill="#FFFFFF" fill-rule="nonzero" points="58.765 43.02 61.095 49.15 63.315 43.02 64.215 43.02 61.435 50.34 60.685 50.34 57.775 43.02"></polygon>
        </g>
    </g>
</svg>