<?xml version="1.0" encoding="UTF-8"?>
<svg width="109px" height="60px" viewBox="0 0 109 60" version="1.1" xmlns="http://www.w3.org/2000/svg" xmlns:xlink="http://www.w3.org/1999/xlink">
    <title>1备份 2</title>
    <defs>
        <path d="M58.75,43.53125 C60.3895954,43.53125 61.71875,44.8604046 61.71875,46.5 C61.71875,48.1395954 60.3895954,49.46875 58.75,49.46875 C58.6836127,49.46875 58.6177344,49.4665709 58.5524327,49.4622804 L51.4477025,49.4622715 C51.3823565,49.4665679 51.3164331,49.46875 51.25,49.46875 C49.6104046,49.46875 48.28125,48.1395954 48.28125,46.5 C48.28125,44.8604046 49.6104046,43.53125 51.25,43.53125 C52.8895954,43.53125 54.21875,44.8604046 54.21875,46.5 C54.21875,47.2825793 53.9159479,47.9944353 53.4211151,48.5247969 L56.5788849,48.5247969 C56.0840521,47.9944353 55.78125,47.2825793 55.78125,46.5 C55.78125,44.8604046 57.1104046,43.53125 58.75,43.53125 Z M51.25,44.46875 C50.1281716,44.46875 49.21875,45.3781716 49.21875,46.5 C49.21875,47.5667294 50.0410324,48.4414046 51.0863229,48.5247512 L51.09375,48.5239449 L51.4188211,48.5243345 C52.4616641,48.4385334 53.28125,47.564979 53.28125,46.5 C53.28125,45.3781716 52.3718284,44.46875 51.25,44.46875 Z M58.75,44.46875 C57.6281716,44.46875 56.71875,45.3781716 56.71875,46.5 C56.71875,47.5646761 57.5378697,48.4380365 58.5802891,48.5242611 L58.90625,48.5239449 C59.9590104,48.441359 60.78125,47.5667017 60.78125,46.5 C60.78125,45.3781716 59.8718284,44.46875 58.75,44.46875 Z" id="path-1"></path>
    </defs>
    <g id="1备份-2" stroke="none" stroke-width="1" fill="none" fill-rule="evenodd">
        <circle id="椭圆形" fill-opacity="0.149019608" fill="#FFFFFF" cx="54.5" cy="30" r="28"></circle>
        <g id="1">
            <rect id="Rectangle" x="0" y="0" width="109" height="60"></rect>
            <polygon id="路径" fill-opacity="0.858823529" fill="#FFFFFF" fill-rule="nonzero" points="49.425 21.75 49.425 18.675 54.925 15.525 57.375 15.525 57.375 33.85 54.175 33.85 54.175 19.075"></polygon>
            <mask id="mask-2" fill="white">
                <use xlink:href="#path-1"></use>
            </mask>
            <use id="形状结合" fill-opacity="0.4" fill="#FFFFFF" fill-rule="nonzero" xlink:href="#path-1"></use>
        </g>
    </g>
</svg>