<?xml version="1.0" encoding="UTF-8"?>
<svg width="109px" height="60px" viewBox="0 0 109 60" version="1.1" xmlns="http://www.w3.org/2000/svg" xmlns:xlink="http://www.w3.org/1999/xlink">
    <title>7备份 2</title>
    <g id="7备份-2" stroke="none" stroke-width="1" fill="none" fill-rule="evenodd">
        <circle id="椭圆形" fill-opacity="0.149019608" fill="#FFFFFF" cx="54.5" cy="30" r="28"></circle>
        <g id="拨号盘双行文本备份-6">
            <rect id="Rectangle" x="0" y="0" width="109" height="60"></rect>
            <polygon id="路径" fill-opacity="0.858823529" fill="#FFFFFF" fill-rule="nonzero" points="56.925 18.275 48.5 18.275 48.5 15.525 60.475 15.525 60.475 17.5 53.975 33.85 50.525 33.85"></polygon>
            <path d="M44.725,43.02 C45.2183333,43.02 45.66,43.1166667 46.05,43.31 C46.44,43.5033333 46.745,43.7716667 46.965,44.115 C47.185,44.4583333 47.295,44.85 47.295,45.29 C47.295,45.73 47.1866667,46.1216667 46.97,46.465 C46.7533333,46.8083333 46.45,47.075 46.06,47.265 C45.67,47.455 45.225,47.55 44.725,47.55 L43.365,47.55 L43.365,50.34 L42.475,50.34 L42.475,43.02 L44.725,43.02 Z M44.615,46.77 C45.175,46.77 45.605,46.6316667 45.905,46.355 C46.205,46.0783333 46.355,45.7233333 46.355,45.29 C46.355,44.8566667 46.205,44.5 45.905,44.22 C45.605,43.94 45.175,43.8 44.615,43.8 L43.365,43.8 L43.365,46.77 L44.615,46.77 Z" id="形状" fill-opacity="0.4" fill="#FFFFFF" fill-rule="nonzero"></path>
            <path d="M55.245,51.86 L53.905,51.86 L51.985,50.39 C51.7783333,50.43 51.5683333,50.45 51.355,50.45 C50.7283333,50.45 50.1633333,50.2966667 49.66,49.99 C49.1566667,49.6833333 48.7616667,49.2433333 48.475,48.67 C48.1883333,48.0966667 48.045,47.43 48.045,46.67 C48.045,45.9166667 48.1883333,45.2533333 48.475,44.68 C48.7616667,44.1066667 49.1566667,43.6666667 49.66,43.36 C50.1633333,43.0533333 50.7283333,42.9 51.355,42.9 C51.9816667,42.9 52.5466667,43.055 53.05,43.365 C53.5533333,43.675 53.9483333,44.115 54.235,44.685 C54.5216667,45.255 54.665,45.9166667 54.665,46.67 C54.665,47.4566667 54.51,48.1416667 54.2,48.725 C53.89,49.3083333 53.4683333,49.75 52.935,50.05 L55.245,51.86 Z M48.985,46.67 C48.985,47.25 49.08,47.7633333 49.27,48.21 C49.46,48.6566667 49.735,49.005 50.095,49.255 C50.455,49.505 50.875,49.63 51.355,49.63 C51.835,49.63 52.2533333,49.505 52.61,49.255 C52.9666667,49.005 53.2416667,48.6566667 53.435,48.21 C53.6283333,47.7633333 53.725,47.25 53.725,46.67 C53.725,46.0833333 53.6283333,45.5666667 53.435,45.12 C53.2416667,44.6733333 52.9666667,44.3266667 52.61,44.08 C52.2533333,43.8333333 51.835,43.71 51.355,43.71 C50.875,43.71 50.4566667,43.8333333 50.1,44.08 C49.7433333,44.3266667 49.4683333,44.6733333 49.275,45.12 C49.0816667,45.5666667 48.985,46.0833333 48.985,46.67 Z" id="形状" fill-opacity="0.4" fill="#FFFFFF" fill-rule="nonzero"></path>
            <path d="M61.595,50.34 L60.505,50.34 L58.385,47.34 L58.295,47.34 L56.935,47.34 L56.935,50.34 L56.045,50.34 L56.045,43.02 L58.295,43.02 C58.795,43.02 59.24,43.11 59.63,43.29 C60.02,43.47 60.3233333,43.725 60.54,44.055 C60.7566667,44.385 60.865,44.7633333 60.865,45.19 C60.865,45.67 60.7283333,46.085 60.455,46.435 C60.1816667,46.785 59.805,47.0366667 59.325,47.19 L61.595,50.34 Z M56.935,43.8 L56.935,46.56 L58.185,46.56 C58.7516667,46.56 59.1833333,46.435 59.48,46.185 C59.7766667,45.935 59.925,45.6033333 59.925,45.19 C59.925,44.7766667 59.7766667,44.4416667 59.48,44.185 C59.1833333,43.9283333 58.7516667,43.8 58.185,43.8 L56.935,43.8 Z" id="形状" fill-opacity="0.4" fill="#FFFFFF" fill-rule="nonzero"></path>
            <path d="M67.135,48.31 C67.135,48.73 67.0383333,49.1016667 66.845,49.425 C66.6516667,49.7483333 66.3683333,50 65.995,50.18 C65.6216667,50.36 65.1783333,50.45 64.665,50.45 C63.9516667,50.45 63.3416667,50.2833333 62.835,49.95 C62.3283333,49.6166667 61.995,49.1733333 61.835,48.62 L62.555,48.2 C62.735,48.66 63.0016667,49.0133333 63.355,49.26 C63.7083333,49.5066667 64.1483333,49.63 64.675,49.63 C65.155,49.63 65.5283333,49.5233333 65.795,49.31 C66.0616667,49.0966667 66.195,48.8 66.195,48.42 C66.195,48.1133333 66.1116667,47.865 65.945,47.675 C65.7783333,47.485 65.5733333,47.3366667 65.33,47.23 C65.0866667,47.1233333 64.7516667,47.0066667 64.325,46.88 C63.8516667,46.74 63.47,46.6066667 63.18,46.48 C62.89,46.3533333 62.645,46.1633333 62.445,45.91 C62.245,45.6566667 62.145,45.3233333 62.145,44.91 C62.145,44.49 62.2516667,44.1283333 62.465,43.825 C62.6783333,43.5216667 62.9733333,43.2916667 63.35,43.135 C63.7266667,42.9783333 64.1483333,42.9 64.615,42.9 C65.2683333,42.9 65.7966667,43.0433333 66.2,43.33 C66.6033333,43.6166667 66.875,43.98 67.015,44.42 L66.295,44.84 C66.1416667,44.4866667 65.93,44.21 65.66,44.01 C65.39,43.81 65.0316667,43.71 64.585,43.71 C64.1316667,43.71 63.7683333,43.8116667 63.495,44.015 C63.2216667,44.2183333 63.085,44.49 63.085,44.83 C63.085,45.0833333 63.16,45.29 63.31,45.45 C63.46,45.61 63.6483333,45.7366667 63.875,45.83 C64.1016667,45.9233333 64.4116667,46.0266667 64.805,46.14 C65.305,46.2866667 65.7083333,46.43 66.015,46.57 C66.3216667,46.71 66.585,46.92 66.805,47.2 C67.025,47.48 67.135,47.85 67.135,48.31 Z" id="路径" fill-opacity="0.4" fill="#FFFFFF" fill-rule="nonzero"></path>
        </g>
    </g>
</svg>