<?xml version="1.0" encoding="UTF-8"?>
<!--
  - Copyright (c) Huawei Technologies Co., Ltd. 2024-2024. All rights reserved.
  -->

<svg width="32px" height="32px" viewBox="0 0 32 32" version="1.1" xmlns="http://www.w3.org/2000/svg" xmlns:xlink="http://www.w3.org/1999/xlink">
    <title>5</title>
    <g id="5" stroke="none" stroke-width="1" fill="none" fill-rule="evenodd">
        <rect id="矩形" x="0" y="0" width="32" height="32"></rect>
        <path d="M15.88,23.92 C16.8,23.92 17.6366667,23.72 18.39,23.32 C19.1433333,22.92 19.74,22.3466667 20.18,21.6 C20.62,20.8533333 20.84,19.98 20.84,18.98 C20.84,18.0466667 20.6433333,17.22 20.25,16.5 C19.8566667,15.78 19.3133333,15.22 18.62,14.82 C17.9266667,14.42 17.1533333,14.22 16.3,14.22 C15.62,14.22 14.9866667,14.36 14.4,14.64 L14.4,14.64 L14.86,11.18 L20.16,11.18 L20.16,9 L12.72,9 L11.74,16.98 L13.5,17.84 C14.0466667,16.92 14.8133333,16.46 15.8,16.46 C16.5733333,16.46 17.16,16.71 17.56,17.21 C17.96,17.71 18.16,18.3333333 18.16,19.08 C18.16,19.8266667 17.9566667,20.4433333 17.55,20.93 C17.1433333,21.4166667 16.58,21.66 15.86,21.66 C15.2866667,21.66 14.7966667,21.5 14.39,21.18 C13.9833333,20.86 13.68,20.38 13.48,19.74 L13.48,19.74 L11.44,20.92 C11.76,21.9066667 12.3166667,22.6533333 13.11,23.16 C13.9033333,23.6666667 14.8266667,23.92 15.88,23.92 Z" fill-opacity="0.858823529" fill="#FFFFFF" fill-rule="nonzero"></path>
    </g>
</svg>