<?xml version="1.0" encoding="UTF-8"?>
<!--
  - Copyright (c) Huawei Technologies Co., Ltd. 2024-2024. All rights reserved.
  -->

<svg width="32px" height="32px" viewBox="0 0 32 32" version="1.1" xmlns="http://www.w3.org/2000/svg" xmlns:xlink="http://www.w3.org/1999/xlink">
    <title>9</title>
    <g id="9" stroke="none" stroke-width="1" fill="none" fill-rule="evenodd">
        <rect id="矩形" x="0" y="0" width="32" height="32"></rect>
        <path d="M15.84,23.66 L19.1,18.4 C19.78,17.3333333 20.2566667,16.47 20.53,15.81 C20.8033333,15.15 20.94,14.4466667 20.94,13.7 C20.94,12.7266667 20.72,11.8666667 20.28,11.12 C19.84,10.3733333 19.24,9.79333333 18.48,9.38 C17.72,8.96666667 16.8666667,8.76 15.92,8.76 C15,8.76 14.1533333,8.96666667 13.38,9.38 C12.6066667,9.79333333 11.9966667,10.37 11.55,11.11 C11.1033333,11.85 10.88,12.68 10.88,13.6 C10.88,14.4933333 11.0733333,15.2933333 11.46,16 C11.8466667,16.7066667 12.39,17.26 13.09,17.66 C13.79,18.06 14.5866667,18.26 15.48,18.26 C15.8666667,18.26 16.26,18.2066667 16.66,18.1 C16.34,18.54 16.1133333,18.8666667 15.98,19.08 L15.98,19.08 L13.06,23.66 L15.84,23.66 Z M15.92,16.08 C15.2133333,16.08 14.6466667,15.8466667 14.22,15.38 C13.7933333,14.9133333 13.58,14.3066667 13.58,13.56 C13.58,12.8133333 13.7933333,12.2066667 14.22,11.74 C14.6466667,11.2733333 15.2133333,11.04 15.92,11.04 C16.6266667,11.04 17.1966667,11.27 17.63,11.73 C18.0633333,12.19 18.28,12.7933333 18.28,13.54 C18.28,14.2866667 18.0633333,14.8966667 17.63,15.37 C17.1966667,15.8433333 16.6266667,16.08 15.92,16.08 Z" fill-opacity="0.858823529" fill="#FFFFFF" fill-rule="nonzero"></path>
    </g>
</svg>