<?xml version="1.0" encoding="UTF-8"?>
<svg width="109px" height="60px" viewBox="0 0 109 60" version="1.1" xmlns="http://www.w3.org/2000/svg" xmlns:xlink="http://www.w3.org/1999/xlink">
    <title>2备份 3</title>
    <g id="2备份-3" stroke="none" stroke-width="1" fill="none" fill-rule="evenodd">
        <g id="拨号盘双行文本" transform="translate(0.000000, -0.000000)">
            <rect id="Rectangle" x="0" y="0" width="109" height="60"></rect>
            <path d="M53.025,31.075 L60.65,31.075 L60.65,33.85 L48.35,33.85 L48.35,31.8 L54.025,25.475 C55.025,24.3583333 55.7166667,23.4791667 56.1,22.8375 C56.4833333,22.1958333 56.675,21.5166667 56.675,20.8 C56.675,19.95 56.4458333,19.2875 55.9875,18.8125 C55.5291667,18.3375 54.9333333,18.1 54.2,18.1 C53.4166667,18.1 52.7333333,18.3666667 52.15,18.9 C51.5666667,19.4333333 51.1333333,20.1833333 50.85,21.15 L48.35,19.725 C48.7666667,18.275 49.5333333,17.1583333 50.65,16.375 C51.7666667,15.5916667 53.0333333,15.2 54.45,15.2 C55.55,15.2 56.5208333,15.425 57.3625,15.875 C58.2041667,16.325 58.8583333,16.9625 59.325,17.7875 C59.7916667,18.6125 60.025,19.5666667 60.025,20.65 C60.025,21.7166667 59.7666667,22.7166667 59.25,23.65 C58.7333333,24.5833333 57.8166667,25.7666667 56.5,27.2 L53.025,31.075 Z" id="路径" fill-opacity="0.858823529" fill="#FFFFFF" fill-rule="nonzero"></path>
            <path d="M48.3,43.02 L51.24,50.34 L50.25,50.34 L49.44,48.24 L46.41,48.24 L45.64,50.34 L44.74,50.34 L47.55,43.02 L48.3,43.02 Z M49.13,47.44 L47.89,44.21 L46.71,47.44 L49.13,47.44 Z" id="形状" fill-opacity="0.4" fill="#FFFFFF" fill-rule="nonzero"></path>
            <path d="M56.08,46.5 C56.9933333,46.76 57.45,47.35 57.45,48.27 C57.45,48.9233333 57.2266667,49.4316667 56.78,49.795 C56.3333333,50.1583333 55.6733333,50.34 54.8,50.34 L52.18,50.34 L52.18,43.02 L54.49,43.02 C55.0033333,43.02 55.45,43.1 55.83,43.26 C56.21,43.42 56.5033333,43.65 56.71,43.95 C56.9166667,44.25 57.02,44.6 57.02,45 C57.02,45.7 56.7066667,46.2 56.08,46.5 Z M53.07,43.81 L53.07,46.21 L54.34,46.21 C54.8933333,46.21 55.3216667,46.1033333 55.625,45.89 C55.9283333,45.6766667 56.08,45.38 56.08,45 C56.08,44.6333333 55.9266667,44.3433333 55.62,44.13 C55.3133333,43.9166667 54.8866667,43.81 54.34,43.81 L53.07,43.81 Z M54.64,49.56 C55.2666667,49.56 55.735,49.4466667 56.045,49.22 C56.355,48.9933333 56.51,48.6766667 56.51,48.27 C56.51,47.8566667 56.355,47.5333333 56.045,47.3 C55.735,47.0666667 55.2666667,46.95 54.64,46.95 L53.07,46.95 L53.07,49.56 L54.64,49.56 Z" id="形状" fill-opacity="0.4" fill="#FFFFFF" fill-rule="nonzero"></path>
            <path d="M61.63,49.63 C62.43,49.63 63.0166667,49.26 63.39,48.52 L64.11,48.94 C63.9033333,49.4133333 63.5833333,49.7833333 63.15,50.05 C62.7166667,50.3166667 62.2166667,50.45 61.65,50.45 C61.03,50.45 60.4666667,50.29 59.96,49.97 C59.4533333,49.65 59.0533333,49.2033333 58.76,48.63 C58.4666667,48.0566667 58.32,47.4033333 58.32,46.67 C58.32,45.9366667 58.4666667,45.2833333 58.76,44.71 C59.0533333,44.1366667 59.4533333,43.6916667 59.96,43.375 C60.4666667,43.0583333 61.03,42.9 61.65,42.9 C62.2166667,42.9 62.7166667,43.0333333 63.15,43.3 C63.5833333,43.5666667 63.9033333,43.9366667 64.11,44.41 L63.39,44.83 C63.0166667,44.09 62.43,43.72 61.63,43.72 C61.1633333,43.72 60.75,43.8433333 60.39,44.09 C60.03,44.3366667 59.7516667,44.6833333 59.555,45.13 C59.3583333,45.5766667 59.26,46.09 59.26,46.67 C59.26,47.25 59.3583333,47.765 59.555,48.215 C59.7516667,48.665 60.03,49.0133333 60.39,49.26 C60.75,49.5066667 61.1633333,49.63 61.63,49.63 Z" id="路径" fill-opacity="0.4" fill="#FFFFFF" fill-rule="nonzero"></path>
        </g>
    </g>
</svg>