<?xml version="1.0" encoding="UTF-8"?>
<!--
  - Copyright (c) Huawei Technologies Co., Ltd. 2024-2024. All rights reserved.
  -->

<svg width="32px" height="32px" viewBox="0 0 32 32" version="1.1" xmlns="http://www.w3.org/2000/svg" xmlns:xlink="http://www.w3.org/1999/xlink">
    <title>8</title>
    <g id="8" stroke="none" stroke-width="1" fill="none" fill-rule="evenodd">
        <rect id="矩形" x="0" y="0" width="32" height="32"></rect>
        <path d="M16.06,23.92 C17.0466667,23.92 17.9166667,23.7333333 18.67,23.36 C19.4233333,22.9866667 20.0066667,22.4633333 20.42,21.79 C20.8333333,21.1166667 21.04,20.3533333 21.04,19.5 C21.04,18.62 20.83,17.8566667 20.41,17.21 C19.99,16.5633333 19.4066667,16.0666667 18.66,15.72 C19.2333333,15.4133333 19.68,15 20,14.48 C20.32,13.96 20.48,13.36 20.48,12.68 C20.48,11.9466667 20.3066667,11.2833333 19.96,10.69 C19.6133333,10.0966667 19.1033333,9.62666667 18.43,9.28 C17.7566667,8.93333333 16.9666667,8.76 16.06,8.76 C15.1266667,8.76 14.3133333,8.93666667 13.62,9.29 C12.9266667,9.64333333 12.3966667,10.1166667 12.03,10.71 C11.6633333,11.3033333 11.48,11.96 11.48,12.68 C11.48,13.36 11.6466667,13.96 11.98,14.48 C12.3133333,15 12.78,15.4133333 13.38,15.72 C12.6333333,16.0666667 12.0466667,16.5666667 11.62,17.22 C11.1933333,17.8733333 10.98,18.6333333 10.98,19.5 C10.98,20.3533333 11.1866667,21.1133333 11.6,21.78 C12.0133333,22.4466667 12.6033333,22.97 13.37,23.35 C14.1366667,23.73 15.0333333,23.92 16.06,23.92 Z M16.06,14.68 C15.46,14.68 14.9833333,14.5033333 14.63,14.15 C14.2766667,13.7966667 14.1,13.3466667 14.1,12.8 C14.1,12.24 14.2766667,11.7833333 14.63,11.43 C14.9833333,11.0766667 15.46,10.9 16.06,10.9 C16.6466667,10.9 17.1166667,11.08 17.47,11.44 C17.8233333,11.8 18,12.2533333 18,12.8 C18,13.3333333 17.8233333,13.78 17.47,14.14 C17.1166667,14.5 16.6466667,14.68 16.06,14.68 Z M16.06,21.66 C15.3266667,21.66 14.7433333,21.45 14.31,21.03 C13.8766667,20.61 13.66,20.0333333 13.66,19.3 C13.66,18.5533333 13.8766667,17.9633333 14.31,17.53 C14.7433333,17.0966667 15.3266667,16.88 16.06,16.88 C16.7666667,16.88 17.33,17.1 17.75,17.54 C18.17,17.98 18.38,18.5666667 18.38,19.3 C18.38,20.0333333 18.1666667,20.61 17.74,21.03 C17.3133333,21.45 16.7533333,21.66 16.06,21.66 Z" fill-opacity="0.858823529" fill="#FFFFFF" fill-rule="nonzero"></path>
    </g>
</svg>