<?xml version="1.0" encoding="UTF-8"?>
<svg width="109px" height="60px" viewBox="0 0 109 60" version="1.1" xmlns="http://www.w3.org/2000/svg" xmlns:xlink="http://www.w3.org/1999/xlink">
    <title>0备份 2</title>
    <g id="0备份-2" stroke="none" stroke-width="1" fill="none" fill-rule="evenodd">
        <circle id="椭圆形" fill-opacity="0.149019608" fill="#FFFFFF" cx="54.5" cy="30" r="28"></circle>
        <g id="编组">
            <rect id="Rectangle备份-2" x="0" y="0" width="109" height="60"></rect>
            <path d="M60.8,24.7 C60.8,27.8 60.2583333,30.15 59.175,31.75 C58.0916667,33.35 56.5416667,34.15 54.525,34.15 C52.5083333,34.15 50.9541667,33.3458333 49.8625,31.7375 C48.7708333,30.1291667 48.225,27.7833333 48.225,24.7 C48.225,21.6 48.7708333,19.2458333 49.8625,17.6375 C50.9541667,16.0291667 52.5083333,15.225 54.525,15.225 C56.5416667,15.225 58.0916667,16.025 59.175,17.625 C60.2583333,19.225 60.8,21.5833333 60.8,24.7 Z M51.575,24.7 C51.575,26.9 51.8166667,28.5416667 52.3,29.625 C52.7833333,30.7083333 53.525,31.25 54.525,31.25 C55.525,31.25 56.2625,30.7083333 56.7375,29.625 C57.2125,28.5416667 57.45,26.9 57.45,24.7 C57.45,22.4833333 57.2125,20.8291667 56.7375,19.7375 C56.2625,18.6458333 55.525,18.1 54.525,18.1 C53.525,18.1 52.7833333,18.6416667 52.3,19.725 C51.8166667,20.8083333 51.575,22.4666667 51.575,24.7 Z" id="形状" fill-opacity="0.858823529" fill="#FFFFFF" fill-rule="nonzero"></path>
            <polygon id="路径" fill-opacity="0.4" fill="#FFFFFF" fill-rule="nonzero" points="53.835 43.165 55.165 43.165 55.165 46.595 58.595 46.595 58.595 47.925 55.165 47.925 55.165 51.355 53.835 51.355 53.835 47.925 50.405 47.925 50.405 46.595 53.835 46.595"></polygon>
        </g>
    </g>
</svg>