<?xml version="1.0" encoding="UTF-8"?>
<svg width="109px" height="60px" viewBox="0 0 109 60" version="1.1" xmlns="http://www.w3.org/2000/svg" xmlns:xlink="http://www.w3.org/1999/xlink">
    <title>星号备份 2</title>
    <g id="星号备份-2" stroke="none" stroke-width="1" fill="none" fill-rule="evenodd">
        <circle id="椭圆形" fill-opacity="0.149019608" fill="#FFFFFF" cx="54.5" cy="30" r="28"></circle>
        <g id="编组-11">
            <rect id="Rectangle" x="0" y="0" width="109" height="60"></rect>
            <polygon id="路径" fill-opacity="0.858823529" fill="#FFFFFF" fill-rule="nonzero" points="56 21.94 56 15.16 52.82 15.16 52.82 21.94 46.46 19.54 45.38 22.42 51.74 24.7 47.84 30.16 50.54 32.02 54.44 26.26 58.58 32.02 61.04 30.16 57.08 24.7 63.62 22.42 62.42 19.54"></polygon>
            <g id="(P)" transform="translate(48.780000, 42.190000)" fill="#FFFFFF" fill-opacity="0.4" fill-rule="nonzero">
                <path d="M0,4.63 C0,3.69 0.156666667,2.82166667 0.47,2.025 C0.783333333,1.22833333 1.21333333,0.553333333 1.76,0 L2.57,0 C2.03,0.653333333 1.615,1.35833333 1.325,2.115 C1.035,2.87166667 0.89,3.71 0.89,4.63 C0.89,5.55666667 1.035,6.4 1.325,7.16 C1.615,7.92 2.03,8.62 2.57,9.26 L1.76,9.26 C1.21333333,8.70666667 0.783333333,8.03333333 0.47,7.24 C0.156666667,6.44666667 0,5.57666667 0,4.63 Z" id="路径"></path>
                <path d="M5.87,0.83 C6.36333333,0.83 6.805,0.926666667 7.195,1.12 C7.585,1.31333333 7.89,1.58166667 8.11,1.925 C8.33,2.26833333 8.44,2.66 8.44,3.1 C8.44,3.54 8.33166667,3.93166667 8.115,4.275 C7.89833333,4.61833333 7.595,4.885 7.205,5.075 C6.815,5.265 6.37,5.36 5.87,5.36 L4.51,5.36 L4.51,8.15 L3.62,8.15 L3.62,0.83 L5.87,0.83 Z M5.76,4.58 C6.32,4.58 6.75,4.44166667 7.05,4.165 C7.35,3.88833333 7.5,3.53333333 7.5,3.1 C7.5,2.66666667 7.35,2.31 7.05,2.03 C6.75,1.75 6.32,1.61 5.76,1.61 L4.51,1.61 L4.51,4.58 L5.76,4.58 Z" id="形状"></path>
                <path d="M11.44,4.63 C11.44,5.57666667 11.2833333,6.44666667 10.97,7.24 C10.6566667,8.03333333 10.2266667,8.70666667 9.68,9.26 L8.87,9.26 C9.41,8.62 9.825,7.92 10.115,7.16 C10.405,6.4 10.55,5.55666667 10.55,4.63 C10.55,3.71 10.405,2.87166667 10.115,2.115 C9.825,1.35833333 9.41,0.653333333 8.87,0 L9.68,0 C10.2266667,0.553333333 10.6566667,1.22833333 10.97,2.025 C11.2833333,2.82166667 11.44,3.69 11.44,4.63 Z" id="路径"></path>
            </g>
        </g>
    </g>
</svg>