<?xml version="1.0" encoding="UTF-8"?>
<svg width="120px" height="120px" viewBox="0 0 120 120" version="1.1" xmlns="http://www.w3.org/2000/svg" xmlns:xlink="http://www.w3.org/1999/xlink">
    <title>ic_user_120*120dark</title>
    <defs>
        <path d="M59.8004497,77.1428571 C88.0773505,77.1428571 95.4575655,94.0867648 98.1267802,99.7619048 C98.2191602,99.958318 98.3088895,100.160791 98.3959683,100.369323 C88.4030256,109.878615 74.8830097,115.714286 60,115.714286 C44.9739099,115.714286 31.3371464,109.765872 21.3160638,100.095398 L21.4741192,99.7619048 L21.4741192,99.7619048 C24.2669274,94.0867648 31.5235489,77.1428571 59.8004497,77.1428571 Z M59.8004497,27.8571429 C71.0433892,27.8571429 80.1575925,36.9713462 80.1575925,48.2142857 C80.1575925,59.4572253 71.0433892,68.5714286 59.8004497,68.5714286 C48.5575101,68.5714286 39.4433068,59.4572253 39.4433068,48.2142857 C39.4433068,36.9713462 48.5575101,27.8571429 59.8004497,27.8571429 Z" id="path-1"></path>
    </defs>
    <g id="ic_user_120*120dark" stroke="none" stroke-width="1" fill="none" fill-rule="evenodd">
        <circle id="Oval-3" fill-opacity="0.2" fill="#FFFFFF" cx="60" cy="60" r="60"></circle>
        <mask id="mask-2" fill="white">
            <use xlink:href="#path-1"></use>
        </mask>
        <use id="IC/ic_user_portrait_120*120" fill="#E5E5E5" xlink:href="#path-1"></use>
    </g>
</svg>