<?xml version="1.0" encoding="UTF-8"?>
<svg width="45px" height="45px" viewBox="0 0 24 24" version="1.1" xmlns="http://www.w3.org/2000/svg" xmlns:xlink="http://www.w3.org/1999/xlink">
    <title>助理1</title>
    <defs>
        <path d="M17.0000876,10 C18.65691,10 20,11.3431292 20,13 C20,13.7865205 19.6973449,14.5023417 19.2021458,15.0373496 C20.7158161,15.8303536 21.7490344,17.4175746 21.7490344,19.2461166 C21.7490344,19.6603302 21.4132479,19.9961166 20.9990344,19.9961166 C20.5848208,19.9961166 20.2490344,19.6603302 20.2490344,19.2461166 C20.2490344,17.4733923 18.8297323,16.0321637 17.0654796,15.9967823 L17.0000876,16 L16.9340344,15.998 L16.8146105,16.0012614 C15.1054891,16.0968707 13.7490344,17.5130852 13.7490344,19.2461166 C13.7490344,19.6603302 13.4132479,19.9961166 12.9990344,19.9961166 C12.5848208,19.9961166 12.2490344,19.6603302 12.2490344,19.2461166 C12.2490344,17.4167782 13.2831528,15.8289711 14.7986962,15.0353888 C14.3026551,14.5023417 14,13.7865205 14,13 C14,11.3431292 15.34309,10 17.0000876,10 Z M4.72982502,10.747592 C5.14403858,10.747592 5.47982502,11.0833784 5.47982502,11.497592 L5.47982502,11.497592 L5.4810982,15.5416602 C5.5039098,15.935362 5.8304048,16.247592 6.22982502,16.247592 L6.22982502,16.247592 L10.2738932,16.2488651 C10.667595,16.2716768 10.979825,16.5981718 10.979825,16.997592 C10.979825,17.1964145 10.9024598,17.3771674 10.7761913,17.5113888 L10.7761913,17.5113888 L10.7436218,17.5439583 L10.7091136,17.5744901 C10.5791495,17.6825837 10.412079,17.747592 10.229825,17.747592 L10.229825,17.747592 L5.66966258,17.7465772 C4.73102087,17.7148666 3.97982502,16.9439549 3.97982502,15.997592 L3.97982502,15.997592 L3.9810982,11.4535238 C3.99155352,11.2730771 4.06580344,11.1097452 4.18163014,10.9857458 L4.18163014,10.9857458 L4.21423338,10.9529197 C4.34863611,10.8256495 4.53011491,10.747592 4.72982502,10.747592 Z M17.0000626,11.5 C16.1717003,11.5 15.5,12.1713943 15.5,13 C15.5,13.8097814 16.1415275,14.4694133 16.9438549,14.4989665 L16.9990344,14.4961166 L17.0560344,14.497 L17.1444944,14.493135 C17.9050111,14.420467 18.5,13.7798514 18.5,13 C18.5,12.1714078 17.8283133,11.5 17.0000626,11.5 Z M5.00008763,0 C6.65691,0 8,1.34312924 8,3 C8,3.7865205 7.69734494,4.50234174 7.20214578,5.03734956 C8.7158161,5.8303536 9.74903436,7.41757459 9.74903436,9.24611663 C9.74903436,9.66033019 9.41324792,9.99611663 8.99903436,9.99611663 C8.5848208,9.99611663 8.24903436,9.66033019 8.24903436,9.24611663 C8.24903436,7.47339229 6.82973229,6.03216372 5.06547958,5.99678234 L5.00008763,6 L4.93403436,5.998 L4.81461046,6.00126142 C3.10548913,6.0968707 1.74903436,7.51308517 1.74903436,9.24611663 C1.74903436,9.66033019 1.41324792,9.99611663 0.999034361,9.99611663 C0.584820799,9.99611663 0.249034361,9.66033019 0.249034361,9.24611663 C0.249034361,7.41677819 1.28315284,5.82897105 2.79869619,5.03538883 C2.30265506,4.50234174 2,3.7865205 2,3 C2,1.34312924 3.34309,0 5.00008763,0 Z M5.0000626,1.5 C4.17170025,1.5 3.5,2.17139428 3.5,3 C3.5,3.80978141 4.14152748,4.46941332 4.94385486,4.49896649 L4.99903436,4.49611663 L5.05603436,4.497 L5.1444944,4.49313503 C5.90501108,4.42046695 6.5,3.77985145 6.5,3 C6.5,2.17140784 5.82831329,1.5 5.0000626,1.5 Z" id="path-1"></path>
    </defs>
    <g id="助理1" stroke="none" stroke-width="1" fill="none" fill-rule="evenodd">
        <g id="Edit-Relationship" transform="translate(1.000000, 2.000000)">
            <mask id="mask-2" fill="white">
                <use xlink:href="#path-1"></use>
            </mask>
            <use id="形状结合" fill="#4e4e4e" fill-rule="nonzero" xlink:href="#path-1"></use>
        </g>
    </g>
</svg>