<?xml version="1.0" encoding="UTF-8"?>
<svg width="45px" height="45px" viewBox="0 0 24 24" version="1.1" xmlns="http://www.w3.org/2000/svg" xmlns:xlink="http://www.w3.org/1999/xlink">
    <title>生日1</title>
    <defs>
        <path d="M11,6 L11,7 L17,7 C18.6568542,7 20,8.34314575 20,10 L20,17 C20,18.6568542 18.6568542,20 17,20 L3,20 C1.34314575,20 -5.11388241e-13,18.6568542 -5.11591203e-13,17 L0.000171581562,13.5219893 C-0.000156177314,13.5218299 -0.000483914599,13.5216704 -0.000811630291,13.5215108 L-0.00137776509,11.7573903 L-0.000377765088,11.758 L-5.11591203e-13,10 C-5.11794166e-13,8.34314575 1.34314575,7 3,7 L9,7 L9,6 L11,6 Z M13.9565217,12.1407407 C13.8409218,12.1407407 13.7374801,12.1919064 13.6683588,12.2724544 C12.8057935,13.326414 11.482927,14 10,14 C8.61107265,14 7.36255713,13.409102 6.50046728,12.4691143 L6.34227735,12.2880328 C6.27398373,12.1977535 6.16550481,12.1407407 6.04347826,12.1407407 C5.92787833,12.1407407 5.82443661,12.1919064 5.75531535,12.2724544 C4.89275002,13.326414 3.56988353,14 2.08695652,14 C1.88806892,14 1.69206044,13.9878837 1.49965342,13.9643612 L1.5,17 C1.5,17.7796961 2.09488808,18.4204487 2.85553999,18.4931334 L3,18.5 L17,18.5 C17.7796961,18.5 18.4204487,17.9051119 18.4931334,17.14446 L18.5,17 L18.5000428,13.9643983 C18.3077332,13.9878965 18.1118264,14 17.9130435,14 C16.5241161,14 15.2756006,13.409102 14.4135108,12.4691143 L14.2553208,12.2880328 C14.1870272,12.1977535 14.0785483,12.1407407 13.9565217,12.1407407 Z M17,8.5 L3,8.5 C2.22030388,8.5 1.57955132,9.09488808 1.50686658,9.85553999 L1.5,10 L1.49940332,12.4656648 C1.68987284,12.5003747 1.88625897,12.5185185 2.08695652,12.5185185 C3.31698557,12.5185185 4.38507002,11.8370037 4.92168028,10.8371868 L5.0061309,10.6676657 C5.18133739,10.2743859 5.57980742,10 6.04347826,10 C6.46078201,10 6.82527311,10.2222526 7.02111242,10.5528988 L7.08082562,10.6676657 C7.58371028,11.7591764 8.701636,12.5185185 10,12.5185185 C11.2300291,12.5185185 12.2981135,11.8370037 12.8347238,10.8371868 L12.9191744,10.6676657 C13.0943809,10.2743859 13.4928509,10 13.9565217,10 C14.3738255,10 14.7383166,10.2222526 14.9341559,10.5528988 L14.9938691,10.6676657 C15.4967538,11.7591764 16.6146795,12.5185185 17.9130435,12.5185185 C18.1139738,12.5185185 18.3105826,12.5003326 18.5012593,12.465544 L18.5,10 C18.5,9.17157288 17.8284271,8.5 17,8.5 Z M10,0 C10.3586957,0.472440945 11.5,2.32283465 11.5,3.18897638 C11.5,4.17322835 10.8152174,5 10,5 C9.15217391,5 8.5,4.17322835 8.5,3.18897638 C8.5,2.24409449 9.67391304,0.393700787 10,0 Z" id="path-1"></path>
    </defs>
    <g id="生日1" stroke="none" stroke-width="1" fill="none" fill-rule="evenodd">
        <g id="Edit-Birthday" transform="translate(2.000000, 2.000000)">
            <mask id="mask-2" fill="white">
                <use xlink:href="#path-1"></use>
            </mask>
            <use id="形状结合" fill="#4e4e4e" fill-rule="nonzero" xlink:href="#path-1"></use>
        </g>
    </g>
</svg>