<?xml version="1.0" encoding="UTF-8"?>
<svg width="45px" height="45px" viewBox="0 0 24 24" version="1.1" xmlns="http://www.w3.org/2000/svg" xmlns:xlink="http://www.w3.org/1999/xlink">
    <title>公司1</title>
    <defs>
        <path d="M12,17 C12,18.3058822 11.1656226,19.4168852 10.0009007,19.8289758 L10.0009007,19.8289758 L9.83194406,19.883145 C9.77628764,19.899176 9.71996693,19.9136391 9.66303285,19.9264834 L9.7389321,19.9083129 C9.68416821,19.9221844 9.62880408,19.9345498 9.57288637,19.9453623 L9.66303285,19.9264834 C9.59227999,19.9424451 9.52057987,19.9559067 9.4480302,19.9667705 L9.57288637,19.9453623 C9.51190144,19.9571546 9.45025806,19.9671 9.38801677,19.9751378 L9.4480302,19.9667705 C9.38526829,19.9761687 9.3218706,19.9836227 9.25790037,19.9890693 L9.38801677,19.9751378 C9.32359064,19.9834577 9.25852387,19.9897339 9.19288361,19.9938991 L9.19244427,19.9939269 L9,20 L9,20 L3,20 C1.34314575,20 0,18.6568542 0,17 L0,3 C0,1.34314575 1.34314575,0 3,0 L9,0 C10.6568542,0 12,1.34314575 12,3 L12,17 Z M13,4.141 L17.6151743,5.63332885 C18.4406754,5.90017932 19,6.6688082 19,7.53636867 L19,18 C19,19.1045695 18.1045695,20 17,20 L11.6457598,20.000057 C12.1076359,19.5924143 12.4746493,19.0797737 12.7094497,18.4994856 L16.75,18.5 C17.1296958,18.5 17.443491,18.2178461 17.4931534,17.8517706 L17.5,17.75 L17.5,7.88934406 C17.5,7.49394599 17.2676597,7.13976782 16.9141688,6.9791044 L16.8045982,6.93686311 L13,5.72 L13,4.141 Z M9,1.5 L3,1.5 C2.22030388,1.5 1.57955132,2.09488808 1.50686658,2.85553999 L1.5,3 L1.5,17 C1.5,17.7796961 2.09488808,18.4204487 2.85553999,18.4931334 L3,18.5 L9,18.5 C9.77969612,18.5 10.4204487,17.9051119 10.4931334,17.14446 L10.5,17 L10.5,3 C10.5,2.17157288 9.82842712,1.5 9,1.5 Z M13,14.5 L16.25,14.5 C16.6642136,14.5 17,14.8357864 17,15.25 C17,15.6642136 16.6642136,16 16.25,16 L13,16 L13,14.5 Z M8.25,12.5 C8.66421356,12.5 9,12.8357864 9,13.25 C9,13.6642136 8.66421356,14 8.25,14 L3.75,14 C3.33578644,14 3,13.6642136 3,13.25 C3,12.8357864 3.33578644,12.5 3.75,12.5 L8.25,12.5 Z M13,11 L16.25,11 C16.6642136,11 17,11.3357864 17,11.75 C17,12.1642136 16.6642136,12.5 16.25,12.5 L13,12.5 L13,11 Z M8.25,9 C8.66421356,9 9,9.33578644 9,9.75 C9,10.1642136 8.66421356,10.5 8.25,10.5 L3.75,10.5 C3.33578644,10.5 3,10.1642136 3,9.75 C3,9.33578644 3.33578644,9 3.75,9 L8.25,9 Z M8.25,5.5 C8.66421356,5.5 9,5.83578644 9,6.25 C9,6.66421356 8.66421356,7 8.25,7 L3.75,7 C3.33578644,7 3,6.66421356 3,6.25 C3,5.83578644 3.33578644,5.5 3.75,5.5 L8.25,5.5 Z" id="path-1"></path>
    </defs>
    <g id="公司1" stroke="none" stroke-width="1" fill="none" fill-rule="evenodd">
        <g id="edit-company" transform="translate(2.000000, 2.000000)">
            <mask id="mask-2" fill="white">
                <use xlink:href="#path-1"></use>
            </mask>
            <use id="形状结合" fill="#4e4e4e" fill-rule="nonzero" xlink:href="#path-1"></use>
        </g>
    </g>
</svg>