<?xml version="1.0" encoding="UTF-8"?>
<svg width="45px" height="45px" viewBox="0 0 24 24" version="1.1" xmlns="http://www.w3.org/2000/svg" xmlns:xlink="http://www.w3.org/1999/xlink">
    <title>住宅1</title>
    <defs>
        <path d="M4.75,21 C3.25532461,21 2.03915871,19.8075591 2.00092685,18.3221019 L2.00096837,11.1952851 C2.0082636,11.1900706 2.01545239,11.1846355 2.0225257,11.1789796 L2.05506762,11.1505962 L3.49994625,9.778 L3.5,18.25 C3.5,18.9221887 4.03057668,19.4704545 4.69577759,19.4988451 L4.75,19.5 L7.24996165,19.4998454 L7.25,15.25 C7.25,13.2457408 8.82236105,11.6087263 10.8008414,11.505198 L11,11.5 C13.0710678,11.5 14.75,13.1789322 14.75,15.25 L14.75,15.25 L14.7499616,19.4998454 L17.25,19.5 C17.9221887,19.5 18.4704545,18.9694233 18.4988451,18.3042224 L18.5,18.25 L18.4999462,9.778 L19.9056253,11.1124997 L19.9381672,11.1408831 C19.9578487,11.1566208 19.9784244,11.1706485 19.9996993,11.1829711 L20,18.25 C20,19.7446754 18.8075591,20.9608413 17.3221019,20.9990731 L17.25,21 L4.75,21 Z M11,13 C9.75735931,13 8.75,14.0073593 8.75,15.25 L8.75,15.25 L8.75,19.5 L13.25,19.5 L13.25,15.25 C13.25,14.059136 12.3248384,13.0843551 11.1540488,13.0051908 L11.1540488,13.0051908 Z M8.56457387,1.53618058 C10.015001,0.295622474 12.183648,0.339928121 13.5827737,1.66909752 L13.5827737,1.66909752 L21.5165253,9.20616156 L21.5855933,9.28121977 C21.8167929,9.56935934 21.805228,9.99119402 21.5437128,10.2664732 C21.2584234,10.5667778 20.7837057,10.5789501 20.4834011,10.2936607 L20.4834011,10.2936607 L12.5496495,2.75659668 L12.4336561,2.65366641 C11.5636801,1.93315453 10.2809422,1.96746462 9.4502769,2.75659668 L9.4502769,2.75659668 L1.51652529,10.2936607 L1.43802609,10.3587913 C1.13841655,10.5749204 0.717728869,10.5417524 0.456213615,10.2664732 C0.170924247,9.96616863 0.183096496,9.49145093 0.483401094,9.20616156 L0.483401094,9.20616156 L8.41715271,1.66909752 Z" id="path-1"></path>
    </defs>
    <g id="住宅1" stroke="none" stroke-width="1" fill="none" fill-rule="evenodd">
        <g id="Public/ic_public_home" transform="translate(1.000000, 1.000000)">
            <mask id="mask-2" fill="white">
                <use xlink:href="#path-1"></use>
            </mask>
            <use id="形状结合" fill="#4e4e4e" fill-rule="nonzero" xlink:href="#path-1"></use>
        </g>
    </g>
</svg>