<?xml version="1.0" encoding="UTF-8" standalone="no"?>
<svg
   xmlns:dc="http://purl.org/dc/elements/1.1/"
   xmlns:cc="http://creativecommons.org/ns#"
   xmlns:rdf="http://www.w3.org/1999/02/22-rdf-syntax-ns#"
   xmlns:svg="http://www.w3.org/2000/svg"
   xmlns="http://www.w3.org/2000/svg"
   xmlns:sodipodi="http://sodipodi.sourceforge.net/DTD/sodipodi-0.dtd"
   xmlns:inkscape="http://www.inkscape.org/namespaces/inkscape"
   version="1.1"
   id="图层_1"
   x="0px"
   y="0px"
   viewBox="32 -32 160 160"
   style="enable-background:new 32 -32 160 160;"
   xml:space="preserve"
   sodipodi:docname="ic_avatar_default.svg"
   inkscape:version="1.0 (4035a4fb49, 2020-05-01)"><metadata
   id="metadata11"><rdf:RDF><cc:Work
       rdf:about=""><dc:format>image/svg+xml</dc:format><dc:type
         rdf:resource="http://purl.org/dc/dcmitype/StillImage" /></cc:Work></rdf:RDF></metadata><defs
   id="defs9" /><sodipodi:namedview
   inkscape:document-rotation="0"
   pagecolor="#ffffff"
   borderopacity="1"
   objecttolerance="10"
   gridtolerance="10"
   guidetolerance="10"
   inkscape:pageopacity="0"
   inkscape:pageshadow="2"
   inkscape:window-width="1920"
   inkscape:window-height="1017"
   id="namedview7"
   showgrid="false"
   inkscape:zoom="5.0290839"
   inkscape:cx="80"
   inkscape:cy="80"
   inkscape:window-x="-8"
   inkscape:window-y="-8"
   inkscape:window-maximized="1"
   inkscape:current-layer="图层_1" />
<style
   type="text/css"
   id="style2">
	.st0{fill:#CCCCCC;}
	.st1{fill:#FFFFFF;}
</style>
<circle
   id="path-1_1_"
   class="st0"
   cx="112"
   cy="48"
   r="80"
   style="fill:#d5bac1;fill-opacity:1" />
<path
   style="fill:#ffffff;fill-opacity:1"
   id="人"
   class="st1"
   d="M140,33c0,15.5-12.5,28-28,28c-15.5,0-28-12.5-28-28S96.5,5,112,5C127.5,5,140,17.5,140,33z   M59.7,103.1C64.8,85.7,80.9,73,100,73h24c19.1,0,35.2,12.7,40.3,30.1c-13.6,12.9-32,20.9-52.3,20.9S73.3,116.1,59.7,103.1z" />
<path
   transform="translate(32,-32)"
   id="path832"
   d="M 76.740715,92.727799 C 64.732932,91.209682 55.266178,82.532565 52.658549,70.654362 52.161596,68.390655 52.040501,63.240007 52.426968,60.804381 53.107857,56.513234 54.857678,52.213134 57.34005,48.730723 58.868743,46.586187 62.269681,43.272716 64.393702,41.85848 69.156615,38.68719 74.19547,37.17503 80,37.17503 c 7.562002,0 14.002172,2.607959 19.393701,7.853515 2.505049,2.437226 4.142099,4.696179 5.673869,7.829335 1.93734,3.962745 2.7689,7.60548 2.7689,12.129445 0,4.421364 -0.81996,8.09562 -2.66701,11.95094 -3.87858,8.095692 -10.934567,13.623746 -19.658504,15.401571 -2.28926,0.46652 -6.630054,0.658541 -8.770241,0.387963 z"
   style="fill:#ffffff;fill-opacity:1;stroke-width:0.198843" /><path
   transform="translate(32,-32)"
   id="path834"
   d="m 76.420819,155.84096 c -9.264918,-0.62141 -16.29355,-2.12751 -24.104155,-5.16507 -8.681208,-3.37614 -15.608922,-7.70754 -23.618254,-14.76679 l -0.894795,-0.78865 0.69067,-2.05856 c 1.875102,-5.58879 5.405668,-11.16433 9.935067,-15.68965 6.45853,-6.45271 14.199476,-10.34851 23.575323,-11.86482 1.964932,-0.31777 3.794222,-0.35373 17.995325,-0.35373 14.255394,0 16.026058,0.0351 18.027663,0.35724 8.973877,1.44435 16.638017,5.19641 22.988467,11.25423 4.54627,4.33677 8.57892,10.60194 10.48958,16.29673 l 0.69068,2.05856 -0.8948,0.7896 c -6.16779,5.44267 -11.38938,8.98596 -18.09475,12.2788 -7.96847,3.91313 -16.125192,6.28393 -24.965558,7.25637 -2.768492,0.30453 -9.71357,0.53705 -11.820463,0.39574 z"
   style="fill:#ffffff;fill-opacity:1;stroke-width:0.198843" /></svg>
