<?xml version="1.0" encoding="utf-8"?>
<!-- Generator: Adobe Illustrator 19.0.0, SVG Export Plug-In . SVG Version: 6.00 Build 0)  -->
<svg version="1.1" id="图层_1" xmlns="http://www.w3.org/2000/svg" xmlns:xlink="http://www.w3.org/1999/xlink" x="0px" y="0px"
	 viewBox="-31 33 224 224" style="enable-background:new -31 33 224 224;" xml:space="preserve">
<style type="text/css">
	.st0{fill:#00D659;}
	.st1{fill:#FFFFFF;}
</style>
<g id="ic_contacts_call-HD-dial_60">
	<g id="bt_contact_call_hd_dial">
		<circle id="Oval" class="st0" cx="81" cy="145" r="112"/>
	</g>
	<path id="phonecall" class="st1" d="M34.7,150.3c-3.9-6.3-8.1-15.3-12.6-26.8c-3.1-7.9,0.4-17.6,7.3-22.5l3.2-2.3
		c0.2-0.1,0.4-0.2,0.5-0.4c4.5-2.7,10.4-1.3,13.1,3.2l15,24.9c1.9,3.1,1.8,7.1-0.2,10.1l-4.9,7.6c-2.4,3.8-1.8,7.4,1.3,11.9
		c2.1,2.9,4.4,5.8,7,8.5c2.6,2.7,5.7,5.3,9.3,7.9c3.6,2.7,8.2,3.7,11.9,1.3l7.6-4.9c3.1-2,7-2,10.1-0.2l24.9,15
		c4.5,2.7,6,8.6,3.2,13.1c-0.1,0.2-0.2,0.4-0.4,0.5l-2.3,3.2c-4.9,6.9-14.6,10.4-22.5,7.3c-11.6-4.5-20.5-8.7-26.8-12.6
		c-8.5-5.2-16.7-11.9-24.8-20.1C46.7,167.1,40,158.8,34.7,150.3z"/>
	<path id="Combined-Shape" class="st1" d="M76,89.6c0-0.3,0.2-0.6,0.6-0.6h5.6c0.3,0,0.6,0.2,0.6,0.6V105c0,0.2,0.1,0.3,0.3,0.3H98
		c0.2,0,0.3-0.1,0.3-0.3V89.6c0-0.3,0.2-0.6,0.6-0.6h5.6c0.3,0,0.6,0.2,0.6,0.6v38c0,0.3-0.2,0.6-0.6,0.6H99c-0.3,0-0.6-0.2-0.6-0.6
		v-15.8c0-0.2-0.1-0.3-0.3-0.3H83.2c-0.2,0-0.3,0.1-0.3,0.3v15.8c0,0.3-0.2,0.6-0.6,0.6h-5.6c-0.3,0-0.6-0.2-0.6-0.6L76,89.6
		L76,89.6z M113.8,89.6c0-0.3,0.2-0.6,0.6-0.6h14c6.7,0,11.2,3,13.1,8.7c0.6,2,1,4.1,1,10.9c0,6.8-0.3,8.9-1,10.9
		c-1.8,5.7-6.3,8.7-13.1,8.7h-14c-0.3,0-0.6-0.2-0.6-0.6V89.6z M121,122.1h5.8c4.3,0,7-1.4,8.1-4.9c0.4-1.1,0.7-2.9,0.7-8.5
		c0-5.7-0.3-7.4-0.7-8.5c-1.1-3.5-3.8-4.9-8.1-4.9H121c-0.2,0-0.3,0.1-0.3,0.3v26.2C120.6,121.9,120.7,122.1,121,122.1z"/>
</g>
</svg>
