<?xml version="1.0" encoding="UTF-8" standalone="no"?>
<svg
   xmlns:dc="http://purl.org/dc/elements/1.1/"
   xmlns:cc="http://creativecommons.org/ns#"
   xmlns:rdf="http://www.w3.org/1999/02/22-rdf-syntax-ns#"
   xmlns:svg="http://www.w3.org/2000/svg"
   xmlns="http://www.w3.org/2000/svg"
   xmlns:sodipodi="http://sodipodi.sourceforge.net/DTD/sodipodi-0.dtd"
   xmlns:inkscape="http://www.inkscape.org/namespaces/inkscape"
   version="1.0"
   id="图层_1"
   x="0px"
   y="0px"
   viewBox="0 0 64 64"
   style="enable-background:new 0 0 64 64;"
   xml:space="preserve"
   sodipodi:docname="ic_contacts_arrow_unfold.svg"
   inkscape:version="1.0 (4035a4fb49, 2020-05-01)"><metadata
   id="metadata16"><rdf:RDF><cc:Work
       rdf:about=""><dc:format>image/svg+xml</dc:format><dc:type
         rdf:resource="http://purl.org/dc/dcmitype/StillImage" /><dc:title></dc:title></cc:Work></rdf:RDF></metadata><defs
   id="defs14" /><sodipodi:namedview
   inkscape:document-rotation="0"
   pagecolor="#ffffff"
   bordercolor="#666666"
   borderopacity="1"
   objecttolerance="10"
   gridtolerance="10"
   guidetolerance="10"
   inkscape:pageopacity="0"
   inkscape:pageshadow="2"
   inkscape:window-width="1920"
   inkscape:window-height="1017"
   id="namedview12"
   showgrid="false"
   inkscape:zoom="7.7882624"
   inkscape:cx="29.773972"
   inkscape:cy="30.573217"
   inkscape:window-x="-8"
   inkscape:window-y="-8"
   inkscape:window-maximized="1"
   inkscape:current-layer="图层_1" />
<style
   type="text/css"
   id="style2">
	.st0{fill:#040000;}
</style>
<path
   id="Fill-1"
   class="st0"
   d="m 29.31322,21.930009 c 0.17106,-0.241976 0,-0.161318 0,0 -0.171061,0 -0.171061,0 0,0 L 8.7859521,41.288047 c -0.769771,0.806586 -1.026362,2.339096 0,3.22634 0.940834,1.04856 2.6514399,0.806585 3.4212109,0 L 31.023826,26.769518 49.669425,44.35307 c 0.940834,1.048561 2.480379,1.048561 3.592272,0.161317 C 54.20253,43.465827 54.117,42.094633 53.090636,41.12673 L 32.734431,21.930009 c 0.342119,0.08066 0.25659,0 0,0 -0.769773,-0.887244 -2.138258,-0.967902 -3.421211,0"
   style="fill:#777777;fill-opacity:1;stroke-width:0.830588" />
<g
   id="XMLID_1_">
</g>
<g
   id="XMLID_2_">
</g>
<g
   id="XMLID_3_">
</g>
<g
   id="XMLID_4_">
</g>
<g
   id="XMLID_5_">
</g>
<g
   id="XMLID_6_">
</g>
</svg>
