<?xml version="1.0" encoding="utf-8"?>
<!-- Generator: Adobe Illustrator 19.0.0, SVG Export Plug-In . SVG Version: 6.00 Build 0)  -->
<svg version="1.0" id="图层_1" xmlns="http://www.w3.org/2000/svg" xmlns:xlink="http://www.w3.org/1999/xlink" x="0px" y="0px"
	 viewBox="0 0 192 192" style="enable-background:new 0 0 192 192;" xml:space="preserve">
<g id="Group" transform="translate(0.000000, 21.000000)">
	<path id="合并形状" d="M83.9,88h22.3c-3.2-3.4-5.1-8-5.1-13c0-10.5,8.5-19,19-19s19,8.5,19,19s-8.5,19-19,19
		c-0.5,0-1,0-1.4-0.1c-0.2,0-0.4,0.1-0.6,0.1h-46c-0.2,0-0.4,0-0.6-0.1c-0.5,0-1,0.1-1.4,0.1c-10.5,0-19-8.5-19-19s8.5-19,19-19
		s19,8.5,19,19C89,80,87,84.6,83.9,88z M70,88c7.2,0,13-5.8,13-13s-5.8-13-13-13s-13,5.8-13,13S62.8,88,70,88z M120,88
		c7.2,0,13-5.8,13-13s-5.8-13-13-13s-13,5.8-13,13S112.8,88,120,88z"/>
</g>
<g id="XMLID_1_">
</g>
<g id="XMLID_2_">
</g>
<g id="XMLID_3_">
</g>
<g id="XMLID_4_">
</g>
<g id="XMLID_5_">
</g>
<g id="XMLID_6_">
</g>
</svg>
