<?xml version="1.0" encoding="utf-8"?>
<!-- Generator: Adobe Illustrator 19.0.0, SVG Export Plug-In . SVG Version: 6.00 Build 0)  -->
<svg version="1.1" id="图层_1" xmlns="http://www.w3.org/2000/svg" xmlns:xlink="http://www.w3.org/1999/xlink" x="0px" y="0px"
	 viewBox="0 0 96 96" style="enable-background:new 0 0 96 96;" xml:space="preserve">
<path id="path-1_1_" d="M62,26c0-7.7-6.3-14-14-14s-14,6.3-14,14s6.3,14,14,14S62,33.8,62,26z M68,26c0,11.1-9,20-20,20s-20-9-20-20
	S37,6,48,6S68,15,68,26z M78,87V74c0-9.9-8.1-18-18-18H36c-9.9,0-18,8.1-18,18v13h-6V74c0-13.3,10.7-24,24-24h24
	c13.3,0,24,10.7,24,24v13H78z M78,87V74c0-9.9-8.1-18-18-18H36c-9.9,0-18,8.1-18,18v13h-6V74c0-13.3,10.7-24,24-24h24
	c13.3,0,24,10.7,24,24v13H78z M15,90c-1.7,0-3-1.3-3-3s1.3-3,3-3s3,1.3,3,3S16.7,90,15,90z M81,90c-1.7,0-3-1.3-3-3s1.3-3,3-3
	s3,1.3,3,3S82.7,90,81,90z"/>
</svg>
