<?xml version="1.0" encoding="utf-8"?>
<!-- Generator: Adobe Illustrator 19.0.0, SVG Export Plug-In . SVG Version: 6.00 Build 0)  -->
<svg version="1.1" id="图层_1" xmlns="http://www.w3.org/2000/svg" xmlns:xlink="http://www.w3.org/1999/xlink" x="0px" y="0px"
	 viewBox="0 0 288 288" style="enable-background:new 0 0 288 288;" xml:space="preserve">
<g id="ic_contacts_empty_voicemaile_60">
	<path id="Combined-Shape" d="M72,192c-30.9,0-56-25.1-56-56s25.1-56,56-56s56,25.1,56,56S102.9,192,72,192z M72,174
		c21,0,38-17,38-38S93,98,72,98s-38,17-38,38S51,174,72,174z"/>
	<path id="Combined-Shape-Copy" d="M216,192c-30.9,0-56-25.1-56-56s25.1-56,56-56s56,25.1,56,56S246.9,192,216,192z M216,174
		c21,0,38-17,38-38s-17-38-38-38s-38,17-38,38S195,174,216,174z"/>
	<rect id="Rectangle" x="72" y="174" width="148" height="18"/>
</g>
</svg>
