<?xml version="1.0" encoding="utf-8"?>
<!-- Generator: Adobe Illustrator 19.0.0, SVG Export Plug-In . SVG Version: 6.00 Build 0)  -->
<svg version="1.0" id="图层_1" xmlns="http://www.w3.org/2000/svg" xmlns:xlink="http://www.w3.org/1999/xlink" x="0px" y="0px"
	 viewBox="0 0 96 96" style="enable-background:new 0 0 96 96;" xml:space="preserve">
<style type="text/css">
	.st0{fill:none;stroke:#000000;stroke-width:5;stroke-linecap:round;stroke-linejoin:round;}
</style>
<g id="ic_contacts_edit-nickname_m">
	<g id="Group-4" transform="translate(8.000000, 8.000000)">
		<path id="Path-11" class="st0" d="M56.1,45c-2.4-2-5.1-3-8.1-3c-5.3,0-11,3.8-11,11c0,6.2,6.7,14.2,20,24c13.3-10,20-18,20-24
			c0-8.1-6.3-11-9.5-11c-5.7,0-8.2,2.3-11.9,6.9"/>
		<path id="Combined-Shape" d="M46,18c0-6.6-5.4-12-12-12s-12,5.4-12,12s5.4,12,12,12S46,24.6,46,18z M52,18c0,9.9-8.1,18-18,18
			s-18-8.1-18-18S24.1,0,34,0S52,8.1,52,18z"/>
		<path id="Combined-Shape_1_" d="M34.4,40c-0.5,0.4-1,0.9-1.4,1.3c-1.1,1.4-2,2.8-2.7,4.3h-8.7c-8.8,0-15.5,5.9-15.5,13.9v11.9
			C6.1,72.8,4.6,74,3,74s-3.1-1.1-3.1-2.6V59.5c0-10.8,9.7-19.6,21.6-19.6h12.9V40z"/>
	</g>
</g>
<g id="XMLID_1_">
</g>
<g id="XMLID_2_">
</g>
<g id="XMLID_3_">
</g>
<g id="XMLID_4_">
</g>
<g id="XMLID_5_">
</g>
<g id="XMLID_6_">
</g>
</svg>
