<?xml version="1.0" encoding="UTF-8" standalone="no"?>
<svg
   xmlns:dc="http://purl.org/dc/elements/1.1/"
   xmlns:cc="http://creativecommons.org/ns#"
   xmlns:rdf="http://www.w3.org/1999/02/22-rdf-syntax-ns#"
   xmlns:svg="http://www.w3.org/2000/svg"
   xmlns="http://www.w3.org/2000/svg"
   xmlns:sodipodi="http://sodipodi.sourceforge.net/DTD/sodipodi-0.dtd"
   xmlns:inkscape="http://www.inkscape.org/namespaces/inkscape"
   inkscape:version="1.0 (4035a4fb49, 2020-05-01)"
   sodipodi:docname="ic_contacts_m.svg"
   xml:space="preserve"
   style="enable-background:new 0 0 96 96;"
   viewBox="0 0 96 96"
   y="0px"
   x="0px"
   id="图层_1"
   version="1.0"><metadata
   id="metadata14"><rdf:RDF><cc:Work
       rdf:about=""><dc:format>image/svg+xml</dc:format><dc:type
         rdf:resource="http://purl.org/dc/dcmitype/StillImage" /></cc:Work></rdf:RDF></metadata><defs
   id="defs12" /><sodipodi:namedview
   inkscape:current-layer="图层_1"
   inkscape:window-maximized="1"
   inkscape:window-y="-8"
   inkscape:window-x="-8"
   inkscape:cy="48"
   inkscape:cx="26.233216"
   inkscape:zoom="8.6096807"
   showgrid="false"
   id="namedview10"
   inkscape:window-height="1017"
   inkscape:window-width="1920"
   inkscape:pageshadow="2"
   inkscape:pageopacity="0"
   guidetolerance="10"
   gridtolerance="10"
   objecttolerance="10"
   borderopacity="1"
   bordercolor="#666666"
   pagecolor="#ffffff"
   inkscape:document-rotation="0" />

<g
   id="XMLID_1_">
</g>
<g
   id="XMLID_2_">
</g>
<g
   id="XMLID_3_">
</g>
<g
   id="XMLID_4_">
</g>
<g
   id="XMLID_5_">
</g>
<g
   id="XMLID_6_">
</g>
<g
   transform="matrix(4.1025641,0,0,4.4444444,-1.2307692,-6.4444444)"
   id="联系人1"
   stroke="none"
   stroke-width="1"
   fill="none"
   fill-rule="evenodd"><g
     id="编组"
     fill="#000000"
     fill-rule="nonzero"><g
       transform="translate(2.25,3.25)"
       id="g8"><path
         d="m 15.505148,0 c 0.931315,0 1.713571,0.63779237 1.933282,1.5001592 H 2.0615703 C 2.2812814,0.63779237 3.0635366,0 3.994852,0 v 0 z"
         id="形状结合"
         fill-opacity="0.4" /><path
         d="M 17.505115,2.5 H 1.9948849 C 0.8931404,2.5 0,3.3925513 0,4.4935691 V 16.006431 C 0,17.107449 0.8931404,18 1.9948849,18 H 17.505115 C 18.60686,18 19.5,17.107449 19.5,16.006431 V 4.4935691 C 19.5,3.3925513 18.60686,2.5 17.505115,2.5 Z"
         id="路径备份-3"
         fill-opacity="0.2" /><path
         d="m 9.85,10.062044 c 2.807863,0 5.084086,2.276223 5.084086,5.084086 0,0.331371 -0.26863,0.6 -0.6,0.6 v 0 H 5.3659143 c -0.3313709,0 -0.6,-0.268629 -0.6,-0.6 0,-2.807863 2.2762227,-5.084086 5.0840857,-5.084086 z m 0,-5.2649852 c 1.325483,0 2.4,1.0745166 2.4,2.4 0,1.3254834 -1.074517,2.4 -2.4,2.4 -1.3254834,0 -2.4,-1.0745166 -2.4,-2.4 0,-1.3254834 1.0745166,-2.4 2.4,-2.4 z"
         id="path6"
         fill-opacity="0.25" /></g></g></g></svg>
