<?xml version="1.0" encoding="utf-8"?>
<!-- Generator: Adobe Illustrator 19.0.0, SVG Export Plug-In . SVG Version: 6.00 Build 0)  -->
<svg version="1.1" id="图层_1" xmlns="http://www.w3.org/2000/svg" xmlns:xlink="http://www.w3.org/1999/xlink" x="0px" y="0px"
	 viewBox="0 0 96 96" style="enable-background:new 0 0 96 96;" xml:space="preserve">
<style type="text/css">
	.st0{fill:#00D659;}
	.st1{fill:#FFFFFF;}
</style>
<g id="ic_contacts_dial-call-HD_1_m">
	
		<g id="编组" transform="translate(47.500000, 36.500000) scale(-1, 1) translate(-47.500000, -36.500000) translate(21.000000, 10.000000)">
		<g id="分组">
			<g id="phonecall">
				<path id="path-1_1_" class="st1" d="M6.5,25.2c-1.8-3-3.8-7.2-6-12.7C-0.9,8.8,0.7,4.2,4,1.9l1.5-1.1c0.1-0.1,0.2-0.1,0.3-0.2
					C7.9-0.6,10.7,0,12,2.2L19.1,14c0.9,1.5,0.9,3.3-0.1,4.8l-2.3,3.6c-1.2,1.8-0.9,3.5,0.6,5.6c1,1.4,2.1,2.7,3.3,4
					c1.2,1.3,2.7,2.5,4.4,3.7c1.7,1.3,3.9,1.8,5.6,0.6l3.6-2.3c1.5-0.9,3.3-1,4.8-0.1L50.8,41c2.1,1.3,2.8,4.1,1.5,6.2
					c-0.1,0.1-0.1,0.2-0.2,0.3L51.1,49c-2.3,3.3-6.9,4.9-10.6,3.5c-5.5-2.1-9.7-4.1-12.7-6c-4-2.5-7.9-5.6-11.7-9.5
					C12.1,33.2,9,29.2,6.5,25.2z"/>
			</g>
		</g>
		<path id="Path" class="st1" d="M36.3,1h2.6c0.3,0,0.4,0.1,0.6,0.2l3.3,2.6C42.9,3.9,43,4,43,4.2v3.2c0,0.3-0.1,0.3-0.3,0.2l-3.2-2.4h-0.1v17.3
			c0,0.2-0.1,0.3-0.3,0.3h-2.8c-0.2,0-0.3-0.1-0.3-0.3V1.3C36.1,1.1,36.2,1,36.3,1z"/>
	</g>
	<g id="Group备份" transform="translate(31.000000, 67.000000)">
		<path id="Path_1_" class="st1" d="M0.5,0.8c0-0.2,0.1-0.3,0.3-0.3h2.7c0.2,0,0.3,0.1,0.3,0.3v7.4c0,0.1,0.1,0.2,0.2,0.2h7.2
			c0.1,0,0.2-0.1,0.2-0.2V0.8c0-0.2,0.1-0.3,0.3-0.3h2.7c0.2,0,0.3,0.1,0.3,0.3v18.3c0,0.2-0.1,0.3-0.3,0.3h-2.7
			c-0.2,0-0.3-0.1-0.3-0.3v-7.6c0-0.1-0.1-0.2-0.2-0.2H4c-0.1,0-0.2,0.1-0.2,0.2v7.6c0,0.2-0.1,0.3-0.3,0.3H0.8
			c-0.2,0-0.3-0.1-0.3-0.3V0.8z"/>
		<path id="Shape" class="st1" d="M18.8,0.8c0-0.2,0.1-0.3,0.3-0.3h6.8c3.3,0,5.4,1.4,6.3,4.2c0.3,0.9,0.5,2,0.5,5.3s-0.2,4.3-0.5,5.3
			c-0.9,2.8-3.1,4.2-6.3,4.2h-6.8c-0.2,0-0.3-0.1-0.3-0.3V0.8z M22.3,16.5h2.8c2.1,0,3.4-0.7,3.9-2.4c0.2-0.5,0.3-1.4,0.3-4.1
			c0-2.8-0.1-3.6-0.3-4.1c-0.6-1.7-1.8-2.4-3.9-2.4h-2.8c-0.1,0-0.2,0.1-0.2,0.2v12.7C22.1,16.4,22.1,16.5,22.3,16.5z"/>
	</g>
</g>
</svg>
