<?xml version="1.0" encoding="UTF-8" standalone="no"?>
<svg
   xmlns:dc="http://purl.org/dc/elements/1.1/"
   xmlns:cc="http://creativecommons.org/ns#"
   xmlns:rdf="http://www.w3.org/1999/02/22-rdf-syntax-ns#"
   xmlns:svg="http://www.w3.org/2000/svg"
   xmlns="http://www.w3.org/2000/svg"
   xmlns:sodipodi="http://sodipodi.sourceforge.net/DTD/sodipodi-0.dtd"
   xmlns:inkscape="http://www.inkscape.org/namespaces/inkscape"
   version="1.0"
   id="图层_1"
   x="0px"
   y="0px"
   viewBox="0 0 96 96"
   style="enable-background:new 0 0 96 96;"
   xml:space="preserve"
   sodipodi:docname="ic_contacts_favorite_add.svg"
   inkscape:version="1.0 (4035a4fb49, 2020-05-01)"><metadata
   id="metadata19"><rdf:RDF><cc:Work
       rdf:about=""><dc:format>image/svg+xml</dc:format><dc:type
         rdf:resource="http://purl.org/dc/dcmitype/StillImage" /></cc:Work></rdf:RDF></metadata><defs
   id="defs17" /><sodipodi:namedview
   inkscape:document-rotation="0"
   pagecolor="#ffffff"
   bordercolor="#666666"
   borderopacity="1"
   objecttolerance="10"
   gridtolerance="10"
   guidetolerance="10"
   inkscape:pageopacity="0"
   inkscape:pageshadow="2"
   inkscape:window-width="1920"
   inkscape:window-height="1017"
   id="namedview15"
   showgrid="false"
   inkscape:zoom="8.6096807"
   inkscape:cx="48"
   inkscape:cy="48.996958"
   inkscape:window-x="-8"
   inkscape:window-y="-8"
   inkscape:window-maximized="1"
   inkscape:current-layer="图层_1" />
<g
   transform="matrix(0.52574129,0,0,0.52393595,22.778136,22.940977)"
   id="ic_contacts_add-copy">
	<g
   id="ic_x2F_favourites_x2F_ic_x5F_favourites-copy"
   transform="translate(5,5)">
		<g
   id="star">
			<path
   id="Combined-Shape"
   d="m 41.3,59.2 c -1.4,1.6 -2.3,3.7 -2.3,6 0,1 0.2,2 0.5,2.9 L 22.4,80.8 c -1.8,1.3 -4.3,1 -5.6,-0.8 -0.8,-1 -1,-2.3 -0.6,-3.5 L 23.5,51.7 2.5,36.2 C 0.7,34.9 0.3,32.4 1.7,30.6 2.5,29.6 3.6,29 4.9,29 H 30 L 39.3,3.8 c 0.8,-2.1 3.1,-3.1 5.1,-2.4 1.1,0.4 2,1.3 2.4,2.4 L 56,28.9 h 25.2 c 2.2,0 4,1.8 4,4 0,1.3 -0.6,2.4 -1.6,3.2 l -10.6,8 c -0.9,-1.9 -2.5,-3.3 -4.4,-4.2 l 6.6,-5 H 51.8 l -8.8,-24 -8.8,24 H 10.9 L 30.4,49.2 23.6,72.3 Z M 56,74.4 55.8,74.2 H 56 Z" />
		</g>
	</g>
	<g
   id="Group"
   transform="translate(50,50)">
		<path
   id="Combined-Shape_1_"
   d="m 17,17.2 v -14 c 0,-1.7 1.3,-3 3,-3 1.7,0 3,1.3 3,3 v 14 h 14 c 1.7,0 3,1.3 3,3 0,1.7 -1.3,3 -3,3 H 23 v 14 c 0,1.7 -1.3,3 -3,3 -1.7,0 -3,-1.3 -3,-3 v -14 H 3 c -1.7,0 -3,-1.3 -3,-3 0,-1.7 1.3,-3 3,-3 z" />
	</g>
</g>
<g
   id="XMLID_1_">
</g>
<g
   id="XMLID_2_">
</g>
<g
   id="XMLID_3_">
</g>
<g
   id="XMLID_4_">
</g>
<g
   id="XMLID_5_">
</g>
<g
   id="XMLID_6_">
</g>
<path
   style="fill:#ffffff;stroke-width:0.0593455"
   d="m 35.381065,68.212718 c -0.662767,-0.220029 -1.179821,-0.689967 -1.398156,-1.270748 -0.232957,-0.619675 -0.276675,-0.438971 1.848654,-7.64112 1.08153,-3.665 1.944266,-6.683643 1.917192,-6.708097 -0.02708,-0.02445 -2.510365,-1.851068 -5.518422,-4.059143 -3.008058,-2.208075 -5.584132,-4.124305 -5.724609,-4.258289 -0.140477,-0.133984 -0.327738,-0.390235 -0.416135,-0.569447 -0.136413,-0.27656 -0.160721,-0.402001 -0.160721,-0.829411 0,-0.420303 0.0259,-0.558627 0.156655,-0.836521 0.212081,-0.450751 0.511063,-0.765077 0.9569,-1.00601 l 0.372639,-0.201375 6.895943,-0.01684 6.895943,-0.01685 2.431991,-6.588821 c 1.337595,-3.623852 2.50015,-6.717838 2.583456,-6.875524 0.208372,-0.39442 0.704726,-0.831473 1.122734,-0.988597 0.471636,-0.177282 1.16127,-0.145037 1.591207,0.0744 0.382565,0.195258 0.831837,0.674387 1.002758,1.069397 0.07359,0.170078 1.202013,3.22138 2.5076,6.780672 l 2.373794,6.471439 6.836495,0.0024 6.836495,0.0024 0.337568,0.138365 c 0.673192,0.275934 1.09145,0.755813 1.272844,1.460371 0.158146,0.614262 0.01371,1.210954 -0.423396,1.749042 -0.10736,0.132165 -1.207527,1.001725 -2.444818,1.932354 -1.23729,0.930631 -2.515235,1.892714 -2.839879,2.137964 L 63.805535,48.610638 63.60938,48.28601 c -0.107885,-0.178629 -0.305955,-0.455406 -0.440155,-0.615144 -0.245262,-0.291932 -0.976663,-0.867728 -1.391449,-1.09542 l -0.222752,-0.122277 1.672781,-1.263778 c 0.92003,-0.695077 1.686904,-1.28655 1.704165,-1.314381 0.01727,-0.02785 -2.732699,-0.0506 -6.11613,-0.0506 h -6.14751 l -2.310347,-6.279873 c -1.27069,-3.453904 -2.32561,-6.279826 -2.344265,-6.279826 -0.01865,0 -1.073575,2.825922 -2.344265,6.279826 l -2.310347,6.279826 h -6.127489 c -5.992715,0 -6.12491,0.0025 -6.010245,0.111048 0.06448,0.06108 2.36974,1.755205 5.122791,3.764732 2.800266,2.043992 4.99492,3.685095 4.981427,3.724978 -0.144327,0.426616 -3.54176,12.023782 -3.526784,12.038706 0.01116,0.01112 0.943059,-0.660296 2.070898,-1.492028 1.127839,-0.831731 3.131776,-2.309315 4.453191,-3.283521 1.321417,-0.974205 2.412911,-1.760983 2.425541,-1.748395 0.01263,0.01259 -0.05774,0.149708 -0.156377,0.304711 -0.421549,0.662432 -0.719568,1.704409 -0.71768,2.509258 4.16e-4,0.18309 0.05276,0.583933 0.116285,0.890762 0.06353,0.306829 0.104245,0.576025 0.09049,0.598212 -0.07613,0.122752 -8.942983,6.636882 -9.255747,6.799832 -0.441859,0.230209 -1.048139,0.301595 -1.444337,0.170062 z"
   id="path21" /><path
   style="fill:#ffffff;stroke-width:0.0593455"
   d="m 59.081275,70.078303 c -0.178011,-0.06317 -0.420959,-0.212983 -0.554792,-0.342106 -0.466025,-0.44962 -0.432919,-0.128229 -0.46609,-4.524882 l -0.02973,-3.939701 -3.923553,-0.02962 c -4.423474,-0.03339 -4.136903,-0.002 -4.601854,-0.504649 -0.295325,-0.31929 -0.45244,-0.801186 -0.392053,-1.202491 0.08413,-0.559099 0.367757,-0.938578 0.921734,-1.233237 0.196127,-0.104319 0.432376,-0.111636 4.116759,-0.127505 l 3.908691,-0.01683 V 54.29048 50.423678 l 0.153984,-0.307943 c 0.570171,-1.140257 2.237599,-1.104116 2.765386,0.05994 l 0.14219,0.313606 0.01692,3.833991 0.01692,3.833991 3.876911,0.01684 3.876912,0.01685 0.284002,0.140584 c 0.569775,0.282043 0.929121,0.937524 0.855158,1.559882 -0.06711,0.564728 -0.47215,1.086597 -0.985178,1.269351 -0.165054,0.0588 -1.085902,0.07662 -4.062673,0.07863 l -3.849244,0.0026 v 3.699812 c 0,2.438845 -0.02201,3.802086 -0.06458,3.999896 -0.192807,0.895942 -1.152146,1.439554 -2.005823,1.136603 z"
   id="path23" /></svg>
