<?xml version="1.0" encoding="utf-8"?>
<!-- Generator: Adobe Illustrator 19.0.0, SVG Export Plug-In . SVG Version: 6.00 Build 0)  -->
<svg version="1.0" id="图层_1" xmlns="http://www.w3.org/2000/svg" xmlns:xlink="http://www.w3.org/1999/xlink" x="0px" y="0px"
	 viewBox="0 0 96 96" style="enable-background:new 0 0 96 96;" xml:space="preserve">
<path id="path-1" d="M48,43.8l15.6-15.6c1.2-1.2,3.1-1.2,4.2,0c1.2,1.2,1.2,3.1,0,4.2L52.2,48l15.6,15.6c1.2,1.2,1.2,3.1,0,4.2
	c-1.2,1.2-3.1,1.2-4.2,0L48,52.2L32.4,67.8c-1.2,1.2-3.1,1.2-4.2,0c-1.2-1.2-1.2-3.1,0-4.2L43.8,48L28.2,32.4
	c-1.2-1.2-1.2-3.1,0-4.2c1.2-1.2,3.1-1.2,4.2,0L48,43.8z M21.1,74.9c14.8,14.8,38.9,14.8,53.7,0s14.8-38.9,0-53.7s-38.9-14.8-53.7,0
	S6.3,60,21.1,74.9z M16.9,79.1c-17.2-17.2-17.2-45,0-62.2s45-17.2,62.2,0s17.2,45,0,62.2S34.1,96.3,16.9,79.1z"/>
</svg>
