<?xml version="1.0" standalone="no"?>
<svg version="1.0" xmlns="http://www.w3.org/2000/svg"
 width="30.000000px" height="30.000000px" viewBox="0 0 150.000000 150.000000"
 preserveAspectRatio="xMidYMid meet">

<g transform="translate(0.000000,150.000000) scale(0.100000,-0.100000)"
fill="#000000" stroke="none">
<path d="M487 1352 c-33 -36 -21 -61 78 -161 l94 -96 -94 -96 c-102 -103 -114
-130 -75 -169 36 -36 58 -25 161 77 l99 97 99 -97 c103 -102 125 -113 161 -77
39 39 27 66 -75 169 l-94 96 94 96 c100 101 113 129 77 162 -39 36 -69 23
-168 -75 l-94 -92 -94 92 c-75 74 -99 92 -123 92 -16 0 -37 -8 -46 -18z"/>
<path d="M525 594 c-151 -23 -368 -104 -422 -156 -48 -46 -67 -105 -60 -180 5
-54 10 -67 36 -90 17 -16 43 -28 57 -28 28 0 293 64 337 82 34 13 51 44 66
119 20 95 63 118 221 119 155 0 199 -26 219 -128 19 -98 31 -107 211 -152 85
-22 168 -40 183 -40 65 0 97 46 97 140 0 118 -42 168 -193 228 -187 74 -341
103 -547 101 -63 -1 -155 -7 -205 -15z"/>
</g>
</svg>
