<?xml version="1.0" encoding="UTF-8"?>
<svg width="60px" height="60px" viewBox="0 0 96 96" version="1.1" xmlns="http://www.w3.org/2000/svg" xmlns:xlink="http://www.w3.org/1999/xlink">
    <title>ic_contacts_edit group_m</title>
    <g id="ic_contacts_edit-group_m" stroke="none" stroke-width="1" fill="none" fill-rule="evenodd">
        <g id="ic/public/ic_cloud/" transform="translate(8.000000, 47.000000)" fill="#000000" fill-rule="nonzero">
            <path d="M41.6911765,0 C49.9157028,0 57.0519476,4.52635878 60.6041487,11.1546216 C60.2585293,11.9270368 60.0499923,12.7737966 60.0079177,13.6641388 L60,14 L60,19 L56.9982609,18.9999532 C56.1655426,11.4250955 49.7952951,6 41.6911765,6 L21.3088235,6 C12.6103387,6 6.00953895,12.2500433 6.00953895,20.7 L6.00953895,33.3 C6.00953895,34.7911688 4.53979621,36 3.00476948,36 C1.46974274,36 -2.84217094e-14,34.7911688 -2.84217094e-14,33.3 L-2.84217094e-14,20.7 C-2.84217094e-14,9.26770568 9.54028526,0 21.3088235,0 L41.6911765,0 Z M62.2944856,1.29072107 C65.4373705,2.83284071 68.0834318,5.02151196 70.0602088,7.63733879 L70.1363363,7.7402259 C69.192893,7.26660821 68.1275814,7 67,7 C65.2193001,7 63.5938969,7.66490443 62.3585189,8.75998489 C61.3358584,7.98244584 60.2030966,7.29054534 58.9857804,6.6932447 C57.6173448,6.02179427 57.8700602,3.80372904 58.5626567,2.47707399 C59.2552533,1.15041894 60.92605,0.619270642 62.2944856,1.29072107 Z" id="合并形状"></path>
            <path d="M67.1034483,11 C68.7031696,11 70,12.2968304 70,13.8965517 L70,23 L79.1034483,23 C80.7031696,23 82,24.2968304 82,25.8965517 L82,26.1034483 C82,27.7031696 80.7031696,29 79.1034483,29 L70,29 L70,38.1034483 C70,39.7031696 68.7031696,41 67.1034483,41 L66.8965517,41 C65.2968304,41 64,39.7031696 64,38.1034483 L64,29 L54.8965517,29 C53.2968304,29 52,27.7031696 52,26.1034483 L52,25.8965517 C52,24.2968304 53.2968304,23 54.8965517,23 L64,23 L64,13.8965517 C64,12.2968304 65.2968304,11 66.8965517,11 L67.1034483,11 Z" id="Combined-Shape"></path>
        </g>
        <path d="M50,25.5 C50,19.1486986 44.8515887,14 38.5004134,14 C32.1485151,14 27,19.1485947 27,25.5 C27,31.8514053 32.1485151,37 38.5004134,37 C44.8515887,37 50,31.8513014 50,25.5 Z M56,25.5 C56,35.1651175 48.1652038,43 38.5004305,43 C28.8349543,43 21,35.1652756 21,25.5 C21,15.8347244 28.8349543,8 38.5004305,8 C48.1652038,8 56,15.8348825 56,25.5 Z" id="Stroke-5-Copy" fill="#000000" fill-rule="nonzero"></path>
        <path d="M54.7546279,14.3576996 C53.3125185,13.7766439 52.6210817,12.1526627 53.2102607,10.7304362 C53.7994397,9.30820966 55.4461244,8.62630602 56.8882338,9.20736178 C57.089448,9.28843516 57.2890785,9.3731196 57.4870352,9.46136542 C63.8334061,12.2904734 68,18.5324277 68,25.5222324 C68,32.6937376 63.6140541,39.0664003 57.0179229,41.7842583 C55.580511,42.3765269 53.9284176,41.7074687 53.327869,40.289875 C52.7273204,38.8722813 53.4057321,37.2429659 54.843144,36.6506973 C59.3575283,34.7905986 62,30.4078525 62,25.5 C62,20.7161576 59,16 55.1634004,14.5310962 C55.0275437,14.4790813 54.8919709,14.4130379 54.7546279,14.3576996 Z" id="Stroke-5-Copy-2" fill="#000000" fill-rule="nonzero"></path>
    </g>
</svg>