<?xml version="1.0" encoding="utf-8"?>
<!-- Generator: Adobe Illustrator 19.0.0, SVG Export Plug-In . SVG Version: 6.00 Build 0)  -->
<svg version="1.0" id="图层_1" xmlns="http://www.w3.org/2000/svg" xmlns:xlink="http://www.w3.org/1999/xlink" x="0px" y="0px"
	 viewBox="72 -72 240 240" style="enable-background:new 72 -72 240 240;" xml:space="preserve">
<style type="text/css">
	.st0{fill:#FFFFFF;}
	.st1{fill:#00D659;}
</style>
<g>
	<path id="path-1" class="st0" d="M149.7,45.3c-3.9-6.3-8.1-15.3-12.6-26.8c-3.1-7.9,0.4-17.6,7.3-22.5l3.2-2.3
		c0.2-0.1,0.4-0.2,0.5-0.4c4.5-2.7,10.4-1.3,13.1,3.2l15,24.9c1.9,3.1,1.8,7.1-0.2,10.1l-4.9,7.6c-2.4,3.8-1.8,7.4,1.3,11.9
		c2.1,2.9,4.4,5.8,7,8.5c2.6,2.7,5.7,5.3,9.3,7.9c3.6,2.7,8.2,3.7,11.9,1.3l7.6-4.9c3.1-2,7-2,10.1-0.2l24.9,15
		c4.5,2.7,6,8.6,3.2,13.1c-0.1,0.2-0.2,0.4-0.4,0.5l-2.3,3.2c-4.9,6.9-14.6,10.4-22.5,7.3c-11.6-4.5-20.5-8.7-26.8-12.6
		c-8.5-5.2-16.7-11.9-24.8-20.1C161.7,62.1,155,53.8,149.7,45.3z"/>
</g>
<g id="ic_contacts_call-dial_60">
	<g id="btn_contacts_call_dial">
		<circle id="Oval" class="st1" cx="192" cy="48" r="120"/>
	</g>
	<g id="分组" transform="translate(63.000000, 66.000000)">
	</g>
	<g id="phonecall">
		<path id="path-1_1_" class="st0" d="M149.7,45.3c-3.9-6.3-8.1-15.3-12.6-26.8c-3.1-7.9,0.4-17.6,7.3-22.5l3.2-2.3
			c0.2-0.1,0.4-0.2,0.5-0.4c4.5-2.7,10.4-1.3,13.1,3.2l15,24.9c1.9,3.1,1.8,7.1-0.2,10.1l-4.9,7.6c-2.4,3.8-1.8,7.4,1.3,11.9
			c2.1,2.9,4.4,5.8,7,8.5c2.6,2.7,5.7,5.3,9.3,7.9c3.6,2.7,8.2,3.7,11.9,1.3l7.6-4.9c3.1-2,7-2,10.1-0.2l24.9,15
			c4.5,2.7,6,8.6,3.2,13.1c-0.1,0.2-0.2,0.4-0.4,0.5l-2.3,3.2c-4.9,6.9-14.6,10.4-22.5,7.3c-11.6-4.5-20.5-8.7-26.8-12.6
			c-8.5-5.2-16.7-11.9-24.8-20.1C161.7,62.1,155,53.8,149.7,45.3z"/>
	</g>
</g>
</svg>
