<?xml version="1.0" encoding="utf-8"?>
<!-- Generator: Adobe Illustrator 19.0.0, SVG Export Plug-In . SVG Version: 6.00 Build 0)  -->
<svg version="1.0" id="图层_1" xmlns="http://www.w3.org/2000/svg" xmlns:xlink="http://www.w3.org/1999/xlink" x="0px" y="0px"
	 viewBox="0 0 96 96" style="enable-background:new 0 0 96 96;" xml:space="preserve">
<g id="ic_contacts_edit-address_m">
	<g id="合并形状">
		<path id="path-1_1_" d="M6.6,50.1c-1.2,1.2-3.1,1.2-4.2,0s-1.2-3.1,0-4.2L41.7,6.6c3.5-3.5,9.2-3.5,12.7,0l39.3,39.3
			c1.2,1.2,1.2,3.1,0,4.2c-1.2,1.2-3.1,1.2-4.2,0L50.1,10.8c-1.2-1.2-3.1-1.2-4.2,0L6.6,50.1z M12,51.3c0-1.7,1.3-3,3-3s3,1.3,3,3
			V79c0,3.9,3.1,7,7,7h46c3.9,0,7-3.1,7-7V51c0-1.7,1.3-3,3-3s3,1.3,3,3v28c0,7.2-5.8,13-13,13H25c-7.2,0-13-5.8-13-13V51.3z"/>
	</g>
</g>
<g id="XMLID_1_">
</g>
<g id="XMLID_2_">
</g>
<g id="XMLID_3_">
</g>
<g id="XMLID_4_">
</g>
<g id="XMLID_5_">
</g>
<g id="XMLID_6_">
</g>
</svg>
