<?xml version="1.0" encoding="utf-8"?>
<!-- Generator: Adobe Illustrator 19.0.0, SVG Export Plug-In . SVG Version: 6.00 Build 0)  -->
<svg version="1.0" id="图层_1" xmlns="http://www.w3.org/2000/svg" xmlns:xlink="http://www.w3.org/1999/xlink" x="0px" y="0px"
	 viewBox="0 0 64 64" style="enable-background:new 0 0 64 64;" xml:space="preserve">
<style type="text/css">
	.st0{fill:#040000;}
</style>
<path id="Fill-1" class="st0" d="M30,18.1C30.2,17.8,30,17.9,30,18.1C29.8,18.1,29.8,18.1,30,18.1l-24,24c-0.9,1-1.2,2.9,0,4
	c1.1,1.3,3.1,1,4,0l22-22l21.8,21.8c1.1,1.3,3,1.4,4.2,0.2c1.1-1.3,1-3-0.2-4.2L34,18.1c0.4,0.1,0.3,0,0,0
	C33.1,17,31.5,16.9,30,18.1"/>
<g id="XMLID_1_">
</g>
<g id="XMLID_2_">
</g>
<g id="XMLID_3_">
</g>
<g id="XMLID_4_">
</g>
<g id="XMLID_5_">
</g>
<g id="XMLID_6_">
</g>
</svg>
