<?xml version="1.0" encoding="UTF-8"?>
<svg width="120px" height="120px" viewBox="0 0 224 224" version="1.1" xmlns="http://www.w3.org/2000/svg" xmlns:xlink="http://www.w3.org/1999/xlink">
    <title>ic_contacts_call HD dial_60</title>
    <g id="ic_contacts_call-HD-dial_60" stroke="none" stroke-width="1" fill="none" fill-rule="evenodd">
        <g id="bt_contact_call_hd_dial" fill="#41BA41">
            <circle id="Oval" cx="112" cy="112" r="112"></circle>
        </g>
        <path d="M65.7448159,117.330955 C61.8574664,111.024132 57.6529052,102.077735 53.1311186,90.4917715 C50.0503211,82.5979594 53.5165457,72.8662519 60.4522175,67.9979833 L63.6773673,65.7341946 C63.8562375,65.6086425 64.039366,65.4892693 64.2264291,65.376286 C68.7395899,62.6504047 74.607993,64.099281 77.3338743,68.6124418 L92.3535034,93.479996 C94.2412793,96.6055306 94.1808927,100.534079 92.1979446,103.600116 L87.2975236,111.177153 C84.853276,114.956451 85.46824,118.623371 88.56325,123.112143 C90.6174777,126.053937 92.9575231,128.878444 95.5833862,131.585665 C98.2092493,134.292886 101.31074,136.909914 104.887857,139.43675 C108.489069,142.153667 113.043549,143.146724 116.822847,140.702476 L124.399884,135.802055 C127.465921,133.819107 131.394469,133.758721 134.520004,135.646497 L159.387558,150.666126 C163.900719,153.392007 165.349595,159.26041 162.623714,163.773571 C162.510731,163.960634 162.391357,164.143763 162.265805,164.322633 L160.002017,167.547782 C155.133748,174.483454 145.402041,177.949679 137.508228,174.868881 C125.922265,170.347095 116.975868,166.142534 110.669045,162.255184 C102.202344,157.036547 93.9281067,150.336041 85.8463326,142.153667 C77.6639586,134.071893 70.963453,125.797656 65.7448159,117.330955 Z" id="phonecall" fill="#FFFFFF"></path>
        <path d="M113.2,56 C113.5,56 113.8,56.2 113.8,56.6 L113.8,72 C113.8,72.2 113.9,72.3 114.1,72.3 L129,72.3 C129.2,72.3 129.3,72.2 129.3,72 L129.3,56.6 C129.3,56.3 129.5,56 129.9,56 L135.5,56 C135.8,56 136.1,56.2 136.1,56.6 L136.1,94.6 C136.1,94.9 135.9,95.2 135.5,95.2 L130,95.2 C129.7,95.2 129.4,95 129.4,94.6 L129.4,78.8 C129.4,78.6 129.3,78.5 129.1,78.5 L114.2,78.5 C114,78.5 113.9,78.6 113.9,78.8 L113.9,94.6 C113.9,94.9 113.7,95.2 113.3,95.2 L107.7,95.2 C107.4,95.2 107.1,95 107.1,94.6 L107.1,56.6 L107,56.6 C107,56.3 107.2,56 107.6,56 L113.2,56 Z M159.4,56 C166.1,56 170.6,59 172.5,64.7 L172.538024,64.8278397 L172.538024,64.8278397 L172.612397,65.0853973 C173.137229,66.9440105 173.483969,69.1320931 173.499459,75.1722961 L173.5,75.6 C173.5,82.4 173.2,84.5 172.5,86.5 C170.7,92.2 166.2,95.2 159.4,95.2 L145.4,95.2 C145.1,95.2 144.8,95 144.8,94.6 L144.8,56.6 C144.8,56.3 145,56 145.4,56 L159.4,56 Z M157.8,62.3 L152,62.3 C151.8,62.3 151.7,62.4 151.7,62.6 L151.7,88.8 C151.6,88.9 151.7,89.1 152,89.1 L157.8,89.1 C162.1,89.1 164.8,87.7 165.9,84.2 L165.927115,84.1238789 L165.927115,84.1238789 L165.98036,83.964255 C166.330755,82.8643771 166.587235,81.0113061 166.599537,76.0759661 L166.6,75.7 C166.6,70 166.3,68.3 165.9,67.2 C164.8,63.7 162.1,62.3 157.8,62.3 Z" id="Combined-Shape" fill="#FFFFFF" fill-rule="nonzero"></path>
    </g>
</svg>