<?xml version="1.0" encoding="utf-8"?>
<!-- Generator: Adobe Illustrator 19.0.0, SVG Export Plug-In . SVG Version: 6.00 Build 0)  -->
<svg version="1.1" id="图层_1" xmlns="http://www.w3.org/2000/svg" xmlns:xlink="http://www.w3.org/1999/xlink" x="0px" y="0px"
	 viewBox="-95 97 96 96" style="enable-background:new -95 97 96 96;" xml:space="preserve">
<g id="ic_contacts_play-voicemail_m">
	<g id="ic_contacts_play_voicemail" transform="translate(16.000000, 8.000000)">
		<path id="Shape" d="M-31,136.7c0-2.9-1.2-5.6-3.3-7.5c-0.1-0.1-0.3-0.2-0.4-0.3c-0.3-0.3-0.8-0.6-1.2-0.9c0,0-0.1,0-0.1-0.1
			l-44.5-29.1c-0.1-0.1-0.3-0.2-0.4-0.3c-1.3-0.8-2.9-1.5-5-1.5c-5,0-9,4.1-9,9.1l0,0l0,0v61.6v0.1c0,5,4.1,9.1,9,9.1
			c1.9,0,3.6-0.6,5.2-1.7l45.5-30.1c0.1,0,0.1-0.1,0.2-0.2C-32.5,143-31,140-31,136.7z M-84.9,170.4c0,0-0.1,0-0.1,0.1
			c-0.5,0.3-0.9,0.5-1.5,0.5c-1.4,0-2.5-1.1-2.5-2.4v-0.1v-62.9v-0.1v-0.1c0-1.4,1.1-2.4,2.5-2.4c0.5,0,0.7,0.1,1.6,0.6l0,0
			l46.6,30.5c0.9,0.7,1.4,1.6,1.4,2.7c0,1.3-0.7,2.3-1.7,3c-0.1,0-0.1,0.1-0.2,0.1L-84.9,170.4z"/>
	</g>
</g>
</svg>
