<?xml version="1.0" encoding="utf-8"?>
<!-- Generator: Adobe Illustrator 19.0.0, SVG Export Plug-In . SVG Version: 6.00 Build 0)  -->
<svg version="1.0" id="图层_1" xmlns="http://www.w3.org/2000/svg" xmlns:xlink="http://www.w3.org/1999/xlink" x="0px" y="0px"
	 viewBox="0 0 96 96" style="enable-background:new 0 0 96 96;" xml:space="preserve">
<style type="text/css">
	.st0{fill:#040000;}
</style>
<path id="Combined-Shape" class="st0" d="M58,62h19c1.7,0,3,1.3,3,3s-1.3,3-3,3H58v18h25c1.7,0,3-1.3,3-3V41c0-1.8-1.2-3.4-2.9-3.8
	L58,30v20h19c1.7,0,3,1.3,3,3s-1.3,3-3,3H58V62z M58,22.8l28.3,8.5c3.4,1,5.7,4.1,5.7,7.7v45c0,4.4-3.6,8-8,8H58H12
	c-4.4,0-8-3.6-8-8V12c0-4.4,3.6-8,8-8h38c4.4,0,8,3.6,8,8V22.8z M13,10c-1.7,0-3,1.3-3,3v70c0,1.7,1.3,3,3,3h36c1.7,0,3-1.3,3-3V13
	c0-1.7-1.3-3-3-3H13z M19,22h24c1.7,0,3,1.3,3,3s-1.3,3-3,3H19c-1.7,0-3-1.3-3-3S17.3,22,19,22z M19,34h24c1.7,0,3,1.3,3,3
	s-1.3,3-3,3H19c-1.7,0-3-1.3-3-3S17.3,34,19,34z M19,46h24c1.7,0,3,1.3,3,3s-1.3,3-3,3H19c-1.7,0-3-1.3-3-3S17.3,46,19,46z"/>
<g id="XMLID_1_">
</g>
<g id="XMLID_2_">
</g>
<g id="XMLID_3_">
</g>
<g id="XMLID_4_">
</g>
<g id="XMLID_5_">
</g>
<g id="XMLID_6_">
</g>
</svg>
