<?xml version="1.0" encoding="utf-8"?>
<!-- Generator: Adobe Illustrator 19.0.0, SVG Export Plug-In . SVG Version: 6.00 Build 0)  -->
<svg version="1.1" id="图层_1" xmlns="http://www.w3.org/2000/svg" xmlns:xlink="http://www.w3.org/1999/xlink" x="0px" y="0px"
	 viewBox="0 0 96 96" style="enable-background:new 0 0 96 96;" xml:space="preserve">
<g id="ic_contacts_call-2-dial_m">
	<path id="_x32_" d="M79.5,43H56.6v-3.9L67.7,27c0.9-1,1.7-1.9,2.3-2.8s1.1-1.5,1.5-2.2s0.6-1.3,0.8-1.9s0.2-1.2,0.2-1.7
		c0-0.8-0.1-1.5-0.3-2.2s-0.6-1.2-1-1.7s-1-0.9-1.6-1.1S68.2,13,67.4,13c-1,0-1.8,0.2-2.6,0.5s-1.3,0.7-1.8,1.3s-0.8,1.2-1.1,2
		s-0.4,1.6-0.4,2.5h-5.7c0-1.5,0.3-2.9,0.8-4.2s1.3-2.5,2.2-3.5s2.2-1.8,3.6-2.3s3.1-0.9,4.9-0.9c1.7,0,3.2,0.2,4.5,0.7
		s2.4,1.1,3.4,1.9s1.6,1.8,2.1,3s0.7,2.5,0.7,3.9c0,1.1-0.2,2.1-0.5,3.2s-0.8,2.1-1.4,3.1s-1.3,2.1-2.2,3.1s-1.8,2.1-2.8,3.1
		l-7.6,8.2h15.8V43z"/>
	<g id="phonecall">
		<path id="path-1_1_" d="M18.3,46c-2.7-4.4-5.7-10.8-8.9-18.9c-2.2-5.6,0.3-12.4,5.2-15.9l2.3-1.6c0.1-0.1,0.3-0.2,0.4-0.3
			c3.2-1.9,7.3-0.9,9.2,2.3l10.6,17.5c1.3,2.2,1.3,5-0.1,7.1l-3.5,5.3c-1.7,2.7-1.3,5.3,0.9,8.4c1.4,2.1,3.1,4.1,5,6
			c1.9,1.9,4,3.8,6.6,5.5c2.5,1.9,5.8,2.6,8.4,0.9l5.3-3.5c2.2-1.4,4.9-1.4,7.1-0.1l17.5,10.6c3.2,1.9,4.2,6.1,2.3,9.2
			c-0.1,0.1-0.2,0.3-0.3,0.4l-1.6,2.3c-3.4,4.9-10.3,7.3-15.9,5.2c-8.2-3.2-14.5-6.2-18.9-8.9c-6-3.7-11.8-8.4-17.5-14.2
			C26.7,57.8,22,52,18.3,46z"/>
	</g>
</g>
</svg>
