<?xml version="1.0" encoding="UTF-8" standalone="no"?>
<svg
   xmlns:dc="http://purl.org/dc/elements/1.1/"
   xmlns:cc="http://creativecommons.org/ns#"
   xmlns:rdf="http://www.w3.org/1999/02/22-rdf-syntax-ns#"
   xmlns:svg="http://www.w3.org/2000/svg"
   xmlns="http://www.w3.org/2000/svg"
   xmlns:sodipodi="http://sodipodi.sourceforge.net/DTD/sodipodi-0.dtd"
   xmlns:inkscape="http://www.inkscape.org/namespaces/inkscape"
   inkscape:version="1.0 (4035a4fb49, 2020-05-01)"
   sodipodi:docname="ic_contacts_arrow_down.svg"
   id="svg6"
   version="1.1"
   preserveAspectRatio="xMidYMid meet"
   viewBox="0 0 200.000000 200.000000"
   height="60.000000px"
   width="60.000000px">
  <metadata
     id="metadata12">
    <rdf:RDF>
      <cc:Work
         rdf:about="">
        <dc:format>image/svg+xml</dc:format>
        <dc:type
           rdf:resource="http://purl.org/dc/dcmitype/StillImage" />
      </cc:Work>
    </rdf:RDF>
  </metadata>
  <defs
     id="defs10" />
  <sodipodi:namedview
     inkscape:current-layer="svg6"
     inkscape:window-maximized="1"
     inkscape:window-y="-8"
     inkscape:window-x="-8"
     inkscape:cy="30.290403"
     inkscape:cx="27.038386"
     inkscape:zoom="6.4572605"
     showgrid="false"
     id="namedview8"
     inkscape:window-height="1017"
     inkscape:window-width="1920"
     inkscape:pageshadow="2"
     inkscape:pageopacity="0"
     guidetolerance="10"
     gridtolerance="10"
     objecttolerance="10"
     borderopacity="1"
     bordercolor="#666666"
     pagecolor="#ffffff" />
  <g
     id="g4"
     stroke="none"
     fill="#808080"
     transform="matrix(0.10592324,0,0,-0.1179553,-4.5792179,219.50394)">
    <path
       id="path2"
       d="m 193,1445 c -30,-21 -39,-75 -20,-111 9,-16 188,-201 399,-411 375,-375 384,-383 423,-383 39,0 48,8 437,398 393,393 398,398 398,438 0,54 -31,84 -85,84 -38,0 -49,-10 -395,-355 L 995,750 640,1105 c -332,331 -358,355 -391,355 -19,0 -44,-7 -56,-15 z" />
  </g>
</svg>
