<?xml version="1.0" encoding="utf-8"?>
<!-- Generator: Adobe Illustrator 19.0.0, SVG Export Plug-In . SVG Version: 6.00 Build 0)  -->
<svg version="1.0" id="图层_1" xmlns="http://www.w3.org/2000/svg" xmlns:xlink="http://www.w3.org/1999/xlink" x="0px" y="0px"
	 viewBox="0 0 144 144" style="enable-background:new 0 0 144 144;" xml:space="preserve">
<style type="text/css">
	.st0{fill:#F5F5F5;}
	.st1{opacity:0.6;}
</style>
<circle id="bg" class="st0" cx="72" cy="72" r="72"/>
<path id="path-1_1_" class="st1" d="M86,50c0-7.7-6.3-14-14-14s-14,6.3-14,14s6.3,14,14,14S86,57.8,86,50z M92,50c0,11.1-9,20-20,20
	s-20-9-20-20s9-20,20-20S92,39,92,50z M102,111V98c0-9.9-8.1-18-18-18H60c-9.9,0-18,8.1-18,18v13h-6V98c0-13.3,10.7-24,24-24h24
	c13.3,0,24,10.7,24,24v13H102z M102,111V98c0-9.9-8.1-18-18-18H60c-9.9,0-18,8.1-18,18v13h-6V98c0-13.3,10.7-24,24-24h24
	c13.3,0,24,10.7,24,24v13H102z M39,114c-1.7,0-3-1.3-3-3s1.3-3,3-3s3,1.3,3,3S40.7,114,39,114z M105,114c-1.7,0-3-1.3-3-3s1.3-3,3-3
	s3,1.3,3,3S106.7,114,105,114z"/>
<g id="XMLID_1_">
</g>
<g id="XMLID_2_">
</g>
<g id="XMLID_3_">
</g>
<g id="XMLID_4_">
</g>
<g id="XMLID_5_">
</g>
<g id="XMLID_6_">
</g>
</svg>
