<?xml version="1.0" encoding="utf-8"?>
<!-- Generator: Adobe Illustrator 19.0.0, SVG Export Plug-In . SVG Version: 6.00 Build 0)  -->
<svg version="1.0" id="图层_1" xmlns="http://www.w3.org/2000/svg" xmlns:xlink="http://www.w3.org/1999/xlink" x="0px" y="0px"
	 viewBox="16 -16 96 96" style="enable-background:new 16 -16 96 96;" xml:space="preserve">
<g id="ic_x2F_camera_x2F_ic_x5F_camera_x5F_filled备份">
	<g id="合并形状">
		<path id="path-1_1_" d="M40.4,6l4.6-6.6C46.4-2.7,48.9-4,51.5-4h25c2.6,0,5.1,1.3,6.6,3.4L87.6,6H96c6.6,0,12,5.4,12,12v36
			c0,6.6-5.4,12-12,12H32c-6.6,0-12-5.4-12-12V18c0-6.6,5.4-12,12-12H40.4z M64,47c-7.2,0-13-5.8-13-13s5.8-13,13-13s13,5.8,13,13
			S71.2,47,64,47z M64,53c10.5,0,19-8.5,19-19s-8.5-19-19-19s-19,8.5-19,19S53.5,53,64,53z"/>
	</g>
</g>
</svg>
