<?xml version="1.0" encoding="utf-8"?>
<!-- Generator: Adobe Illustrator 19.0.0, SVG Export Plug-In . SVG Version: 6.00 Build 0)  -->
<svg version="1.1" id="图层_1" xmlns="http://www.w3.org/2000/svg" xmlns:xlink="http://www.w3.org/1999/xlink" x="0px" y="0px"
	 viewBox="-95 97 96 96" style="enable-background:new -95 97 96 96;" xml:space="preserve">
<style type="text/css">
	.st0{fill:none;stroke:#000000;stroke-width:6;stroke-linecap:round;stroke-linejoin:round;}
</style>
<g id="ic_contacts_Earpiece_m">
	<g id="Group-5" transform="translate(21.000000, 7.000000)">
		<path id="Stroke-1" class="st0" d="M-47.7,169.4c-1.2,2.4-5.9,9.6-14.1,9.6c-5.6,0-14.3-1.9-15.3-13.2c-0.7-8.7-3.2-11.4-7-16.2
			c-3.3-4.1-6.7-8.4-8.7-15.9c-1.5-5.6-1.7-11.4-0.6-16.2C-90,103-76.3,94.3-62.1,97.7c12.9,3.1,21.1,15,19.9,28.1"/>
		<path id="Fill-3" d="M-55.6,119.6c-3-6.5-10-10.8-18.6-7.2c-7.8,3.3-8.7,13-6.2,20.7c0.3,0.9,0.7,1.8,1.2,2.7
			c0.9,1.5,2.7,2.1,4.2,1.4c1.5-0.7,1.9-2.4,1.3-3.9l-1.2-2.7c-1.3-3.8-1.2-10.6,3.2-12.7c5.2-2.3,9,0.8,10.7,4.3l0.8,1.8
			c0.7,1.5,2.6,2.4,4.1,1.6s2-2.6,1.3-4.1L-55.6,119.6z"/>
	</g>
</g>
</svg>
