<?xml version="1.0" encoding="utf-8"?>
<!-- Generator: Adobe Illustrator 19.0.0, SVG Export Plug-In . SVG Version: 6.00 Build 0)  -->
<svg version="1.0" id="图层_1" xmlns="http://www.w3.org/2000/svg" xmlns:xlink="http://www.w3.org/1999/xlink" x="0px" y="0px"
	 viewBox="0 0 96 96" style="enable-background:new 0 0 96 96;" xml:space="preserve">
<title>ic_contacts_edit</title>
<desc>Created with Sketch.</desc>
<g id="ic_contacts_edit">
	<g id="合并形状">
		<path id="path-1_1_" d="M69.4,31.1l-4.5-4.5L14.6,76.9c-0.4,0.4-0.6,0.9-0.6,1.4V82h3.7c0.5,0,1-0.2,1.4-0.6L69.4,31.1z
			 M73.6,26.9l4.9-4.9L74,17.5l-4.9,4.9L73.6,26.9z M8,78.3c0-2.1,0.8-4.2,2.3-5.7l60.8-60.8c1.6-1.6,4.1-1.6,5.7,0l7.3,7.3
			c1.6,1.6,1.6,4.1,0,5.7L23.3,85.7c-1.5,1.5-3.5,2.3-5.7,2.3H12c-2.2,0-4-1.8-4-4V78.3z M46.4,88c-1.7,0-3-1.3-3-3s1.3-3,3-3h40
			c1.7,0,3,1.3,3,3s-1.3,3-3,3H46.4z"/>
	</g>
</g>
</svg>
