<?xml version="1.0" encoding="utf-8"?>
<!-- Generator: Adobe Illustrator 19.0.0, SVG Export Plug-In . SVG Version: 6.00 Build 0)  -->
<svg version="1.1" id="图层_1" xmlns="http://www.w3.org/2000/svg" xmlns:xlink="http://www.w3.org/1999/xlink" x="0px" y="0px"
	 viewBox="-119 121 48 48" style="enable-background:new -119 121 48 48;" xml:space="preserve">
<g id="ic_contacts_HD_mini">
	<path id="Shape" d="M-111,123h32c3.3,0,6,2.7,6,6v32c0,3.3-2.7,6-6,6h-32c-3.3,0-6-2.7-6-6v-32C-117,125.7-114.3,123-111,123z
		 M-96.7,154.1v-18h0.1c0.2,0-0.1-0.2-0.1,0h-3.4c-0.2,0-0.7-0.2-0.7,0v7h-5.8c-0.1,0-0.2,0.1-0.2,0v-7c0-0.2-0.1,0-0.3,0h-3.6
		c-0.2,0-0.3-0.2-0.3,0v18c0,0.2,0.1,0,0.3,0h3.5c0.2,0,0.3,0.2,0.3,0V147c0-0.2,0.1,0.1,0.2,0.1h5.9v7c0,0.2,0.5,0,0.7,0H-96.7
		c0,0.2,0.3,0,0.1,0H-96.7z M-78.7,150.1c0.3-1.1,0.5-2,0.5-5c0-3.1-0.2-4-0.5-5c-0.9-2.7-3.3-4-6.6-4h-7.1c-0.2,0-0.2-0.2-0.2,0v18
		c0,0.2,0,0,0.2,0h7.1C-82,154.1-79.7,152.9-78.7,150.1z M-86.2,139.1c1.9,0,3.1,0.7,3.5,2.3c0.2,0.5,0.3,1.4,0.3,3.8
		s-0.1,3.3-0.3,3.8c-0.4,1.5-1.5,2.2-3.5,2.2h-2.2c-0.1,0-0.1-0.4-0.1-0.5v-11.1c0-0.1,0-0.5,0.1-0.5H-86.2z"/>
</g>
</svg>
