<?xml version="1.0" encoding="utf-8"?>
<!-- Generator: Adobe Illustrator 19.0.0, SVG Export Plug-In . SVG Version: 6.00 Build 0)  -->
<svg version="1.1" id="图层_1" xmlns="http://www.w3.org/2000/svg" xmlns:xlink="http://www.w3.org/1999/xlink" x="0px" y="0px"
	 viewBox="0 0 96 96" style="enable-background:new 0 0 96 96;" xml:space="preserve">
<g id="ic_contacts_call-1-dial_m">
	<polygon id="_x31_" points="72,43 66.3,43 66.3,15.6 57.9,18.5 57.9,13.7 71.2,8.8 72,8.8 	"/>
	<g id="phonecall">
		<path id="path-1_1_" d="M18.3,46c-2.7-4.4-5.7-10.8-8.9-18.9c-2.2-5.6,0.3-12.4,5.2-15.9l2.3-1.6c0.1-0.1,0.3-0.2,0.4-0.3
			c3.2-1.9,7.3-0.9,9.2,2.3l10.6,17.5c1.3,2.2,1.3,5-0.1,7.1l-3.5,5.3c-1.7,2.7-1.3,5.3,0.9,8.4c1.4,2.1,3.1,4.1,5,6
			c1.9,1.9,4,3.8,6.6,5.5c2.5,1.9,5.8,2.6,8.4,0.9l5.3-3.5c2.2-1.4,4.9-1.4,7.1-0.1l17.5,10.6c3.2,1.9,4.2,6.1,2.3,9.2
			c-0.1,0.1-0.2,0.3-0.3,0.4l-1.6,2.3c-3.4,4.9-10.3,7.3-15.9,5.2c-8.2-3.2-14.5-6.2-18.9-8.9c-6-3.7-11.8-8.4-17.5-14.2
			C26.7,57.8,22,52,18.3,46z"/>
	</g>
</g>
</svg>
