<?xml version="1.0" encoding="utf-8"?>
<!-- Generator: Adobe Illustrator 19.0.0, SVG Export Plug-In . SVG Version: 6.00 Build 0)  -->
<svg version="1.1" id="图层_1" xmlns="http://www.w3.org/2000/svg" xmlns:xlink="http://www.w3.org/1999/xlink" x="0px" y="0px"
	 viewBox="-111 113 64 64" style="enable-background:new -111 113 64 64;" xml:space="preserve">
<g id="ic_contacts_voicemail_s">
	<path id="Combined-Shape" d="M-71.3,155c-2.3-2.3-3.7-5.5-3.7-9c0-7.2,5.8-13,13-13c7.2,0,13,5.8,13,13s-5.8,13-13,13
		c-0.1,0-0.2,0-0.2,0v0h-32.5v-0.1c-0.4,0-0.8,0.1-1.2,0.1c-7.2,0-13-5.8-13-13s5.8-13,13-13c7.2,0,13,5.8,13,13
		c0,3.5-1.4,6.7-3.7,9H-71.3z M-62,137c-5,0-9,4-9,9s4,9,9,9s9-4,9-9S-57,137-62,137z M-96,137c-5,0-9,4-9,9s4,9,9,9s9-4,9-9
		S-91,137-96,137z"/>
</g>
</svg>
