<?xml version="1.0" standalone="no"?>
<svg xmlns="http://www.w3.org/2000/svg"
 width="60px" height="60px" viewBox="0 0 512.000000 512.000000"
 preserveAspectRatio="xMidYMid meet">

<g transform="translate(0.000000,512.000000) scale(0.100000,-0.100000)"
fill="#000000" stroke="none">
<path d="M800 3680 l0 -800 800 0 800 0 0 800 0 800 -800 0 -800 0 0 -800z
m1280 0 l0 -480 -480 0 -480 0 0 480 0 480 480 0 480 0 0 -480z"/>
<path d="M1440 3680 l0 -160 160 0 160 0 0 160 0 160 -160 0 -160 0 0 -160z"/>
<path d="M2720 3680 l0 -800 800 0 800 0 0 800 0 800 -800 0 -800 0 0 -800z
m1280 0 l0 -480 -480 0 -480 0 0 480 0 480 480 0 480 0 0 -480z"/>
<path d="M3360 3680 l0 -160 160 0 160 0 0 160 0 160 -160 0 -160 0 0 -160z"/>
<path d="M800 1760 l0 -800 800 0 800 0 0 800 0 800 -800 0 -800 0 0 -800z
m1280 0 l0 -480 -480 0 -480 0 0 480 0 480 480 0 480 0 0 -480z"/>
<path d="M1440 1760 l0 -160 160 0 160 0 0 160 0 160 -160 0 -160 0 0 -160z"/>
<path d="M2720 1760 l0 -800 160 0 160 0 0 480 0 480 160 0 160 0 0 -160 0
-160 480 0 480 0 0 480 0 480 -160 0 -160 0 0 -160 0 -160 -160 0 -160 0 0
160 0 160 -480 0 -480 0 0 -800z"/>
<path d="M3360 1120 l0 -160 160 0 160 0 0 160 0 160 -160 0 -160 0 0 -160z"/>
<path d="M4000 1120 l0 -160 160 0 160 0 0 160 0 160 -160 0 -160 0 0 -160z"/>
</g>
</svg>
