<?xml version="1.0" encoding="utf-8"?>
<!-- Generator: Adobe Illustrator 19.0.0, SVG Export Plug-In . SVG Version: 6.00 Build 0)  -->
<svg version="1.1" id="图层_1" xmlns="http://www.w3.org/2000/svg" xmlns:xlink="http://www.w3.org/1999/xlink" x="0px" y="0px"
	 viewBox="0 0 288 288" style="enable-background:new 0 0 288 288;" xml:space="preserve">
<g id="ic_contacts_empty_calllog">
	<g id="ic_x2F_phonecall_x2F_ic_x5F_phonecall">
		<g id="分组">
			<g id="phonecall" transform="translate(144.000000, 143.999297) rotate(45.000000) translate(-144.000000, -143.999297) ">
				<path id="path-1_1_" d="M169.5,167.4c-9.5,1.6-18.5,2.4-26.9,2.3s-16.4-0.8-24.4-2.3c-15.3-2.8-25.2-10.3-28.4-24l-3.9-13.8
					l-0.1-0.6c-0.6-2.8-2.8-5-5.5-5.7L22.7,109c-4-1-8.1,1.4-9.1,5.5c0,0.1-0.1,0.4-0.1,0.5l-1.4,7.9c-2.2,12.1,4.5,25.5,14.8,30
					c22.7,10,41,16.5,54.9,19.9c18.7,4.4,39.4,6.6,62.2,6.4c22.5,0.1,43.2-2.1,61.9-6.5c13.9-3.3,32.2-9.9,54.9-19.9
					c10.3-4.5,17-17.7,14.8-30l-1.4-7.9c0-0.1-0.1-0.4-0.1-0.5c-1-4-5-6.4-9.1-5.5l-57.6,14.2c-2.8,0.7-4.9,2.9-5.5,5.7l-0.1,0.6
					l-3.9,13.9C195,156.7,183.6,165.3,169.5,167.4z M19.7,169.4c-18.2-8-28.9-29.5-25.4-49.6l1.4-7.9c0.1-0.6,0.2-1.2,0.4-1.8
					c3.3-13.6,17.2-22,30.8-18.7l57.6,14.3c9.4,2.3,16.8,9.8,18.8,19.4l3.9,13.8c1.3,6.1,5.2,9.1,14.3,10.7
					c6.9,1.2,14.1,1.9,21.4,2.1c7.3,0.1,15.2-0.5,23.8-2.1c7.6-1.1,12.8-5,14-10.7l3.9-13.8c2.1-9.5,9.3-17.1,18.8-19.4l57.6-14.2
					c13.6-3.3,27.4,4.9,30.8,18.7c0.1,0.6,0.3,1.1,0.4,1.8l1.4,7.9c3.5,20-7.2,41.6-25.4,49.6c-23.5,10.4-42.9,17.3-58,20.9
					c-20.2,4.8-42.4,7.1-66.2,6.9c-23.9,0.1-46-2.2-66.3-7C62.6,186.6,43.3,179.7,19.7,169.4z" fill="gray"/>
			</g>
		</g>
	</g>
</g>
</svg>
