<?xml version="1.0" encoding="utf-8"?>
<!-- Generator: Adobe Illustrator 19.0.0, SVG Export Plug-In . SVG Version: 6.00 Build 0)  -->
<svg version="1.0" id="图层_1" xmlns="http://www.w3.org/2000/svg" xmlns:xlink="http://www.w3.org/1999/xlink" x="0px" y="0px"
	 viewBox="0 0 96 96" style="enable-background:new 0 0 96 96;" xml:space="preserve">
<path id="path-1_1_" d="M85.7,22.3L55.8,52.2c0,0,0,0-0.1,0.1c-4.3,4.3-11.3,4.2-15.6-0.1L10.3,21.9c-0.3,0.7-0.4,1.5-0.4,2.3v48
	c0,3.3,2.7,6,6,6h64c3.3,0,6-2.7,6-6v-48C86,23.4,85.9,22.8,85.7,22.3z M81.4,18.2C81,18.1,80.5,18,80,18H16c-0.3,0-0.5,0-0.8,0
	l29.2,29.8c1.9,2,5.1,2,7.1,0.1l0,0L81.4,18.2z M16,84C9.4,84,4,78.6,4,72V24c0-6.6,5.4-12,12-12h64c6.6,0,12,5.4,12,12v48
	c0,6.6-5.4,12-12,12H16z"/>
</svg>
