<?xml version="1.0" encoding="UTF-8"?>
<svg width="120px" height="120px" viewBox="0 0 224 224" version="1.1" xmlns="http://www.w3.org/2000/svg" xmlns:xlink="http://www.w3.org/1999/xlink">
    <title>ic_contacts_call dial_60</title>
    <defs>
        <path d="M69.7448159,109.330955 C65.8574664,103.024132 61.6529052,94.0777352 57.1311186,82.4917715 C54.0503211,74.5979594 57.5165457,64.8662519 64.4522175,59.9979833 L67.6773673,57.7341946 C67.8562375,57.6086425 68.039366,57.4892693 68.2264291,57.376286 C72.7395899,54.6504047 78.607993,56.099281 81.3338743,60.6124418 L96.3535034,85.479996 C98.2412793,88.6055306 98.1808927,92.534079 96.1979446,95.6001157 L91.2975236,103.177153 C88.853276,106.956451 89.46824,110.623371 92.56325,115.112143 C94.6174777,118.053937 96.9575231,120.878444 99.5833862,123.585665 C102.209249,126.292886 105.31074,128.909914 108.887857,131.43675 C112.489069,134.153667 117.043549,135.146724 120.822847,132.702476 L128.399884,127.802055 C131.465921,125.819107 135.394469,125.758721 138.520004,127.646497 L163.387558,142.666126 C167.900719,145.392007 169.349595,151.26041 166.623714,155.773571 C166.510731,155.960634 166.391357,156.143763 166.265805,156.322633 L164.002017,159.547782 C159.133748,166.483454 149.402041,169.949679 141.508228,166.868881 C129.922265,162.347095 120.975868,158.142534 114.669045,154.255184 C106.202344,149.036547 97.9281067,142.336041 89.8463326,134.153667 C81.6639586,126.071893 74.963453,117.797656 69.7448159,109.330955 Z" id="path-1"></path>
    </defs>
    <g id="ic_contacts_call-dial_60" stroke="none" stroke-width="1" fill="none" fill-rule="evenodd">
        <g id="btn_contacts_call_dial" fill="#3aa73a">
            <circle id="Oval" cx="112" cy="112" r="112"></circle>
        </g>
        <mask id="mask-2" fill="white">
            <use xlink:href="#path-1"></use>
        </mask>
        <use id="phonecall" fill="#FFFFFF" xlink:href="#path-1"></use>
    </g>
</svg>