<?xml version="1.0" encoding="UTF-8"?>
<svg width="45px" height="45px" viewBox="0 0 24 24" version="1.1" xmlns="http://www.w3.org/2000/svg" xmlns:xlink="http://www.w3.org/1999/xlink">
    <title>Edit Relationship</title>
    <g id="Edit-Relationship" stroke="none" stroke-width="1" fill="none" fill-rule="evenodd">
        <rect id="Rectangle" fill="#000000" fill-rule="nonzero" x="5.75" y="13.75" width="1.5" height="7.25" rx="0.75"></rect>
        <rect id="Rectangle" fill="#000000" fill-rule="nonzero" x="5.75" y="19.5" width="6.25" height="1.5" rx="0.75"></rect>
        <g id="me" transform="translate(13.000000, 11.250000)" fill="#000000" fill-rule="nonzero">
            <path d="M6,5.5 C7.65685425,5.5 9,6.84314575 9,8.5 L9,9.999 L7.5,9.999 L7.5,8.5 C7.5,7.72030388 6.90511192,7.07955132 6.14446001,7.00686658 L6,7 L3,7 C2.17157288,7 1.5,7.67157288 1.5,8.5 L1.5,8.5 L1.5,9.999 L0,9.999 L0,8.5 C-2.02906125e-16,6.84314575 1.34314575,5.5 3,5.5 L6,5.5 Z M4.50007303,0 C5.88075833,0 7,1.12043664 7,2.50259605 C7,3.88475547 5.88075833,5.00519211 4.50007303,5.00519211 C3.11924167,5.00519211 2,3.88475547 2,2.50259605 C2,1.12043664 3.11924167,0 4.50007303,0 Z M4.50004173,1.50519211 C3.94780017,1.50519211 3.5,1.9527883 3.5,2.50519211 C3.5,3.05759592 3.94780017,3.50519211 4.50004173,3.50519211 C5.05220886,3.50519211 5.5,3.05758688 5.5,2.50519211 C5.5,1.95279733 5.05220886,1.50519211 4.50004173,1.50519211 Z" id="Combined-Shape"></path>
            <path d="M0.75,9.25 C1.16421356,9.25 1.5,9.58578644 1.5,10 C1.5,10.4142136 1.16421356,10.75 0.75,10.75 C0.335786438,10.75 0,10.4142136 0,10 C0,9.58578644 0.335786438,9.25 0.75,9.25 Z M8.25,9.25 C8.66421356,9.25 9,9.58578644 9,10 C9,10.4142136 8.66421356,10.75 8.25,10.75 C7.83578644,10.75 7.5,10.4142136 7.5,10 C7.5,9.58578644 7.83578644,9.25 8.25,9.25 Z" id="Oval-8"></path>
        </g>
        <g id="me-copy" transform="translate(2.000000, 2.000000)" fill="#000000" fill-rule="nonzero">
            <path d="M6,5.5 C7.65685425,5.5 9,6.84314575 9,8.5 L9,9.999 L7.5,9.999 L7.5,8.5 C7.5,7.72030388 6.90511192,7.07955132 6.14446001,7.00686658 L6,7 L3,7 C2.17157288,7 1.5,7.67157288 1.5,8.5 L1.5,8.5 L1.5,9.999 L0,9.999 L0,8.5 C-2.02906125e-16,6.84314575 1.34314575,5.5 3,5.5 L6,5.5 Z M4.50007303,0 C5.88075833,0 7,1.12043664 7,2.50259605 C7,3.88475547 5.88075833,5.00519211 4.50007303,5.00519211 C3.11924167,5.00519211 2,3.88475547 2,2.50259605 C2,1.12043664 3.11924167,0 4.50007303,0 Z M4.50004173,1.50519211 C3.94780017,1.50519211 3.5,1.9527883 3.5,2.50519211 C3.5,3.05759592 3.94780017,3.50519211 4.50004173,3.50519211 C5.05220886,3.50519211 5.5,3.05758688 5.5,2.50519211 C5.5,1.95279733 5.05220886,1.50519211 4.50004173,1.50519211 Z" id="Combined-Shape"></path>
            <path d="M0.75,9.25 C1.16421356,9.25 1.5,9.58578644 1.5,10 C1.5,10.4142136 1.16421356,10.75 0.75,10.75 C0.335786438,10.75 0,10.4142136 0,10 C0,9.58578644 0.335786438,9.25 0.75,9.25 Z M8.25,9.25 C8.66421356,9.25 9,9.58578644 9,10 C9,10.4142136 8.66421356,10.75 8.25,10.75 C7.83578644,10.75 7.5,10.4142136 7.5,10 C7.5,9.58578644 7.83578644,9.25 8.25,9.25 Z" id="Oval-8"></path>
        </g>
    </g>
</svg>