<?xml version="1.0" encoding="UTF-8"?>
<svg width="55px" height="55px" viewBox="0 0 96 96" version="1.1" xmlns="http://www.w3.org/2000/svg" xmlns:xlink="http://www.w3.org/1999/xlink">
    <title>ic_contacts_dial call_2_m备份 2</title>
    <g id="ic_contacts_dial-call_2_m备份-2" stroke="none" stroke-width="1" fill="none" fill-rule="evenodd">
        <g id="分组" transform="translate(47.500000, 47.500000) scale(-1, 1) translate(-47.500000, -47.500000) translate(21.000000, 21.000000)" fill="#FFFFFF">
            <path d="M6.50424326,25.23697 C4.66469392,22.2524908 2.67503552,18.0189282 0.535261491,12.5362847 C-0.922615909,8.80082007 0.717651084,4.19563707 3.99971008,1.89190281 L5.52589703,0.820645657 C5.61054095,0.76123262 5.69719997,0.704743515 5.78572093,0.651278185 C7.92141309,-0.638647784 10.6984253,0.0469811776 11.9883512,2.18267333 L19.0958543,13.9503553 C19.9891768,15.4294029 19.960601,17.2884481 19.0222416,18.7393405 L16.7032924,22.3249026 C15.5466395,24.1133207 15.8376493,25.8485595 17.3022522,27.9727105 C18.2743421,29.3648092 19.3816851,30.7014064 20.624281,31.9825022 C21.8668769,33.2635979 23.3345464,34.5020131 25.0272895,35.6977478 C26.7314345,36.9834319 28.8866793,37.4533605 30.6750974,36.2967076 L34.2606595,33.9777584 C35.7115519,33.039399 37.5705971,33.0108232 39.0496447,33.9041457 L50.8173267,41.0116488 C52.9530188,42.3015747 53.6386478,45.0785869 52.3487218,47.2142791 C52.2952565,47.3028 52.2387674,47.3894591 52.1793543,47.474103 L51.1080972,49.0002899 C48.8043629,52.2823489 44.1991799,53.9226159 40.4637153,52.4647385 C34.9810718,50.3249645 30.7475092,48.3353061 27.76303,46.4957567 C23.7564664,44.0262231 19.8409791,40.8554482 16.0165681,36.9834319 C12.1445518,33.1590209 8.97377687,29.2435336 6.50424326,25.23697 Z" id="phonecall"></path>
            <path d="M33.72,20.408 L41.176,12.248 C42.2640054,11.0533274 43.037331,10.0506707 43.496,9.24 C43.954669,8.42932928 44.184,7.61867072 44.184,6.808 C44.184,5.741328 43.8853363,4.87733664 43.288,4.216 C42.6906637,3.55466336 41.8800051,3.224 40.856,3.224 C39.6399939,3.224 38.6960034,3.5973296 38.024,4.344 C37.3519966,5.0906704 37.016,6.1039936 37.016,7.384 L33.272,7.384 C33.272,6.01865984 33.5813302,4.78667216 34.2,3.688 C34.8186698,2.58932784 35.7093275,1.73600304 36.872,1.128 C38.0346725,0.51999696 39.3733258,0.216 40.888,0.216 C43.0640109,0.216 44.781327,0.76532784 46.04,1.864 C47.298673,2.96267216 47.928,4.48265696 47.928,6.424 C47.928,7.53333888 47.6133365,8.7013272 46.984,9.928 C46.3546635,11.1546728 45.3146739,12.5573254 43.864,14.136 L38.392,19.992 L48.824,19.992 L48.824,23 L33.72,23 L33.72,20.408 Z" id="2" fill-rule="nonzero" transform="translate(41.048000, 11.608000) scale(-1, 1) translate(-41.048000, -11.608000) "></path>
        </g>
    </g>
</svg>