<?xml version="1.0" encoding="UTF-8" standalone="no"?>
<svg
   xmlns:dc="http://purl.org/dc/elements/1.1/"
   xmlns:cc="http://creativecommons.org/ns#"
   xmlns:rdf="http://www.w3.org/1999/02/22-rdf-syntax-ns#"
   xmlns:svg="http://www.w3.org/2000/svg"
   xmlns="http://www.w3.org/2000/svg"
   xmlns:sodipodi="http://sodipodi.sourceforge.net/DTD/sodipodi-0.dtd"
   xmlns:inkscape="http://www.inkscape.org/namespaces/inkscape"
   version="1.0"
   id="图层_1"
   x="0px"
   y="0px"
   viewBox="0 0 144 144"
   style="enable-background:new 0 0 144 144;"
   xml:space="preserve"
   sodipodi:docname="ic_contacts_favorite_me_36.svg"
   inkscape:version="1.0 (4035a4fb49, 2020-05-01)"><metadata
   id="metadata17"><rdf:RDF><cc:Work
       rdf:about=""><dc:format>image/svg+xml</dc:format><dc:type
         rdf:resource="http://purl.org/dc/dcmitype/StillImage" /><dc:title /></cc:Work></rdf:RDF></metadata><defs
   id="defs15" /><sodipodi:namedview
   inkscape:document-rotation="0"
   pagecolor="#ffffff"
   bordercolor="#666666"
   borderopacity="1"
   objecttolerance="10"
   gridtolerance="10"
   guidetolerance="10"
   inkscape:pageopacity="0"
   inkscape:pageshadow="2"
   inkscape:window-width="1920"
   inkscape:window-height="1017"
   id="namedview13"
   showgrid="false"
   inkscape:zoom="5.8958333"
   inkscape:cx="72"
   inkscape:cy="72"
   inkscape:window-x="-8"
   inkscape:window-y="-8"
   inkscape:window-maximized="1"
   inkscape:current-layer="图层_1" />
<style
   type="text/css"
   id="style2">
	.st0{fill:#F5F5F5;}
	.st1{opacity:0.6;}
</style>
<circle
   id="bg"
   class="st0"
   cx="72"
   cy="72"
   r="72"
   style="fill:#000000;fill-opacity:0" />
<path
   style="fill:#999999"
   id="path-1_1_"
   class="st1"
   d="M86,50c0-7.7-6.3-14-14-14s-14,6.3-14,14s6.3,14,14,14S86,57.8,86,50z M92,50c0,11.1-9,20-20,20  s-20-9-20-20s9-20,20-20S92,39,92,50z M102,111V98c0-9.9-8.1-18-18-18H60c-9.9,0-18,8.1-18,18v13h-6V98c0-13.3,10.7-24,24-24h24  c13.3,0,24,10.7,24,24v13H102z M102,111V98c0-9.9-8.1-18-18-18H60c-9.9,0-18,8.1-18,18v13h-6V98c0-13.3,10.7-24,24-24h24  c13.3,0,24,10.7,24,24v13H102z M39,114c-1.7,0-3-1.3-3-3s1.3-3,3-3s3,1.3,3,3S40.7,114,39,114z M105,114c-1.7,0-3-1.3-3-3s1.3-3,3-3  s3,1.3,3,3S106.7,114,105,114z" />
<g
   id="XMLID_1_">
</g>
<g
   id="XMLID_2_">
</g>
<g
   id="XMLID_3_">
</g>
<g
   id="XMLID_4_">
</g>
<g
   id="XMLID_5_">
</g>
<g
   id="XMLID_6_">
</g>
</svg>
