<?xml version="1.0" encoding="utf-8"?>
<!-- Generator: Adobe Illustrator 19.0.0, SVG Export Plug-In . SVG Version: 6.00 Build 0)  -->
<svg version="1.1" id="图层_1" xmlns="http://www.w3.org/2000/svg" xmlns:xlink="http://www.w3.org/1999/xlink" x="0px" y="0px"
	 viewBox="0 0 288 288" style="enable-background:new 0 0 288 288;" xml:space="preserve">
<g id="ic_contacts_empty_contact">
	<g id="ic_x2F_me_x2F_ic_x5F_me">
		<g id="Combined-Shape">
			<path id="path-1_1_" d="M186,72.1c0-23.2-18.8-42.1-42-42.1c-23.2,0-42,18.8-42,42.1s18.8,42.1,42,42.1
				C167.2,114.1,186,95.3,186,72.1z M204,72.1c0,33.2-26.9,60.1-60,60.1c-33.1,0-60-26.9-60-60.1S110.9,12,144,12
				C177.1,12,204,38.9,204,72.1z M234,255v-39c0-29.8-24.2-54-54-54h-72c-29.8,0-54,24.2-54,54v39H36v-39c0-39.8,32.2-72,72-72h72
				c39.8,0,72,32.2,72,72v39H234z M234,255v-39c0-29.8-24.2-54-54-54h-72c-29.8,0-54,24.2-54,54v39H36v-39c0-39.8,32.2-72,72-72h72
				c39.8,0,72,32.2,72,72v39H234z M45,264c-5,0-9-4-9-9c0-5,4-9,9-9s9,4,9,9C54,260,50,264,45,264z M243,264c-5,0-9-4-9-9
				c0-5,4-9,9-9s9,4,9,9C252,260,248,264,243,264z" fill="#cacaca"/>
		</g>
	</g>
</g>
</svg>
