<?xml version="1.0" encoding="UTF-8"?>
<svg width="55px" height="55px" viewBox="0 0 96 96" version="1.1" xmlns="http://www.w3.org/2000/svg" xmlns:xlink="http://www.w3.org/1999/xlink">
    <title>ic_contacts_dial call_HD_2_m备份 2</title>
    <defs>
        <path d="M6.50424326,25.23697 C4.66469392,22.2524908 2.67503552,18.0189282 0.535261491,12.5362847 C-0.922615909,8.80082007 0.717651084,4.19563707 3.99971008,1.89190281 L5.52589703,0.820645657 C5.61054095,0.76123262 5.69719997,0.704743515 5.78572093,0.651278185 C7.92141309,-0.638647784 10.6984253,0.0469811776 11.9883512,2.18267333 L19.0958543,13.9503553 C19.9891768,15.4294029 19.960601,17.2884481 19.0222416,18.7393405 L16.7032924,22.3249026 C15.5466395,24.1133207 15.8376493,25.8485595 17.3022522,27.9727105 C18.2743421,29.3648092 19.3816851,30.7014064 20.624281,31.9825022 C21.8668769,33.2635979 23.3345464,34.5020131 25.0272895,35.6977478 C26.7314345,36.9834319 28.8866793,37.4533605 30.6750974,36.2967076 L34.2606595,33.9777584 C35.7115519,33.039399 37.5705971,33.0108232 39.0496447,33.9041457 L50.8173267,41.0116488 C52.9530188,42.3015747 53.6386478,45.0785869 52.3487218,47.2142791 C52.2952565,47.3028 52.2387674,47.3894591 52.1793543,47.474103 L51.1080972,49.0002899 C48.8043629,52.2823489 44.1991799,53.9226159 40.4637153,52.4647385 C34.9810718,50.3249645 30.7475092,48.3353061 27.76303,46.4957567 C23.7564664,44.0262231 19.8409791,40.8554482 16.0165681,36.9834319 C12.1445518,33.1590209 8.97377687,29.2435336 6.50424326,25.23697 Z" id="path-1"></path>
    </defs>
    <g id="ic_contacts_dial-call_HD_2_m备份-2" stroke="none" stroke-width="1" fill="none" fill-rule="evenodd">
        <g id="编组" transform="translate(47.500000, 36.500000) scale(-1, 1) translate(-47.500000, -36.500000) translate(21.000000, 10.000000)">
            <g id="分组">
                <mask id="mask-2" fill="white">
                    <use xlink:href="#path-1"></use>
                </mask>
                <use id="phonecall" fill="#FFFFFF" xlink:href="#path-1"></use>
            </g>
            <path d="M33.72,21.192 L41.176,13.032 C42.2640054,11.8373274 43.037331,10.8346707 43.496,10.024 C43.954669,9.21332928 44.184,8.40267072 44.184,7.592 C44.184,6.525328 43.8853363,5.66133664 43.288,5 C42.6906637,4.33866336 41.8800051,4.008 40.856,4.008 C39.6399939,4.008 38.6960034,4.3813296 38.024,5.128 C37.3519966,5.8746704 37.016,6.8879936 37.016,8.168 L33.272,8.168 C33.272,6.80265984 33.5813302,5.57067216 34.2,4.472 C34.8186698,3.37332784 35.7093275,2.52000304 36.872,1.912 C38.0346725,1.30399696 39.3733258,1 40.888,1 C43.0640109,1 44.781327,1.54932784 46.04,2.648 C47.298673,3.74667216 47.928,5.26665696 47.928,7.208 C47.928,8.31733888 47.6133365,9.4853272 46.984,10.712 C46.3546635,11.9386728 45.3146739,13.3413254 43.864,14.92 L38.392,20.776 L48.824,20.776 L48.824,23.784 L33.72,23.784 L33.72,21.192 Z" id="2备份" fill="#FFFFFF" fill-rule="nonzero" transform="translate(41.048000, 12.392000) scale(-1, 1) translate(-41.048000, -12.392000) "></path>
        </g>
        <g id="Group备份" transform="translate(31.000000, 67.000000)" fill="#FFFFFF">
            <path d="M0.5,0.8 C0.5,0.6 0.6,0.5 0.8,0.5 L3.5,0.5 C3.7,0.5 3.8,0.6 3.8,0.8 L3.8,8.2 C3.8,8.3 3.9,8.4 4,8.4 L11.2,8.4 C11.3,8.4 11.4,8.3 11.4,8.2 L11.4,0.8 C11.4,0.6 11.5,0.5 11.7,0.5 L14.4,0.5 C14.6,0.5 14.7,0.6 14.7,0.8 L14.7,19.1 C14.7,19.3 14.6,19.4 14.4,19.4 L11.7,19.4 C11.5,19.4 11.4,19.3 11.4,19.1 L11.4,11.5 C11.4,11.4 11.3,11.3 11.2,11.3 L4,11.3 C3.9,11.3 3.8,11.4 3.8,11.5 L3.8,19.1 C3.8,19.3 3.7,19.4 3.5,19.4 L0.8,19.4 C0.6,19.4 0.5,19.3 0.5,19.1 L0.5,0.8 Z" id="Path"></path>
            <path d="M18.8,0.8 C18.8,0.6 18.9,0.5 19.1,0.5 L25.9,0.5 C29.2,0.5 31.3,1.9 32.2,4.7 C32.5,5.6 32.7,6.7 32.7,10 C32.7,13.3 32.5,14.3 32.2,15.3 C31.3,18.1 29.1,19.5 25.9,19.5 L19.1,19.5 C18.9,19.5 18.8,19.4 18.8,19.2 L18.8,0.8 Z M22.3,16.5 L25.1,16.5 C27.2,16.5 28.5,15.8 29,14.1 C29.2,13.6 29.3,12.7 29.3,10 C29.3,7.2 29.2,6.4 29,5.9 C28.4,4.2 27.2,3.5 25.1,3.5 L22.3,3.5 C22.2,3.5 22.1,3.6 22.1,3.7 L22.1,16.4 C22.1,16.4 22.1,16.5 22.3,16.5 Z" id="Shape" fill-rule="nonzero"></path>
        </g>
    </g>
</svg>