<?xml version="1.0" encoding="utf-8"?>
<!-- Generator: Adobe Illustrator 19.0.0, SVG Export Plug-In . SVG Version: 6.00 Build 0)  -->
<svg version="1.1" id="图层_1" xmlns="http://www.w3.org/2000/svg" xmlns:xlink="http://www.w3.org/1999/xlink" x="0px" y="0px"
	 viewBox="-95 97 96 96" style="enable-background:new -95 97 96 96;" xml:space="preserve">
<style type="text/css">
	.st0{fill:#191919;}
</style>
<g id="ic_contacts_Allergies_m">
	<g id="ic_emergency_info-copy" transform="translate(8.000000, 8.000000)">
		<path id="Page-1" class="st0" d="M-83,97h56c6.6,0,12,5.4,12,12v56c0,6.6-5.4,12-12,12h-56c-6.6,0-12-5.4-12-12v-56
			C-95,102.4-89.6,97-83,97z M-31,145h-16v16h-16v-16h-16v-16h16v-16h16v16h16V145z M-83,103c-3.3,0-6,2.7-6,6v56c0,3.3,2.7,6,6,6
			h56c3.3,0,6-2.7,6-6v-56c0-3.3-2.7-6-6-6H-83z"/>
	</g>
</g>
</svg>
