<?xml version="1.0" encoding="UTF-8"?>
<svg width="55px" height="55px" viewBox="0 0 96 96" version="1.1" xmlns="http://www.w3.org/2000/svg" xmlns:xlink="http://www.w3.org/1999/xlink">
    <title>ic_contacts_dial call_1_m备份 2</title>
    <g id="ic_contacts_dial-call_1_m备份-2" stroke="none" stroke-width="1" fill="none" fill-rule="evenodd">
        <g id="分组" transform="translate(47.500000, 47.500000) scale(-1, 1) translate(-47.500000, -47.500000) translate(21.000000, 21.000000)" fill="#FFFFFF">
            <path d="M6.50424326,25.23697 C4.66469392,22.2524908 2.67503552,18.0189282 0.535261491,12.5362847 C-0.922615909,8.80082007 0.717651084,4.19563707 3.99971008,1.89190281 L5.52589703,0.820645657 C5.61054095,0.76123262 5.69719997,0.704743515 5.78572093,0.651278185 C7.92141309,-0.638647784 10.6984253,0.0469811776 11.9883512,2.18267333 L19.0958543,13.9503553 C19.9891768,15.4294029 19.960601,17.2884481 19.0222416,18.7393405 L16.7032924,22.3249026 C15.5466395,24.1133207 15.8376493,25.8485595 17.3022522,27.9727105 C18.2743421,29.3648092 19.3816851,30.7014064 20.624281,31.9825022 C21.8668769,33.2635979 23.3345464,34.5020131 25.0272895,35.6977478 C26.7314345,36.9834319 28.8866793,37.4533605 30.6750974,36.2967076 L34.2606595,33.9777584 C35.7115519,33.039399 37.5705971,33.0108232 39.0496447,33.9041457 L50.8173267,41.0116488 C52.9530188,42.3015747 53.6386478,45.0785869 52.3487218,47.2142791 C52.2952565,47.3028 52.2387674,47.3894591 52.1793543,47.474103 L51.1080972,49.0002899 C48.8043629,52.2823489 44.1991799,53.9226159 40.4637153,52.4647385 C34.9810718,50.3249645 30.7475092,48.3353061 27.76303,46.4957567 C23.7564664,44.0262231 19.8409791,40.8554482 16.0165681,36.9834319 C12.1445518,33.1590209 8.97377687,29.2435336 6.50424326,25.23697 Z" id="phonecall"></path>
            <polygon id="1" fill-rule="nonzero" transform="translate(39.240000, 11.736000) scale(-1, 1) translate(-39.240000, -11.736000) " points="40.12 4.952 34.616 6.84 34.616 3.672 43.384 0.472 43.864 0.472 43.864 23 40.12 23"></polygon>
        </g>
    </g>
</svg>