<?xml version="1.0" encoding="utf-8"?>
<!-- Generator: Adobe Illustrator 19.0.0, SVG Export Plug-In . SVG Version: 6.00 Build 0)  -->
<svg version="1.1" id="图层_1" xmlns="http://www.w3.org/2000/svg" xmlns:xlink="http://www.w3.org/1999/xlink" x="0px" y="0px"
	 viewBox="24 -24 96 96" style="enable-background:new 24 -24 96 96;" xml:space="preserve">
<g id="画板">
	<path id="形状结合" d="M93.4,24.3c2.2,0,4,1.8,4,4v13h13c2.2,0,4,1.8,4,4s-1.8,4-4,4h-13v13c0,2.2-1.8,4-4,4c-2.2,0-4-1.8-4-4
		v-13h-13c-2.2,0-4-1.8-4-4s1.8-4,4-4h13v-13C89.4,26.1,91.2,24.3,93.4,24.3z M76.1-18.6l0.1,0.2L86,8.4h26.8c1.3,0,2.4,0.6,3.2,1.6
		c1.3,1.7,1,4.1-0.6,5.5l-0.2,0.1l-12.4,9.4c-1-2.6-3-4.8-5.6-5.8l3.6-2.7l-20.5,0l-8-21.8l-8,21.8l-20.2,0l17.1,12.6l-5.7,20
		l12.9-9.5c-1.2,1.7-1.9,3.7-1.9,5.9c0,1.7,0.4,3.2,1.1,4.6L50.8,62.3c-1,0.7-2.3,1-3.5,0.6c-2.1-0.6-3.3-2.7-2.8-4.8l0.1-0.2
		L52,32.1L29.6,15.6c-1-0.8-1.6-2-1.6-3.2c0-2.1,1.7-3.9,3.8-4l0.2,0l26.8,0l9.8-26.7c0.4-1.1,1.3-2,2.4-2.4
		C73-21.5,75.3-20.5,76.1-18.6z"/>
</g>
</svg>
