<?xml version="1.0" encoding="UTF-8" standalone="no"?>
<svg
   xmlns:dc="http://purl.org/dc/elements/1.1/"
   xmlns:cc="http://creativecommons.org/ns#"
   xmlns:rdf="http://www.w3.org/1999/02/22-rdf-syntax-ns#"
   xmlns:svg="http://www.w3.org/2000/svg"
   xmlns="http://www.w3.org/2000/svg"
   xmlns:sodipodi="http://sodipodi.sourceforge.net/DTD/sodipodi-0.dtd"
   xmlns:inkscape="http://www.inkscape.org/namespaces/inkscape"
   inkscape:version="1.0 (4035a4fb49, 2020-05-01)"
   sodipodi:docname="ic_cancel_m.svg"
   xml:space="preserve"
   style="enable-background:new 0 0 96 96;"
   viewBox="0 0 96 96"
   y="0px"
   x="0px"
   id="图层_1"
   version="1.0"><metadata
   id="metadata14"><rdf:RDF><cc:Work
       rdf:about=""><dc:format>image/svg+xml</dc:format><dc:type
         rdf:resource="http://purl.org/dc/dcmitype/StillImage" /></cc:Work></rdf:RDF></metadata><defs
   id="defs12" /><sodipodi:namedview
   inkscape:current-layer="图层_1"
   inkscape:window-maximized="1"
   inkscape:window-y="-8"
   inkscape:window-x="-8"
   inkscape:cy="48"
   inkscape:cx="48"
   inkscape:zoom="8.6096807"
   showgrid="false"
   id="namedview10"
   inkscape:window-height="1017"
   inkscape:window-width="1920"
   inkscape:pageshadow="2"
   inkscape:pageopacity="0"
   guidetolerance="10"
   gridtolerance="10"
   objecttolerance="10"
   borderopacity="1"
   bordercolor="#666666"
   pagecolor="#ffffff" />

<g
   id="XMLID_1_">
</g>
<g
   id="XMLID_2_">
</g>
<g
   id="XMLID_3_">
</g>
<g
   id="XMLID_4_">
</g>
<g
   id="XMLID_5_">
</g>
<g
   id="XMLID_6_">
</g>
<g
   id="添加"
   stroke="none"
   stroke-width="1"
   fill="none"
   fill-rule="evenodd"
   transform="matrix(2.7790986,2.8246553,-2.8246553,2.7790986,48.346681,-19.245047)"><g
     id="Public/ic_public_add"
     transform="translate(2,2)"><mask
       id="mask-2"
       fill="#ffffff"><path
         id="use7"
         d="M 10.75,19.25 C 10.75,19.664214 10.414214,20 10,20 9.5857864,20 9.25,19.664214 9.25,19.25 v -8.5 H 0.75 C 0.33578644,10.75 0,10.414214 0,10 0,9.5857864 0.33578644,9.25 0.75,9.25 h 8.5 V 0.75 C 9.25,0.33578644 9.5857864,0 10,0 c 0.414214,0 0.75,0.33578644 0.75,0.75 z m 8.5,-10 c 0.414214,0 0.75,0.3357864 0.75,0.75 0,0.414214 -0.335786,0.75 -0.75,0.75 h -7.5 v -1.5 z" /></mask><path
       style="fill:#000000"
       id="形状结合"
       d="M 10.75,19.25 C 10.75,19.664214 10.414214,20 10,20 9.5857864,20 9.25,19.664214 9.25,19.25 v -8.5 H 0.75 C 0.33578644,10.75 0,10.414214 0,10 0,9.5857864 0.33578644,9.25 0.75,9.25 h 8.5 V 0.75 C 9.25,0.33578644 9.5857864,0 10,0 c 0.414214,0 0.75,0.33578644 0.75,0.75 z m 8.5,-10 c 0.414214,0 0.75,0.3357864 0.75,0.75 0,0.414214 -0.335786,0.75 -0.75,0.75 h -7.5 v -1.5 z" /></g></g></svg>
