<?xml version="1.0" encoding="utf-8"?>
<!-- Generator: Adobe Illustrator 23.0.2, SVG Export Plug-In . SVG Version: 6.00 Build 0)  -->
<svg version="1.1" id="图层_1" xmlns="http://www.w3.org/2000/svg" xmlns:xlink="http://www.w3.org/1999/xlink" x="0px" y="0px"
	 viewBox="0 0 96 96" style="enable-background:new 0 0 96 96;" xml:space="preserve">
<style type="text/css">
	.st0{fill-rule:evenodd;clip-rule:evenodd;fill:#007DFF;}
</style>
<path id="形状结合" class="st0" d="M72,62.9V64c0,6.6-5.4,12-12,12H36c-1.7,0-3-1.3-3-3C31.7,57.7,23,49,7,47c-1.7,0-3-1.3-3-3
	V32c0-6.6,5.4-12,12-12h44c6.6,0,12,5.4,12,12v1l11.3-5.4c3-1.4,6.7-0.2,8.1,2.8c0.4,0.8,0.6,1.7,0.6,2.6v29.9
	c0,3.3-2.7,6.1-6.1,6.1c-1,0-1.9-0.2-2.7-0.6L72,62.9z M28,72.5c0,1.9-1.6,3.5-3.5,3.5S21,74.4,21,72.5C21,65,15,59,7.5,59
	C5.6,59,4,57.4,4,55.5S5.6,52,7.5,52C18.8,52,28,61.2,28,72.5z M10.5,74C8,74,6,72,6,69.5S8,65,10.5,65s4.5,2,4.5,4.5S13,74,10.5,74
	z"/>
</svg>
