<?xml version="1.0" encoding="utf-8"?>
<!-- Generator: Adobe Illustrator 23.0.2, SVG Export Plug-In . SVG Version: 6.00 Build 0)  -->
<svg version="1.1" id="图层_1" xmlns="http://www.w3.org/2000/svg" xmlns:xlink="http://www.w3.org/1999/xlink" x="0px" y="0px"
	 viewBox="0 0 96 96" style="enable-background:new 0 0 96 96;" xml:space="preserve">
<path d="M28.3,77.8c1.7-0.8,3.3-1.7,4.9-2.5c1.5-0.8,3.2-1.2,5-1.5c1.5-0.2,3.1-0.2,4.7-0.1l0.2,0c1.6,0.2,3.2,0.3,4.9,0.3
	c18.9,0,34-13.6,34-30S66.9,14,48,14S14,27.6,14,44c0,8.4,3.9,16.3,10.8,22c0.2,0.1,0.3,0.3,0.4,0.4c1.3,1.3,2.3,2.8,2.8,4.4
	c0.6,1.7,0.6,3.5,0.2,5.4c-0.1,0.3-0.2,0.7-0.3,1.1c-0.1,0.3-0.2,0.6-0.3,0.9C27.9,78,28.1,77.9,28.3,77.8z M20,80.8
	c0.7-1.2,1.4-3,2.3-5.6c0.3-1.1,0.3-1.9,0.1-2.6c-0.2-0.7-0.7-1.3-1.4-2C13,64,8,54.6,8,44C8,24.1,25.9,8,48,8s40,16.1,40,36
	s-17.9,36-40,36c-1.9,0-3.8-0.1-5.6-0.4c-1.1-0.1-2.2-0.1-3.3,0c-1.2,0.2-2.2,0.5-3.1,0.9c-1.6,0.8-3.2,1.7-5,2.5
	c-3.2,1.6-6.6,2.9-10,3.9c-1.6,0.5-3.5,1.2-4.2,0.8c-0.7-0.4,0.4-1.6,0.9-2.5C18.6,83.7,19.3,82.2,20,80.8z"/>
</svg>
