<?xml version="1.0" encoding="UTF-8" standalone="no"?>
<svg
    xmlns:dc="http://purl.org/dc/elements/1.1/"
    xmlns:cc="http://creativecommons.org/ns#"
    xmlns:rdf="http://www.w3.org/1999/02/22-rdf-syntax-ns#"
    xmlns:svg="http://www.w3.org/2000/svg"
    xmlns="http://www.w3.org/2000/svg"
    xmlns:sodipodi="http://sodipodi.sourceforge.net/DTD/sodipodi-0.dtd"
    xmlns:inkscape="http://www.inkscape.org/namespaces/inkscape"
    inkscape:version="1.0 (4035a4fb49, 2020-05-01)"
    sodipodi:docname="ic_more_24x24.svg"
    xml:space="preserve"
    style="enable-background:new 0 0 96 96;"
    viewBox="0 0 96 96"
    id="图层_1"
    version="1.1"><metadata
   id="metadata8"><rdf:RDF><cc:Work
       rdf:about=""><dc:format>image/svg+xml</dc:format><dc:type
    rdf:resource="http://purl.org/dc/dcmitype/StillImage" /></cc:Work></rdf:RDF></metadata><defs
    id="defs6" /><sodipodi:namedview
    inkscape:lockguides="true"
    showguides="true"
    inkscape:current-layer="图层_1"
    inkscape:window-maximized="1"
    inkscape:window-y="-8"
    inkscape:window-x="-8"
    inkscape:cy="44.22954"
    inkscape:cx="36.115479"
    inkscape:zoom="6.9570177"
    showgrid="true"
    id="namedview4"
    inkscape:window-height="1017"
    inkscape:window-width="1920"
    inkscape:pageshadow="2"
    inkscape:pageopacity="0"
    guidetolerance="10"
    gridtolerance="10"
    objecttolerance="10"
    borderopacity="1"
    bordercolor="#666666"
    pagecolor="#ffffff"
    inkscape:document-rotation="0"
    inkscape:snap-bbox="false"
    inkscape:snap-bbox-midpoints="true"
    inkscape:snap-bbox-edge-midpoints="true"
    inkscape:bbox-nodes="true"
    inkscape:bbox-paths="true"
    inkscape:snap-global="false"><inkscape:grid
     type="xygrid"
     id="grids837" /></sodipodi:namedview>
    <path
        style="opacity:1;stroke-width:0.666668"
        d="m 59.47,32.68 c -2.2,0 -4,1.8 -4,4 0,2.2 1.8,4 4,4 2.2,0 4,-1.8 4,-4 0,-2.2 -1.8,-4 -4,-4 z"
        id="path912" />
    <path
        id="path912-8"
        d="m 36.68,32.68 c -2.2,0 -4,1.8 -4,4 0,2.2 1.8,4 4,4 2.2,0 4,-1.8 4,-4 0,-2.2 -1.8,-4 -4,-4 z"
        style="opacity:1;stroke-width:0.666668" /><path
        id="path912-6"
        d="m 36.68,55.325 c -2.2,0 -4,1.8 -4,4 0,2.2 1.8,4 4,4 2.2,0 4,-1.8 4,-4 0,-2.2 -1.8,-4 -4,-4 z"
        style="opacity:1;stroke-width:0.666668" /><path
        id="path912-3"
        d="m 59.47,55.47 c -2.2,0 -4,1.8 -4,4 0,2.2 1.8,4 4,4 2.2,0 4,-1.8 4,-4 0,-2.2 -1.8,-4 -4,-4 z"
        style="opacity:1;stroke-width:0.666668" /></svg>
