<?xml version="1.0" standalone="no"?>
<svg version="1.0" xmlns="http://www.w3.org/2000/svg"
 width="55.000000px" height="55.000000px" viewBox="0 0 300.000000 300.000000"
 preserveAspectRatio="xMidYMid meet">

<g transform="translate(0.000000,300.000000) scale(0.100000,-0.100000)"
fill="#000000" stroke="none">
<path d="M1438 2193 c-95 -61 -65 -208 46 -229 49 -9 104 21 129 69 24 47 17
96 -22 139 -34 39 -110 49 -153 21z"/>
<path d="M1435 1568 c-30 -27 -38 -43 -42 -78 -11 -117 124 -182 206 -99 78
77 33 196 -78 207 -45 4 -52 1 -86 -30z"/>
<path d="M1465 970 c-65 -27 -93 -117 -55 -178 59 -95 205 -67 226 43 17 92
-83 172 -171 135z"/>
</g>
</svg>
