<?xml version="1.0" encoding="UTF-8" standalone="no"?>
<svg
   xmlns:dc="http://purl.org/dc/elements/1.1/"
   xmlns:cc="http://creativecommons.org/ns#"
   xmlns:rdf="http://www.w3.org/1999/02/22-rdf-syntax-ns#"
   xmlns:svg="http://www.w3.org/2000/svg"
   xmlns="http://www.w3.org/2000/svg"
   xmlns:sodipodi="http://sodipodi.sourceforge.net/DTD/sodipodi-0.dtd"
   xmlns:inkscape="http://www.inkscape.org/namespaces/inkscape"
   inkscape:version="1.0 (4035a4fb49, 2020-05-01)"
   sodipodi:docname="ic_phonecall_filled_m.svg"
   xml:space="preserve"
   style="enable-background:new 0 0 96 96;"
   viewBox="0 0 96 96"
   y="0px"
   x="0px"
   id="图层_1"
   version="1.0"><metadata
   id="metadata15"><rdf:RDF><cc:Work
       rdf:about=""><dc:format>image/svg+xml</dc:format><dc:type
         rdf:resource="http://purl.org/dc/dcmitype/StillImage" /></cc:Work></rdf:RDF></metadata><defs
   id="defs13" /><sodipodi:namedview
   inkscape:current-layer="图层_1"
   inkscape:window-maximized="1"
   inkscape:window-y="-8"
   inkscape:window-x="-8"
   inkscape:cy="48"
   inkscape:cx="26.233216"
   inkscape:zoom="8.3818065"
   showgrid="false"
   id="namedview11"
   inkscape:window-height="1017"
   inkscape:window-width="1920"
   inkscape:pageshadow="2"
   inkscape:pageopacity="0"
   guidetolerance="10"
   gridtolerance="10"
   objecttolerance="10"
   borderopacity="1"
   bordercolor="#666666"
   pagecolor="#ffffff"
   inkscape:document-rotation="0" />

<g
   id="XMLID_1_">
</g>
<g
   id="XMLID_2_">
</g>
<g
   id="XMLID_3_">
</g>
<g
   id="XMLID_4_">
</g>
<g
   id="XMLID_5_">
</g>
<g
   id="XMLID_6_">
</g>
<g
   fill-rule="evenodd"
   fill="none"
   stroke-width="1"
   stroke="none"
   id="电话2"
   transform="matrix(4.5122858,0,0,4.5041143,-7.2980003,-6.0983714)"><g
     fill="#254ff7"
     id="路径"><path
       id="path4"
       d="m 19.934415,19.698538 0.545336,-0.542744 c 0.693665,-0.694371 0.693665,-1.815931 0,-2.510302 l -1.883152,-1.419168 c -0.105577,-0.07946 -0.207227,-0.163909 -0.30866,-0.248577 -0.620866,-0.514962 -1.533487,-0.475181 -2.106739,0.09183 l -0.868174,0.843642 c -0.376161,0.375155 -0.961938,0.444144 -1.41569,0.166731 C 12.035344,14.938235 9.1566277,12.060604 8.0901701,10.345097 7.8075571,9.8926499 7.8750466,9.3061142 8.2531163,8.9289678 L 9.2048354,8.0312685 C 9.7868708,7.4485248 9.8143596,6.5161602 9.267658,5.9004536 9.178223,5.8005886 9.0931507,5.6963816 9.0096054,5.5921747 L 7.6680806,3.9283371 C 7.2536258,3.4133812 6.5867899,3.1563374 5.9354415,3.2811686 5.586782,3.347515 5.2662138,3.5166437 5.0153518,3.7665993 L 4.5550889,4.2246756 C 3.6793371,5.0931109 3.3147427,6.3492231 3.5902818,7.54866 c 1.1890489,5.118732 8.0354062,12.110149 13.1063692,13.131595 1.17487,0.236636 2.390313,-0.138292 3.237764,-0.981717 z" /></g></g></svg>
