<?xml version="1.0" encoding="UTF-8" standalone="no"?>
<svg
   xmlns:dc="http://purl.org/dc/elements/1.1/"
   xmlns:cc="http://creativecommons.org/ns#"
   xmlns:rdf="http://www.w3.org/1999/02/22-rdf-syntax-ns#"
   xmlns:svg="http://www.w3.org/2000/svg"
   xmlns="http://www.w3.org/2000/svg"
   xmlns:sodipodi="http://sodipodi.sourceforge.net/DTD/sodipodi-0.dtd"
   xmlns:inkscape="http://www.inkscape.org/namespaces/inkscape"
   version="1.0"
   id="图层_1"
   x="0px"
   y="0px"
   viewBox="0 0 96 96"
   style="enable-background:new 0 0 96 96;"
   xml:space="preserve"
   sodipodi:docname="ic_phonecall_m.svg"
   inkscape:version="1.0 (4035a4fb49, 2020-05-01)"><metadata
   id="metadata20"><rdf:RDF><cc:Work
       rdf:about=""><dc:format>image/svg+xml</dc:format><dc:type
         rdf:resource="http://purl.org/dc/dcmitype/StillImage" /></cc:Work></rdf:RDF></metadata><defs
   id="defs18" /><sodipodi:namedview
   inkscape:snap-to-guides="true"
   inkscape:document-rotation="0"
   pagecolor="#ffffff"
   bordercolor="#666666"
   borderopacity="1"
   objecttolerance="10"
   gridtolerance="10"
   guidetolerance="10"
   inkscape:pageopacity="0"
   inkscape:pageshadow="2"
   inkscape:window-width="1920"
   inkscape:window-height="1017"
   id="namedview16"
   showgrid="false"
   inkscape:zoom="8.6096807"
   inkscape:cx="26.233216"
   inkscape:cy="48"
   inkscape:window-x="-8"
   inkscape:window-y="-8"
   inkscape:window-maximized="1"
   inkscape:current-layer="图层_1"
   inkscape:lockguides="false" />
<style
   type="text/css"
   id="style2">
	.st0{fill:#040000;}
</style>

<g
   id="XMLID_1_">
</g>
<g
   id="XMLID_4_">
</g>
<g
   id="XMLID_5_">
</g>
<g
   id="XMLID_6_">
</g>
<g
   id="XMLID_7_">
</g>
<g
   id="XMLID_8_">
</g>
<g
   transform="matrix(4.5723429,0,0,4.5709714,-8.1132003,-6.9196571)"
   id="电话1"
   stroke="none"
   stroke-width="1"
   fill="none"
   fill-rule="evenodd"
   fill-opacity="0.25"><g
     id="Botton-tab/ic_备份-66"
     transform="translate(3,2)"
     fill="#000000"
     fill-rule="nonzero"><path
       d="m 16.934415,17.698538 0.545336,-0.542744 c 0.693665,-0.694371 0.693665,-1.815931 0,-2.510302 l -1.883152,-1.419168 c -0.105577,-0.07946 -0.207227,-0.163909 -0.30866,-0.248577 -0.620866,-0.514962 -1.533487,-0.475181 -2.106739,0.09183 l -0.868174,0.843642 c -0.376161,0.375155 -0.961938,0.444144 -1.41569,0.166731 C 9.0353435,12.938235 6.1566277,10.060604 5.0901701,8.3450968 4.8075571,7.8926499 4.8750466,7.3061142 5.2531163,6.9289678 L 6.2048354,6.0312684 C 6.7868708,5.4485248 6.8143596,4.5161602 6.267658,3.9004536 6.178223,3.8005886 6.0931507,3.6963816 6.0096054,3.5921747 L 4.6680806,1.9283371 C 4.2536258,1.4133812 3.5867899,1.1563374 2.9354415,1.2811686 2.586782,1.347515 2.2662138,1.5166437 2.0153518,1.7665993 L 1.5550889,2.2246756 C 0.67933708,3.0931109 0.3147427,4.3492231 0.59028176,5.54866 1.7793307,10.667392 8.6256876,17.658809 13.696651,18.680255 c 1.17487,0.236636 2.390313,-0.138292 3.237764,-0.981717 z"
       id="路径" /></g></g></svg>
