<?xml version="1.0" encoding="utf-8"?>
<!-- Generator: Adobe Illustrator 19.0.0, SVG Export Plug-In . SVG Version: 6.00 Build 0)  -->
<svg version="1.1" id="图层_1" xmlns="http://www.w3.org/2000/svg" xmlns:xlink="http://www.w3.org/1999/xlink" x="0px" y="0px"
	 viewBox="0 0 96 96" style="enable-background:new 0 0 96 96;" xml:space="preserve">
<path id="path-1_1_" d="M27.5,78c-1.3,5.2-6,9-11.6,9c-6.6,0-12-5.4-12-12s5.4-12,12-12c0.8,0,1.5,0.1,2.3,0.2l22.4-33.6
	c-2.3-2.2-3.6-5.2-3.6-8.6c0-6.6,5.4-12,12-12s12,5.4,12,12s-5.4,12-12,12C48,33,47,32.9,46,32.6L23.8,65.8c1.9,1.6,3.3,3.7,3.9,6.2
	h40.8c1.3-5.2,6-9,11.6-9c6.6,0,12,5.4,12,12s-5.4,12-12,12c-5.6,0-10.3-3.8-11.6-9H27.5z M48.9,27c3.3,0,6-2.7,6-6s-2.7-6-6-6
	s-6,2.7-6,6S45.6,27,48.9,27z M15.9,81c3.3,0,6-2.7,6-6s-2.7-6-6-6s-6,2.7-6,6S12.6,81,15.9,81z M79.9,81c3.3,0,6-2.7,6-6
	s-2.7-6-6-6s-6,2.7-6,6S76.6,81,79.9,81z"/>
</svg>
