<?xml version="1.0" encoding="utf-8"?>
<!-- Generator: Adobe Illustrator 19.0.0, SVG Export Plug-In . SVG Version: 6.00 Build 0)  -->
<svg version="1.1" id="图层_1" xmlns="http://www.w3.org/2000/svg" xmlns:xlink="http://www.w3.org/1999/xlink" x="0px" y="0px"
	 viewBox="0 0 96 96" style="enable-background:new 0 0 96 96;" xml:space="preserve">
<path id="path-1_1_" d="M37.9,27.6l-15,11.7H8v17.3h14.9l14.9,11.7L37.9,27.6L37.9,27.6z M20.8,62.6H6c-2.2,0-4-1.8-4-4V37.3
	c0-2.2,1.8-4,4-4h14.8L39,19.1c1.3-1,3.2-0.8,4.2,0.5c0.4,0.5,0.6,1.2,0.6,1.8v53c0,1.7-1.3,3-3,3c-0.7,0-1.3-0.2-1.9-0.6L20.8,62.6
	z M80.6,80.4c-1.2,1.2-3.1,1.2-4.2,0c-1.2-1.2-1.2-3.1,0-4.2C83.8,68.9,88,58.8,88,48.1s-4.2-20.8-11.7-28.3c-1.2-1.2-1.2-3.1,0-4.2
	c1.2-1.2,3.1-1.2,4.2,0C89.1,24,94,35.6,94,48C94,60.3,89.1,71.9,80.6,80.4z M68,70.3c-1.2,1.2-3.1,1.2-4.2,0s-1.2-3.1,0-4.2
	c4.8-4.8,7.5-11.2,7.5-18.1c0-6.9-2.7-13.4-7.5-18.1c-1.2-1.2-1.2-3.1,0-4.2c1.2-1.2,3.1-1.2,4.2,0c5.9,5.9,9.3,13.9,9.3,22.4
	C77.2,56.4,73.9,64.4,68,70.3z M56.5,59.8c-1.2,1.2-3.1,1.2-4.2,0s-1.2-3.1,0-4.2c2-2,3.1-4.6,3.1-7.5c0-2.8-1.1-5.4-3-7.4
	c-1.2-1.2-1.1-3.1,0.1-4.2s3.1-1.1,4.2,0.1c3,3.1,4.7,7.2,4.7,11.6C61.3,52.5,59.5,56.6,56.5,59.8z"/>
</svg>
