<?xml version="1.0" encoding="utf-8"?>
<!-- Generator: Adobe Illustrator 19.0.0, SVG Export Plug-In . SVG Version: 6.00 Build 0)  -->
<svg version="1.1" id="图层_1" xmlns="http://www.w3.org/2000/svg" xmlns:xlink="http://www.w3.org/1999/xlink" x="0px" y="0px"
	 viewBox="0 0 96 96" style="enable-background:new 0 0 96 96;" xml:space="preserve">
<path id="合并形状" d="M72,33.2l11.5-5.3c3-1.4,6.6-0.1,8,3c0.4,0.8,0.5,1.6,0.5,2.5v29.3c0,3.3-2.7,6-6,6
	c-0.9,0-1.7-0.2-2.5-0.5L72,62.8V64c0,6.6-5.4,12-12,12H16C9.4,76,4,70.6,4,64V32c0-6.6,5.4-12,12-12h44c6.6,0,12,5.4,12,12V33.2z
	 M72,39.8v16.5l14,6.4V33.3L72,39.8z M16,26c-3.3,0-6,2.7-6,6v32c0,3.3,2.7,6,6,6h44c3.3,0,6-2.7,6-6V32c0-3.3-2.7-6-6-6H16z"/>
</svg>
