<?xml version="1.0" encoding="UTF-8"?>
<svg width="45px" height="45px" viewBox="0 0 24 24" version="1.1" xmlns="http://www.w3.org/2000/svg" xmlns:xlink="http://www.w3.org/1999/xlink">
    <title>姓名1</title>
    <defs>
        <path d="M10,0.5 C12.8994949,0.5 15.25,2.85050506 15.25,5.75 C15.25,8.57700756 13.0155511,10.8821316 10.2164046,10.995621 L10,11 L10,11 C9.16636264,11 8.36250656,11.1275088 7.6068709,11.3640872 L7.38164526,11.4383144 C7.21949559,11.4944527 7.05971244,11.5556595 6.90248528,11.6217452 C6.86460349,11.63767 6.82725237,11.6537104 6.79004922,11.6700257 L6.90248528,11.6217452 C6.83766808,11.6489892 6.77328528,11.6770624 6.70935015,11.7059514 L6.79004922,11.6700257 C6.71658796,11.7022418 6.64370362,11.7355299 6.57141597,11.7698702 L6.70935015,11.7059514 C6.61973055,11.7464461 6.53099054,11.7885438 6.44316672,11.8322081 L6.57141597,11.7698702 C6.50322079,11.8022663 6.43555665,11.8355989 6.36844019,11.8698512 L6.44316672,11.8322081 C6.35529243,11.8758976 6.26833536,11.9211554 6.18233215,11.9679449 L6.36844019,11.8698512 C6.30344992,11.9030185 6.23897316,11.9370482 6.17502501,11.9719252 C6.04616188,12.0420275 5.91238282,12.1199501 5.78114037,12.2015672 C5.73111937,12.2326772 5.6817579,12.264134 5.63276851,12.2961132 C5.51804952,12.3709892 5.40496975,12.4490222 5.2940475,12.5298381 C5.26673453,12.5497339 5.23894083,12.5702559 5.21128552,12.5909527 L5.2940475,12.5298381 C5.22317628,12.5814737 5.15318581,12.6342453 5.08410288,12.6881263 L5.21128552,12.5909527 C5.14959293,12.6371225 5.08858907,12.6841623 5.02829213,12.7320537 L5.08410288,12.6881263 C5.02212225,12.7364678 4.96087214,12.7857023 4.90037189,12.8358105 L5.02829213,12.7320537 C4.95482068,12.7904091 4.88239881,12.850029 4.81105945,12.9108806 L4.90037189,12.8358105 C4.83668958,12.8885541 4.77383808,12.9422656 4.71183994,12.9969226 L4.81105945,12.9108806 C4.74918309,12.9636603 4.68812109,13.0173666 4.62789493,13.071978 L4.71183994,12.9969226 C4.64785034,13.0533352 4.58476982,13.1107549 4.52262314,13.1691569 L4.62789493,13.071978 C4.57565734,13.1193456 4.52404855,13.1673941 4.47308258,13.2161095 L4.52262314,13.1691569 C4.38762982,13.2960161 4.25704273,13.4275103 4.13111601,13.5633851 C4.03105568,13.6713349 3.93357387,13.7824881 3.83918557,13.8962995 C3.82097002,13.918261 3.80259484,13.9406601 3.78433938,13.9631603 L3.83918557,13.8962995 C3.79433965,13.9503738 3.75019207,14.005048 3.70675664,14.0603085 L3.78433938,13.9631603 C3.73916968,14.0188328 3.69473288,14.0751241 3.65104365,14.1320194 L3.70675664,14.0603085 C3.65523495,14.1258567 3.60471527,14.1922297 3.55522067,14.2594044 L3.65104365,14.1320194 C3.59201169,14.2088952 3.53434458,14.2868738 3.47807855,14.365919 L3.55522067,14.2594044 C3.50462342,14.3280756 3.45509743,14.3975846 3.40666737,14.4679069 L3.47807855,14.365919 C3.43261396,14.4297898 3.38806414,14.494357 3.34444822,14.5596015 L3.40666737,14.4679069 C3.3587313,14.5375118 3.31186891,14.6079134 3.2661041,14.6790877 L3.34444822,14.5596015 C3.29455522,14.6342358 3.24588426,14.7097563 3.19846396,14.7861345 L3.2661041,14.6790877 C3.22426915,14.7441503 3.18335137,14.8098586 3.14336904,14.8761945 L3.19846396,14.7861345 C3.047825,15.0287633 2.90980681,15.2800467 2.78532668,15.5390675 C2.76837244,15.5743533 2.75193349,15.6092119 2.73573998,15.6442073 L2.78532668,15.5390675 C2.74922387,15.6141909 2.71425983,15.6899652 2.68045695,15.766368 L2.73573998,15.6442073 C2.70484808,15.710967 2.6748494,15.7782246 2.64575926,15.8459646 L2.68045695,15.766368 C2.64247367,15.8522194 2.6059565,15.9388644 2.57093719,16.0262712 L2.64575926,15.8459646 C2.61266361,15.9230319 2.58074393,16.0007237 2.55002281,16.0790174 L2.57093719,16.0262712 C2.54234068,16.0976469 2.51474298,16.1695306 2.48816138,16.2419049 L2.55002281,16.0790174 C2.51431152,16.1700287 2.48021977,16.2618532 2.44778306,16.3544556 L2.48816138,16.2419049 C2.46998833,16.2913851 2.45229021,16.3410947 2.43507254,16.391028 L2.44778306,16.3544556 C2.3283501,16.6954204 2.23135483,17.0469304 2.15856787,17.4072151 C2.14762666,17.4613862 2.13730276,17.5153678 2.12752426,17.569539 L2.15856787,17.4072151 C2.14116807,17.4933415 2.12515167,17.5799694 2.11054284,17.6670745 L2.12752426,17.569539 C2.11191516,17.6560108 2.0976958,17.7429659 2.08489016,17.8303802 L2.11054284,17.6670745 C2.09454527,17.76246 2.08023562,17.8584178 2.06764565,17.9549161 L2.08489016,17.8303802 C2.07328426,17.9096048 2.06283957,17.9892066 2.05357395,18.0691678 L2.06764565,17.9549161 C2.0572943,18.034256 2.04810545,18.1139613 2.04009675,18.1940143 L2.05357395,18.0691678 C2.0419835,18.1691921 2.03223801,18.2697787 2.02437238,18.3708928 L2.04009675,18.1940143 C2.02239586,18.3709481 2.01046001,18.5495807 2.00447981,18.7297213 C2.00156148,18.8174828 2.00005629,18.9060552 2.00000155,18.9949669 L2.00447981,18.7297213 C2.00150112,18.8194479 2,18.9095487 2,19 C2,19.4142136 1.66421356,19.75 1.25,19.75 C0.835786438,19.75 0.5,19.4142136 0.5,19 C0.5,18.8017352 0.50607356,18.604889 0.518044775,18.4096372 C0.521183457,18.3585039 0.52467436,18.3081552 0.528556052,18.2579161 C0.53178145,18.2161521 0.535306817,18.1741335 0.539104762,18.1321936 C0.543303818,18.0858234 0.547837887,18.0395322 0.552702995,17.9933397 C0.558293696,17.9402537 0.564331116,17.8872204 0.570803353,17.8343214 C0.575229453,17.7981399 0.579884755,17.7618288 0.584744453,17.7255825 C0.622489885,17.4441375 0.672479219,17.1669444 0.734202052,16.8942028 L0.739861341,16.8693514 C0.769055936,16.741945 0.800812311,16.6155157 0.835073362,16.4901205 C0.852170445,16.427544 0.869905425,16.3651772 0.888258007,16.3030754 C0.893917902,16.2839215 0.899706674,16.264561 0.905555414,16.2452266 C0.925162258,16.1804172 0.945369375,16.1161259 0.966237518,16.0521332 C0.978518918,16.0144652 0.991189421,15.9764302 1.00409304,15.9385029 C1.01968619,15.8926692 1.03564408,15.8469249 1.05194039,15.8013416 C1.06645689,15.7607383 1.08119852,15.720379 1.09620501,15.6801488 C1.15856089,15.5129683 1.22558959,15.3477908 1.29705187,15.1850009 L1.30104812,15.1759105 C1.39334643,14.9662555 1.49300182,14.7605698 1.5996873,14.5591803 C1.62542103,14.5106015 1.65161487,14.4621803 1.67821472,14.4140147 C1.69237064,14.3883807 1.70672905,14.3626642 1.72120314,14.3370216 C1.7445197,14.2957145 1.76808538,14.2546868 1.79194704,14.2138532 C1.81803335,14.1692106 1.84457099,14.1246392 1.8714611,14.0803053 C1.88941242,14.0507094 1.90747215,14.0212978 1.92568697,13.9919926 C1.97263788,13.9164503 2.02076167,13.8414001 2.0699022,13.767081 C2.14677058,13.6508325 2.22600667,13.5365383 2.30764761,13.4241035 C2.32815439,13.3958621 2.3487845,13.3677763 2.36956474,13.3398086 C2.46075243,13.2170872 2.55468861,13.0968146 2.65140658,12.9789114 C2.67271322,12.9529364 2.6943064,12.9268956 2.7160354,12.9009726 C2.75430972,12.8553102 2.79303497,12.8099791 2.83217627,12.7650198 C2.85541135,12.738333 2.87856416,12.7120342 2.9018595,12.6858651 C2.95265611,12.6287987 3.00432824,12.5721372 3.05667053,12.5161098 C3.06272456,12.5096285 3.06927485,12.5026371 3.07583558,12.4956556 C3.26112772,12.2985021 3.45435526,12.1096143 3.65531798,11.9291697 C3.70423282,11.885246 3.75385685,11.8416064 3.80393565,11.7984802 C3.82257194,11.7824328 3.84093031,11.7667455 3.85934898,11.7511272 C3.90936731,11.7087125 3.95991526,11.6667373 4.01090142,11.6252802 C4.03652437,11.604447 4.06208408,11.5838832 4.08775197,11.5634494 C4.11476629,11.5419445 4.14176953,11.5206857 4.16889029,11.4995707 C4.22779387,11.4537087 4.28744558,11.4083817 4.34764346,11.3637496 C4.36259334,11.3526663 4.37727588,11.3418464 4.39199059,11.3310678 C4.44144225,11.2948426 4.49141105,11.2589762 4.54173894,11.2235859 C4.56804553,11.2050884 4.59421847,11.1868805 4.62048689,11.1688013 C4.6957753,11.1169795 4.77219612,11.0659903 4.84938676,11.01609 C4.88867366,10.990693 4.92812923,10.9655974 4.96778104,10.9407862 C5.00617864,10.9167609 5.04460062,10.8930991 5.08320254,10.8697045 C5.10413392,10.8570193 5.1250553,10.8444501 5.14602886,10.8319594 C5.20875689,10.7946003 5.27211687,10.7578501 5.33593515,10.7218165 C5.35022757,10.7137473 5.36419452,10.7059086 5.37818323,10.6981041 C5.44289146,10.662 5.50833071,10.6264905 5.57422811,10.5917331 C5.60196974,10.5771 5.62997821,10.5625046 5.65806809,10.5480452 C5.70399595,10.5244049 5.74994456,10.5012253 5.79610521,10.4784097 C5.82142247,10.4658969 5.84663843,10.4535733 5.87191674,10.4413584 C6.21328547,10.2764038 6.56602471,10.1312711 6.92864014,10.0074546 C5.60862078,9.05433271 4.75,7.50243717 4.75,5.75 C4.75,2.85050506 7.10050506,0.5 10,0.5 Z M14.1281996,10.4427018 C17.3070834,11.9775006 19.5,15.2326587 19.5,19 C19.5,19.4142136 19.1642136,19.75 18.75,19.75 C18.3357864,19.75 18,19.4142136 18,19 C18,15.493536 15.7440755,12.5139714 12.6044272,11.433507 C13.1612585,11.1775629 13.6739904,10.8425851 14.1281996,10.4427018 Z M10,2 C7.92893219,2 6.25,3.67893219 6.25,5.75 C6.25,7.82106781 7.92893219,9.5 10,9.5 C12.0710678,9.5 13.75,7.82106781 13.75,5.75 C13.75,3.67893219 12.0710678,2 10,2 Z" id="path-1"></path>
    </defs>
    <g id="姓名1" stroke="none" stroke-width="1" fill="none" fill-rule="evenodd">
        <g id="Public/ic_public_contacts" transform="translate(2.000000, 1.995183)">
            <mask id="mask-2" fill="white">
                <use xlink:href="#path-1"></use>
            </mask>
            <use id="形状结合" fill="#4e4e4e" fill-rule="nonzero" xlink:href="#path-1"></use>
        </g>
    </g>
</svg>