<?xml version="1.0" encoding="UTF-8"?>
<svg width="45px" height="45px" viewBox="0 0 24 24" version="1.1" xmlns="http://www.w3.org/2000/svg" xmlns:xlink="http://www.w3.org/1999/xlink">
    <title>昵称1</title>
    <defs>
        <path d="M19.5343344,12.0393049 C20.6019715,13.1288222 20.6724629,14.7999856 19.7967513,16.2087887 L19.6771662,16.3909884 L19.5769873,16.5297013 C19.472546,16.6692179 19.3511911,16.8189598 19.2120969,16.9799489 L19.067059,17.1447249 L18.8092437,17.4248194 L18.5249446,17.7194627 L18.2568677,17.9868325 L18.0793199,18.1562553 L17.8618441,18.3567866 L17.5099019,18.6725872 L16.9692171,19.1463863 L16.546099,19.511523 C15.9823092,19.9956542 15.1738659,20.0272037 14.5771007,19.6056336 L14.4526287,19.5083615 L13.6545347,18.8140345 L13.2867844,18.4874908 L12.8585722,18.0959059 L12.6967279,17.9410742 L12.477647,17.7220897 L12.239114,17.4759023 C11.8871412,17.1058612 11.6024312,16.7742227 11.3917927,16.4876156 C10.3248181,15.0358272 10.3225692,13.2058279 11.4656656,12.0393049 C12.4842301,10.9998659 14.0513774,10.8113844 15.2679076,11.5322816 L15.3453469,11.5797047 L15.4920383,11.6783776 L15.6570868,11.8051184 L15.6570868,11.8051184 L15.8164708,11.9447559 L15.8824021,12.0083845 L16.2747772,12.4121023 L16.4975712,12.6475182 L16.7259446,12.8980055 C16.9825632,13.1886086 16.9598869,13.6336843 16.6745134,13.8961196 C16.410858,14.1385826 16.0150775,14.1408967 15.7512995,13.919604 L15.6763903,13.8465246 L15.5718761,13.7303684 L15.3939181,13.5391721 L15.173795,13.30872 L14.917699,13.0452666 L14.8518246,12.98093 C14.1711032,12.3477902 13.1219391,12.3711344 12.4677449,13.0387357 C11.8788213,13.6397288 11.8556579,14.6084887 12.4093132,15.474723 L12.5198859,15.6358256 L12.6104863,15.7556151 L12.8438809,16.0387349 L12.9766456,16.1897014 L12.9766456,16.1897014 L13.1192939,16.3462259 L13.3177507,16.556386 L13.5340781,16.7775854 L13.7054048,16.9476278 L14.0032245,17.2262415 L14.3254206,17.5166325 L14.8333314,17.9640637 L15.3693333,18.4287398 C15.4263035,18.4778442 15.5019017,18.4907224 15.5605779,18.4725885 L15.6008567,18.4532548 L15.6320276,18.4296282 L16.0150654,18.0992377 L16.4427151,17.7258267 L16.7988806,17.4090634 L17.0832809,17.1493176 L17.2470673,16.9943951 L17.5151534,16.7279048 L17.8429187,16.3868358 C18.1091768,16.1015997 18.3228299,15.8497506 18.4763119,15.6409139 C19.1450275,14.7310203 19.1579865,13.6772908 18.5322551,13.0387357 C18.2195399,12.7196117 17.8099417,12.5413616 17.3843645,12.5230648 L17.3381467,12.4613343 L17.3381467,12.4613343 L17.2881271,12.4015674 L17.0518013,12.1422173 L16.8195093,11.8965764 L16.4202338,11.4856636 L16.3372927,11.4050851 L16.2117349,11.2946566 L16.3943036,11.2385378 C17.4972776,10.896959 18.7055424,11.1935275 19.5343344,12.0393049 Z M10,2 C7.92893219,2 6.25,3.67893219 6.25,5.75 C6.25,7.82106781 7.92893219,9.5 10,9.5 C12.0710678,9.5 13.75,7.82106781 13.75,5.75 C13.75,3.67893219 12.0710678,2 10,2 Z M4.823,12.9 L4.80547435,12.915649 L4.80547435,12.915649 L4.777,12.939 L4.732,12.978 L4.71183994,12.9969226 C4.50885388,13.1758731 4.31501543,13.3649578 4.13111601,13.5633851 C4.04589409,13.6553265 3.96243951,13.7497088 3.88121813,13.8460357 L3.851,13.882 L3.83244993,13.9044325 L3.83244993,13.9044325 L3.793,13.952 L3.78433938,13.9631603 L3.756,13.998 L3.71713634,14.0471313 L3.71713634,14.0471313 L3.691,14.08 L3.65104365,14.1320194 L3.65104365,14.1320194 L3.64,14.146 L3.6302285,14.1592465 L3.6302285,14.1592465 L3.59,14.213 L3.563,14.248 L3.55522067,14.2594044 L3.48013133,14.3630365 L3.48013133,14.3630365 L3.469,14.378 L3.439,14.42 L3.41057013,14.4622451 C3.38829762,14.4945263 3.36625618,14.5269792 3.34444822,14.5596015 L3.271,14.672 L3.33557151,14.5729088 L3.33557151,14.5729088 L3.27052882,14.672214 L3.27052882,14.672214 L3.2661041,14.6790877 L3.204,14.777 L3.19846396,14.7861345 C3.047825,15.0287633 2.90980681,15.2800467 2.78532668,15.5390675 L2.73202934,15.652238 L2.73202934,15.652238 L2.719,15.68 L2.691,15.742 L2.69,15.744 L2.68045695,15.766368 L2.663,15.805 L2.629,15.884 L2.607,15.938 L2.583,15.995 L2.59700058,15.9620311 C2.58104357,16.0008742 2.56538337,16.0398706 2.55002281,16.0790174 L2.48816138,16.2419049 L2.48816138,16.2419049 L2.476,16.274 L2.461,16.316 L2.43507254,16.391028 L2.43507254,16.391028 L2.44778306,16.3544556 C2.3283501,16.6954204 2.23135483,17.0469304 2.15856787,17.4072151 L2.151,17.445 L2.133,17.536 L2.11054284,17.6670745 L2.11054284,17.6670745 L2.10515591,17.6996061 L2.10515591,17.6996061 L2.101,17.725 L2.092,17.779 L2.087,17.81 L2.073,17.913 L2.068,17.949 L2.054,18.062 L2.05357395,18.0691678 L2.05299271,18.0741978 L2.046,18.132 L2.04,18.195 L2.03757636,18.2196216 L2.03757636,18.2196216 L2.034,18.257 L2.038,18.219 L2.01789302,18.4606653 L2.01789302,18.4606653 L2.00447981,18.7297213 L2.00000155,18.9949669 L2.00000155,18.9949669 L2,19 C2,19.4142136 1.66421356,19.75 1.25,19.75 C0.835786438,19.75 0.5,19.4142136 0.5,19 C0.5,18.8017352 0.50607356,18.604889 0.518044775,18.4096372 L0.528556052,18.2579161 L0.528556052,18.2579161 C0.53178145,18.2161521 0.535306817,18.1741335 0.539104762,18.1321936 C0.543303818,18.0858234 0.547837887,18.0395322 0.552702995,17.9933397 C0.558293696,17.9402537 0.564331116,17.8872204 0.570803353,17.8343214 C0.575229453,17.7981399 0.579884755,17.7618288 0.584744453,17.7255825 C0.622489885,17.4441375 0.672479219,17.1669444 0.734202052,16.8942028 L0.739861341,16.8693514 C0.769055936,16.741945 0.800812311,16.6155157 0.835073362,16.4901205 C0.852170445,16.427544 0.869905425,16.3651772 0.888258007,16.3030754 C0.893917902,16.2839215 0.899706674,16.264561 0.905555414,16.2452266 C0.925162258,16.1804172 0.945369375,16.1161259 0.966237518,16.0521332 C0.978518918,16.0144652 0.991189421,15.9764302 1.00409304,15.9385029 C1.01922811,15.8940156 1.03470817,15.8496087 1.05050718,15.8053533 C1.06548764,15.7633928 1.08070504,15.721702 1.09620501,15.6801488 C1.15856089,15.5129683 1.22558959,15.3477908 1.29705187,15.1850009 L1.30104812,15.1759105 C1.39334643,14.9662555 1.49300182,14.7605698 1.5996873,14.5591803 C1.62434624,14.5126305 1.64943176,14.4662177 1.67489032,14.4200395 C1.69015586,14.3923492 1.70561238,14.3646425 1.72120314,14.3370216 L1.79194704,14.2138532 L1.79194704,14.2138532 C1.81803335,14.1692106 1.84457099,14.1246392 1.8714611,14.0803053 L1.92194779,13.9980134 L1.92194779,13.9980134 C1.97010425,13.9204031 2.01946772,13.843357 2.0699022,13.767081 C2.14677058,13.6508325 2.22600667,13.5365383 2.30764761,13.4241035 C2.32815439,13.3958621 2.3487845,13.3677763 2.36956474,13.3398086 C2.46075243,13.2170872 2.55468861,13.0968146 2.65140658,12.9789114 C2.67271322,12.9529364 2.6943064,12.9268956 2.7160354,12.9009726 C2.75430972,12.8553102 2.79303497,12.8099791 2.83217627,12.7650198 C2.85541135,12.738333 2.87856416,12.7120342 2.9018595,12.6858651 C3.13856872,12.4199389 3.39021286,12.1672079 3.65531798,11.9291697 C3.70423282,11.885246 3.75385685,11.8416064 3.80393565,11.7984802 C3.82257194,11.7824328 3.84093031,11.7667455 3.85934898,11.7511272 C3.90741091,11.7103715 3.95596829,11.6700162 4.00493061,11.6301391 C4.03248016,11.6077021 4.06005308,11.5855 4.08775197,11.5634494 C4.11476629,11.5419445 4.14176953,11.5206857 4.16889029,11.4995707 C4.22779387,11.4537087 4.28744558,11.4083817 4.34764346,11.3637496 L4.39199059,11.3310678 L4.39199059,11.3310678 L4.54173894,11.2235859 L4.54173894,11.2235859 C4.56804553,11.2050884 4.59421847,11.1868805 4.62048689,11.1688013 C4.69480412,11.117648 4.77023357,11.0673 4.84641346,11.0180129 C4.88935033,10.9902627 4.92846924,10.9653846 4.96778104,10.9407862 C5.00617864,10.9167609 5.04460062,10.8930991 5.08320254,10.8697045 C5.10413392,10.8570193 5.1250553,10.8444501 5.14602886,10.8319594 C5.20875689,10.7946003 5.27211687,10.7578501 5.33593515,10.7218165 C5.35022757,10.7137473 5.36419452,10.7059086 5.37818323,10.6981041 C5.44289146,10.662 5.50833071,10.6264905 5.57422811,10.5917331 C5.60196974,10.5771 5.62997821,10.5625046 5.65806809,10.5480452 C5.70399595,10.5244049 5.74994456,10.5012253 5.79610521,10.4784097 C5.82142247,10.4658969 5.84663843,10.4535733 5.87191674,10.4413584 C6.21328547,10.2764038 6.56602471,10.1312711 6.92864014,10.0074546 C5.60862078,9.05433271 4.75,7.50243717 4.75,5.75 C4.75,2.85050506 7.10050506,0.5 10,0.5 C12.8994949,0.5 15.25,2.85050506 15.25,5.75 C15.25,8.57700756 13.0155511,10.8821316 10.2164046,10.995621 L10,11 C9.16636264,11 8.36250656,11.1275088 7.6068709,11.3640872 L7.38164526,11.4383144 C7.21949559,11.4944527 7.05971244,11.5556595 6.90248528,11.6217452 L6.84601276,11.645739 L6.84601276,11.645739 L6.828,11.653 L6.80558694,11.6632314 C6.7733972,11.6772663 6.74131772,11.6915069 6.70935015,11.7059514 L6.79004922,11.6700257 L6.68029249,11.7191514 L6.68029249,11.7191514 L6.575,11.767 L6.561,11.774 L6.512,11.798 L6.469,11.819 L6.38,11.863 L6.44316672,11.8322081 C6.21615963,11.9450717 5.99527368,12.0684019 5.78114037,12.2015672 C5.73111937,12.2326772 5.6817579,12.264134 5.63276851,12.2961132 L5.46198423,12.4107482 L5.46198423,12.4107482 L5.2940475,12.5298381 L5.25279489,12.560095 L5.25279489,12.560095 L5.18840458,12.6081402 L5.18840458,12.6081402 L5.21128552,12.5909527 L5.11926545,12.6608576 L5.11926545,12.6608576 L5.08410288,12.6881263 L5.037,12.725 L4.99168224,12.7613059 L4.99168224,12.7613059 L4.945,12.798 L4.987,12.765 L4.904,12.832 L4.823,12.9 Z" id="path-1"></path>
    </defs>
    <g id="昵称1" stroke="none" stroke-width="1" fill="none" fill-rule="evenodd">
        <g id="Edit-Nickname" transform="translate(2.000000, 2.000000)">
            <mask id="mask-2" fill="white">
                <use xlink:href="#path-1"></use>
            </mask>
            <use id="形状结合" fill="#4e4e4e" fill-rule="nonzero" xlink:href="#path-1"></use>
        </g>
    </g>
</svg>