<?xml version="1.0" encoding="UTF-8"?>
<svg width="45px" height="45px" viewBox="0 0 24 24" version="1.1" xmlns="http://www.w3.org/2000/svg" xmlns:xlink="http://www.w3.org/1999/xlink">
    <title>备注1</title>
    <defs>
        <path d="M0.75,1.73660993 C0.335786438,1.73660993 0,1.40082349 0,0.986609933 C0,0.57239637 0.335786438,0.236609933 0.75,0.236609933 L19.25,0.236609933 C19.6642136,0.236609933 20,0.57239637 20,0.986609933 C20,1.40082349 19.6642136,1.73660993 19.25,1.73660993 L0.75,1.73660993 Z M0.75,9.98660993 C0.335786438,9.98660993 0,9.65082349 0,9.23660993 C0,8.82239637 0.335786438,8.48660993 0.75,8.48660993 L19.25,8.48660993 C19.6642136,8.48660993 20,8.82239637 20,9.23660993 C20,9.65082349 19.6642136,9.98660993 19.25,9.98660993 L0.75,9.98660993 Z M11.55,16.7375 C11.7985281,16.7375 12,17.0732864 12,17.4875 C12,17.9017136 11.7985281,18.2375 11.55,18.2375 L0.45,18.2375 C0.201471863,18.2375 0,17.9017136 0,17.4875 C0,17.0732864 0.201471863,16.7375 0.45,16.7375 L11.55,16.7375 Z" id="path-1"></path>
    </defs>
    <g  id="备注1" stroke="none" stroke-width="1" fill="none" fill-rule="evenodd">
        <g id="ic_contacts_detail_notes_s.svg" transform="translate(2.000000, 2.000000)">
            <g id="drawer" transform="translate(0.000000, 0.750000)" fill="#4e4e4e" fill-rule="nonzero">
                <path d="M0.75,1.73660993 C0.335786438,1.73660993 0,1.40082349 0,0.986609933 C0,0.57239637 0.335786438,0.236609933 0.75,0.236609933 L19.25,0.236609933 C19.6642136,0.236609933 20,0.57239637 20,0.986609933 C20,1.40082349 19.6642136,1.73660993 19.25,1.73660993 L0.75,1.73660993 Z M0.75,9.98660993 C0.335786438,9.98660993 0,9.65082349 0,9.23660993 C0,8.82239637 0.335786438,8.48660993 0.75,8.48660993 L19.25,8.48660993 C19.6642136,8.48660993 20,8.82239637 20,9.23660993 C20,9.65082349 19.6642136,9.98660993 19.25,9.98660993 L0.75,9.98660993 Z M11.55,16.7375 C11.7985281,16.7375 12,17.0732864 12,17.4875 C12,17.9017136 11.7985281,18.2375 11.55,18.2375 L0.45,18.2375 C0.201471863,18.2375 0,17.9017136 0,17.4875 C0,17.0732864 0.201471863,16.7375 0.45,16.7375 L11.55,16.7375 Z" id="path-1"></path>
            </g>
            <g id="color/light/#000000-Clipped" transform="translate(0.000000, 0.750000)">
                <mask id="mask-2" fill="white">
                    <use xlink:href="#path-1"></use>
                </mask>
                <g id="path-1"></g>
            </g>
        </g>
    </g>
</svg>