<?xml version="1.0" encoding="UTF-8"?>
<svg width="45px" height="45px" viewBox="0 0 24 24" version="1.1" xmlns="http://www.w3.org/2000/svg" xmlns:xlink="http://www.w3.org/1999/xlink">
    <title>网址1</title>
    <defs>
        <path d="M21.8606978,12.7553883 L21.8150774,13.0218052 C21.8041431,13.0805923 21.7927415,13.1392155 21.7808765,13.197671 L21.814645,13.0215394 C21.797325,13.1147814 21.7788288,13.2076103 21.7591725,13.3000101 L21.7808765,13.197671 C21.7592646,13.3041463 21.7361154,13.410065 21.711453,13.5154027 L21.7591725,13.3000101 C21.7324166,13.4257836 21.7035111,13.5507621 21.6724962,13.6749051 L21.6728407,13.6749178 C21.6359678,13.8211176 21.5965134,13.9661713 21.5541989,14.1100003 L21.5853699,14.0030135 C21.5596669,14.0937337 21.5328296,14.1839781 21.5048741,14.2737304 L21.5046885,14.2735485 C21.4260204,14.5268933 21.3382704,14.7761405 21.2419891,15.0211043 L21.3020192,14.8644526 C21.2612375,14.9731198 21.2187856,15.0809703 21.1746949,15.1879728 L21.2419891,15.0211043 C21.2027915,15.1208328 21.1621799,15.2198513 21.120179,15.3181351 L21.1746949,15.1879728 C21.1160115,15.33039 21.0544249,15.4713051 20.990009,15.6106444 L21.120179,15.3181351 C21.0626119,15.4528439 21.0024349,15.5861724 20.9397111,15.7180567 L20.990009,15.6106444 C20.9527887,15.6911563 20.9146237,15.771142 20.8755283,15.8505874 L20.9397111,15.7180567 C20.8907833,15.8209334 20.8403058,15.9229314 20.7883088,16.0240203 L20.8755283,15.8505874 C20.8176785,15.9681434 20.7577915,16.0845162 20.6959134,16.1996599 L20.7883088,16.0240203 C20.741583,16.1148614 20.6936301,16.2049684 20.644472,16.2943192 L20.6443771,16.2944391 C20.5846156,16.4031156 20.5229723,16.5107909 20.4595815,16.6173054 L20.4589878,16.6182772 C20.3914767,16.7317407 20.321355,16.8448361 20.2492652,16.9565423 L20.2491964,16.9566392 C20.1079652,17.1754925 19.9591041,17.3891058 19.8030501,17.597011 L19.8761601,17.4984729 C19.8094265,17.5894691 19.7413274,17.6794012 19.6718929,17.768239 L19.672095,17.7679804 C19.367082,18.1582285 19.0365369,18.52713 18.6828116,18.8723896 L18.5999169,18.9517188 L18.5999169,18.9517188 L18.488687,19.0573304 L18.2405212,19.2811947 C18.1684602,19.3442515 18.095569,19.4063829 18.0218659,19.4675703 L18.1954631,19.3204084 C18.1023127,19.4010356 18.0077943,19.4801247 17.9119476,19.5576363 L18.0218659,19.4675703 C17.945532,19.5309419 17.8683273,19.5933009 17.7902724,19.6546268 L17.7904468,19.6544898 C17.6578005,19.7587069 17.5228798,19.8598111 17.3856111,19.9578388 L17.6089679,19.7940625 C17.5174414,19.8629562 17.4248049,19.9304543 17.33109,19.9965251 L17.3856111,19.9578388 C17.2946872,20.0227703 17.202733,20.086352 17.1097779,20.1485546 L17.33109,19.9965251 C17.2368093,20.0629947 17.1414371,20.1280198 17.0450056,20.1915681 L17.1097779,20.1485546 C16.9969754,20.2240384 16.8826989,20.2974914 16.7670007,20.3688611 L17.0450056,20.1915681 C16.9347579,20.2642212 16.8231255,20.3349441 16.7101567,20.4036886 L16.7670007,20.3688611 C16.6808074,20.4220304 16.5938252,20.4740435 16.5060755,20.5248788 L16.7101567,20.4036886 C16.5993016,20.4711469 16.4871594,20.5367002 16.3737758,20.6003031 L16.3737735,20.6003044 C16.2184532,20.6874316 16.0608008,20.7709 15.9009354,20.8505912 C15.7702236,20.9157467 15.6382217,20.9782919 15.5048082,21.0382556 L15.7026938,20.9469352 C15.6096883,20.9909837 15.5159663,21.0337663 15.4215501,21.0752606 L15.5048082,21.0382556 C15.3928452,21.0885783 15.279888,21.1370827 15.1659744,21.1837314 L15.4215501,21.0752606 C15.3196767,21.1200322 15.2169951,21.1633041 15.1135332,21.2050481 L15.1659744,21.1837314 C15.0530299,21.2299833 14.9391451,21.2744108 14.8243566,21.3169774 L15.1135332,21.2050481 C14.9798041,21.2590042 14.8447714,21.310408 14.7084954,21.359199 L14.8243566,21.3169774 C14.702845,21.362037 14.5803208,21.4050114 14.4568275,21.4458569 L14.7084954,21.359199 C14.6103884,21.3943243 14.511637,21.4280956 14.4122638,21.4604902 L14.4568275,21.4458569 C14.352237,21.4804503 14.2469514,21.5135167 14.140997,21.5450298 L14.140426,21.5451996 C14.015565,21.5823359 13.8891958,21.617465 13.7619331,21.6503734 L14.0234498,21.5792743 C13.8982844,21.6149777 13.7722079,21.6485198 13.645263,21.6798577 L13.7619331,21.6503734 C13.6439897,21.6808719 13.5252789,21.709463 13.4058355,21.7361117 L13.645263,21.6798577 C13.5335476,21.7074361 13.4211597,21.7333073 13.3081286,21.7574422 L13.4058355,21.7361117 C13.295103,21.760817 13.183741,21.783853 13.0717771,21.8051918 L13.0720005,21.8051493 C12.9280035,21.8325932 12.7832376,21.8571961 12.6375382,21.8789418 L12.9098264,21.8347979 C12.7859029,21.8564914 12.6612658,21.8761107 12.5359523,21.8936187 L12.6375382,21.8789418 C12.5337886,21.8944264 12.4295657,21.9084622 12.3248907,21.921028 L12.3250512,21.9210087 C11.8905388,21.9731701 11.4484026,22 11,22 C10.5846593,22 10.1746951,21.9769807 9.77131351,21.9321483 L9.77208521,21.9309476 L9.41626202,21.8868354 C9.40961481,21.8858769 9.40296952,21.8849125 9.39632616,21.8839421 C9.02457434,21.8286948 8.65839279,21.7558375 8.29925133,21.6653023 L8.29905764,21.6659573 C7.94612303,21.576283 7.59980105,21.4701726 7.26121194,21.3479046 L7.26122119,21.3483062 C7.0158963,21.2593185 6.7746399,21.1622508 6.53779514,21.0570562 L6.64868333,21.105834 C6.53990392,21.0589336 6.43203215,21.0103283 6.32510171,20.9600517 L6.53779514,21.0570562 C6.44454472,21.015639 6.35197816,20.9729621 6.26011699,20.929047 L6.32510171,20.9600517 C6.23040136,20.9155255 6.13643931,20.8696884 6.04323895,20.8225638 L6.26011699,20.929047 C6.15720555,20.8798493 6.0551794,20.8290977 5.95406877,20.7768226 L5.95459866,20.7772384 L5.68269897,20.6317645 C5.6621571,20.6204 5.64165544,20.6089716 5.62119426,20.5974798 C5.41877753,20.483705 5.22078859,20.3641072 5.02700154,20.238575 L5.02749339,20.2389371 C4.82473482,20.1075498 4.62704576,19.9700595 4.43422581,19.8263975 L4.49548189,19.8717236 C4.40586318,19.8059065 4.3172783,19.7387642 4.22975613,19.6703255 L4.43422581,19.8263975 C4.34477012,19.7597479 4.25636244,19.6917699 4.16903185,19.6224929 L4.22975613,19.6703255 C4.15334722,19.6105769 4.07774828,19.5498402 4.00297853,19.4881348 L4.0030352,19.4881788 C3.94255136,19.4382658 3.88266578,19.3877641 3.82333193,19.3366397 C3.68975753,19.2215309 3.55952605,19.1037846 3.43218176,18.9830235 C3.03492073,18.6062559 2.66615846,18.2006553 2.32889076,17.7692415 L2.38279989,17.837203 C2.30275494,17.736499 2.22443862,17.6343552 2.14789594,17.5308166 L2.14754768,17.5306778 C1.92526467,17.2296652 1.71763822,16.916714 1.52612399,16.5930732 L1.54160948,16.6192804 C1.47802578,16.5124864 1.41619938,16.4045242 1.35617016,16.2954338 L1.52612399,16.5930732 C1.44947348,16.4635412 1.37540395,16.3322968 1.3039864,16.1994112 L1.35617016,16.2954338 C1.30743229,16.206863 1.2598791,16.1175485 1.21353193,16.0275116 L1.3039864,16.1994112 C1.24220916,16.0844632 1.18241626,15.9682872 1.12465365,15.8509292 L1.21353193,16.0275116 C1.1608886,15.9252433 1.10980122,15.8220431 1.06030108,15.7179422 L1.12465365,15.8509292 C1.08544035,15.7712584 1.04716273,15.6910429 1.00983519,15.6102971 L1.06030108,15.7179422 C0.997505844,15.5858811 0.937264961,15.4523705 0.879642299,15.3174742 L1.00983519,15.6102971 C0.945500808,15.4711308 0.883988589,15.3303894 0.825372138,15.1881464 L0.879642299,15.3174742 C0.837732437,15.219362 0.797207582,15.1205169 0.758092307,15.0209633 L0.825372138,15.1881464 C0.782784961,15.0848012 0.741726344,14.9806635 0.702224516,14.8757615 L0.702143391,14.8755262 C0.570928602,14.5270888 0.456831473,14.1699727 0.360969711,13.8054522 L0.394858659,13.9312359 C0.356011846,13.7903767 0.319896193,13.6483848 0.286572245,13.5053207 L0.360969711,13.8054522 C0.327430473,13.6779171 0.29612342,13.5494756 0.267092944,13.4201723 L0.286572245,13.5053207 C0.261992046,13.3997947 0.238930741,13.2936854 0.217412626,13.187017 L0.267092944,13.4201723 C0.237495064,13.2883417 0.210263624,13.1556152 0.185445673,13.02204 L0.217412626,13.187017 C0.188587049,13.0441245 0.162530754,12.9002288 0.139302152,12.7553883 L0.139285305,12.7552917 C0.11807069,12.6230008 0.0992015865,12.489824 0.0827394418,12.3559026 C0.0807308191,12.3395566 0.0788463312,12.3239412 0.0769945943,12.3083157 L0.0827394418,12.3559026 C0.0690260163,12.2443422 0.0569828651,12.1322651 0.0466357708,12.019697 L0.0769945943,12.3083157 C0.0612019051,12.1750525 0.0477914147,12.0410587 0.0368069806,11.9063783 L0.0368354345,11.9067266 L0.0145131985,11.5699916 L0.0145131985,11.5699916 L0.00370740462,11.2884075 L0.00370740462,11.2884075 L0,11 C0,10.5698503 0.0246900681,10.1454673 0.0727303337,9.72819088 L0.0721179158,9.72781229 C0.0897761243,9.58013161 0.10976169,9.43296704 0.132627175,9.28675704 L0.125552659,9.32894449 C0.134582734,9.26978477 0.144083927,9.21077949 0.154052298,9.15193264 L0.132627175,9.28675704 C0.148932754,9.1824934 0.166702842,9.07871517 0.185915733,8.97544408 L0.154052298,9.15193264 C0.174301848,9.03239233 0.196479209,8.91350576 0.220551352,8.79530621 L0.185915733,8.97544408 C0.211460106,8.83814067 0.239554903,8.7017337 0.270149111,8.56627418 L0.269712107,8.56646001 C0.322074184,8.33636969 0.381198943,8.10919438 0.447273993,7.88499764 L0.415482024,7.99398139 C0.442270122,7.89953408 0.470287851,7.80560272 0.499516854,7.71220584 L0.447273993,7.88499764 C0.490866589,7.73708526 0.537484381,7.59046933 0.587055752,7.44522148 L0.586744251,7.44555104 C0.624385536,7.3358424 0.663390253,7.22723914 0.704039322,7.11944228 L0.641864922,7.28804136 C0.680537597,7.18018245 0.720846507,7.07310169 0.762761804,6.96682919 L0.704039322,7.11944228 C0.748061659,7.00269987 0.794012585,6.88690326 0.841853252,6.77209129 L0.762761804,6.96682919 C0.800487501,6.87117904 0.839514503,6.77618364 0.879821047,6.68186492 L0.841853252,6.77209129 C0.895537854,6.64325455 0.951602075,6.5156577 1.00999102,6.38935563 L0.879821047,6.68186492 C0.949672687,6.51840965 1.0233672,6.35698668 1.10079132,6.19771019 L1.00999102,6.38935563 C1.05395813,6.29424968 1.09924339,6.19987789 1.14582336,6.10626369 L1.10079132,6.19771019 C1.13694839,6.12332803 1.17391886,6.049414 1.21169116,5.97597971 L1.14582336,6.10626369 C1.2095313,5.97822653 1.27566119,5.85160655 1.34415305,5.72646372 L1.21169116,5.97597971 C1.26105562,5.8800088 1.3117896,5.78485729 1.36386737,5.69055113 L1.34415305,5.72646372 C1.40588002,5.61368115 1.46952543,5.50209834 1.53504538,5.39175918 L1.36386737,5.69055113 C1.42528075,5.57933938 1.48856288,5.46930324 1.55367152,5.36048527 L1.53504538,5.39175918 C1.59961972,5.28301251 1.66601488,5.17547385 1.73418884,5.06918523 L1.55367152,5.36048527 C1.62028844,5.24914648 1.68881747,5.13908295 1.75921339,5.03034028 L1.75913726,5.0304671 C1.9027896,4.8085538 2.05413163,4.5922618 2.21285568,4.38185108 L2.13345739,4.48843311 C2.197113,4.40190136 2.26200494,4.31633532 2.32810713,4.23176104 L2.32790503,4.23201961 C2.63291805,3.8417715 2.96346312,3.47286997 3.31718839,3.12761041 L3.40008308,3.04828119 L3.40008308,3.04828119 C3.67240897,2.7878096 3.95810237,2.54120291 4.25603005,2.30959121 L4.17177599,2.3753254 C4.25820632,2.30680541 4.34569059,2.23955708 4.43420053,2.17360869 L4.25603005,2.30959121 C4.3350687,2.24814583 4.41496842,2.18775583 4.49570805,2.12844229 L4.49548189,2.12827637 C4.6900681,1.98566007 4.88929525,1.84911581 5.09309434,1.71910383 L5.09306692,1.71891438 C5.2657588,1.60895395 5.44170498,1.50349292 5.62075339,1.40289975 C5.73117344,1.34075119 5.84232208,1.2808178 5.95459866,1.22276161 L5.68301316,1.3681864 C5.80163837,1.30255021 5.92160544,1.2390428 6.04286278,1.17771562 L5.95459866,1.22276161 C6.05552277,1.17057557 6.15735825,1.1199063 6.26007494,1.07078397 L6.04286278,1.17771562 C6.13620977,1.13050439 6.23032141,1.08458524 6.32517418,1.03998161 L6.26007494,1.07078397 C6.35964886,1.0231646 6.46005089,0.976998952 6.56125355,0.9323145 L6.56080949,0.932563149 C6.68110532,0.879395827 6.80207999,0.82855454 6.9241319,0.779836278 C6.96769007,0.762483307 7.01122361,0.745428308 7.05489135,0.728643833 L6.9241319,0.779836278 C7.03397211,0.735992447 7.14468478,0.693868061 7.25623666,0.653496384 L7.05489135,0.728643833 C7.14143119,0.695380702 7.22849811,0.663180045 7.31607612,0.632057809 L7.25623666,0.653496384 C7.37337009,0.611104695 7.4914288,0.570645498 7.6103743,0.532157303 L7.31607612,0.632057809 C7.42293064,0.594085357 7.53054599,0.557718308 7.63889313,0.522985628 L7.63851478,0.523093742 L7.9430819,0.430330313 C8.05402562,0.398300512 8.16569015,0.36797017 8.27804549,0.339369302 L8.08423968,0.390609113 C8.17988354,0.364382146 8.27604815,0.339414079 8.37271457,0.315723805 L8.27804549,0.339369302 C8.38643926,0.311776878 8.49547599,0.285794117 8.60512871,0.261447971 L8.37271457,0.315723805 C8.48963007,0.287071042 8.60727963,0.260287469 8.72562973,0.235406518 L8.60512871,0.261447971 C8.70330775,0.239649321 8.80198062,0.219162705 8.90112797,0.200007468 L8.90143127,0.199949631 C9.05020547,0.171205744 9.20035567,0.145414 9.35151283,0.122697996 L9.15431117,0.154170852 C9.2705512,0.134532739 9.38741104,0.116718047 9.50486019,0.100757177 L9.35151283,0.122697996 C9.45391994,0.107308183 9.55678923,0.0933301029 9.66010025,0.0807842029 L9.65988534,0.0808103058 C10.0992746,0.0274516821 10.5464315,0 11,0 C11.4153407,0 11.8253049,0.0230192954 12.2286865,0.0678516914 L12.2279148,0.0690523662 L12.583738,0.113164609 C12.5903852,0.114123095 12.5970305,0.115087525 12.6036738,0.116057893 C12.9754257,0.171305235 13.3416072,0.24416246 13.7007487,0.334697669 L13.7009424,0.334042707 C14.053877,0.423717034 14.4001989,0.52982737 14.7387881,0.652095431 L14.7387788,0.651693806 C14.9761338,0.737803467 15.2096798,0.831451078 15.4391069,0.932716809 L15.3513167,0.894165987 C15.4600961,0.941066364 15.5679678,0.989671685 15.6748983,1.03994829 L15.4391069,0.932716809 C15.540174,0.977326334 15.6404418,1.02341421 15.739883,1.07095296 L15.6748983,1.03994829 C15.7695986,1.08447454 15.8635607,1.13031163 15.956761,1.17743618 L15.739883,1.07095296 C15.8427945,1.12015069 15.9448206,1.17090232 16.0459312,1.2231774 L15.956761,1.17743618 C16.0779142,1.23869437 16.1977802,1.3021281 16.3163077,1.36768601 L16.3170202,1.3681863 C16.337182,1.37923163 16.3580148,1.39084313 16.3788057,1.40252023 C16.5742102,1.512357 16.7654562,1.6275941 16.9527953,1.74836901 L16.9526694,1.74824293 C17.1621057,1.88330852 17.3665392,2.02516096 17.5657742,2.17360249 L17.5045181,2.12827637 C17.5852416,2.18756072 17.6651263,2.2479203 17.7441512,2.30933399 L17.5657742,2.17360249 C17.6552299,2.24025212 17.7436376,2.3082301 17.8309681,2.37750711 L17.7441512,2.30933399 C17.829452,2.37562506 17.913751,2.44314432 17.9970215,2.51186524 L17.9969648,2.51182124 C18.0370585,2.54490669 18.0768577,2.57822594 18.1164162,2.61182002 C18.2617498,2.73524737 18.4036328,2.86219424 18.5421304,2.99269448 C19.0193736,3.44238403 19.4563882,3.93422409 19.847251,4.46228933 C20.0715517,4.7655382 20.2808939,5.08080539 20.473876,5.40692678 L20.4356184,5.34264681 C20.4974164,5.44549539 20.5575805,5.54943751 20.6160747,5.65443725 L20.6155889,5.65364563 C20.6745534,5.75940921 20.7313632,5.86543823 20.7864681,5.97248844 L20.6825761,5.77566311 C20.7415686,5.88475316 20.7987713,5.99495568 20.8541448,6.10623114 L20.7864681,5.97248844 C20.8249543,6.04725424 20.862609,6.12251817 20.8994198,6.19826799 L20.8541448,6.10623114 C20.9007907,6.19996825 20.9461386,6.29446674 20.9901648,6.38970295 L20.8994198,6.19826799 C20.9768359,6.35757605 21.0505198,6.51903322 21.1203577,6.68252581 L20.9901648,6.38970295 C21.0484827,6.51585454 21.1044817,6.64330056 21.1581068,6.77198603 L21.1203577,6.68252581 C21.1605844,6.77669754 21.199535,6.87154458 21.237188,6.96704519 L21.1581068,6.77198603 C21.2059414,6.88677592 21.2518872,7.00255205 21.2959052,7.11927541 L21.2959607,7.11944228 C21.3801629,7.34270309 21.4573573,7.56960143 21.5272153,7.79969685 L21.5142364,7.75728361 C21.5421694,7.84795988 21.5689617,7.93913622 21.5945965,8.0307959 L21.5272153,7.79969685 C21.5653825,7.92541024 21.6013598,8.05207796 21.6351027,8.1796554 L21.5945965,8.0307959 C21.637471,8.1840978 21.6771075,8.33875173 21.7134278,8.49467928 L21.6351027,8.1796554 C21.6689162,8.30750012 21.700486,8.43625837 21.7297672,8.56588525 L21.7134278,8.49467928 C21.736625,8.59426829 21.7584695,8.69437684 21.7789408,8.79498451 L21.7297672,8.56588525 C21.7597655,8.6986868 21.7873618,8.83240004 21.8125079,8.9669767 L21.7789408,8.79498451 C21.8030495,8.91346855 21.8252537,9.03264484 21.8455199,9.15248001 L21.8125079,8.9669767 C21.8322033,9.0723825 21.8503955,9.17831797 21.8670615,9.28475992 L21.8455199,9.15248001 C21.8704212,9.29972263 21.8923967,9.44795998 21.9113847,9.59713021 L21.8670615,9.28475992 C21.88653,9.40910038 21.9039157,9.53413197 21.9191819,9.65981772 L21.9113847,9.59713021 C21.9273067,9.72221426 21.941128,9.84795425 21.9528121,9.97431369 L21.9191819,9.65981772 C21.9366439,9.80358162 21.9513327,9.9482014 21.963193,10.0936217 L21.9528121,9.97431369 C21.9636012,10.0909942 21.972568,10.2082029 21.9796838,10.325911 L21.9796834,10.3259045 C21.9931628,10.5488803 22,10.7736417 22,11 C22,11.4146519 21.977057,11.8239451 21.9323712,12.2266796 L21.95075,12.0552293 C21.9391504,12.1767853 21.9255731,12.2977669 21.9100505,12.4181413 L21.9323712,12.2266796 C21.9151517,12.3818718 21.8947035,12.5360901 21.8710954,12.6892658 L21.9100505,12.4181413 C21.895465,12.5312495 21.8791619,12.6438216 21.8611683,12.7558304 L21.8606978,12.7553883 Z M11,16.5 C10.1899644,16.5 9.39723272,16.5740868 8.62821133,16.7158539 C9.19530233,18.09222 9.96132303,19.3647673 10.8902125,20.4987533 L11,20.5 L11,20.5 L11.109,20.498 L11.1785252,20.4142172 C12.0765105,19.3016509 12.8187554,18.0581456 13.372125,16.7168361 C12.6027673,16.5740868 11.8100356,16.5 11,16.5 Z M7.15519518,17.0771997 L6.89099453,17.1627486 C6.13085399,17.4157971 5.40191285,17.7371328 4.71144739,18.1194794 C5.86871063,19.1437459 7.277895,19.8890964 8.83403853,20.2519755 C8.1660436,19.2643623 7.60067073,18.2010707 7.15519518,17.0771997 Z M14.8449099,17.0779755 L14.7326617,17.3527915 C14.3057877,18.3751587 13.7789881,19.3453941 13.1644668,20.2512937 C14.722105,19.8890964 16.1312894,19.1437459 17.289022,18.1204167 C16.5184975,17.6930599 15.7005854,17.3425273 14.8449099,17.0779755 Z M6.01676176,11.7504414 L1.52922998,11.750755 C1.68447441,13.7365152 2.4502877,15.5508035 3.63907697,17.006027 C4.58503835,16.4462172 5.59977401,15.9921794 6.66759555,15.6582993 C6.30025492,14.4106367 6.07724681,13.1016849 6.01676176,11.7504414 Z M20.47077,11.750755 L15.9832382,11.7504414 C15.9227532,13.1016849 15.6997451,14.4106367 15.3332919,15.6582188 C16.400226,15.9921794 17.4149617,16.4462172 18.3607795,17.0045807 C19.5497123,15.5508035 20.3155256,13.7365152 20.47077,11.750755 Z M14.4815499,11.7505349 L7.5184501,11.7505349 C7.5786996,12.9732041 7.78534369,14.157376 8.1212205,15.2858887 C9.05228716,15.0982822 10.0146661,15 11,15 C11.9853339,15 12.9477128,15.0982822 13.8778683,15.2855781 C14.2146563,14.157376 14.4213004,12.9732041 14.4815499,11.7505349 Z M3.63922055,4.99541928 L3.60960946,5.03022551 C2.43743852,6.47952387 1.68293246,8.2805506 1.52915184,10.2502451 L6.01671701,10.250559 C6.07713675,8.89896113 6.30016449,7.58967115 6.66670805,6.34178123 C5.59977401,6.0078206 4.58503835,5.55378278 3.63922055,4.99541928 Z M13.8787795,6.71411134 L13.7729403,6.73514576 C12.8753988,6.90896095 11.9483311,7 11,7 C10.0146661,7 9.05228716,6.90171785 8.12213166,6.71442192 C7.78525189,7.84293242 7.57858664,9.02744319 7.51840073,10.2504677 L14.4815993,10.2504677 C14.4214134,9.02744319 14.2147481,7.84293242 13.8787795,6.71411134 Z M18.360923,4.99397299 L18.2334495,5.06971753 C17.3240783,5.59416009 16.3524629,6.02275487 15.3324044,6.34170075 C15.6998355,7.58967115 15.9228633,8.89896113 15.983283,10.250559 L20.4708482,10.2502451 C20.3157827,8.26409397 19.5499119,6.4494408 18.360923,4.99397299 Z M11,1.5 L10.89,1.501 L10.8214748,1.58578282 C9.92348948,2.69834908 9.18124464,3.94185436 8.62787505,5.28316393 C9.39723272,5.42591324 10.1899644,5.5 11,5.5 C11.8100356,5.5 12.6027673,5.42591324 13.3717887,5.28414612 C12.8046977,3.90778002 12.038677,2.63523271 11.1097875,1.50124667 C11.0729903,1.50020606 11.0365192,1.5 11,1.5 Z M8.83553317,1.74870625 L8.64150768,1.79505864 C7.1616329,2.17310191 5.82077528,2.89862453 4.71097804,3.87958327 C5.48150247,4.30694012 6.2994146,4.65747267 7.15509012,4.92202453 C7.60067073,3.79892927 8.1660436,2.73563773 8.83553317,1.74870625 Z M13.1659615,1.74802452 L13.3268937,1.99278006 C13.9257813,2.91025173 14.4358222,3.89099561 14.8448048,4.92280025 C15.7005854,4.65747267 16.5184975,4.30694012 17.2885526,3.88052055 C16.1312894,2.85625409 14.722105,2.11090363 13.1659615,1.74802452 Z" id="path-1"></path>
    </defs>
    <g id="网址1" stroke="none" stroke-width="1" fill="none" fill-rule="evenodd">
        <g id="Public/ic_public_worldclock" transform="translate(1.000000, 1.000000)">
            <mask id="mask-2" fill="white">
                <use xlink:href="#path-1"></use>
            </mask>
            <use id="Combined-Shape" fill="#4e4e4e" xlink:href="#path-1"></use>
        </g>
    </g>
</svg>